<svg width="39" height="36" viewBox="0 0 39 36" fill="none" xmlns="http://www.w3.org/2000/svg">
<path d="M0.146679 18.6892L0.288942 18.4657L8.86449 5.05037C8.98976 4.8539 9.28446 4.87427 9.37925 5.08759C10.8119 8.29839 12.0481 12.2915 11.469 14.7774C11.2217 15.8002 10.5444 17.1855 9.78231 18.4657C9.68407 18.652 9.57573 18.8349 9.46057 19.011C9.40636 19.0923 9.31494 19.1397 9.2167 19.1397H0.397287C0.160231 19.1397 0.0214111 18.8823 0.146679 18.6892Z" fill="black"/>
<path d="M38.8256 22.4749V24.5163C38.8256 24.6335 38.7544 24.7377 38.6509 24.7832C38.0167 25.0568 35.8457 26.0596 34.943 27.3228C32.6394 30.5493 30.8793 35.1628 26.9449 35.1628H10.5315C4.71408 35.1628 0 30.4028 0 24.5293V24.3404C0 24.1842 0.126176 24.0572 0.281534 24.0572H9.43137C9.61255 24.0572 9.74524 24.2265 9.72907 24.4056C9.66434 25.0047 9.77435 25.6168 10.0558 26.1735C10.5994 27.2837 11.7254 27.9772 12.9419 27.9772H17.4715V24.4186H12.9936C12.7639 24.4186 12.628 24.1516 12.7607 23.9628C12.8092 23.8879 12.8642 23.8097 12.9225 23.7219C13.3463 23.1163 13.9513 22.1753 14.5532 21.1042C14.964 20.3814 15.362 19.6097 15.6823 18.8349C15.747 18.6949 15.7988 18.5517 15.8505 18.4116C15.9379 18.1642 16.0285 17.933 16.0932 17.7019C16.1579 17.5065 16.2097 17.3014 16.2615 17.1093C16.4135 16.4516 16.4783 15.7549 16.4783 15.0321C16.4783 14.7488 16.4653 14.4526 16.4394 14.1693C16.4265 13.86 16.3876 13.5507 16.3488 13.2414C16.3229 12.9679 16.2744 12.6977 16.2226 12.4144C16.1579 12.0009 16.0673 11.5907 15.9638 11.1772L15.9282 11.0209C15.8505 10.7377 15.7859 10.4674 15.6953 10.1842C15.4397 9.29534 15.1452 8.42929 14.8346 7.6186C14.7214 7.29629 14.5919 6.987 14.4625 6.6777C14.2716 6.21208 14.0775 5.78885 13.8996 5.38836C13.809 5.20604 13.7313 5.03999 13.6537 4.87069C13.5664 4.67858 13.4757 4.48654 13.3852 4.30415C13.3204 4.16415 13.246 4.03395 13.1943 3.90374L12.641 2.87488C12.5633 2.73488 12.6928 2.56883 12.8448 2.61115L16.3067 3.55536H16.3165C16.3229 3.55536 16.3262 3.5586 16.3294 3.5586L16.7856 3.68557L17.2871 3.82881L17.4715 3.88092V1.81025C17.4715 0.810691 18.2675 0 19.2511 0C19.7428 0 20.1893 0.201827 20.5096 0.530695C20.8299 0.859562 21.0305 1.30885 21.0305 1.81025V4.88372L21.3993 4.98787C21.4285 4.99766 21.4576 5.01069 21.4835 5.0302C21.5741 5.09858 21.7035 5.19956 21.8685 5.32322C21.998 5.42744 22.1371 5.55441 22.3053 5.68462C22.6386 5.9549 23.0365 6.30327 23.4733 6.70369C23.5898 6.80467 23.7031 6.90883 23.8066 7.01305C24.3696 7.54044 25.0004 8.15909 25.6023 8.84281C25.7705 9.03485 25.9355 9.2302 26.1038 9.43533C26.272 9.64371 26.45 9.84885 26.6053 10.054C26.8091 10.3274 27.0291 10.6107 27.22 10.907C27.3106 11.047 27.4141 11.1902 27.5015 11.3302C27.7473 11.7047 27.9642 12.0921 28.1712 12.4795C28.2586 12.6586 28.3492 12.8539 28.4268 13.046C28.6565 13.5637 28.8377 14.0912 28.9542 14.6186C28.9898 14.7326 29.0157 14.8563 29.0286 14.967V14.993C29.0674 15.1493 29.0803 15.3154 29.0933 15.4847C29.1451 16.0251 29.1192 16.5656 29.0027 17.1093C28.9542 17.3405 28.8895 17.5586 28.8118 17.7898C28.7342 18.0112 28.6565 18.2423 28.5563 18.4605C28.3621 18.913 28.1324 19.3656 27.8606 19.7888C27.7732 19.9451 27.6697 20.1111 27.5662 20.2674C27.4529 20.4335 27.3365 20.5898 27.2329 20.7428C27.0906 20.9382 26.9385 21.1432 26.7832 21.3256C26.6441 21.5177 26.5017 21.7098 26.3464 21.8791C26.1297 22.1362 25.9226 22.3805 25.7058 22.6149C25.5764 22.7679 25.4373 22.9242 25.2949 23.0642C25.1557 23.2205 25.0134 23.3605 24.884 23.4907C24.6672 23.7088 24.486 23.8781 24.3339 24.0181L23.978 24.347C23.9263 24.3925 23.8583 24.4186 23.7872 24.4186H21.0305V27.9772H24.499C25.2755 27.9772 26.0131 27.7005 26.6085 27.1926C26.8123 27.0135 27.7021 26.2386 28.7536 25.0698C28.7892 25.0307 28.8345 25.0014 28.8862 24.9884L38.4664 22.2014C38.6444 22.1493 38.8256 22.286 38.8256 22.4749Z" fill="black"/>
</svg>
