<svg width="149" height="30" viewBox="0 0 149 30" fill="none" xmlns="http://www.w3.org/2000/svg">
<path d="M10.0849 8.72548C8.29397 8.72548 6.73516 9.35412 5.70701 10.4791V0.718584C5.70701 0.0237722 5.20952 -0.174747 4.51303 0.156118L1.09692 1.77735C0.599425 2.00895 0.433594 2.1413 0.433594 2.43908V2.53833C0.433594 3.26623 1.85974 3.36549 1.85974 4.78821V22.1585C1.85974 23.482 0.599424 23.6805 0.599424 24.3753V24.4746C0.599424 24.7724 0.831587 24.9378 1.19641 24.9378L4.77836 25.004C5.20952 25.004 5.44168 24.8054 5.44168 24.3753L5.40851 23.1842C6.53616 24.5077 8.12814 25.2687 10.1181 25.2687C14.297 25.2687 17.7795 21.7615 17.7795 16.7324C17.7795 11.7033 14.0649 8.72548 10.0849 8.72548ZM9.65378 24.0114C7.63065 24.0114 5.70701 21.7284 5.70701 19.3131V13.7215C5.70701 11.604 7.26582 9.98276 9.12312 9.98276C11.9754 9.98276 13.8659 13.2252 13.8659 17.9566C13.8659 21.8277 12.2739 24.0114 9.65378 24.0114Z" fill="#4C4C44"/>
<path d="M20.504 24.9378H25.5453C25.9764 24.9378 26.2749 24.7393 26.2749 24.4415V24.3422C26.2749 23.5813 24.9151 23.482 24.9151 22.1916V0.685499C24.9151 0.189204 24.484 -0.207833 23.7211 0.156118L20.3714 1.81043C20.0397 1.97587 19.8075 2.10821 19.8075 2.40599V2.50525C19.8075 3.1008 21.0347 3.36549 21.0347 4.75512V22.1916C21.0347 23.482 19.8075 23.5813 19.8075 24.3422V24.4415C19.8075 24.7393 20.0729 24.9378 20.504 24.9378Z" fill="#4C4C44"/>
<path d="M37.2143 25.2687C42.0234 25.2687 45.2074 21.6292 45.2074 17.0963C45.2074 12.5304 41.6918 8.72548 36.4515 8.72548C31.9077 8.72548 28.2263 12.1334 28.2263 16.8316C28.2263 21.2321 31.5761 25.2687 37.2143 25.2687ZM37.7118 24.0114C34.362 24.0114 32.1399 19.644 32.1399 15.5413C32.1399 11.9018 33.6655 9.98276 36.0203 9.98276C39.0716 9.98276 41.2938 13.8208 41.2938 18.4529C41.2938 22.0262 39.7681 24.0114 37.7118 24.0114Z" fill="#4C4C44"/>
<path d="M56.1942 25.2687C61.0033 25.2687 64.1872 21.6292 64.1872 17.0963C64.1872 12.5304 60.6716 8.72548 55.4313 8.72548C50.8876 8.72548 47.2061 12.1334 47.2061 16.8316C47.2061 21.2321 50.5559 25.2687 56.1942 25.2687ZM56.6917 24.0114C53.3419 24.0114 51.1197 19.644 51.1197 15.5413C51.1197 11.9018 52.6454 9.98276 55.0002 9.98276C58.0515 9.98276 60.2736 13.8208 60.2736 18.4529C60.2736 22.0262 58.748 24.0114 56.6917 24.0114Z" fill="#4C4C44"/>
<path d="M93.4486 22.1585L93.0506 16.0376C92.6857 10.6114 90.0324 8.72548 86.8485 8.72548C84.5269 8.72548 82.5369 9.91659 81.6746 12.001C80.5469 9.8835 78.4575 8.72548 76.0695 8.72548C74.0132 8.72548 72.2886 9.78424 71.3267 11.4055V9.45338C71.3267 8.89091 70.9619 8.49388 70.2654 8.85783L66.8825 10.4129C66.5176 10.5783 66.2855 10.7437 66.2855 11.0084V11.1077C66.2855 11.8356 67.7448 11.9349 67.7448 13.3245V22.1916C67.7448 23.482 66.4181 23.6474 66.4181 24.3753V24.5077C66.4181 24.8054 66.7166 24.9709 67.1478 24.9709H72.2886C72.7197 24.9709 72.985 24.8054 72.985 24.5077V24.3753C72.985 23.6474 71.6584 23.482 71.6584 22.1916L71.6252 14.2509C71.7247 12.0341 73.0514 10.3136 75.1077 10.3136C77.0976 10.3136 78.5901 12.1995 78.5901 15.5744V22.1916C78.5901 23.482 77.4293 23.6474 77.4293 24.3753V24.5077C77.4293 24.8054 77.7278 24.9709 78.159 24.9709H82.968C83.3992 24.9709 83.6645 24.8054 83.6645 24.5077V24.3753C83.6645 23.6474 82.5037 23.482 82.5037 22.1916V15.806C82.5037 15.2435 82.4706 14.7141 82.3711 14.2178C82.4706 11.9679 83.8635 10.3136 85.6877 10.3136C87.7771 10.3136 89.0043 11.8356 89.2033 15.9383L89.535 22.1916C89.6013 23.482 88.3741 23.6474 88.3741 24.3753V24.5077C88.3741 24.8054 88.6395 24.9709 89.0706 24.9709H93.946C94.344 24.9709 94.6425 24.8054 94.6425 24.5077V24.3753C94.6425 23.6474 93.5149 23.482 93.4486 22.1585Z" fill="#4C4C44"/>
<path d="M97.2702 24.9378H102.311C102.743 24.9378 103.041 24.7393 103.041 24.4415V24.3092C103.041 23.5813 101.681 23.4489 101.681 22.1585V9.42029C101.681 8.89091 101.25 8.49388 100.487 8.85783L97.1707 10.5121C96.8058 10.7107 96.5737 10.843 96.5737 11.1077V11.207C96.5737 11.8025 97.8008 12.1334 97.8008 13.4899V22.1585C97.8008 23.4489 96.5737 23.5813 96.5737 24.3092V24.4415C96.5737 24.7393 96.839 24.9378 97.2702 24.9378Z" fill="#4C4C44"/>
<path d="M121.735 22.1585L121.337 15.9052C121.005 10.7107 118.153 8.72548 115.036 8.72548C112.747 8.72548 110.923 9.81733 109.994 11.604V9.45338C109.994 8.89091 109.663 8.49388 108.966 8.85783L105.749 10.4129C105.384 10.5783 105.152 10.7437 105.152 11.0084V11.1077C105.152 11.8356 106.645 11.8687 106.645 13.3245V22.1916C106.645 23.482 105.318 23.6143 105.318 24.3422V24.4746C105.318 24.7724 105.583 24.9709 106.014 24.9709H111.155C111.619 24.9709 111.885 24.7724 111.885 24.4746V24.3422C111.885 23.6143 110.525 23.482 110.525 22.1916V14.4163C110.525 12.0341 111.885 10.3136 114.007 10.3136C116.031 10.3136 117.324 12.001 117.49 15.7729L117.822 22.1585C117.888 23.482 116.628 23.6143 116.628 24.3422V24.4746C116.628 24.7724 116.893 24.9709 117.357 24.9709H122.199C122.631 24.9709 122.929 24.7724 122.929 24.4746V24.3422C122.929 23.6143 121.801 23.482 121.735 22.1585Z" fill="#4C4C44"/>
<path d="M138.978 9.05634C135.197 9.05634 134.467 8.72548 132.278 8.72548C127.735 8.72548 124.65 11.5378 124.65 15.5413C124.65 19.2139 127.9 22.0262 132.113 22.0262C132.544 22.0262 132.942 21.9931 133.34 21.96C135.164 22.1585 136.258 23.482 136.258 25.3679C136.258 27.3862 134.699 28.7758 132.311 28.7758C127.602 28.7427 128.564 23.6474 126.109 23.6474C125.015 23.6474 124.517 24.4084 124.517 25.2025C124.517 27.5516 127.171 30 132.179 30C136.756 30 140.172 28.1472 140.172 25.2025C140.172 23.3827 138.945 21.8938 136.059 21.2321C138.414 20.1403 139.907 18.0227 139.907 15.3758C139.907 13.7546 139.044 12.0672 137.817 10.9754C138.812 10.7107 140.006 10.843 140.404 9.98276C140.703 9.48647 140.437 9.05634 138.978 9.05634ZM128.497 13.8539C128.497 11.604 129.691 9.98276 131.648 9.98276C134.301 9.98276 136.059 13.2252 136.059 16.8316C136.059 19.0815 134.799 20.7358 132.743 20.7358C130.421 20.7358 128.497 17.5926 128.497 13.8539Z" fill="#4C4C44"/>
<path d="M145.447 25.2687C146.84 25.2687 148.001 24.4746 148.001 22.9195C148.001 21.3314 146.84 20.5373 145.447 20.5373C144.021 20.5373 142.86 21.3314 142.86 22.9195C142.86 24.4746 144.021 25.2687 145.447 25.2687Z" fill="#4C4C44"/>
</svg>
