<svg width="248" height="130" viewBox="0 0 248 130" fill="none" xmlns="http://www.w3.org/2000/svg">
<path d="M24.1211 29.805C24.0044 29.8517 23.8877 29.8983 23.7711 29.945C23.6777 29.9917 23.5844 30.015 23.4911 30.015C23.2344 30.015 23.0361 29.8633 22.8961 29.56L18.3111 20.355L16.6661 21.755L15.3011 28.23C15.2544 28.4633 15.1377 28.6617 14.9511 28.825C14.7644 28.965 14.5661 29.0467 14.3561 29.07C14.1694 29.07 13.9827 29.07 13.7961 29.07C13.6327 29.0933 13.4577 29.105 13.2711 29.105L11.4161 29.175C11.2294 29.175 11.0544 29.175 10.8911 29.175C10.7277 29.175 10.5527 29.1867 10.3661 29.21C10.1327 29.2333 9.94605 29.1633 9.80605 29C9.68939 28.86 9.65439 28.685 9.70105 28.475L13.9011 5.9C13.9477 5.69 14.0761 5.49167 14.2861 5.305C14.5194 5.095 14.7527 4.97833 14.9861 4.955C15.7327 4.90833 16.4561 4.885 17.1561 4.885C17.8794 4.885 18.6727 4.90833 19.5361 4.955C20.0027 4.955 20.1894 5.15333 20.0961 5.55L18.4861 13.25L27.8661 4.605C28.0527 4.465 28.2044 4.395 28.3211 4.395C28.4844 4.395 28.6477 4.47667 28.8111 4.64C29.3477 5.17667 29.8961 5.67833 30.4561 6.145C31.0394 6.61167 31.5527 7.11333 31.9961 7.65C32.1127 7.79 32.1361 8 32.0661 8.28C32.0194 8.53667 31.9027 8.74667 31.7161 8.91L23.2461 16.155L29.0211 26.06C29.1144 26.2467 29.1377 26.4683 29.0911 26.725C29.0677 26.9583 28.9044 27.1567 28.6011 27.32L24.1211 29.805ZM41.7848 27.285C41.0615 27.8917 40.2682 28.3583 39.4048 28.685C38.5648 29.0117 37.6432 29.175 36.6398 29.175C36.1732 29.175 35.6948 29.14 35.2048 29.07C33.3382 28.7433 32.0782 27.8333 31.4248 26.34C30.7948 24.8467 30.6665 23.0733 31.0398 21.02C31.2265 19.8767 31.5648 18.7683 32.0548 17.695C32.5448 16.6217 33.1748 15.665 33.9448 14.825C34.7148 13.9617 35.6132 13.2617 36.6398 12.725C37.6898 12.165 38.8798 11.8383 40.2098 11.745C41.2598 11.675 42.1582 11.78 42.9048 12.06C43.6515 12.3167 44.2582 12.7133 44.7248 13.25L45.1448 12.515C45.2615 12.305 45.4482 12.1533 45.7048 12.06C45.9848 11.9667 46.2415 11.92 46.4748 11.92L48.9598 11.745C49.1698 11.745 49.3332 11.815 49.4498 11.955C49.5898 12.095 49.6365 12.27 49.5898 12.48L46.7198 27.985C46.6732 28.195 46.5332 28.405 46.2998 28.615C46.0898 28.8017 45.8798 28.9067 45.6698 28.93C45.1332 28.9767 44.6782 29 44.3048 29C43.9548 28.9767 43.5348 28.965 43.0448 28.965C42.8348 28.9417 42.6248 28.9067 42.4148 28.86C42.2282 28.79 42.0882 28.5917 41.9948 28.265L41.7848 27.285ZM38.4948 25.185C39.4515 25.255 40.2448 24.8933 40.8748 24.1C41.5282 23.2833 42.0065 22.35 42.3098 21.3L42.4498 20.6C42.5665 20.04 42.6132 19.4917 42.5898 18.955C42.5898 18.4183 42.5198 17.94 42.3798 17.52C42.2632 17.0767 42.0765 16.7267 41.8198 16.47C41.5865 16.19 41.2832 16.0383 40.9098 16.015C40.2098 15.9683 39.5798 16.1667 39.0198 16.61C38.4832 17.03 38.0282 17.5783 37.6548 18.255C37.2815 18.9083 37.0015 19.6317 36.8148 20.425C36.6282 21.2183 36.5582 21.965 36.6048 22.665C36.6748 23.365 36.8615 23.96 37.1648 24.45C37.4682 24.9167 37.9115 25.1617 38.4948 25.185ZM50.9863 29.035C50.823 29.035 50.648 29.035 50.4613 29.035C50.298 29.0583 50.123 29.07 49.9363 29.07C49.7263 29.0933 49.5513 29.035 49.4113 28.895C49.2946 28.755 49.2596 28.5683 49.3063 28.335L52.3863 13.075C52.433 12.865 52.5613 12.6667 52.7713 12.48C52.9813 12.2933 53.203 12.1883 53.4363 12.165C53.833 12.1417 54.113 12.13 54.2763 12.13C54.463 12.1067 54.6263 12.095 54.7663 12.095C54.9296 12.095 55.1046 12.095 55.2913 12.095C55.5013 12.095 55.8163 12.1067 56.2363 12.13C56.7263 12.1767 57.0063 12.375 57.0763 12.725L57.2513 14.615C57.928 13.7517 58.7213 13.0517 59.6313 12.515C60.5413 11.955 61.6263 11.6983 62.8863 11.745C63.213 11.7683 63.3763 11.885 63.3763 12.095C63.3996 12.2817 63.388 12.4683 63.3413 12.655L62.6063 16.05C62.4896 16.61 62.2096 16.89 61.7663 16.89C60.0863 16.89 58.8263 17.2633 57.9863 18.01C57.1696 18.7567 56.633 19.76 56.3763 21.02L54.8713 28.125C54.8246 28.335 54.708 28.5217 54.5213 28.685C54.358 28.825 54.1596 28.9067 53.9263 28.93C53.7396 28.93 53.553 28.9417 53.3663 28.965C53.203 28.965 53.0396 28.965 52.8763 28.965L50.9863 29.035ZM75.9219 27.495C74.8719 28.1017 73.7752 28.5567 72.6319 28.86C71.5119 29.1633 70.4152 29.315 69.3419 29.315C68.1985 29.315 67.1369 29.14 66.1569 28.79C65.2002 28.4167 64.4069 27.845 63.7769 27.075C63.1469 26.305 62.7269 25.325 62.5169 24.135C62.3302 22.945 62.4469 21.5217 62.8669 19.865C63.2402 18.4183 63.7885 17.17 64.5119 16.12C65.2352 15.0467 66.0519 14.1717 66.9619 13.495C67.8719 12.795 68.8402 12.2817 69.8669 11.955C70.8935 11.605 71.8969 11.43 72.8769 11.43C73.7869 11.43 74.6385 11.57 75.4319 11.85C76.2252 12.13 76.8902 12.55 77.4269 13.11C77.9869 13.67 78.3835 14.3583 78.6169 15.175C78.8502 15.9917 78.8502 16.925 78.6169 17.975C78.4302 18.8383 78.0569 19.6433 77.4969 20.39C76.9369 21.1367 76.2602 21.7783 75.4669 22.315C74.6969 22.8517 73.8569 23.2717 72.9469 23.575C72.0369 23.8783 71.1502 24.03 70.2869 24.03C69.3302 24.03 68.4669 23.82 67.6969 23.4C67.9535 24.0767 68.3619 24.5667 68.9219 24.87C69.5052 25.15 70.1935 25.29 70.9869 25.29C71.5702 25.29 72.1885 25.22 72.8419 25.08C73.4952 24.9167 74.1602 24.7067 74.8369 24.45C75.0235 24.4033 75.1635 24.4267 75.2569 24.52C75.3502 24.59 75.4085 24.66 75.4319 24.73C75.5719 25.15 75.7002 25.5117 75.8169 25.815C75.9569 26.095 76.0969 26.4333 76.2369 26.83C76.2602 26.9 76.2252 27.0167 76.1319 27.18C76.0619 27.3433 75.9919 27.4483 75.9219 27.495ZM67.9069 19.69C68.3735 20.04 68.9919 20.215 69.7619 20.215C70.1819 20.215 70.6019 20.1683 71.0219 20.075C71.4652 19.9583 71.8735 19.795 72.2469 19.585C72.6202 19.375 72.9352 19.1183 73.1919 18.815C73.4719 18.5117 73.6585 18.1617 73.7519 17.765C73.8919 17.135 73.7869 16.645 73.4369 16.295C73.0869 15.945 72.6319 15.77 72.0719 15.77C71.3485 15.77 70.5785 16.0733 69.7619 16.68C68.9452 17.2867 68.3269 18.29 67.9069 19.69ZM95.2216 28.44C95.175 28.65 95.0583 28.825 94.8716 28.965C94.7083 29.105 94.5216 29.175 94.3116 29.175C93.565 29.1283 92.9116 29.07 92.3516 29C91.815 28.9067 91.1733 28.8367 90.4266 28.79C90.2166 28.7667 90.0416 28.685 89.9016 28.545C89.785 28.3817 89.75 28.195 89.7966 27.985C90.0533 26.8417 90.3333 25.675 90.6366 24.485C90.9633 23.2717 91.255 22.105 91.5116 20.985C91.6516 20.3083 91.745 19.6667 91.7916 19.06C91.8616 18.4533 91.8383 17.9283 91.7216 17.485C91.605 17.0183 91.3833 16.6567 91.0566 16.4C90.7533 16.12 90.31 15.9917 89.7266 16.015C89.26 16.0383 88.8166 16.2017 88.3966 16.505C87.9766 16.785 87.6033 17.1583 87.2766 17.625C86.95 18.0917 86.6583 18.6167 86.4016 19.2C86.1683 19.7833 85.9816 20.39 85.8416 21.02L84.3716 28.125C84.325 28.335 84.2083 28.5217 84.0216 28.685C83.835 28.825 83.625 28.9067 83.3916 28.93C83.205 28.93 83.0183 28.9417 82.8316 28.965C82.6683 28.965 82.505 28.965 82.3416 28.965L80.4516 29.035C80.2883 29.035 80.1133 29.035 79.9266 29.035C79.7633 29.0583 79.5883 29.07 79.4016 29.07C79.1916 29.0933 79.0166 29.035 78.8766 28.895C78.76 28.755 78.725 28.5683 78.7716 28.335L81.5716 13.32C81.6183 13.11 81.7466 12.9117 81.9566 12.725C82.19 12.515 82.4233 12.3983 82.6566 12.375C83.03 12.3517 83.31 12.34 83.4966 12.34C83.6833 12.3167 83.8466 12.305 83.9866 12.305C84.15 12.305 84.325 12.305 84.5116 12.305C84.7216 12.305 85.0366 12.3167 85.4566 12.34C85.9233 12.3867 86.1916 12.585 86.2616 12.935L86.5416 14.195C87.195 13.4483 87.965 12.865 88.8516 12.445C89.7383 12.0017 90.7766 11.7683 91.9666 11.745C93.25 11.7217 94.3 11.9317 95.1166 12.375C95.9333 12.795 96.54 13.4017 96.9366 14.195C97.3566 14.9883 97.5783 15.945 97.6016 17.065C97.6483 18.1617 97.5316 19.3983 97.2516 20.775C97.135 21.335 96.9833 21.9417 96.7966 22.595C96.6333 23.2483 96.4583 23.9133 96.2716 24.59C96.085 25.2667 95.8983 25.9433 95.7116 26.62C95.525 27.2733 95.3616 27.88 95.2216 28.44ZM111.108 29.035C110.945 29.035 110.77 29.035 110.583 29.035C110.42 29.0583 110.245 29.07 110.058 29.07C109.848 29.0933 109.673 29.035 109.533 28.895C109.417 28.755 109.382 28.5683 109.428 28.335L112.508 13.075C112.555 12.865 112.683 12.6667 112.893 12.48C113.103 12.2933 113.325 12.1883 113.558 12.165C113.955 12.1417 114.235 12.13 114.398 12.13C114.585 12.1067 114.748 12.095 114.888 12.095C115.052 12.095 115.227 12.095 115.413 12.095C115.623 12.095 115.938 12.1067 116.358 12.13C116.848 12.1767 117.128 12.375 117.198 12.725L117.373 14.615C118.05 13.7517 118.843 13.0517 119.753 12.515C120.663 11.955 121.748 11.6983 123.008 11.745C123.335 11.7683 123.498 11.885 123.498 12.095C123.522 12.2817 123.51 12.4683 123.463 12.655L122.728 16.05C122.612 16.61 122.332 16.89 121.888 16.89C120.208 16.89 118.948 17.2633 118.108 18.01C117.292 18.7567 116.755 19.76 116.498 21.02L114.993 28.125C114.947 28.335 114.83 28.5217 114.643 28.685C114.48 28.825 114.282 28.9067 114.048 28.93C113.862 28.93 113.675 28.9417 113.488 28.965C113.325 28.965 113.162 28.965 112.998 28.965L111.108 29.035ZM136.044 27.495C134.994 28.1017 133.897 28.5567 132.754 28.86C131.634 29.1633 130.537 29.315 129.464 29.315C128.321 29.315 127.259 29.14 126.279 28.79C125.322 28.4167 124.529 27.845 123.899 27.075C123.269 26.305 122.849 25.325 122.639 24.135C122.452 22.945 122.569 21.5217 122.989 19.865C123.362 18.4183 123.911 17.17 124.634 16.12C125.357 15.0467 126.174 14.1717 127.084 13.495C127.994 12.795 128.962 12.2817 129.989 11.955C131.016 11.605 132.019 11.43 132.999 11.43C133.909 11.43 134.761 11.57 135.554 11.85C136.347 12.13 137.012 12.55 137.549 13.11C138.109 13.67 138.506 14.3583 138.739 15.175C138.972 15.9917 138.972 16.925 138.739 17.975C138.552 18.8383 138.179 19.6433 137.619 20.39C137.059 21.1367 136.382 21.7783 135.589 22.315C134.819 22.8517 133.979 23.2717 133.069 23.575C132.159 23.8783 131.272 24.03 130.409 24.03C129.452 24.03 128.589 23.82 127.819 23.4C128.076 24.0767 128.484 24.5667 129.044 24.87C129.627 25.15 130.316 25.29 131.109 25.29C131.692 25.29 132.311 25.22 132.964 25.08C133.617 24.9167 134.282 24.7067 134.959 24.45C135.146 24.4033 135.286 24.4267 135.379 24.52C135.472 24.59 135.531 24.66 135.554 24.73C135.694 25.15 135.822 25.5117 135.939 25.815C136.079 26.095 136.219 26.4333 136.359 26.83C136.382 26.9 136.347 27.0167 136.254 27.18C136.184 27.3433 136.114 27.4483 136.044 27.495ZM128.029 19.69C128.496 20.04 129.114 20.215 129.884 20.215C130.304 20.215 130.724 20.1683 131.144 20.075C131.587 19.9583 131.996 19.795 132.369 19.585C132.742 19.375 133.057 19.1183 133.314 18.815C133.594 18.5117 133.781 18.1617 133.874 17.765C134.014 17.135 133.909 16.645 133.559 16.295C133.209 15.945 132.754 15.77 132.194 15.77C131.471 15.77 130.701 16.0733 129.884 16.68C129.067 17.2867 128.449 18.29 128.029 19.69ZM145.689 29.28C144.406 29.35 143.309 29.315 142.399 29.175C141.489 29.0583 140.778 28.7783 140.264 28.335C139.751 27.8683 139.436 27.2033 139.319 26.34C139.226 25.4767 139.319 24.3567 139.599 22.98C140.206 20.04 140.766 17.1817 141.279 14.405C141.816 11.6283 142.399 8.77 143.029 5.83C143.076 5.62 143.193 5.43333 143.379 5.27C143.566 5.10666 143.764 5.025 143.974 5.025C144.744 4.97833 145.444 4.955 146.074 4.955C146.704 4.93167 147.404 4.89667 148.174 4.85C148.571 4.82666 148.863 4.89667 149.049 5.06C149.236 5.2 149.306 5.375 149.259 5.585C148.583 8.50167 147.953 11.3367 147.369 14.09C146.809 16.8433 146.214 19.6783 145.584 22.595C145.421 23.3417 145.468 23.8433 145.724 24.1C145.981 24.3333 146.483 24.4383 147.229 24.415C147.416 24.3917 147.591 24.4617 147.754 24.625C147.941 24.7883 148.011 24.9867 147.964 25.22L147.054 28.51C146.961 28.86 146.751 29.07 146.424 29.14C146.098 29.2333 145.853 29.28 145.689 29.28ZM163.217 27.495C162.167 28.1017 161.07 28.5567 159.927 28.86C158.807 29.1633 157.71 29.315 156.637 29.315C155.493 29.315 154.432 29.14 153.452 28.79C152.495 28.4167 151.702 27.845 151.072 27.075C150.442 26.305 150.022 25.325 149.812 24.135C149.625 22.945 149.742 21.5217 150.162 19.865C150.535 18.4183 151.083 17.17 151.807 16.12C152.53 15.0467 153.347 14.1717 154.257 13.495C155.167 12.795 156.135 12.2817 157.162 11.955C158.188 11.605 159.192 11.43 160.172 11.43C161.082 11.43 161.933 11.57 162.727 11.85C163.52 12.13 164.185 12.55 164.722 13.11C165.282 13.67 165.678 14.3583 165.912 15.175C166.145 15.9917 166.145 16.925 165.912 17.975C165.725 18.8383 165.352 19.6433 164.792 20.39C164.232 21.1367 163.555 21.7783 162.762 22.315C161.992 22.8517 161.152 23.2717 160.242 23.575C159.332 23.8783 158.445 24.03 157.582 24.03C156.625 24.03 155.762 23.82 154.992 23.4C155.248 24.0767 155.657 24.5667 156.217 24.87C156.8 25.15 157.488 25.29 158.282 25.29C158.865 25.29 159.483 25.22 160.137 25.08C160.79 24.9167 161.455 24.7067 162.132 24.45C162.318 24.4033 162.458 24.4267 162.552 24.52C162.645 24.59 162.703 24.66 162.727 24.73C162.867 25.15 162.995 25.5117 163.112 25.815C163.252 26.095 163.392 26.4333 163.532 26.83C163.555 26.9 163.52 27.0167 163.427 27.18C163.357 27.3433 163.287 27.4483 163.217 27.495ZM155.202 19.69C155.668 20.04 156.287 20.215 157.057 20.215C157.477 20.215 157.897 20.1683 158.317 20.075C158.76 19.9583 159.168 19.795 159.542 19.585C159.915 19.375 160.23 19.1183 160.487 18.815C160.767 18.5117 160.953 18.1617 161.047 17.765C161.187 17.135 161.082 16.645 160.732 16.295C160.382 15.945 159.927 15.77 159.367 15.77C158.643 15.77 157.873 16.0733 157.057 16.68C156.24 17.2867 155.622 18.29 155.202 19.69ZM177.547 27.285C176.823 27.8917 176.03 28.3583 175.167 28.685C174.327 29.0117 173.405 29.175 172.402 29.175C171.935 29.175 171.457 29.14 170.967 29.07C169.1 28.7433 167.84 27.8333 167.187 26.34C166.557 24.8467 166.428 23.0733 166.802 21.02C166.988 19.8767 167.327 18.7683 167.817 17.695C168.307 16.6217 168.937 15.665 169.707 14.825C170.477 13.9617 171.375 13.2617 172.402 12.725C173.452 12.165 174.642 11.8383 175.972 11.745C177.022 11.675 177.92 11.78 178.667 12.06C179.413 12.3167 180.02 12.7133 180.487 13.25L180.907 12.515C181.023 12.305 181.21 12.1533 181.467 12.06C181.747 11.9667 182.003 11.92 182.237 11.92L184.722 11.745C184.932 11.745 185.095 11.815 185.212 11.955C185.352 12.095 185.398 12.27 185.352 12.48L182.482 27.985C182.435 28.195 182.295 28.405 182.062 28.615C181.852 28.8017 181.642 28.9067 181.432 28.93C180.895 28.9767 180.44 29 180.067 29C179.717 28.9767 179.297 28.965 178.807 28.965C178.597 28.9417 178.387 28.9067 178.177 28.86C177.99 28.79 177.85 28.5917 177.757 28.265L177.547 27.285ZM174.257 25.185C175.213 25.255 176.007 24.8933 176.637 24.1C177.29 23.2833 177.768 22.35 178.072 21.3L178.212 20.6C178.328 20.04 178.375 19.4917 178.352 18.955C178.352 18.4183 178.282 17.94 178.142 17.52C178.025 17.0767 177.838 16.7267 177.582 16.47C177.348 16.19 177.045 16.0383 176.672 16.015C175.972 15.9683 175.342 16.1667 174.782 16.61C174.245 17.03 173.79 17.5783 173.417 18.255C173.043 18.9083 172.763 19.6317 172.577 20.425C172.39 21.2183 172.32 21.965 172.367 22.665C172.437 23.365 172.623 23.96 172.927 24.45C173.23 24.9167 173.673 25.1617 174.257 25.185ZM197.493 23.61C197.376 24.4733 197.085 25.2433 196.618 25.92C196.151 26.5967 195.58 27.1683 194.903 27.635C194.226 28.0783 193.468 28.4283 192.628 28.685C191.811 28.9183 190.983 29.035 190.143 29.035C188.976 29.035 187.88 28.8017 186.853 28.335C185.826 27.8683 185.045 27.1333 184.508 26.13C184.415 25.99 184.508 25.8033 184.788 25.57L187.868 23.05C187.938 23.0033 188.02 23.0033 188.113 23.05C188.23 23.0733 188.311 23.12 188.358 23.19C188.778 23.7967 189.163 24.2167 189.513 24.45C189.886 24.6833 190.213 24.8 190.493 24.8C190.796 24.8 191.041 24.7067 191.228 24.52C191.438 24.3333 191.566 24.1233 191.613 23.89C191.73 23.47 191.578 23.0383 191.158 22.595C190.738 22.1283 190.26 21.6383 189.723 21.125C189.21 20.5883 188.731 20.005 188.288 19.375C187.868 18.7217 187.693 17.9867 187.763 17.17C187.833 16.33 188.066 15.5833 188.463 14.93C188.883 14.2533 189.396 13.6933 190.003 13.25C190.633 12.7833 191.321 12.4333 192.068 12.2C192.815 11.9433 193.561 11.815 194.308 11.815C195.358 11.815 196.326 12.06 197.213 12.55C198.123 13.0167 198.8 13.7633 199.243 14.79C199.29 14.8367 199.301 14.9067 199.278 15C199.278 15.0933 199.255 15.1633 199.208 15.21C198.695 15.5833 198.135 15.9683 197.528 16.365C196.921 16.7383 196.385 17.1117 195.918 17.485C195.825 17.5317 195.72 17.5433 195.603 17.52C195.51 17.4967 195.44 17.4383 195.393 17.345C195.136 16.8317 194.856 16.4583 194.553 16.225C194.273 15.9917 194.005 15.875 193.748 15.875C193.375 15.875 193.153 16.0617 193.083 16.435C192.99 16.9017 193.188 17.3683 193.678 17.835C194.168 18.3017 194.716 18.815 195.323 19.375C195.93 19.9117 196.466 20.53 196.933 21.23C197.423 21.9067 197.61 22.7 197.493 23.61ZM212.846 27.495C211.796 28.1017 210.699 28.5567 209.556 28.86C208.436 29.1633 207.339 29.315 206.266 29.315C205.122 29.315 204.061 29.14 203.081 28.79C202.124 28.4167 201.331 27.845 200.701 27.075C200.071 26.305 199.651 25.325 199.441 24.135C199.254 22.945 199.371 21.5217 199.791 19.865C200.164 18.4183 200.712 17.17 201.436 16.12C202.159 15.0467 202.976 14.1717 203.886 13.495C204.796 12.795 205.764 12.2817 206.791 11.955C207.817 11.605 208.821 11.43 209.801 11.43C210.711 11.43 211.562 11.57 212.356 11.85C213.149 12.13 213.814 12.55 214.351 13.11C214.911 13.67 215.307 14.3583 215.541 15.175C215.774 15.9917 215.774 16.925 215.541 17.975C215.354 18.8383 214.981 19.6433 214.421 20.39C213.861 21.1367 213.184 21.7783 212.391 22.315C211.621 22.8517 210.781 23.2717 209.871 23.575C208.961 23.8783 208.074 24.03 207.211 24.03C206.254 24.03 205.391 23.82 204.621 23.4C204.877 24.0767 205.286 24.5667 205.846 24.87C206.429 25.15 207.117 25.29 207.911 25.29C208.494 25.29 209.112 25.22 209.766 25.08C210.419 24.9167 211.084 24.7067 211.761 24.45C211.947 24.4033 212.087 24.4267 212.181 24.52C212.274 24.59 212.332 24.66 212.356 24.73C212.496 25.15 212.624 25.5117 212.741 25.815C212.881 26.095 213.021 26.4333 213.161 26.83C213.184 26.9 213.149 27.0167 213.056 27.18C212.986 27.3433 212.916 27.4483 212.846 27.495ZM204.831 19.69C205.297 20.04 205.916 20.215 206.686 20.215C207.106 20.215 207.526 20.1683 207.946 20.075C208.389 19.9583 208.797 19.795 209.171 19.585C209.544 19.375 209.859 19.1183 210.116 18.815C210.396 18.5117 210.582 18.1617 210.676 17.765C210.816 17.135 210.711 16.645 210.361 16.295C210.011 15.945 209.556 15.77 208.996 15.77C208.272 15.77 207.502 16.0733 206.686 16.68C205.869 17.2867 205.251 18.29 204.831 19.69ZM59.9921 67.04C59.2454 67.7167 58.4171 68.2417 57.5071 68.615C56.6204 68.9883 55.6404 69.175 54.5671 69.175C54.1004 69.175 53.6221 69.14 53.1321 69.07C51.2654 68.7433 50.0054 67.8333 49.3521 66.34C48.7221 64.8467 48.5938 63.0733 48.9671 61.02C49.1538 59.8767 49.4921 58.7683 49.9821 57.695C50.4721 56.6217 51.1021 55.665 51.8721 54.825C52.6421 53.9617 53.5404 53.2617 54.5671 52.725C55.6171 52.165 56.8071 51.8383 58.1371 51.745C59.9571 51.6283 61.3454 52.0133 62.3021 52.9L64.0521 45.34C64.0988 45.13 64.2154 44.955 64.4021 44.815C64.5888 44.6517 64.7988 44.5583 65.0321 44.535C65.4054 44.5117 65.7204 44.5 65.9771 44.5C66.2571 44.5 66.5254 44.5 66.7821 44.5C67.0388 44.4767 67.3071 44.465 67.5871 44.465C67.8671 44.465 68.1938 44.4533 68.5671 44.43C68.8004 44.4067 68.9754 44.4767 69.0921 44.64C69.2088 44.78 69.2438 44.955 69.1971 45.165L64.9621 68.02C64.9154 68.23 64.7754 68.4283 64.5421 68.615C64.3321 68.8017 64.1104 68.9067 63.8771 68.93C63.3638 68.9767 62.9554 69 62.6521 69C62.3721 68.9767 61.9871 68.9533 61.4971 68.93C61.2871 68.9067 61.1004 68.86 60.9371 68.79C60.7738 68.72 60.6221 68.5567 60.4821 68.3L59.9921 67.04ZM56.4571 64.975C57.1571 65.0217 57.7638 64.835 58.2771 64.415C58.8138 63.995 59.2571 63.4583 59.6071 62.805C59.9571 62.1517 60.2138 61.44 60.3771 60.67C60.5404 59.8767 60.5871 59.1417 60.5171 58.465C60.4704 57.7883 60.3071 57.2167 60.0271 56.75C59.7471 56.2833 59.3504 56.0383 58.8371 56.015C58.1371 55.9683 57.5071 56.155 56.9471 56.575C56.4104 56.995 55.9554 57.5317 55.5821 58.185C55.2088 58.8383 54.9288 59.5617 54.7421 60.355C54.5788 61.125 54.5204 61.8483 54.5671 62.525C54.6371 63.2017 54.8238 63.7733 55.1271 64.24C55.4304 64.7067 55.8738 64.9517 56.4571 64.975ZM79.1603 67.285C78.437 67.8917 77.6437 68.3583 76.7803 68.685C75.9403 69.0117 75.0187 69.175 74.0153 69.175C73.5487 69.175 73.0703 69.14 72.5803 69.07C70.7137 68.7433 69.4537 67.8333 68.8003 66.34C68.1703 64.8467 68.042 63.0733 68.4153 61.02C68.602 59.8767 68.9403 58.7683 69.4303 57.695C69.9203 56.6217 70.5503 55.665 71.3203 54.825C72.0903 53.9617 72.9887 53.2617 74.0153 52.725C75.0653 52.165 76.2553 51.8383 77.5853 51.745C78.6353 51.675 79.5337 51.78 80.2803 52.06C81.027 52.3167 81.6337 52.7133 82.1003 53.25L82.5203 52.515C82.637 52.305 82.8237 52.1533 83.0803 52.06C83.3603 51.9667 83.617 51.92 83.8503 51.92L86.3353 51.745C86.5453 51.745 86.7087 51.815 86.8253 51.955C86.9653 52.095 87.012 52.27 86.9653 52.48L84.0953 67.985C84.0487 68.195 83.9087 68.405 83.6753 68.615C83.4653 68.8017 83.2553 68.9067 83.0453 68.93C82.5087 68.9767 82.0537 69 81.6803 69C81.3303 68.9767 80.9103 68.965 80.4203 68.965C80.2103 68.9417 80.0003 68.9067 79.7903 68.86C79.6037 68.79 79.4637 68.5917 79.3703 68.265L79.1603 67.285ZM75.8703 65.185C76.827 65.255 77.6203 64.8933 78.2503 64.1C78.9037 63.2833 79.382 62.35 79.6853 61.3L79.8253 60.6C79.942 60.04 79.9887 59.4917 79.9653 58.955C79.9653 58.4183 79.8953 57.94 79.7553 57.52C79.6387 57.0767 79.452 56.7267 79.1953 56.47C78.962 56.19 78.6587 56.0383 78.2853 56.015C77.5853 55.9683 76.9553 56.1667 76.3953 56.61C75.8587 57.03 75.4037 57.5783 75.0303 58.255C74.657 58.9083 74.377 59.6317 74.1903 60.425C74.0037 61.2183 73.9337 61.965 73.9803 62.665C74.0503 63.365 74.237 63.96 74.5403 64.45C74.8437 64.9167 75.287 65.1617 75.8703 65.185ZM94.6968 69.28C93.3901 69.35 92.3051 69.315 91.4418 69.175C90.5784 69.0583 89.9134 68.7783 89.4468 68.335C89.0034 67.8683 88.7468 67.2033 88.6768 66.34C88.6301 65.4767 88.7468 64.3567 89.0268 62.98C89.2834 61.79 89.5168 60.705 89.7268 59.725C89.9368 58.745 90.1468 57.8117 90.3568 56.925L88.9218 56.96C88.4551 56.9833 88.2218 56.9483 88.2218 56.855C88.2218 56.7617 88.2451 56.61 88.2918 56.4L89.0268 52.97C89.0734 52.8067 89.1201 52.6667 89.1668 52.55C89.2134 52.41 89.4234 52.34 89.7968 52.34L91.4418 52.305C91.5818 51.6983 91.7218 51.08 91.8618 50.45C92.0018 49.82 92.1534 49.1433 92.3168 48.42C92.3634 48.21 92.4801 48.0233 92.6668 47.86C92.8534 47.6967 93.0518 47.6033 93.2618 47.58C93.6584 47.58 93.9734 47.58 94.2068 47.58C94.4634 47.5567 94.7084 47.545 94.9418 47.545C95.1751 47.5217 95.4201 47.51 95.6768 47.51C95.9334 47.4867 96.2484 47.4633 96.6218 47.44C97.0184 47.4167 97.2984 47.4867 97.4618 47.65C97.6484 47.79 97.7184 47.965 97.6718 48.175C97.5084 48.9217 97.3451 49.6333 97.1818 50.31C97.0418 50.9633 96.9134 51.5933 96.7968 52.2L99.8418 52.13C99.7951 52.13 99.7951 52.1883 99.8418 52.305C99.8884 52.3983 99.8884 52.5267 99.8418 52.69C99.7251 53.2267 99.6201 53.775 99.5268 54.335C99.4568 54.895 99.3634 55.4433 99.2468 55.98C99.2234 56.1433 99.1651 56.2833 99.0718 56.4C98.9784 56.4933 98.9551 56.54 99.0018 56.54L95.8168 56.68C95.6301 57.5667 95.4434 58.4767 95.2568 59.41C95.0701 60.3433 94.8484 61.405 94.5918 62.595C94.4051 63.3417 94.4401 63.8433 94.6968 64.1C94.9534 64.3333 95.4551 64.4383 96.2018 64.415C96.3884 64.3917 96.5751 64.4617 96.7618 64.625C96.9484 64.7883 97.0068 64.9867 96.9368 65.22L96.0618 68.51C95.9451 68.86 95.7234 69.07 95.3968 69.14C95.0934 69.2333 94.8601 69.28 94.6968 69.28ZM113.024 67.495C111.974 68.1017 110.877 68.5567 109.734 68.86C108.614 69.1633 107.517 69.315 106.444 69.315C105.301 69.315 104.239 69.14 103.259 68.79C102.302 68.4167 101.509 67.845 100.879 67.075C100.249 66.305 99.8289 65.325 99.6189 64.135C99.4323 62.945 99.5489 61.5217 99.9689 59.865C100.342 58.4183 100.891 57.17 101.614 56.12C102.337 55.0467 103.154 54.1717 104.064 53.495C104.974 52.795 105.942 52.2817 106.969 51.955C107.996 51.605 108.999 51.43 109.979 51.43C110.889 51.43 111.741 51.57 112.534 51.85C113.327 52.13 113.992 52.55 114.529 53.11C115.089 53.67 115.486 54.3583 115.719 55.175C115.952 55.9917 115.952 56.925 115.719 57.975C115.532 58.8383 115.159 59.6433 114.599 60.39C114.039 61.1367 113.362 61.7783 112.569 62.315C111.799 62.8517 110.959 63.2717 110.049 63.575C109.139 63.8783 108.252 64.03 107.389 64.03C106.432 64.03 105.569 63.82 104.799 63.4C105.056 64.0767 105.464 64.5667 106.024 64.87C106.607 65.15 107.296 65.29 108.089 65.29C108.672 65.29 109.291 65.22 109.944 65.08C110.597 64.9167 111.262 64.7067 111.939 64.45C112.126 64.4033 112.266 64.4267 112.359 64.52C112.452 64.59 112.511 64.66 112.534 64.73C112.674 65.15 112.802 65.5117 112.919 65.815C113.059 66.095 113.199 66.4333 113.339 66.83C113.362 66.9 113.327 67.0167 113.234 67.18C113.164 67.3433 113.094 67.4483 113.024 67.495ZM105.009 59.69C105.476 60.04 106.094 60.215 106.864 60.215C107.284 60.215 107.704 60.1683 108.124 60.075C108.567 59.9583 108.976 59.795 109.349 59.585C109.722 59.375 110.037 59.1183 110.294 58.815C110.574 58.5117 110.761 58.1617 110.854 57.765C110.994 57.135 110.889 56.645 110.539 56.295C110.189 55.945 109.734 55.77 109.174 55.77C108.451 55.77 107.681 56.0733 106.864 56.68C106.047 57.2867 105.429 58.29 105.009 59.69ZM136.007 69.175C135.144 69.2217 134.362 69.2333 133.662 69.21C132.962 69.21 132.239 69.1867 131.492 69.14C131.282 69.1167 131.107 69.0117 130.967 68.825C130.827 68.615 130.781 68.405 130.827 68.195L135.202 50.45L130.442 50.52C130.256 50.52 130.081 50.4617 129.917 50.345C129.777 50.2283 129.731 50.065 129.777 49.855C129.847 49.1317 129.941 48.4783 130.057 47.895C130.174 47.2883 130.291 46.5883 130.407 45.795C130.454 45.6083 130.547 45.4333 130.687 45.27C130.827 45.0833 131.002 44.99 131.212 44.99L148.117 44.255C148.327 44.2317 148.514 44.29 148.677 44.43C148.841 44.57 148.876 44.7917 148.782 45.095L147.522 49.435C147.406 49.9717 146.986 50.2517 146.262 50.275L140.942 50.345L136.882 68.58C136.789 68.93 136.497 69.1283 136.007 69.175ZM157.516 68.895C157.306 68.9183 156.956 68.9533 156.466 69C155.999 69.0467 155.451 69.0933 154.821 69.14C154.191 69.21 153.526 69.2567 152.826 69.28C152.126 69.3267 151.437 69.35 150.761 69.35C149.967 69.35 149.232 69.315 148.556 69.245C147.902 69.175 147.412 69.0467 147.086 68.86H146.911C146.677 68.8833 146.502 68.825 146.386 68.685C146.269 68.545 146.234 68.3583 146.281 68.125L150.271 50.975C150.177 51.0217 150.096 51.0567 150.026 51.08C149.722 51.1967 149.501 51.2083 149.361 51.115C149.221 50.9983 149.139 50.8467 149.116 50.66C149.092 50.4267 149.057 50.1117 149.011 49.715C148.987 49.3183 148.964 48.91 148.941 48.49C148.917 48.07 148.906 47.6617 148.906 47.265C148.906 46.845 148.941 46.5183 149.011 46.285C149.057 46.075 149.174 45.9 149.361 45.76C149.571 45.5967 149.769 45.48 149.956 45.41C150.679 45.1533 151.484 44.9433 152.371 44.78C153.281 44.6167 154.202 44.4883 155.136 44.395C156.069 44.3017 156.979 44.255 157.866 44.255C158.776 44.2317 159.592 44.2433 160.316 44.29C162.136 44.4067 163.501 44.8733 164.411 45.69C165.344 46.4833 165.869 47.44 165.986 48.56C166.126 49.68 165.904 50.87 165.321 52.13C164.761 53.39 163.897 54.545 162.731 55.595C163.734 55.9917 164.504 56.575 165.041 57.345C165.577 58.0917 165.892 58.9317 165.986 59.865C166.079 60.775 165.962 61.7317 165.636 62.735C165.309 63.715 164.784 64.6367 164.061 65.5C163.361 66.34 162.451 67.075 161.331 67.705C160.234 68.3117 158.962 68.7083 157.516 68.895ZM160.596 51.465C160.666 51.1617 160.666 50.87 160.596 50.59C160.549 50.31 160.421 50.065 160.211 49.855C160.001 49.6217 159.697 49.435 159.301 49.295C158.927 49.155 158.437 49.085 157.831 49.085C157.271 49.085 156.606 49.155 155.836 49.295L154.786 55.035C156.466 54.8483 157.807 54.4517 158.811 53.845C159.814 53.215 160.409 52.4217 160.596 51.465ZM157.446 59.375C156.792 59.4217 156.174 59.5033 155.591 59.62C155.031 59.7133 154.459 59.8183 153.876 59.935L153.141 64.03C153.911 64.0067 154.622 63.995 155.276 63.995C155.929 63.9717 156.407 63.9367 156.711 63.89C157.761 63.7967 158.566 63.4933 159.126 62.98C159.686 62.4667 160.001 61.93 160.071 61.37C160.141 60.7867 159.954 60.285 159.511 59.865C159.091 59.4217 158.402 59.2583 157.446 59.375ZM171.637 68.335C171.521 68.545 171.346 68.7317 171.112 68.895C170.879 69.035 170.646 69.105 170.412 69.105C169.666 69.0817 168.814 69.0583 167.857 69.035C166.924 69.0117 166.084 68.9883 165.337 68.965C165.127 68.965 164.987 68.8833 164.917 68.72C164.847 68.5567 164.871 68.37 164.987 68.16C167.181 64.4033 169.351 60.6467 171.497 56.89C173.667 53.11 175.837 49.3767 178.007 45.69C178.311 45.1767 178.754 44.92 179.337 44.92C179.407 44.8967 179.501 44.885 179.617 44.885C179.944 44.885 180.224 44.8967 180.457 44.92C180.714 44.92 180.947 44.9317 181.157 44.955H182.732C182.802 44.955 182.884 44.9783 182.977 45.025H183.117C183.327 45.0483 183.514 45.1417 183.677 45.305C183.841 45.445 183.934 45.62 183.957 45.83C184.121 47.2767 184.284 48.6883 184.447 50.065C184.611 51.4417 184.786 52.83 184.972 54.23L185.637 59.76C185.824 61.1367 185.999 62.525 186.162 63.925C186.326 65.3017 186.489 66.7017 186.652 68.125C186.676 68.3583 186.617 68.5567 186.477 68.72C186.337 68.86 186.162 68.9183 185.952 68.895C185.206 68.8717 184.354 68.86 183.397 68.86C182.464 68.8367 181.624 68.8017 180.877 68.755C180.667 68.755 180.481 68.685 180.317 68.545C180.154 68.3817 180.061 68.195 180.037 67.985C179.967 67.4017 179.909 66.83 179.862 66.27C179.839 65.71 179.804 65.15 179.757 64.59H173.597C173.271 65.22 172.944 65.85 172.617 66.48C172.291 67.11 171.964 67.7283 171.637 68.335ZM179.407 52.865C178.824 54.0317 178.252 55.1867 177.692 56.33C177.132 57.4733 176.572 58.64 176.012 59.83L179.547 59.515C179.501 58.395 179.477 57.2867 179.477 56.19C179.477 55.0933 179.454 53.985 179.407 52.865Z" fill="black"/>
<path d="M4.52 99.76C4.49333 99.88 4.42667 99.98 4.32 100.06C4.21333 100.14 4.1 100.18 3.98 100.18C3.55333 100.153 3.12667 100.127 2.7 100.1C2.27333 100.073 1.84667 100.047 1.42 100.02C1.14 99.9933 1.02 99.8333 1.06 99.54L3.46 89.7C3.39333 89.6867 3.34 89.6533 3.3 89.6C3.26 89.5333 3.23333 89.4667 3.22 89.4C3.20667 89.2667 3.19333 89.0933 3.18 88.88C3.18 88.6667 3.18 88.4467 3.18 88.22C3.18 87.9933 3.18 87.7733 3.18 87.56C3.19333 87.3333 3.22 87.1533 3.26 87.02C3.28667 86.9 3.35333 86.8 3.46 86.72C3.58 86.6267 3.69333 86.56 3.8 86.52C4.64 86.24 5.52 86.0467 6.44 85.94C7.37333 85.8333 8.26 85.8133 9.1 85.88C10.1267 85.9467 10.9333 86.2533 11.52 86.8C12.1067 87.3467 12.48 88.0133 12.64 88.8C12.8 89.5733 12.7533 90.4133 12.5 91.32C12.26 92.2133 11.82 93.0467 11.18 93.82C10.54 94.5933 9.70667 95.2533 8.68 95.8C7.66667 96.3333 6.47333 96.6333 5.1 96.7L4.52 99.76ZM8.98 90.84C9.12667 90.2133 8.99333 89.7267 8.58 89.38C8.18 89.0333 7.52 88.8933 6.6 88.96L5.68 93.7C6.64 93.5533 7.39333 93.2267 7.94 92.72C8.48667 92.2133 8.83333 91.5867 8.98 90.84ZM12.798 100.02C12.7046 100.02 12.6046 100.02 12.498 100.02C12.4046 100.033 12.3046 100.04 12.198 100.04C12.078 100.053 11.978 100.02 11.898 99.94C11.8313 99.86 11.8113 99.7533 11.838 99.62L13.598 90.9C13.6246 90.78 13.698 90.6667 13.818 90.56C13.938 90.4533 14.0646 90.3933 14.198 90.38C14.4246 90.3667 14.5846 90.36 14.678 90.36C14.7846 90.3467 14.878 90.34 14.958 90.34C15.0513 90.34 15.1513 90.34 15.258 90.34C15.378 90.34 15.558 90.3467 15.798 90.36C16.078 90.3867 16.238 90.5 16.278 90.7L16.378 91.78C16.7646 91.2867 17.218 90.8867 17.738 90.58C18.258 90.26 18.878 90.1133 19.598 90.14C19.7846 90.1533 19.878 90.22 19.878 90.34C19.8913 90.4467 19.8846 90.5533 19.858 90.66L19.438 92.6C19.3713 92.92 19.2113 93.08 18.958 93.08C17.998 93.08 17.278 93.2933 16.798 93.72C16.3313 94.1467 16.0246 94.72 15.878 95.44L15.018 99.5C14.9913 99.62 14.9246 99.7267 14.818 99.82C14.7246 99.9 14.6113 99.9467 14.478 99.96C14.3713 99.96 14.2646 99.9667 14.158 99.98C14.0646 99.98 13.9713 99.98 13.878 99.98L12.798 100.02ZM24.9269 87.4C24.7935 88 24.5069 88.4933 24.0669 88.88C23.6269 89.2533 23.0535 89.3867 22.3469 89.28C21.8802 89.2133 21.5602 89.02 21.3869 88.7C21.2135 88.38 21.1602 88 21.2269 87.56C21.3202 87.0667 21.5469 86.62 21.9069 86.22C22.2802 85.8067 22.8069 85.5867 23.4869 85.56C24.1002 85.52 24.5269 85.6667 24.7669 86C25.0069 86.3333 25.0602 86.8 24.9269 87.4ZM20.0469 100.02C19.9535 100.02 19.8535 100.02 19.7469 100.02C19.6535 100.033 19.5535 100.04 19.4469 100.04C19.3269 100.053 19.2269 100.02 19.1469 99.94C19.0802 99.86 19.0602 99.7533 19.0869 99.62L20.6069 90.9C20.6335 90.78 20.7069 90.6667 20.8269 90.56C20.9469 90.4533 21.0735 90.3933 21.2069 90.38C21.6469 90.3533 22.0669 90.34 22.4669 90.34C22.8802 90.3267 23.3269 90.3333 23.8069 90.36C24.0735 90.3867 24.1869 90.5 24.1469 90.7L22.2869 99.48C22.2602 99.6133 22.1935 99.7267 22.0869 99.82C21.9802 99.9 21.8602 99.9467 21.7269 99.96C21.6202 99.96 21.5135 99.9667 21.4069 99.98C21.3135 99.98 21.2202 99.98 21.1269 99.98L20.0469 100.02ZM27.4292 100.12C27.2559 100.133 27.0626 100.127 26.8492 100.1C26.6359 100.087 26.5092 99.9733 26.4692 99.76L24.9092 91.44C24.8826 91.3467 24.9159 91.2467 25.0092 91.14C25.1026 91.0333 25.2026 90.9667 25.3092 90.94L27.5492 90.18C27.6692 90.14 27.8026 90.14 27.9492 90.18C28.0959 90.22 28.1759 90.3 28.1892 90.42L28.6292 95.26L31.4292 90.4C31.4959 90.28 31.6159 90.2 31.7892 90.16C31.9626 90.1067 32.1092 90.1 32.2292 90.14L33.8692 90.78C33.9892 90.8333 34.0826 90.9333 34.1492 91.08C34.2159 91.2133 34.2092 91.34 34.1292 91.46L28.7092 99.8C28.6959 99.8933 28.6359 99.96 28.5292 100C28.4359 100.04 28.3226 100.067 28.1892 100.08C28.0559 100.107 27.9159 100.12 27.7692 100.12C27.6359 100.12 27.5226 100.12 27.4292 100.12ZM39.8056 99.02C39.3923 99.3667 38.939 99.6333 38.4456 99.82C37.9656 100.007 37.439 100.1 36.8656 100.1C36.599 100.1 36.3256 100.08 36.0456 100.04C34.979 99.8533 34.259 99.3333 33.8856 98.48C33.5256 97.6267 33.4523 96.6133 33.6656 95.44C33.7723 94.7867 33.9656 94.1533 34.2456 93.54C34.5256 92.9267 34.8856 92.38 35.3256 91.9C35.7656 91.4067 36.279 91.0067 36.8656 90.7C37.4656 90.38 38.1456 90.1933 38.9056 90.14C39.5056 90.1 40.019 90.16 40.4456 90.32C40.8723 90.4667 41.219 90.6933 41.4856 91L41.7256 90.58C41.7923 90.46 41.899 90.3733 42.0456 90.32C42.2056 90.2667 42.3523 90.24 42.4856 90.24L43.9056 90.14C44.0256 90.14 44.119 90.18 44.1856 90.26C44.2656 90.34 44.2923 90.44 44.2656 90.56L42.6256 99.42C42.599 99.54 42.519 99.66 42.3856 99.78C42.2656 99.8867 42.1456 99.9467 42.0256 99.96C41.719 99.9867 41.459 100 41.2456 100C41.0456 99.9867 40.8056 99.98 40.5256 99.98C40.4056 99.9667 40.2856 99.9467 40.1656 99.92C40.059 99.88 39.979 99.7667 39.9256 99.58L39.8056 99.02ZM37.9256 97.82C38.4723 97.86 38.9256 97.6533 39.2856 97.2C39.659 96.7333 39.9323 96.2 40.1056 95.6L40.1856 95.2C40.2523 94.88 40.279 94.5667 40.2656 94.26C40.2656 93.9533 40.2256 93.68 40.1456 93.44C40.079 93.1867 39.9723 92.9867 39.8256 92.84C39.6923 92.68 39.519 92.5933 39.3056 92.58C38.9056 92.5533 38.5456 92.6667 38.2256 92.92C37.919 93.16 37.659 93.4733 37.4456 93.86C37.2323 94.2333 37.0723 94.6467 36.9656 95.1C36.859 95.5533 36.819 95.98 36.8456 96.38C36.8856 96.78 36.9923 97.12 37.1656 97.4C37.339 97.6667 37.5923 97.8067 37.9256 97.82ZM48.6836 100.16C47.9369 100.2 47.3169 100.18 46.8236 100.1C46.3303 100.033 45.9503 99.8733 45.6836 99.62C45.4303 99.3533 45.2836 98.9733 45.2436 98.48C45.2169 97.9867 45.2836 97.3467 45.4436 96.56C45.5903 95.88 45.7236 95.26 45.8436 94.7C45.9636 94.14 46.0836 93.6067 46.2036 93.1L45.3836 93.12C45.1169 93.1333 44.9836 93.1133 44.9836 93.06C44.9836 93.0067 44.9969 92.92 45.0236 92.8L45.4436 90.84C45.4703 90.7467 45.4969 90.6667 45.5236 90.6C45.5503 90.52 45.6703 90.48 45.8836 90.48L46.8236 90.46C46.9036 90.1133 46.9836 89.76 47.0636 89.4C47.1436 89.04 47.2303 88.6533 47.3236 88.24C47.3503 88.12 47.4169 88.0133 47.5236 87.92C47.6303 87.8267 47.7436 87.7733 47.8636 87.76C48.0903 87.76 48.2703 87.76 48.4036 87.76C48.5503 87.7467 48.6903 87.74 48.8236 87.74C48.9569 87.7267 49.0969 87.72 49.2436 87.72C49.3903 87.7067 49.5703 87.6933 49.7836 87.68C50.0103 87.6667 50.1703 87.7067 50.2636 87.8C50.3703 87.88 50.4103 87.98 50.3836 88.1C50.2903 88.5267 50.1969 88.9333 50.1036 89.32C50.0236 89.6933 49.9503 90.0533 49.8836 90.4L51.6236 90.36C51.5969 90.36 51.5969 90.3933 51.6236 90.46C51.6503 90.5133 51.6503 90.5867 51.6236 90.68C51.5569 90.9867 51.4969 91.3 51.4436 91.62C51.4036 91.94 51.3503 92.2533 51.2836 92.56C51.2703 92.6533 51.2369 92.7333 51.1836 92.8C51.1303 92.8533 51.1169 92.88 51.1436 92.88L49.3236 92.96C49.2169 93.4667 49.1103 93.9867 49.0036 94.52C48.8969 95.0533 48.7703 95.66 48.6236 96.34C48.5169 96.7667 48.5369 97.0533 48.6836 97.2C48.8303 97.3333 49.1169 97.3933 49.5436 97.38C49.6503 97.3667 49.7569 97.4067 49.8636 97.5C49.9703 97.5933 50.0036 97.7067 49.9636 97.84L49.4636 99.72C49.3969 99.92 49.2703 100.04 49.0836 100.08C48.9103 100.133 48.7769 100.16 48.6836 100.16ZM59.1563 99.14C58.5563 99.4867 57.9296 99.7467 57.2763 99.92C56.6363 100.093 56.0096 100.18 55.3963 100.18C54.7429 100.18 54.1363 100.08 53.5763 99.88C53.0296 99.6667 52.5763 99.34 52.2163 98.9C51.8563 98.46 51.6163 97.9 51.4963 97.22C51.3896 96.54 51.4563 95.7267 51.6963 94.78C51.9096 93.9533 52.2229 93.24 52.6363 92.64C53.0496 92.0267 53.5163 91.5267 54.0363 91.14C54.5563 90.74 55.1096 90.4467 55.6963 90.26C56.2829 90.06 56.8563 89.96 57.4163 89.96C57.9363 89.96 58.4229 90.04 58.8763 90.2C59.3296 90.36 59.7096 90.6 60.0163 90.92C60.3363 91.24 60.5629 91.6333 60.6963 92.1C60.8296 92.5667 60.8296 93.1 60.6963 93.7C60.5896 94.1933 60.3763 94.6533 60.0563 95.08C59.7363 95.5067 59.3496 95.8733 58.8963 96.18C58.4563 96.4867 57.9763 96.7267 57.4563 96.9C56.9363 97.0733 56.4296 97.16 55.9363 97.16C55.3896 97.16 54.8963 97.04 54.4563 96.8C54.6029 97.1867 54.8363 97.4667 55.1562 97.64C55.4896 97.8 55.8829 97.88 56.3363 97.88C56.6696 97.88 57.0229 97.84 57.3963 97.76C57.7696 97.6667 58.1496 97.5467 58.5363 97.4C58.6429 97.3733 58.7229 97.3867 58.7763 97.44C58.8296 97.48 58.8629 97.52 58.8763 97.56C58.9563 97.8 59.0296 98.0067 59.0963 98.18C59.1763 98.34 59.2563 98.5333 59.3363 98.76C59.3496 98.8 59.3296 98.8667 59.2763 98.96C59.2363 99.0533 59.1963 99.1133 59.1563 99.14ZM54.5763 94.68C54.8429 94.88 55.1963 94.98 55.6363 94.98C55.8763 94.98 56.1163 94.9533 56.3563 94.9C56.6096 94.8333 56.8429 94.74 57.0563 94.62C57.2696 94.5 57.4496 94.3533 57.5963 94.18C57.7563 94.0067 57.8629 93.8067 57.9163 93.58C57.9963 93.22 57.9363 92.94 57.7363 92.74C57.5363 92.54 57.2763 92.44 56.9563 92.44C56.5429 92.44 56.1029 92.6133 55.6363 92.96C55.1696 93.3067 54.8163 93.88 54.5763 94.68ZM77.4895 95.9C77.3029 96.58 77.0029 97.1867 76.5895 97.72C76.1895 98.24 75.7095 98.68 75.1495 99.04C74.6029 99.4 73.9962 99.6667 73.3295 99.84C72.6762 100.013 72.0095 100.087 71.3295 100.06C70.7562 100.033 70.2029 99.92 69.6695 99.72C69.1362 99.52 68.6829 99.24 68.3095 98.88C67.9362 98.5067 67.6629 98.0533 67.4895 97.52C67.3295 96.9867 67.3229 96.3733 67.4695 95.68C67.5095 95.4933 67.5629 95.3667 67.6295 95.3C67.6962 95.22 67.7895 95.1733 67.9095 95.16L70.5495 94.78C70.7762 94.74 70.8829 94.86 70.8695 95.14C70.8162 95.78 70.9495 96.26 71.2695 96.58C71.6029 96.9 71.9629 97.06 72.3495 97.06C72.6429 97.06 72.9162 96.9733 73.1695 96.8C73.4362 96.6133 73.6229 96.34 73.7295 95.98C73.8762 95.54 73.8495 95.18 73.6495 94.9C73.4495 94.62 73.1695 94.3667 72.8095 94.14C72.4629 93.9 72.0629 93.6667 71.6095 93.44C71.1695 93.2 70.7695 92.92 70.4095 92.6C70.0629 92.28 69.7962 91.8867 69.6095 91.42C69.4229 90.94 69.4029 90.3467 69.5495 89.64C69.6962 88.9867 69.9362 88.42 70.2695 87.94C70.6029 87.46 71.0029 87.0667 71.4695 86.76C71.9495 86.44 72.4762 86.2067 73.0495 86.06C73.6362 85.9133 74.2429 85.84 74.8695 85.84C75.3762 85.84 75.8162 85.8867 76.1895 85.98C76.5762 86.0733 76.9162 86.2133 77.2095 86.4C77.5029 86.5733 77.7562 86.7933 77.9695 87.06C78.1962 87.3267 78.4095 87.64 78.6095 88C78.6362 88.0533 78.6495 88.12 78.6495 88.2C78.6495 88.28 78.6162 88.34 78.5495 88.38C78.1629 88.6467 77.7629 88.9067 77.3495 89.16C76.9362 89.4133 76.5162 89.6333 76.0895 89.82C76.0095 89.86 75.9229 89.8733 75.8295 89.86C75.7362 89.8333 75.6762 89.7867 75.6495 89.72C75.5029 89.3067 75.2962 89.0067 75.0295 88.82C74.7629 88.62 74.4962 88.52 74.2295 88.52C73.9629 88.52 73.7229 88.6067 73.5095 88.78C73.2962 88.9533 73.1562 89.2067 73.0895 89.54C73.0229 89.8733 73.1095 90.1533 73.3495 90.38C73.6029 90.6067 73.9229 90.8267 74.3095 91.04C74.7095 91.24 75.1362 91.46 75.5895 91.7C76.0562 91.94 76.4629 92.24 76.8095 92.6C77.1695 92.96 77.4229 93.4067 77.5695 93.94C77.7295 94.46 77.7029 95.1133 77.4895 95.9ZM84.5517 99.02C84.1384 99.3667 83.6851 99.6333 83.1917 99.82C82.7117 100.007 82.1851 100.1 81.6117 100.1C81.3451 100.1 81.0717 100.08 80.7917 100.04C79.7251 99.8533 79.0051 99.3333 78.6317 98.48C78.2717 97.6267 78.1984 96.6133 78.4117 95.44C78.5184 94.7867 78.7117 94.1533 78.9917 93.54C79.2717 92.9267 79.6317 92.38 80.0717 91.9C80.5117 91.4067 81.0251 91.0067 81.6117 90.7C82.2117 90.38 82.8917 90.1933 83.6517 90.14C84.2517 90.1 84.7651 90.16 85.1917 90.32C85.6184 90.4667 85.9651 90.6933 86.2317 91L86.4717 90.58C86.5384 90.46 86.6451 90.3733 86.7917 90.32C86.9517 90.2667 87.0984 90.24 87.2317 90.24L88.6517 90.14C88.7717 90.14 88.8651 90.18 88.9317 90.26C89.0117 90.34 89.0384 90.44 89.0117 90.56L87.3717 99.42C87.3451 99.54 87.2651 99.66 87.1317 99.78C87.0117 99.8867 86.8917 99.9467 86.7717 99.96C86.4651 99.9867 86.2051 100 85.9917 100C85.7917 99.9867 85.5517 99.98 85.2717 99.98C85.1517 99.9667 85.0317 99.9467 84.9117 99.92C84.8051 99.88 84.7251 99.7667 84.6717 99.58L84.5517 99.02ZM82.6717 97.82C83.2184 97.86 83.6717 97.6533 84.0317 97.2C84.4051 96.7333 84.6784 96.2 84.8517 95.6L84.9317 95.2C84.9984 94.88 85.0251 94.5667 85.0117 94.26C85.0117 93.9533 84.9717 93.68 84.8917 93.44C84.8251 93.1867 84.7184 92.9867 84.5717 92.84C84.4384 92.68 84.2651 92.5933 84.0517 92.58C83.6517 92.5533 83.2917 92.6667 82.9717 92.92C82.6651 93.16 82.4051 93.4733 82.1917 93.86C81.9784 94.2333 81.8184 94.6467 81.7117 95.1C81.6051 95.5533 81.5651 95.98 81.5917 96.38C81.6317 96.78 81.7384 97.12 81.9117 97.4C82.0851 97.6667 82.3384 97.8067 82.6717 97.82ZM92.6367 100.16C91.9034 100.2 91.2767 100.18 90.7567 100.1C90.2367 100.033 89.8301 99.8733 89.5367 99.62C89.2434 99.3533 89.0634 98.9733 88.9967 98.48C88.9434 97.9867 88.9967 97.3467 89.1567 96.56C89.5034 94.88 89.8234 93.2467 90.1167 91.66C90.4234 90.0733 90.7567 88.44 91.1167 86.76C91.1434 86.64 91.2101 86.5333 91.3167 86.44C91.4234 86.3467 91.5367 86.3 91.6567 86.3C92.0967 86.2733 92.4967 86.26 92.8567 86.26C93.2167 86.2467 93.6167 86.2267 94.0567 86.2C94.2834 86.1867 94.4501 86.2267 94.5567 86.32C94.6634 86.4 94.7034 86.5 94.6767 86.62C94.2901 88.2867 93.9301 89.9067 93.5967 91.48C93.2767 93.0533 92.9367 94.6733 92.5767 96.34C92.4834 96.7667 92.5101 97.0533 92.6567 97.2C92.8034 97.3333 93.0901 97.3933 93.5167 97.38C93.6234 97.3667 93.7234 97.4067 93.8167 97.5C93.9234 97.5933 93.9634 97.7067 93.9367 97.84L93.4167 99.72C93.3634 99.92 93.2434 100.04 93.0567 100.08C92.8701 100.133 92.7301 100.16 92.6367 100.16ZM102.652 99.14C102.052 99.4867 101.426 99.7467 100.772 99.92C100.132 100.093 99.5057 100.18 98.8923 100.18C98.239 100.18 97.6323 100.08 97.0723 99.88C96.5257 99.6667 96.0723 99.34 95.7123 98.9C95.3523 98.46 95.1123 97.9 94.9923 97.22C94.8857 96.54 94.9523 95.7267 95.1923 94.78C95.4057 93.9533 95.719 93.24 96.1323 92.64C96.5457 92.0267 97.0123 91.5267 97.5323 91.14C98.0523 90.74 98.6057 90.4467 99.1923 90.26C99.779 90.06 100.352 89.96 100.912 89.96C101.432 89.96 101.919 90.04 102.372 90.2C102.826 90.36 103.206 90.6 103.512 90.92C103.832 91.24 104.059 91.6333 104.192 92.1C104.326 92.5667 104.326 93.1 104.192 93.7C104.086 94.1933 103.872 94.6533 103.552 95.08C103.232 95.5067 102.846 95.8733 102.392 96.18C101.952 96.4867 101.472 96.7267 100.952 96.9C100.432 97.0733 99.9257 97.16 99.4323 97.16C98.8857 97.16 98.3923 97.04 97.9523 96.8C98.099 97.1867 98.3323 97.4667 98.6523 97.64C98.9857 97.8 99.379 97.88 99.8323 97.88C100.166 97.88 100.519 97.84 100.892 97.76C101.266 97.6667 101.646 97.5467 102.032 97.4C102.139 97.3733 102.219 97.3867 102.272 97.44C102.326 97.48 102.359 97.52 102.372 97.56C102.452 97.8 102.526 98.0067 102.592 98.18C102.672 98.34 102.752 98.5333 102.832 98.76C102.846 98.8 102.826 98.8667 102.772 98.96C102.732 99.0533 102.692 99.1133 102.652 99.14ZM98.0723 94.68C98.339 94.88 98.6923 94.98 99.1323 94.98C99.3723 94.98 99.6123 94.9533 99.8523 94.9C100.106 94.8333 100.339 94.74 100.552 94.62C100.766 94.5 100.946 94.3533 101.092 94.18C101.252 94.0067 101.359 93.8067 101.412 93.58C101.492 93.22 101.432 92.94 101.232 92.74C101.032 92.54 100.772 92.44 100.452 92.44C100.039 92.44 99.599 92.6133 99.1323 92.96C98.6657 93.3067 98.3123 93.88 98.0723 94.68ZM109.581 90.4C109.447 91 109.161 91.4867 108.721 91.86C108.281 92.2333 107.714 92.3733 107.021 92.28C106.541 92.2133 106.214 92.02 106.041 91.7C105.867 91.3667 105.821 90.98 105.901 90.54C105.981 90.0467 106.201 89.6 106.561 89.2C106.934 88.8 107.461 88.58 108.141 88.54C108.767 88.5 109.194 88.6533 109.421 89C109.661 89.3333 109.714 89.8 109.581 90.4ZM108.441 95.78C108.307 96.38 108.021 96.8667 107.581 97.24C107.141 97.6133 106.574 97.7533 105.881 97.66C105.401 97.5933 105.074 97.4 104.901 97.08C104.727 96.7467 104.674 96.36 104.741 95.92C104.834 95.4267 105.061 94.98 105.421 94.58C105.794 94.18 106.321 93.96 107.001 93.92C107.614 93.8933 108.041 94.0467 108.281 94.38C108.521 94.7133 108.574 95.18 108.441 95.78ZM13.46 116.32C13.2333 117.373 12.8933 118.327 12.44 119.18C12 120.02 11.4667 120.74 10.84 121.34C10.2133 121.927 9.49333 122.38 8.68 122.7C7.88 123.02 7.00667 123.173 6.06 123.16C5.16667 123.147 4.42667 122.92 3.84 122.48C3.25333 122.04 2.8 121.48 2.48 120.8C2.16 120.12 1.96667 119.373 1.9 118.56C1.83333 117.747 1.88 116.967 2.04 116.22C2.21333 115.433 2.47333 114.607 2.82 113.74C3.16667 112.86 3.64667 112.06 4.26 111.34C4.87333 110.62 5.62667 110.04 6.52 109.6C7.42667 109.147 8.52 108.953 9.8 109.02C10.6667 109.06 11.3867 109.267 11.96 109.64C12.5333 110.013 12.9667 110.52 13.26 111.16C13.5667 111.8 13.7333 112.56 13.76 113.44C13.7867 114.307 13.6867 115.267 13.46 116.32ZM6.64 120.24C7.04 120.267 7.41333 120.167 7.76 119.94C8.10667 119.713 8.42 119.407 8.7 119.02C8.98 118.633 9.22667 118.193 9.44 117.7C9.65333 117.193 9.82 116.673 9.94 116.14C10.06 115.633 10.1333 115.133 10.16 114.64C10.1867 114.147 10.16 113.707 10.08 113.32C10 112.92 9.86 112.6 9.66 112.36C9.47333 112.107 9.22 111.967 8.9 111.94C8.44667 111.9 8.04 112.013 7.68 112.28C7.33333 112.533 7.02667 112.873 6.76 113.3C6.50667 113.713 6.29333 114.18 6.12 114.7C5.96 115.207 5.83333 115.693 5.74 116.16C5.64667 116.6 5.58 117.06 5.54 117.54C5.5 118.007 5.50667 118.44 5.56 118.84C5.62667 119.227 5.74 119.553 5.9 119.82C6.07333 120.073 6.32 120.213 6.64 120.24ZM17.0158 121.64C16.8958 122.24 16.6091 122.727 16.1558 123.1C15.7158 123.487 15.1491 123.627 14.4558 123.52C13.9758 123.453 13.6491 123.26 13.4758 122.94C13.3158 122.62 13.2691 122.24 13.3358 121.8C13.4158 121.307 13.6424 120.86 14.0158 120.46C14.3891 120.047 14.9158 119.827 15.5958 119.8C16.2091 119.76 16.6291 119.907 16.8558 120.24C17.0958 120.573 17.1491 121.04 17.0158 121.64ZM30.6084 116.32C30.3818 117.373 30.0418 118.327 29.5884 119.18C29.1484 120.02 28.6151 120.74 27.9884 121.34C27.3618 121.927 26.6418 122.38 25.8284 122.7C25.0284 123.02 24.1551 123.173 23.2084 123.16C22.3151 123.147 21.5751 122.92 20.9884 122.48C20.4018 122.04 19.9484 121.48 19.6284 120.8C19.3084 120.12 19.1151 119.373 19.0484 118.56C18.9818 117.747 19.0284 116.967 19.1884 116.22C19.3618 115.433 19.6218 114.607 19.9684 113.74C20.3151 112.86 20.7951 112.06 21.4084 111.34C22.0218 110.62 22.7751 110.04 23.6684 109.6C24.5751 109.147 25.6684 108.953 26.9484 109.02C27.8151 109.06 28.5351 109.267 29.1084 109.64C29.6818 110.013 30.1151 110.52 30.4084 111.16C30.7151 111.8 30.8818 112.56 30.9084 113.44C30.9351 114.307 30.8351 115.267 30.6084 116.32ZM23.7884 120.24C24.1884 120.267 24.5618 120.167 24.9084 119.94C25.2551 119.713 25.5684 119.407 25.8484 119.02C26.1284 118.633 26.3751 118.193 26.5884 117.7C26.8018 117.193 26.9684 116.673 27.0884 116.14C27.2084 115.633 27.2818 115.133 27.3084 114.64C27.3351 114.147 27.3084 113.707 27.2284 113.32C27.1484 112.92 27.0084 112.6 26.8084 112.36C26.6218 112.107 26.3684 111.967 26.0484 111.94C25.5951 111.9 25.1884 112.013 24.8284 112.28C24.4818 112.533 24.1751 112.873 23.9084 113.3C23.6551 113.713 23.4418 114.18 23.2684 114.7C23.1084 115.207 22.9818 115.693 22.8884 116.16C22.7951 116.6 22.7284 117.06 22.6884 117.54C22.6484 118.007 22.6551 118.44 22.7084 118.84C22.7751 119.227 22.8884 119.553 23.0484 119.82C23.2218 120.073 23.4684 120.213 23.7884 120.24ZM40.7727 122.68C40.746 122.787 40.6793 122.88 40.5727 122.96C40.466 123.04 40.3593 123.08 40.2527 123.08L30.4327 122.92C30.1927 122.92 30.106 122.8 30.1727 122.56C30.2527 122.253 30.3327 121.92 30.4127 121.56C30.4927 121.2 30.5727 120.86 30.6527 120.54C30.826 119.753 31.126 119.1 31.5527 118.58C31.9793 118.06 32.466 117.613 33.0127 117.24C33.5593 116.867 34.1393 116.547 34.7527 116.28C35.366 116 35.9393 115.727 36.4727 115.46C37.006 115.18 37.4593 114.88 37.8327 114.56C38.2193 114.24 38.466 113.84 38.5727 113.36C38.6527 112.973 38.586 112.673 38.3727 112.46C38.1727 112.233 37.9193 112.12 37.6127 112.12C37.3193 112.12 37.0127 112.233 36.6927 112.46C36.386 112.673 36.1327 113.027 35.9327 113.52C35.8527 113.72 35.6727 113.8 35.3927 113.76L32.6127 113.32C32.4793 113.293 32.406 113.24 32.3927 113.16C32.3927 113.067 32.4127 112.967 32.4527 112.86C32.746 112.167 33.1193 111.567 33.5727 111.06C34.026 110.553 34.526 110.133 35.0727 109.8C35.6193 109.467 36.1927 109.22 36.7927 109.06C37.406 108.9 37.9993 108.82 38.5727 108.82C39.2127 108.82 39.8127 108.913 40.3727 109.1C40.9327 109.287 41.406 109.56 41.7927 109.92C42.1927 110.28 42.4793 110.727 42.6527 111.26C42.826 111.78 42.8393 112.38 42.6927 113.06C42.5193 113.86 42.2327 114.533 41.8327 115.08C41.4327 115.627 40.9727 116.093 40.4527 116.48C39.946 116.867 39.3993 117.193 38.8127 117.46C38.2393 117.727 37.6927 117.98 37.1727 118.22C36.666 118.46 36.206 118.713 35.7927 118.98C35.3927 119.247 35.106 119.56 34.9327 119.92L41.1127 119.84C41.286 119.84 41.3527 119.953 41.3127 120.18C41.246 120.567 41.1593 120.993 41.0527 121.46C40.9593 121.927 40.866 122.333 40.7727 122.68ZM57.5116 122.84C57.4849 122.947 57.4182 123.04 57.3116 123.12C57.2049 123.2 57.0982 123.233 56.9916 123.22L51.3516 123.1C50.9382 123.127 50.5516 123.133 50.1916 123.12C49.8449 123.12 49.4849 123.107 49.1116 123.08C48.9916 123.067 48.8916 123.007 48.8116 122.9C48.7316 122.78 48.7049 122.66 48.7316 122.54L51.1716 112.34C51.0916 112.287 51.0716 112.153 51.1116 111.94C51.1782 111.513 51.2382 111.14 51.2916 110.82C51.3582 110.487 51.4449 110.1 51.5516 109.66C51.5782 109.54 51.6449 109.44 51.7516 109.36C51.8716 109.267 51.9916 109.22 52.1116 109.22L59.9516 109.08C60.2316 109.08 60.3916 109.12 60.4316 109.2C60.4849 109.267 60.4916 109.367 60.4516 109.5L59.6316 112.1C59.5782 112.26 59.5049 112.387 59.4116 112.48C59.3182 112.56 59.1782 112.593 58.9916 112.58L54.3716 112.46L53.8516 114.94L57.4716 114.84C57.6316 114.84 57.6982 114.94 57.6716 115.14C57.6049 115.487 57.5182 115.893 57.4116 116.36C57.3182 116.813 57.2316 117.193 57.1516 117.5C57.1249 117.593 57.0582 117.68 56.9516 117.76C56.8582 117.827 56.7716 117.86 56.6916 117.86L53.2516 117.7L52.7916 119.94L57.8716 119.86C58.0449 119.86 58.1182 119.973 58.0916 120.2C58.0249 120.587 57.9382 121.04 57.8316 121.56C57.7249 122.067 57.6182 122.493 57.5116 122.84ZM64.0473 123.1C63.554 123.127 63.1073 123.133 62.7073 123.12C62.3073 123.12 61.894 123.107 61.4673 123.08C61.3473 123.067 61.2473 123.007 61.1673 122.9C61.0873 122.78 61.0607 122.66 61.0873 122.54L63.5873 112.4L60.8673 112.44C60.7607 112.44 60.6607 112.407 60.5673 112.34C60.4873 112.273 60.4607 112.18 60.4873 112.06C60.5273 111.647 60.5807 111.273 60.6473 110.94C60.714 110.593 60.7807 110.193 60.8473 109.74C60.874 109.633 60.9273 109.533 61.0073 109.44C61.0873 109.333 61.1873 109.28 61.3073 109.28L70.9673 108.86C71.0873 108.847 71.194 108.88 71.2873 108.96C71.3807 109.04 71.4007 109.167 71.3473 109.34L70.6273 111.82C70.5607 112.127 70.3207 112.287 69.9073 112.3L66.8673 112.34L64.5473 122.76C64.494 122.96 64.3273 123.073 64.0473 123.1ZM70.538 123.1C70.4313 123.1 70.3313 123.1 70.238 123.1C70.1446 123.1 70.0446 123.107 69.938 123.12C69.8046 123.133 69.698 123.093 69.618 123C69.5513 122.92 69.5313 122.82 69.558 122.7L71.958 109.8C71.9846 109.68 72.058 109.567 72.178 109.46C72.3113 109.34 72.4446 109.273 72.578 109.26C73.0046 109.233 73.418 109.22 73.818 109.22C74.2313 109.22 74.6846 109.233 75.178 109.26C75.4446 109.26 75.5513 109.373 75.498 109.6L74.398 114.86L78.138 114.5L79.258 109.5C79.2846 109.38 79.3646 109.267 79.498 109.16C79.6313 109.053 79.758 109 79.878 109C80.318 109 80.738 109.007 81.138 109.02C81.538 109.033 81.9713 109.067 82.438 109.12C82.718 109.147 82.8246 109.267 82.758 109.48L79.518 122.46C79.478 122.58 79.4046 122.687 79.298 122.78C79.1913 122.86 79.0713 122.9 78.938 122.9C78.5113 122.9 78.138 122.893 77.818 122.88C77.498 122.867 77.1246 122.86 76.698 122.86C76.5646 122.86 76.4646 122.82 76.398 122.74C76.3446 122.647 76.3313 122.54 76.358 122.42L77.458 117.46L73.818 117.56L72.758 122.56C72.7313 122.693 72.6646 122.807 72.558 122.9C72.4513 122.98 72.338 123.027 72.218 123.04C72.1113 123.04 72.0046 123.04 71.898 123.04C71.8046 123.053 71.7046 123.06 71.598 123.06L70.538 123.1Z" fill="black"/>
<path d="M140.52 99.76C140.493 99.88 140.427 99.98 140.32 100.06C140.213 100.14 140.1 100.18 139.98 100.18C139.553 100.153 139.127 100.127 138.7 100.1C138.273 100.073 137.847 100.047 137.42 100.02C137.14 99.9933 137.02 99.8333 137.06 99.54L139.46 89.7C139.393 89.6867 139.34 89.6533 139.3 89.6C139.26 89.5333 139.233 89.4667 139.22 89.4C139.207 89.2667 139.193 89.0933 139.18 88.88C139.18 88.6667 139.18 88.4467 139.18 88.22C139.18 87.9933 139.18 87.7733 139.18 87.56C139.193 87.3333 139.22 87.1533 139.26 87.02C139.287 86.9 139.353 86.8 139.46 86.72C139.58 86.6267 139.693 86.56 139.8 86.52C140.64 86.24 141.52 86.0467 142.44 85.94C143.373 85.8333 144.26 85.8133 145.1 85.88C146.127 85.9467 146.933 86.2533 147.52 86.8C148.107 87.3467 148.48 88.0133 148.64 88.8C148.8 89.5733 148.753 90.4133 148.5 91.32C148.26 92.2133 147.82 93.0467 147.18 93.82C146.54 94.5933 145.707 95.2533 144.68 95.8C143.667 96.3333 142.473 96.6333 141.1 96.7L140.52 99.76ZM144.98 90.84C145.127 90.2133 144.993 89.7267 144.58 89.38C144.18 89.0333 143.52 88.8933 142.6 88.96L141.68 93.7C142.64 93.5533 143.393 93.2267 143.94 92.72C144.487 92.2133 144.833 91.5867 144.98 90.84ZM154.638 98.94C154.265 99.38 153.825 99.72 153.318 99.96C152.811 100.2 152.218 100.327 151.538 100.34C150.805 100.353 150.205 100.24 149.738 100C149.271 99.7467 148.918 99.3933 148.678 98.94C148.451 98.4867 148.325 97.94 148.298 97.3C148.285 96.66 148.358 95.9533 148.518 95.18C148.585 94.86 148.665 94.5133 148.758 94.14C148.865 93.7667 148.971 93.3867 149.078 93C149.185 92.6133 149.285 92.2333 149.378 91.86C149.485 91.4733 149.578 91.12 149.658 90.8C149.685 90.68 149.751 90.5867 149.858 90.52C149.965 90.44 150.078 90.4 150.198 90.4L152.478 90.36C152.598 90.36 152.691 90.4067 152.758 90.5C152.825 90.5933 152.845 90.7 152.818 90.82C152.671 91.4733 152.498 92.1867 152.298 92.96C152.111 93.72 151.945 94.42 151.798 95.06C151.718 95.4333 151.658 95.8 151.618 96.16C151.591 96.5067 151.611 96.8133 151.678 97.08C151.745 97.3467 151.865 97.5533 152.038 97.7C152.225 97.8467 152.485 97.9133 152.818 97.9C153.085 97.8867 153.331 97.8 153.558 97.64C153.798 97.4667 154.011 97.2467 154.198 96.98C154.398 96.7133 154.565 96.4133 154.698 96.08C154.845 95.7467 154.951 95.4 155.018 95.04L155.878 91C155.905 90.88 155.971 90.7733 156.078 90.68C156.185 90.5867 156.305 90.54 156.438 90.54C156.878 90.5133 157.258 90.5 157.578 90.5C157.898 90.4867 158.278 90.4667 158.718 90.44C158.838 90.4267 158.931 90.4667 158.998 90.56C159.078 90.64 159.105 90.74 159.078 90.86L157.478 99.46C157.451 99.58 157.371 99.7 157.238 99.82C157.118 99.9267 156.991 99.98 156.858 99.98C156.645 99.9933 156.485 100 156.378 100C156.271 100.013 156.171 100.02 156.078 100.02C155.998 100.02 155.898 100.02 155.778 100.02C155.671 100.02 155.498 100.013 155.258 100C154.991 100 154.838 99.8867 154.798 99.66L154.638 98.94ZM164.492 100.08C163.838 100.133 163.285 100.067 162.832 99.88C162.378 99.6933 162.018 99.4133 161.752 99.04L161.272 99.62C161.125 99.7667 160.992 99.86 160.872 99.9C160.765 99.94 160.652 99.9667 160.532 99.98C160.252 99.98 160.025 99.9867 159.852 100C159.692 100 159.465 99.9867 159.172 99.96C159.052 99.9467 158.952 99.8867 158.872 99.78C158.792 99.66 158.765 99.54 158.792 99.42L162.072 86.36C162.098 86.24 162.158 86.14 162.252 86.06C162.358 85.98 162.472 85.9467 162.592 85.96C163.018 85.9733 163.352 85.9867 163.592 86C163.845 86 164.178 86.0133 164.592 86.04C164.885 86.0667 165.005 86.22 164.952 86.5L164.052 90.86C164.798 90.38 165.618 90.14 166.512 90.14C166.792 90.14 167.072 90.16 167.352 90.2C167.885 90.28 168.325 90.46 168.672 90.74C169.032 91.0067 169.305 91.3467 169.492 91.76C169.678 92.16 169.792 92.62 169.832 93.14C169.872 93.6467 169.838 94.1933 169.732 94.78C169.612 95.4333 169.412 96.0667 169.132 96.68C168.865 97.2933 168.512 97.8467 168.072 98.34C167.632 98.82 167.112 99.22 166.512 99.54C165.925 99.8467 165.252 100.027 164.492 100.08ZM164.072 97.64C164.472 97.6667 164.832 97.56 165.152 97.32C165.472 97.08 165.738 96.7733 165.952 96.4C166.165 96.0267 166.318 95.62 166.412 95.18C166.518 94.74 166.552 94.3267 166.512 93.94C166.485 93.5533 166.385 93.2267 166.212 92.96C166.038 92.6933 165.778 92.5467 165.432 92.52C165.138 92.4933 164.865 92.5533 164.612 92.7C164.372 92.8333 164.158 93.0133 163.972 93.24C163.785 93.4667 163.625 93.7333 163.492 94.04C163.372 94.3467 163.278 94.66 163.212 94.98V95C163.145 95.32 163.112 95.64 163.112 95.96C163.112 96.2667 163.145 96.5467 163.212 96.8C163.278 97.04 163.385 97.24 163.532 97.4C163.678 97.5467 163.858 97.6267 164.072 97.64ZM174.047 100.16C173.314 100.2 172.687 100.18 172.167 100.1C171.647 100.033 171.24 99.8733 170.947 99.62C170.654 99.3533 170.474 98.9733 170.407 98.48C170.354 97.9867 170.407 97.3467 170.567 96.56C170.914 94.88 171.234 93.2467 171.527 91.66C171.834 90.0733 172.167 88.44 172.527 86.76C172.554 86.64 172.62 86.5333 172.727 86.44C172.834 86.3467 172.947 86.3 173.067 86.3C173.507 86.2733 173.907 86.26 174.267 86.26C174.627 86.2467 175.027 86.2267 175.467 86.2C175.694 86.1867 175.86 86.2267 175.967 86.32C176.074 86.4 176.114 86.5 176.087 86.62C175.7 88.2867 175.34 89.9067 175.007 91.48C174.687 93.0533 174.347 94.6733 173.987 96.34C173.894 96.7667 173.92 97.0533 174.067 97.2C174.214 97.3333 174.5 97.3933 174.927 97.38C175.034 97.3667 175.134 97.4067 175.227 97.5C175.334 97.5933 175.374 97.7067 175.347 97.84L174.827 99.72C174.774 99.92 174.654 100.04 174.467 100.08C174.28 100.133 174.14 100.16 174.047 100.16ZM181.943 87.4C181.809 88 181.523 88.4933 181.083 88.88C180.643 89.2533 180.069 89.3867 179.363 89.28C178.896 89.2133 178.576 89.02 178.403 88.7C178.229 88.38 178.176 88 178.243 87.56C178.336 87.0667 178.563 86.62 178.923 86.22C179.296 85.8067 179.823 85.5867 180.503 85.56C181.116 85.52 181.543 85.6667 181.783 86C182.023 86.3333 182.076 86.8 181.943 87.4ZM177.063 100.02C176.969 100.02 176.869 100.02 176.763 100.02C176.669 100.033 176.569 100.04 176.463 100.04C176.343 100.053 176.243 100.02 176.163 99.94C176.096 99.86 176.076 99.7533 176.103 99.62L177.623 90.9C177.649 90.78 177.723 90.6667 177.843 90.56C177.963 90.4533 178.089 90.3933 178.223 90.38C178.663 90.3533 179.083 90.34 179.483 90.34C179.896 90.3267 180.343 90.3333 180.823 90.36C181.089 90.3867 181.203 90.5 181.163 90.7L179.303 99.48C179.276 99.6133 179.209 99.7267 179.103 99.82C178.996 99.9 178.876 99.9467 178.743 99.96C178.636 99.96 178.529 99.9667 178.423 99.98C178.329 99.98 178.236 99.98 178.143 99.98L177.063 100.02ZM189.425 97.58C188.838 98.46 188.145 99.1067 187.345 99.52C186.545 99.9333 185.752 100.14 184.965 100.14C184.378 100.14 183.825 100.027 183.305 99.8C182.785 99.56 182.352 99.2133 182.005 98.76C181.672 98.3067 181.445 97.7467 181.325 97.08C181.218 96.4133 181.272 95.6467 181.485 94.78C181.672 94.02 181.965 93.3533 182.365 92.78C182.778 92.1933 183.245 91.7 183.765 91.3C184.298 90.9 184.858 90.6 185.445 90.4C186.045 90.1867 186.632 90.08 187.205 90.08C188.005 90.08 188.718 90.3 189.345 90.74C189.972 91.18 190.365 91.86 190.525 92.78C190.592 93.06 190.472 93.2533 190.165 93.36C190.072 93.3867 189.985 93.4133 189.905 93.44C189.825 93.4667 189.745 93.4933 189.665 93.52L188.725 93.86C188.578 93.9 188.418 93.9533 188.245 94.02C188.098 94.06 187.992 94.0467 187.925 93.98C187.872 93.9133 187.838 93.8267 187.825 93.72C187.798 93.3067 187.665 92.9933 187.425 92.78C187.185 92.5667 186.912 92.46 186.605 92.46C186.192 92.46 185.772 92.64 185.345 93C184.918 93.36 184.605 93.92 184.405 94.68C184.178 95.52 184.158 96.2133 184.345 96.76C184.532 97.2933 184.858 97.5933 185.325 97.66C186.045 97.7533 186.678 97.3867 187.225 96.56C187.332 96.4 187.432 96.2867 187.525 96.22C187.632 96.14 187.772 96.1333 187.945 96.2C188.132 96.2533 188.298 96.3333 188.445 96.44L188.765 96.62C188.832 96.66 188.905 96.7 188.985 96.74C189.078 96.78 189.172 96.82 189.265 96.86C189.412 96.9133 189.498 97.0133 189.525 97.16C189.565 97.2933 189.532 97.4333 189.425 97.58ZM207.083 95.9C206.897 96.58 206.597 97.1867 206.183 97.72C205.783 98.24 205.303 98.68 204.743 99.04C204.197 99.4 203.59 99.6667 202.923 99.84C202.27 100.013 201.603 100.087 200.923 100.06C200.35 100.033 199.797 99.92 199.263 99.72C198.73 99.52 198.277 99.24 197.903 98.88C197.53 98.5067 197.257 98.0533 197.083 97.52C196.923 96.9867 196.917 96.3733 197.063 95.68C197.103 95.4933 197.157 95.3667 197.223 95.3C197.29 95.22 197.383 95.1733 197.503 95.16L200.143 94.78C200.37 94.74 200.477 94.86 200.463 95.14C200.41 95.78 200.543 96.26 200.863 96.58C201.197 96.9 201.557 97.06 201.943 97.06C202.237 97.06 202.51 96.9733 202.763 96.8C203.03 96.6133 203.217 96.34 203.323 95.98C203.47 95.54 203.443 95.18 203.243 94.9C203.043 94.62 202.763 94.3667 202.403 94.14C202.057 93.9 201.657 93.6667 201.203 93.44C200.763 93.2 200.363 92.92 200.003 92.6C199.657 92.28 199.39 91.8867 199.203 91.42C199.017 90.94 198.997 90.3467 199.143 89.64C199.29 88.9867 199.53 88.42 199.863 87.94C200.197 87.46 200.597 87.0667 201.063 86.76C201.543 86.44 202.07 86.2067 202.643 86.06C203.23 85.9133 203.837 85.84 204.463 85.84C204.97 85.84 205.41 85.8867 205.783 85.98C206.17 86.0733 206.51 86.2133 206.803 86.4C207.097 86.5733 207.35 86.7933 207.563 87.06C207.79 87.3267 208.003 87.64 208.203 88C208.23 88.0533 208.243 88.12 208.243 88.2C208.243 88.28 208.21 88.34 208.143 88.38C207.757 88.6467 207.357 88.9067 206.943 89.16C206.53 89.4133 206.11 89.6333 205.683 89.82C205.603 89.86 205.517 89.8733 205.423 89.86C205.33 89.8333 205.27 89.7867 205.243 89.72C205.097 89.3067 204.89 89.0067 204.623 88.82C204.357 88.62 204.09 88.52 203.823 88.52C203.557 88.52 203.317 88.6067 203.103 88.78C202.89 88.9533 202.75 89.2067 202.683 89.54C202.617 89.8733 202.703 90.1533 202.943 90.38C203.197 90.6067 203.517 90.8267 203.903 91.04C204.303 91.24 204.73 91.46 205.183 91.7C205.65 91.94 206.057 92.24 206.403 92.6C206.763 92.96 207.017 93.4067 207.163 93.94C207.323 94.46 207.297 95.1133 207.083 95.9ZM214.145 99.02C213.732 99.3667 213.279 99.6333 212.785 99.82C212.305 100.007 211.779 100.1 211.205 100.1C210.939 100.1 210.665 100.08 210.385 100.04C209.319 99.8533 208.599 99.3333 208.225 98.48C207.865 97.6267 207.792 96.6133 208.005 95.44C208.112 94.7867 208.305 94.1533 208.585 93.54C208.865 92.9267 209.225 92.38 209.665 91.9C210.105 91.4067 210.619 91.0067 211.205 90.7C211.805 90.38 212.485 90.1933 213.245 90.14C213.845 90.1 214.359 90.16 214.785 90.32C215.212 90.4667 215.559 90.6933 215.825 91L216.065 90.58C216.132 90.46 216.239 90.3733 216.385 90.32C216.545 90.2667 216.692 90.24 216.825 90.24L218.245 90.14C218.365 90.14 218.459 90.18 218.525 90.26C218.605 90.34 218.632 90.44 218.605 90.56L216.965 99.42C216.939 99.54 216.859 99.66 216.725 99.78C216.605 99.8867 216.485 99.9467 216.365 99.96C216.059 99.9867 215.799 100 215.585 100C215.385 99.9867 215.145 99.98 214.865 99.98C214.745 99.9667 214.625 99.9467 214.505 99.92C214.399 99.88 214.319 99.7667 214.265 99.58L214.145 99.02ZM212.265 97.82C212.812 97.86 213.265 97.6533 213.625 97.2C213.999 96.7333 214.272 96.2 214.445 95.6L214.525 95.2C214.592 94.88 214.619 94.5667 214.605 94.26C214.605 93.9533 214.565 93.68 214.485 93.44C214.419 93.1867 214.312 92.9867 214.165 92.84C214.032 92.68 213.859 92.5933 213.645 92.58C213.245 92.5533 212.885 92.6667 212.565 92.92C212.259 93.16 211.999 93.4733 211.785 93.86C211.572 94.2333 211.412 94.6467 211.305 95.1C211.199 95.5533 211.159 95.98 211.185 96.38C211.225 96.78 211.332 97.12 211.505 97.4C211.679 97.6667 211.932 97.8067 212.265 97.82ZM222.23 100.16C221.497 100.2 220.87 100.18 220.35 100.1C219.83 100.033 219.424 99.8733 219.13 99.62C218.837 99.3533 218.657 98.9733 218.59 98.48C218.537 97.9867 218.59 97.3467 218.75 96.56C219.097 94.88 219.417 93.2467 219.71 91.66C220.017 90.0733 220.35 88.44 220.71 86.76C220.737 86.64 220.804 86.5333 220.91 86.44C221.017 86.3467 221.13 86.3 221.25 86.3C221.69 86.2733 222.09 86.26 222.45 86.26C222.81 86.2467 223.21 86.2267 223.65 86.2C223.877 86.1867 224.044 86.2267 224.15 86.32C224.257 86.4 224.297 86.5 224.27 86.62C223.884 88.2867 223.524 89.9067 223.19 91.48C222.87 93.0533 222.53 94.6733 222.17 96.34C222.077 96.7667 222.104 97.0533 222.25 97.2C222.397 97.3333 222.684 97.3933 223.11 97.38C223.217 97.3667 223.317 97.4067 223.41 97.5C223.517 97.5933 223.557 97.7067 223.53 97.84L223.01 99.72C222.957 99.92 222.837 100.04 222.65 100.08C222.464 100.133 222.324 100.16 222.23 100.16ZM232.246 99.14C231.646 99.4867 231.019 99.7467 230.366 99.92C229.726 100.093 229.099 100.18 228.486 100.18C227.833 100.18 227.226 100.08 226.666 99.88C226.119 99.6667 225.666 99.34 225.306 98.9C224.946 98.46 224.706 97.9 224.586 97.22C224.479 96.54 224.546 95.7267 224.786 94.78C224.999 93.9533 225.313 93.24 225.726 92.64C226.139 92.0267 226.606 91.5267 227.126 91.14C227.646 90.74 228.199 90.4467 228.786 90.26C229.373 90.06 229.946 89.96 230.506 89.96C231.026 89.96 231.513 90.04 231.966 90.2C232.419 90.36 232.799 90.6 233.106 90.92C233.426 91.24 233.653 91.6333 233.786 92.1C233.919 92.5667 233.919 93.1 233.786 93.7C233.679 94.1933 233.466 94.6533 233.146 95.08C232.826 95.5067 232.439 95.8733 231.986 96.18C231.546 96.4867 231.066 96.7267 230.546 96.9C230.026 97.0733 229.519 97.16 229.026 97.16C228.479 97.16 227.986 97.04 227.546 96.8C227.693 97.1867 227.926 97.4667 228.246 97.64C228.579 97.8 228.973 97.88 229.426 97.88C229.759 97.88 230.113 97.84 230.486 97.76C230.859 97.6667 231.239 97.5467 231.626 97.4C231.733 97.3733 231.813 97.3867 231.866 97.44C231.919 97.48 231.953 97.52 231.966 97.56C232.046 97.8 232.119 98.0067 232.186 98.18C232.266 98.34 232.346 98.5333 232.426 98.76C232.439 98.8 232.419 98.8667 232.366 98.96C232.326 99.0533 232.286 99.1133 232.246 99.14ZM227.666 94.68C227.933 94.88 228.286 94.98 228.726 94.98C228.966 94.98 229.206 94.9533 229.446 94.9C229.699 94.8333 229.933 94.74 230.146 94.62C230.359 94.5 230.539 94.3533 230.686 94.18C230.846 94.0067 230.953 93.8067 231.006 93.58C231.086 93.22 231.026 92.94 230.826 92.74C230.626 92.54 230.366 92.44 230.046 92.44C229.633 92.44 229.193 92.6133 228.726 92.96C228.259 93.3067 227.906 93.88 227.666 94.68ZM239.175 90.4C239.041 91 238.755 91.4867 238.315 91.86C237.875 92.2333 237.308 92.3733 236.615 92.28C236.135 92.2133 235.808 92.02 235.635 91.7C235.461 91.3667 235.415 90.98 235.495 90.54C235.575 90.0467 235.795 89.6 236.155 89.2C236.528 88.8 237.055 88.58 237.735 88.54C238.361 88.5 238.788 88.6533 239.015 89C239.255 89.3333 239.308 89.8 239.175 90.4ZM238.035 95.78C237.901 96.38 237.615 96.8667 237.175 97.24C236.735 97.6133 236.168 97.7533 235.475 97.66C234.995 97.5933 234.668 97.4 234.495 97.08C234.321 96.7467 234.268 96.36 234.335 95.92C234.428 95.4267 234.655 94.98 235.015 94.58C235.388 94.18 235.915 93.96 236.595 93.92C237.208 93.8933 237.635 94.0467 237.875 94.38C238.115 94.7133 238.168 95.18 238.035 95.78ZM149.46 116.32C149.233 117.373 148.893 118.327 148.44 119.18C148 120.02 147.467 120.74 146.84 121.34C146.213 121.927 145.493 122.38 144.68 122.7C143.88 123.02 143.007 123.173 142.06 123.16C141.167 123.147 140.427 122.92 139.84 122.48C139.253 122.04 138.8 121.48 138.48 120.8C138.16 120.12 137.967 119.373 137.9 118.56C137.833 117.747 137.88 116.967 138.04 116.22C138.213 115.433 138.473 114.607 138.82 113.74C139.167 112.86 139.647 112.06 140.26 111.34C140.873 110.62 141.627 110.04 142.52 109.6C143.427 109.147 144.52 108.953 145.8 109.02C146.667 109.06 147.387 109.267 147.96 109.64C148.533 110.013 148.967 110.52 149.26 111.16C149.567 111.8 149.733 112.56 149.76 113.44C149.787 114.307 149.687 115.267 149.46 116.32ZM142.64 120.24C143.04 120.267 143.413 120.167 143.76 119.94C144.107 119.713 144.42 119.407 144.7 119.02C144.98 118.633 145.227 118.193 145.44 117.7C145.653 117.193 145.82 116.673 145.94 116.14C146.06 115.633 146.133 115.133 146.16 114.64C146.187 114.147 146.16 113.707 146.08 113.32C146 112.92 145.86 112.6 145.66 112.36C145.473 112.107 145.22 111.967 144.9 111.94C144.447 111.9 144.04 112.013 143.68 112.28C143.333 112.533 143.027 112.873 142.76 113.3C142.507 113.713 142.293 114.18 142.12 114.7C141.96 115.207 141.833 115.693 141.74 116.16C141.647 116.6 141.58 117.06 141.54 117.54C141.5 118.007 141.507 118.44 141.56 118.84C141.627 119.227 141.74 119.553 141.9 119.82C142.073 120.073 142.32 120.213 142.64 120.24ZM153.016 121.64C152.896 122.24 152.609 122.727 152.156 123.1C151.716 123.487 151.149 123.627 150.456 123.52C149.976 123.453 149.649 123.26 149.476 122.94C149.316 122.62 149.269 122.24 149.336 121.8C149.416 121.307 149.642 120.86 150.016 120.46C150.389 120.047 150.916 119.827 151.596 119.8C152.209 119.76 152.629 119.907 152.856 120.24C153.096 120.573 153.149 121.04 153.016 121.64ZM166.608 116.32C166.382 117.373 166.042 118.327 165.588 119.18C165.148 120.02 164.615 120.74 163.988 121.34C163.362 121.927 162.642 122.38 161.828 122.7C161.028 123.02 160.155 123.173 159.208 123.16C158.315 123.147 157.575 122.92 156.988 122.48C156.402 122.04 155.948 121.48 155.628 120.8C155.308 120.12 155.115 119.373 155.048 118.56C154.982 117.747 155.028 116.967 155.188 116.22C155.362 115.433 155.622 114.607 155.968 113.74C156.315 112.86 156.795 112.06 157.408 111.34C158.022 110.62 158.775 110.04 159.668 109.6C160.575 109.147 161.668 108.953 162.948 109.02C163.815 109.06 164.535 109.267 165.108 109.64C165.682 110.013 166.115 110.52 166.408 111.16C166.715 111.8 166.882 112.56 166.908 113.44C166.935 114.307 166.835 115.267 166.608 116.32ZM159.788 120.24C160.188 120.267 160.562 120.167 160.908 119.94C161.255 119.713 161.568 119.407 161.848 119.02C162.128 118.633 162.375 118.193 162.588 117.7C162.802 117.193 162.968 116.673 163.088 116.14C163.208 115.633 163.282 115.133 163.308 114.64C163.335 114.147 163.308 113.707 163.228 113.32C163.148 112.92 163.008 112.6 162.808 112.36C162.622 112.107 162.368 111.967 162.048 111.94C161.595 111.9 161.188 112.013 160.828 112.28C160.482 112.533 160.175 112.873 159.908 113.3C159.655 113.713 159.442 114.18 159.268 114.7C159.108 115.207 158.982 115.693 158.888 116.16C158.795 116.6 158.728 117.06 158.688 117.54C158.648 118.007 158.655 118.44 158.708 118.84C158.775 119.227 158.888 119.553 159.048 119.82C159.222 120.073 159.468 120.213 159.788 120.24ZM176.144 122.68C176.118 122.8 176.051 122.907 175.944 123C175.838 123.08 175.724 123.113 175.604 123.1C175.178 123.073 174.804 123.053 174.484 123.04C174.164 123.04 173.791 123.027 173.364 123C173.244 123 173.144 122.953 173.064 122.86C172.998 122.767 172.978 122.66 173.004 122.54L173.424 120.58L166.924 120.48C166.831 120.48 166.758 120.447 166.704 120.38C166.664 120.313 166.658 120.227 166.684 120.12C166.738 119.933 166.791 119.7 166.844 119.42C166.911 119.14 166.964 118.9 167.004 118.7C167.031 118.593 167.078 118.507 167.144 118.44L175.804 109.42C175.938 109.287 176.091 109.22 176.264 109.22C176.758 109.193 177.204 109.187 177.604 109.2C178.018 109.2 178.438 109.213 178.864 109.24C178.984 109.253 179.078 109.32 179.144 109.44C179.224 109.547 179.251 109.66 179.224 109.78L177.404 117.42H178.884C179.058 117.407 179.124 117.513 179.084 117.74C179.018 118.127 178.931 118.56 178.824 119.04C178.731 119.507 178.638 119.913 178.544 120.26C178.518 120.367 178.451 120.46 178.344 120.54C178.238 120.62 178.131 120.653 178.024 120.64L176.624 120.62L176.144 122.68ZM174.764 114.3L171.484 117.5L174.104 117.46L174.764 114.3ZM194.605 122.84C194.579 122.947 194.512 123.04 194.405 123.12C194.299 123.2 194.192 123.233 194.085 123.22L188.445 123.1C188.032 123.127 187.645 123.133 187.285 123.12C186.939 123.12 186.579 123.107 186.205 123.08C186.085 123.067 185.985 123.007 185.905 122.9C185.825 122.78 185.799 122.66 185.825 122.54L188.265 112.34C188.185 112.287 188.165 112.153 188.205 111.94C188.272 111.513 188.332 111.14 188.385 110.82C188.452 110.487 188.539 110.1 188.645 109.66C188.672 109.54 188.739 109.44 188.845 109.36C188.965 109.267 189.085 109.22 189.205 109.22L197.045 109.08C197.325 109.08 197.485 109.12 197.525 109.2C197.579 109.267 197.585 109.367 197.545 109.5L196.725 112.1C196.672 112.26 196.599 112.387 196.505 112.48C196.412 112.56 196.272 112.593 196.085 112.58L191.465 112.46L190.945 114.94L194.565 114.84C194.725 114.84 194.792 114.94 194.765 115.14C194.699 115.487 194.612 115.893 194.505 116.36C194.412 116.813 194.325 117.193 194.245 117.5C194.219 117.593 194.152 117.68 194.045 117.76C193.952 117.827 193.865 117.86 193.785 117.86L190.345 117.7L189.885 119.94L194.965 119.86C195.139 119.86 195.212 119.973 195.185 120.2C195.119 120.587 195.032 121.04 194.925 121.56C194.819 122.067 194.712 122.493 194.605 122.84ZM201.141 123.1C200.648 123.127 200.201 123.133 199.801 123.12C199.401 123.12 198.988 123.107 198.561 123.08C198.441 123.067 198.341 123.007 198.261 122.9C198.181 122.78 198.154 122.66 198.181 122.54L200.681 112.4L197.961 112.44C197.854 112.44 197.754 112.407 197.661 112.34C197.581 112.273 197.554 112.18 197.581 112.06C197.621 111.647 197.674 111.273 197.741 110.94C197.808 110.593 197.874 110.193 197.941 109.74C197.968 109.633 198.021 109.533 198.101 109.44C198.181 109.333 198.281 109.28 198.401 109.28L208.061 108.86C208.181 108.847 208.288 108.88 208.381 108.96C208.474 109.04 208.494 109.167 208.441 109.34L207.721 111.82C207.654 112.127 207.414 112.287 207.001 112.3L203.961 112.34L201.641 122.76C201.588 122.96 201.421 123.073 201.141 123.1ZM207.632 123.1C207.525 123.1 207.425 123.1 207.332 123.1C207.238 123.1 207.138 123.107 207.032 123.12C206.898 123.133 206.792 123.093 206.712 123C206.645 122.92 206.625 122.82 206.652 122.7L209.052 109.8C209.078 109.68 209.152 109.567 209.272 109.46C209.405 109.34 209.538 109.273 209.672 109.26C210.098 109.233 210.512 109.22 210.912 109.22C211.325 109.22 211.778 109.233 212.272 109.26C212.538 109.26 212.645 109.373 212.592 109.6L211.492 114.86L215.232 114.5L216.352 109.5C216.378 109.38 216.458 109.267 216.592 109.16C216.725 109.053 216.852 109 216.972 109C217.412 109 217.832 109.007 218.232 109.02C218.632 109.033 219.065 109.067 219.532 109.12C219.812 109.147 219.918 109.267 219.852 109.48L216.612 122.46C216.572 122.58 216.498 122.687 216.392 122.78C216.285 122.86 216.165 122.9 216.032 122.9C215.605 122.9 215.232 122.893 214.912 122.88C214.592 122.867 214.218 122.86 213.792 122.86C213.658 122.86 213.558 122.82 213.492 122.74C213.438 122.647 213.425 122.54 213.452 122.42L214.552 117.46L210.912 117.56L209.852 122.56C209.825 122.693 209.758 122.807 209.652 122.9C209.545 122.98 209.432 123.027 209.312 123.04C209.205 123.04 209.098 123.04 208.992 123.04C208.898 123.053 208.798 123.06 208.692 123.06L207.632 123.1Z" fill="black"/>
</svg>
