<svg width="404" height="239" viewBox="0 0 404 239" fill="none" xmlns="http://www.w3.org/2000/svg">
<path d="M93.6553 40.2648C93.472 40.3381 93.2886 40.4115 93.1053 40.4848C92.9586 40.5581 92.812 40.5948 92.6653 40.5948C92.262 40.5948 91.9503 40.3565 91.7303 39.8798L84.5253 25.4148L81.9403 27.6148L79.7953 37.7898C79.722 38.1565 79.5386 38.4681 79.2453 38.7248C78.952 38.9448 78.6403 39.0731 78.3103 39.1098C78.017 39.1098 77.7236 39.1098 77.4303 39.1098C77.1736 39.1465 76.8986 39.1648 76.6053 39.1648L73.6903 39.2748C73.397 39.2748 73.122 39.2748 72.8653 39.2748C72.6087 39.2748 72.3336 39.2931 72.0403 39.3298C71.6736 39.3665 71.3803 39.2565 71.1603 38.9998C70.977 38.7798 70.922 38.5048 70.9953 38.1748L77.5953 2.69979C77.6686 2.36979 77.8703 2.05812 78.2003 1.76479C78.567 1.43479 78.9336 1.25146 79.3003 1.21479C80.4736 1.14146 81.6103 1.10479 82.7103 1.10479C83.847 1.10479 85.0937 1.14146 86.4503 1.21479C87.1837 1.21479 87.477 1.52646 87.3303 2.14979L84.8003 14.2498L99.5403 0.66479C99.8336 0.444791 100.072 0.334791 100.255 0.334791C100.512 0.334791 100.769 0.463124 101.025 0.719789C101.869 1.56312 102.73 2.35146 103.61 3.08479C104.527 3.81812 105.334 4.60646 106.03 5.44979C106.214 5.66979 106.25 5.99979 106.14 6.43979C106.067 6.84312 105.884 7.17312 105.59 7.42979L92.2803 18.8148L101.355 34.3798C101.502 34.6731 101.539 35.0215 101.465 35.4248C101.429 35.7915 101.172 36.1031 100.695 36.3598L93.6553 40.2648Z" fill="white"/>
<path d="M121.413 36.3048C120.276 37.2581 119.029 37.9915 117.673 38.5048C116.353 39.0181 114.904 39.2748 113.328 39.2748C112.594 39.2748 111.843 39.2198 111.073 39.1098C108.139 38.5965 106.159 37.1665 105.133 34.8198C104.143 32.4731 103.941 29.6865 104.528 26.4598C104.821 24.6631 105.353 22.9215 106.123 21.2348C106.893 19.5481 107.883 18.0448 109.093 16.7248C110.303 15.3681 111.714 14.2681 113.328 13.4248C114.978 12.5448 116.848 12.0315 118.938 11.8848C120.588 11.7748 121.999 11.9398 123.173 12.3798C124.346 12.7831 125.299 13.4065 126.033 14.2498L126.693 13.0948C126.876 12.7648 127.169 12.5265 127.573 12.3798C128.013 12.2331 128.416 12.1598 128.783 12.1598L132.688 11.8848C133.018 11.8848 133.274 11.9948 133.458 12.2148C133.678 12.4348 133.751 12.7098 133.678 13.0398L129.168 37.4048C129.094 37.7348 128.874 38.0648 128.508 38.3948C128.178 38.6881 127.848 38.8531 127.518 38.8898C126.674 38.9631 125.959 38.9998 125.373 38.9998C124.823 38.9631 124.163 38.9448 123.393 38.9448C123.063 38.9081 122.733 38.8531 122.403 38.7798C122.109 38.6698 121.889 38.3581 121.743 37.8448L121.413 36.3048ZM116.243 33.0048C117.746 33.1148 118.993 32.5465 119.983 31.2998C121.009 30.0165 121.761 28.5498 122.238 26.8998L122.458 25.7998C122.641 24.9198 122.714 24.0581 122.678 23.2148C122.678 22.3715 122.568 21.6198 122.348 20.9598C122.164 20.2631 121.871 19.7131 121.468 19.3098C121.101 18.8698 120.624 18.6315 120.038 18.5948C118.938 18.5215 117.948 18.8331 117.068 19.5298C116.224 20.1898 115.509 21.0515 114.923 22.1148C114.336 23.1415 113.896 24.2781 113.603 25.5248C113.309 26.7715 113.199 27.9448 113.273 29.0448C113.383 30.1448 113.676 31.0798 114.153 31.8498C114.629 32.5831 115.326 32.9681 116.243 33.0048Z" fill="white"/>
<path d="M135.872 39.0548C135.615 39.0548 135.34 39.0548 135.047 39.0548C134.79 39.0915 134.515 39.1098 134.222 39.1098C133.892 39.1465 133.617 39.0548 133.397 38.8348C133.214 38.6148 133.159 38.3215 133.232 37.9548L138.072 13.9748C138.145 13.6448 138.347 13.3331 138.677 13.0398C139.007 12.7465 139.355 12.5815 139.722 12.5448C140.345 12.5081 140.785 12.4898 141.042 12.4898C141.335 12.4531 141.592 12.4348 141.812 12.4348C142.069 12.4348 142.344 12.4348 142.637 12.4348C142.967 12.4348 143.462 12.4531 144.122 12.4898C144.892 12.5631 145.332 12.8748 145.442 13.4248L145.717 16.3948C146.78 15.0381 148.027 13.9381 149.457 13.0948C150.887 12.2148 152.592 11.8115 154.572 11.8848C155.085 11.9215 155.342 12.1048 155.342 12.4348C155.379 12.7281 155.36 13.0215 155.287 13.3148L154.132 18.6498C153.949 19.5298 153.509 19.9698 152.812 19.9698C150.172 19.9698 148.192 20.5565 146.872 21.7298C145.589 22.9031 144.745 24.4798 144.342 26.4598L141.977 37.6248C141.904 37.9548 141.72 38.2481 141.427 38.5048C141.17 38.7248 140.859 38.8531 140.492 38.8898C140.199 38.8898 139.905 38.9081 139.612 38.9448C139.355 38.9448 139.099 38.9448 138.842 38.9448L135.872 39.0548Z" fill="white"/>
<path d="M175.057 36.6348C173.407 37.5881 171.683 38.3031 169.887 38.7798C168.127 39.2565 166.403 39.4948 164.717 39.4948C162.92 39.4948 161.252 39.2198 159.712 38.6698C158.208 38.0831 156.962 37.1848 155.972 35.9748C154.982 34.7648 154.322 33.2248 153.992 31.3548C153.698 29.4848 153.882 27.2481 154.542 24.6448C155.128 22.3715 155.99 20.4098 157.127 18.7598C158.263 17.0731 159.547 15.6981 160.977 14.6348C162.407 13.5348 163.928 12.7281 165.542 12.2148C167.155 11.6648 168.732 11.3898 170.272 11.3898C171.702 11.3898 173.04 11.6098 174.287 12.0498C175.533 12.4898 176.578 13.1498 177.422 14.0298C178.302 14.9098 178.925 15.9915 179.292 17.2748C179.658 18.5581 179.658 20.0248 179.292 21.6748C178.998 23.0315 178.412 24.2965 177.532 25.4698C176.652 26.6431 175.588 27.6515 174.342 28.4948C173.132 29.3381 171.812 29.9981 170.382 30.4748C168.952 30.9515 167.558 31.1898 166.202 31.1898C164.698 31.1898 163.342 30.8598 162.132 30.1998C162.535 31.2631 163.177 32.0331 164.057 32.5098C164.973 32.9498 166.055 33.1698 167.302 33.1698C168.218 33.1698 169.19 33.0598 170.217 32.8398C171.243 32.5831 172.288 32.2531 173.352 31.8498C173.645 31.7765 173.865 31.8131 174.012 31.9598C174.158 32.0698 174.25 32.1798 174.287 32.2898C174.507 32.9498 174.708 33.5181 174.892 33.9948C175.112 34.4348 175.332 34.9665 175.552 35.5898C175.588 35.6998 175.533 35.8831 175.387 36.1398C175.277 36.3965 175.167 36.5615 175.057 36.6348ZM162.462 24.3698C163.195 24.9198 164.167 25.1948 165.377 25.1948C166.037 25.1948 166.697 25.1215 167.357 24.9748C168.053 24.7915 168.695 24.5348 169.282 24.2048C169.868 23.8748 170.363 23.4715 170.767 22.9948C171.207 22.5181 171.5 21.9681 171.647 21.3448C171.867 20.3548 171.702 19.5848 171.152 19.0348C170.602 18.4848 169.887 18.2098 169.007 18.2098C167.87 18.2098 166.66 18.6865 165.377 19.6398C164.093 20.5931 163.122 22.1698 162.462 24.3698Z" fill="white"/>
<path d="M205.385 38.1198C205.311 38.4498 205.128 38.7248 204.835 38.9448C204.578 39.1648 204.285 39.2748 203.955 39.2748C202.781 39.2015 201.755 39.1098 200.875 38.9998C200.031 38.8531 199.023 38.7431 197.85 38.6698C197.52 38.6331 197.245 38.5048 197.025 38.2848C196.841 38.0281 196.786 37.7348 196.86 37.4048C197.263 35.6081 197.703 33.7748 198.18 31.9048C198.693 29.9981 199.151 28.1648 199.555 26.4048C199.775 25.3415 199.921 24.3331 199.995 23.3798C200.105 22.4265 200.068 21.6015 199.885 20.9048C199.701 20.1715 199.353 19.6031 198.84 19.1998C198.363 18.7598 197.666 18.5581 196.75 18.5948C196.016 18.6315 195.32 18.8881 194.66 19.3648C194 19.8048 193.413 20.3915 192.9 21.1248C192.386 21.8581 191.928 22.6831 191.525 23.5998C191.158 24.5165 190.865 25.4698 190.645 26.4598L188.335 37.6248C188.261 37.9548 188.078 38.2481 187.785 38.5048C187.491 38.7248 187.161 38.8531 186.795 38.8898C186.501 38.8898 186.208 38.9081 185.915 38.9448C185.658 38.9448 185.401 38.9448 185.145 38.9448L182.175 39.0548C181.918 39.0548 181.643 39.0548 181.35 39.0548C181.093 39.0915 180.818 39.1098 180.525 39.1098C180.195 39.1465 179.92 39.0548 179.7 38.8348C179.516 38.6148 179.461 38.3215 179.535 37.9548L183.935 14.3598C184.008 14.0298 184.21 13.7181 184.54 13.4248C184.906 13.0948 185.273 12.9115 185.64 12.8748C186.226 12.8381 186.666 12.8198 186.96 12.8198C187.253 12.7831 187.51 12.7648 187.73 12.7648C187.986 12.7648 188.261 12.7648 188.555 12.7648C188.885 12.7648 189.38 12.7831 190.04 12.8198C190.773 12.8931 191.195 13.2048 191.305 13.7548L191.745 15.7348C192.771 14.5615 193.981 13.6448 195.375 12.9848C196.768 12.2881 198.4 11.9215 200.27 11.8848C202.286 11.8481 203.936 12.1781 205.22 12.8748C206.503 13.5348 207.456 14.4881 208.08 15.7348C208.74 16.9815 209.088 18.4848 209.125 20.2448C209.198 21.9681 209.015 23.9115 208.575 26.0748C208.391 26.9548 208.153 27.9081 207.86 28.9348C207.603 29.9615 207.328 31.0065 207.035 32.0698C206.741 33.1331 206.448 34.1965 206.155 35.2598C205.861 36.2865 205.605 37.2398 205.385 38.1198Z" fill="white"/>
<path d="M236.07 38.9448C234.713 39.0181 233.466 39.0548 232.33 39.0548C231.23 39.0915 230.093 39.0915 228.92 39.0548C228.59 39.0181 228.296 38.8531 228.04 38.5598C227.82 38.2298 227.746 37.8998 227.82 37.5698L235.465 2.75479C235.538 2.42479 235.703 2.14979 235.96 1.92979C236.253 1.67312 236.565 1.56312 236.895 1.59979H238.545L241.515 1.65479C241.771 1.65479 242.028 1.65479 242.285 1.65479C242.541 1.65479 242.816 1.67312 243.11 1.70979C243.66 1.70979 243.99 1.96646 244.1 2.47979L251.855 20.2998L256.035 1.48979C256.145 0.866455 256.585 0.554788 257.355 0.554788C258.711 0.481456 259.94 0.463123 261.04 0.499789C262.176 0.536455 263.331 0.591455 264.505 0.66479C264.835 0.66479 265.091 0.82979 265.275 1.15979C265.495 1.45312 265.568 1.76479 265.495 2.09479L256.695 37.6248C256.621 37.9548 256.438 38.2298 256.145 38.4498C255.851 38.6698 255.54 38.7615 255.21 38.7248C254.036 38.6515 253.01 38.6148 252.13 38.6148C251.25 38.5781 250.223 38.5231 249.05 38.4498C248.646 38.4131 248.353 38.2115 248.17 37.8448L240.965 19.4748L237.39 37.9548C237.28 38.5415 236.84 38.8715 236.07 38.9448Z" fill="white"/>
<path d="M270.883 38.1748C270.81 38.5048 270.627 38.7798 270.333 38.9998C270.04 39.2565 269.728 39.3665 269.398 39.3298C268.225 39.2565 267.198 39.2198 266.318 39.2198C265.438 39.2198 264.412 39.1831 263.238 39.1098C262.908 39.0731 262.652 38.9448 262.468 38.7248C262.285 38.4681 262.23 38.1565 262.303 37.7898L269.893 2.14979C270.003 1.56312 270.443 1.23312 271.213 1.15979H271.598C271.818 1.08646 271.983 1.04979 272.093 1.04979L294.038 0.719789C294.588 0.719789 294.772 1.03146 294.588 1.65479L292.333 8.91479C292.26 9.17146 292.077 9.40979 291.783 9.62979C291.49 9.84979 291.197 9.95979 290.903 9.95979L277.703 9.68479L275.998 16.7798L285.183 16.5598C286.063 16.5598 286.393 16.8715 286.173 17.4948L284.083 23.8748C284.01 24.1315 283.845 24.3698 283.588 24.5898C283.332 24.7731 283.075 24.8648 282.818 24.8648L274.128 24.5348L270.883 38.1748Z" fill="white"/>
<path d="M303.341 39.2748C301.984 39.3481 300.756 39.3665 299.656 39.3298C298.556 39.3298 297.419 39.2931 296.246 39.2198C295.916 39.1831 295.641 39.0181 295.421 38.7248C295.201 38.3948 295.128 38.0648 295.201 37.7348L302.076 9.84979L294.596 9.95979C294.303 9.95979 294.028 9.86812 293.771 9.68479C293.551 9.50146 293.478 9.24479 293.551 8.91479C293.661 7.77812 293.808 6.75146 293.991 5.83479C294.174 4.88146 294.358 3.78146 294.541 2.53479C294.614 2.24146 294.761 1.96646 294.981 1.70979C295.201 1.41646 295.476 1.26979 295.806 1.26979L322.371 0.114791C322.701 0.0781244 322.994 0.169791 323.251 0.38979C323.508 0.60979 323.563 0.958123 323.416 1.43479L321.436 8.25479C321.253 9.09812 320.593 9.53812 319.456 9.57479L311.096 9.68479L304.716 38.3398C304.569 38.8898 304.111 39.2015 303.341 39.2748Z" fill="white"/>
<path d="M3.39408 103.055C3.13742 103.055 2.86242 103.055 2.56908 103.055C2.31242 103.091 2.03742 103.11 1.74408 103.11C1.41408 103.146 1.13908 103.055 0.919085 102.835C0.735751 102.615 0.680751 102.321 0.754085 101.955L5.59408 77.9748C5.66742 77.6448 5.86909 77.3331 6.19909 77.0398C6.52909 76.7465 6.87742 76.5815 7.24408 76.5448C7.86742 76.5081 8.30742 76.4898 8.56409 76.4898C8.85742 76.4531 9.11409 76.4348 9.33409 76.4348C9.59075 76.4348 9.86575 76.4348 10.1591 76.4348C10.4891 76.4348 10.9841 76.4531 11.6441 76.4898C12.4141 76.5631 12.8541 76.8748 12.9641 77.4248L13.2391 80.3948C14.3024 79.0381 15.5491 77.9381 16.9791 77.0948C18.4091 76.2148 20.1141 75.8115 22.0941 75.8848C22.6074 75.9215 22.8641 76.1048 22.8641 76.4348C22.9008 76.7281 22.8824 77.0215 22.8091 77.3148L21.6541 82.6498C21.4708 83.5298 21.0308 83.9698 20.3341 83.9698C17.6941 83.9698 15.7141 84.5565 14.3941 85.7298C13.1108 86.9031 12.2674 88.4798 11.8641 90.4598L9.49909 101.625C9.42575 101.955 9.24242 102.248 8.94909 102.505C8.69242 102.725 8.38075 102.853 8.01408 102.89C7.72075 102.89 7.42742 102.908 7.13408 102.945C6.87742 102.945 6.62075 102.945 6.36408 102.945L3.39408 103.055Z" fill="white"/>
<path d="M42.5786 100.635C40.9286 101.588 39.2052 102.303 37.4086 102.78C35.6486 103.256 33.9252 103.495 32.2386 103.495C30.4419 103.495 28.7736 103.22 27.2336 102.67C25.7302 102.083 24.4836 101.185 23.4936 99.9748C22.5036 98.7648 21.8436 97.2248 21.5136 95.3548C21.2202 93.4848 21.4036 91.2481 22.0636 88.6448C22.6502 86.3715 23.5119 84.4098 24.6486 82.7598C25.7852 81.0731 27.0686 79.6981 28.4986 78.6348C29.9286 77.5348 31.4502 76.7281 33.0636 76.2148C34.6769 75.6648 36.2536 75.3898 37.7936 75.3898C39.2236 75.3898 40.5619 75.6098 41.8086 76.0498C43.0552 76.4898 44.1002 77.1498 44.9436 78.0298C45.8236 78.9098 46.4469 79.9915 46.8136 81.2748C47.1802 82.5581 47.1802 84.0248 46.8136 85.6748C46.5202 87.0315 45.9336 88.2965 45.0536 89.4698C44.1736 90.6431 43.1102 91.6515 41.8636 92.4948C40.6536 93.3381 39.3336 93.9981 37.9036 94.4748C36.4736 94.9515 35.0802 95.1898 33.7236 95.1898C32.2202 95.1898 30.8636 94.8598 29.6536 94.1998C30.0569 95.2631 30.6986 96.0331 31.5786 96.5098C32.4952 96.9498 33.5769 97.1698 34.8236 97.1698C35.7402 97.1698 36.7119 97.0598 37.7386 96.8398C38.7652 96.5831 39.8102 96.2531 40.8736 95.8498C41.1669 95.7765 41.3869 95.8131 41.5336 95.9598C41.6802 96.0698 41.7719 96.1798 41.8086 96.2898C42.0286 96.9498 42.2302 97.5181 42.4136 97.9948C42.6336 98.4348 42.8536 98.9665 43.0736 99.5898C43.1102 99.6998 43.0552 99.8831 42.9086 100.14C42.7986 100.396 42.6886 100.561 42.5786 100.635ZM29.9836 88.3698C30.7169 88.9198 31.6886 89.1948 32.8986 89.1948C33.5586 89.1948 34.2186 89.1215 34.8786 88.9748C35.5752 88.7915 36.2169 88.5348 36.8036 88.2048C37.3902 87.8748 37.8852 87.4715 38.2886 86.9948C38.7286 86.5181 39.0219 85.9681 39.1686 85.3448C39.3886 84.3548 39.2236 83.5848 38.6736 83.0348C38.1236 82.4848 37.4086 82.2098 36.5286 82.2098C35.3919 82.2098 34.1819 82.6865 32.8986 83.6398C31.6152 84.5931 30.6436 86.1698 29.9836 88.3698Z" fill="white"/>
<path d="M57.7358 103.44C55.7191 103.55 53.9958 103.495 52.5658 103.275C51.1358 103.091 50.0175 102.651 49.2108 101.955C48.4041 101.221 47.9091 100.176 47.7258 98.8198C47.5791 97.4631 47.7258 95.7031 48.1658 93.5398C49.1191 88.9198 49.9991 84.4281 50.8058 80.0648C51.6491 75.7015 52.5658 71.2098 53.5558 66.5898C53.6291 66.2598 53.8125 65.9665 54.1058 65.7098C54.3991 65.4531 54.7108 65.3248 55.0408 65.3248C56.2508 65.2515 57.3508 65.2148 58.3408 65.2148C59.3308 65.1781 60.4308 65.1231 61.6408 65.0498C62.2641 65.0131 62.7225 65.1231 63.0158 65.3798C63.3091 65.5998 63.4191 65.8748 63.3458 66.2048C62.2825 70.7881 61.2925 75.2431 60.3758 79.5698C59.4958 83.8965 58.5608 88.3515 57.5708 92.9348C57.3141 94.1081 57.3875 94.8965 57.7908 95.2998C58.1941 95.6665 58.9825 95.8315 60.1558 95.7948C60.4491 95.7581 60.7241 95.8681 60.9808 96.1248C61.2741 96.3815 61.3841 96.6931 61.3108 97.0598L59.8808 102.23C59.7341 102.78 59.4041 103.11 58.8908 103.22C58.3775 103.366 57.9925 103.44 57.7358 103.44Z" fill="white"/>
<path d="M85.2788 100.635C83.6288 101.588 81.9054 102.303 80.1088 102.78C78.3488 103.256 76.6254 103.495 74.9388 103.495C73.1421 103.495 71.4738 103.22 69.9338 102.67C68.4304 102.083 67.1838 101.185 66.1938 99.9748C65.2038 98.7648 64.5438 97.2248 64.2138 95.3548C63.9204 93.4848 64.1038 91.2481 64.7638 88.6448C65.3504 86.3715 66.2121 84.4098 67.3488 82.7598C68.4854 81.0731 69.7688 79.6981 71.1988 78.6348C72.6288 77.5348 74.1504 76.7281 75.7638 76.2148C77.3771 75.6648 78.9538 75.3898 80.4938 75.3898C81.9238 75.3898 83.2621 75.6098 84.5088 76.0498C85.7554 76.4898 86.8004 77.1498 87.6438 78.0298C88.5238 78.9098 89.1471 79.9915 89.5138 81.2748C89.8804 82.5581 89.8804 84.0248 89.5138 85.6748C89.2204 87.0315 88.6338 88.2965 87.7538 89.4698C86.8738 90.6431 85.8104 91.6515 84.5638 92.4948C83.3538 93.3381 82.0338 93.9981 80.6038 94.4748C79.1738 94.9515 77.7804 95.1898 76.4238 95.1898C74.9204 95.1898 73.5638 94.8598 72.3538 94.1998C72.7571 95.2631 73.3988 96.0331 74.2788 96.5098C75.1954 96.9498 76.2771 97.1698 77.5238 97.1698C78.4404 97.1698 79.4121 97.0598 80.4388 96.8398C81.4654 96.5831 82.5104 96.2531 83.5738 95.8498C83.8671 95.7765 84.0871 95.8131 84.2338 95.9598C84.3804 96.0698 84.4721 96.1798 84.5088 96.2898C84.7288 96.9498 84.9304 97.5181 85.1138 97.9948C85.3338 98.4348 85.5538 98.9665 85.7738 99.5898C85.8104 99.6998 85.7554 99.8831 85.6088 100.14C85.4988 100.396 85.3888 100.561 85.2788 100.635ZM72.6838 88.3698C73.4171 88.9198 74.3888 89.1948 75.5988 89.1948C76.2588 89.1948 76.9188 89.1215 77.5788 88.9748C78.2754 88.7915 78.9171 88.5348 79.5038 88.2048C80.0904 87.8748 80.5854 87.4715 80.9888 86.9948C81.4288 86.5181 81.7221 85.9681 81.8688 85.3448C82.0888 84.3548 81.9238 83.5848 81.3738 83.0348C80.8238 82.4848 80.1088 82.2098 79.2288 82.2098C78.0921 82.2098 76.8821 82.6865 75.5988 83.6398C74.3154 84.5931 73.3438 86.1698 72.6838 88.3698Z" fill="white"/>
<path d="M107.797 100.305C106.66 101.258 105.414 101.991 104.057 102.505C102.737 103.018 101.289 103.275 99.712 103.275C98.9786 103.275 98.227 103.22 97.457 103.11C94.5236 102.596 92.5436 101.166 91.517 98.8198C90.527 96.4731 90.3253 93.6865 90.912 90.4598C91.2053 88.6631 91.737 86.9215 92.507 85.2348C93.277 83.5481 94.267 82.0448 95.477 80.7248C96.687 79.3681 98.0986 78.2681 99.712 77.4248C101.362 76.5448 103.232 76.0315 105.322 75.8848C106.972 75.7748 108.384 75.9398 109.557 76.3798C110.73 76.7831 111.684 77.4065 112.417 78.2498L113.077 77.0948C113.26 76.7648 113.554 76.5265 113.957 76.3798C114.397 76.2331 114.8 76.1598 115.167 76.1598L119.072 75.8848C119.402 75.8848 119.659 75.9948 119.842 76.2148C120.062 76.4348 120.135 76.7098 120.062 77.0398L115.552 101.405C115.479 101.735 115.259 102.065 114.892 102.395C114.562 102.688 114.232 102.853 113.902 102.89C113.059 102.963 112.344 103 111.757 103C111.207 102.963 110.547 102.945 109.777 102.945C109.447 102.908 109.117 102.853 108.787 102.78C108.494 102.67 108.274 102.358 108.127 101.845L107.797 100.305ZM102.627 97.0048C104.13 97.1148 105.377 96.5465 106.367 95.2998C107.394 94.0165 108.145 92.5498 108.622 90.8998L108.842 89.7998C109.025 88.9198 109.099 88.0581 109.062 87.2148C109.062 86.3715 108.952 85.6198 108.732 84.9598C108.549 84.2631 108.255 83.7131 107.852 83.3098C107.485 82.8698 107.009 82.6315 106.422 82.5948C105.322 82.5215 104.332 82.8331 103.452 83.5298C102.609 84.1898 101.894 85.0515 101.307 86.1148C100.72 87.1415 100.28 88.2781 99.987 89.5248C99.6936 90.7715 99.5836 91.9448 99.657 93.0448C99.767 94.1448 100.06 95.0798 100.537 95.8498C101.014 96.5831 101.71 96.9681 102.627 97.0048Z" fill="white"/>
<path d="M139.141 94.5298C138.958 95.8865 138.5 97.0965 137.766 98.1598C137.033 99.2231 136.135 100.121 135.071 100.855C134.008 101.551 132.816 102.101 131.496 102.505C130.213 102.871 128.911 103.055 127.591 103.055C125.758 103.055 124.035 102.688 122.421 101.955C120.808 101.221 119.58 100.066 118.736 98.4898C118.59 98.2698 118.736 97.9765 119.176 97.6098L124.016 93.6498C124.126 93.5765 124.255 93.5765 124.401 93.6498C124.585 93.6865 124.713 93.7598 124.786 93.8698C125.446 94.8231 126.051 95.4831 126.601 95.8498C127.188 96.2165 127.701 96.3998 128.141 96.3998C128.618 96.3998 129.003 96.2531 129.296 95.9598C129.626 95.6665 129.828 95.3365 129.901 94.9698C130.085 94.3098 129.846 93.6315 129.186 92.9348C128.526 92.2015 127.775 91.4315 126.931 90.6248C126.125 89.7815 125.373 88.8648 124.676 87.8748C124.016 86.8481 123.741 85.6931 123.851 84.4098C123.961 83.0898 124.328 81.9165 124.951 80.8898C125.611 79.8265 126.418 78.9465 127.371 78.2498C128.361 77.5165 129.443 76.9665 130.616 76.5998C131.79 76.1965 132.963 75.9948 134.136 75.9948C135.786 75.9948 137.308 76.3798 138.701 77.1498C140.131 77.8831 141.195 79.0565 141.891 80.6698C141.965 80.7431 141.983 80.8531 141.946 80.9998C141.946 81.1465 141.91 81.2565 141.836 81.3298C141.03 81.9165 140.15 82.5215 139.196 83.1448C138.243 83.7315 137.4 84.3181 136.666 84.9048C136.52 84.9781 136.355 84.9965 136.171 84.9598C136.025 84.9231 135.915 84.8315 135.841 84.6848C135.438 83.8781 134.998 83.2915 134.521 82.9248C134.081 82.5581 133.66 82.3748 133.256 82.3748C132.67 82.3748 132.321 82.6681 132.211 83.2548C132.065 83.9881 132.376 84.7215 133.146 85.4548C133.916 86.1881 134.778 86.9948 135.731 87.8748C136.685 88.7181 137.528 89.6898 138.261 90.7898C139.031 91.8531 139.325 93.0998 139.141 94.5298Z" fill="white"/>
<path d="M163.267 100.635C161.617 101.588 159.894 102.303 158.097 102.78C156.337 103.256 154.614 103.495 152.927 103.495C151.13 103.495 149.462 103.22 147.922 102.67C146.419 102.083 145.172 101.185 144.182 99.9748C143.192 98.7648 142.532 97.2248 142.202 95.3548C141.909 93.4848 142.092 91.2481 142.752 88.6448C143.339 86.3715 144.2 84.4098 145.337 82.7598C146.474 81.0731 147.757 79.6981 149.187 78.6348C150.617 77.5348 152.139 76.7281 153.752 76.2148C155.365 75.6648 156.942 75.3898 158.482 75.3898C159.912 75.3898 161.25 75.6098 162.497 76.0498C163.744 76.4898 164.789 77.1498 165.632 78.0298C166.512 78.9098 167.135 79.9915 167.502 81.2748C167.869 82.5581 167.869 84.0248 167.502 85.6748C167.209 87.0315 166.622 88.2965 165.742 89.4698C164.862 90.6431 163.799 91.6515 162.552 92.4948C161.342 93.3381 160.022 93.9981 158.592 94.4748C157.162 94.9515 155.769 95.1898 154.412 95.1898C152.909 95.1898 151.552 94.8598 150.342 94.1998C150.745 95.2631 151.387 96.0331 152.267 96.5098C153.184 96.9498 154.265 97.1698 155.512 97.1698C156.429 97.1698 157.4 97.0598 158.427 96.8398C159.454 96.5831 160.499 96.2531 161.562 95.8498C161.855 95.7765 162.075 95.8131 162.222 95.9598C162.369 96.0698 162.46 96.1798 162.497 96.2898C162.717 96.9498 162.919 97.5181 163.102 97.9948C163.322 98.4348 163.542 98.9665 163.762 99.5898C163.799 99.6998 163.744 99.8831 163.597 100.14C163.487 100.396 163.377 100.561 163.267 100.635ZM150.672 88.3698C151.405 88.9198 152.377 89.1948 153.587 89.1948C154.247 89.1948 154.907 89.1215 155.567 88.9748C156.264 88.7915 156.905 88.5348 157.492 88.2048C158.079 87.8748 158.574 87.4715 158.977 86.9948C159.417 86.5181 159.71 85.9681 159.857 85.3448C160.077 84.3548 159.912 83.5848 159.362 83.0348C158.812 82.4848 158.097 82.2098 157.217 82.2098C156.08 82.2098 154.87 82.6865 153.587 83.6398C152.304 84.5931 151.332 86.1698 150.672 88.3698Z" fill="white"/>
<path d="M204.004 99.9198C202.83 100.983 201.529 101.808 200.099 102.395C198.705 102.981 197.165 103.275 195.479 103.275C194.745 103.275 193.994 103.22 193.224 103.11C190.29 102.596 188.31 101.166 187.284 98.8198C186.294 96.4731 186.092 93.6865 186.679 90.4598C186.972 88.6631 187.504 86.9215 188.274 85.2348C189.044 83.5481 190.034 82.0448 191.244 80.7248C192.454 79.3681 193.865 78.2681 195.479 77.4248C197.129 76.5448 198.999 76.0315 201.089 75.8848C203.949 75.7015 206.13 76.3065 207.634 77.6998L210.384 65.8198C210.457 65.4898 210.64 65.2148 210.934 64.9948C211.227 64.7381 211.557 64.5915 211.924 64.5548C212.51 64.5181 213.005 64.4998 213.409 64.4998C213.849 64.4998 214.27 64.4998 214.674 64.4998C215.077 64.4631 215.499 64.4448 215.939 64.4448C216.379 64.4448 216.892 64.4265 217.479 64.3898C217.845 64.3531 218.12 64.4631 218.304 64.7198C218.487 64.9398 218.542 65.2148 218.469 65.5448L211.814 101.46C211.74 101.79 211.52 102.101 211.154 102.395C210.824 102.688 210.475 102.853 210.109 102.89C209.302 102.963 208.66 103 208.184 103C207.744 102.963 207.139 102.926 206.369 102.89C206.039 102.853 205.745 102.78 205.489 102.67C205.232 102.56 204.994 102.303 204.774 101.9L204.004 99.9198ZM198.449 96.6748C199.549 96.7481 200.502 96.4548 201.309 95.7948C202.152 95.1348 202.849 94.2915 203.399 93.2648C203.949 92.2381 204.352 91.1198 204.609 89.9098C204.865 88.6631 204.939 87.5081 204.829 86.4448C204.755 85.3815 204.499 84.4831 204.059 83.7498C203.619 83.0165 202.995 82.6315 202.189 82.5948C201.089 82.5215 200.099 82.8148 199.219 83.4748C198.375 84.1348 197.66 84.9781 197.074 86.0048C196.487 87.0315 196.047 88.1681 195.754 89.4148C195.497 90.6248 195.405 91.7615 195.479 92.8248C195.589 93.8881 195.882 94.7865 196.359 95.5198C196.835 96.2531 197.532 96.6381 198.449 96.6748Z" fill="white"/>
<path d="M234.125 100.305C232.988 101.258 231.742 101.991 230.385 102.505C229.065 103.018 227.617 103.275 226.04 103.275C225.307 103.275 224.555 103.22 223.785 103.11C220.852 102.596 218.872 101.166 217.845 98.8198C216.855 96.4731 216.653 93.6865 217.24 90.4598C217.533 88.6631 218.065 86.9215 218.835 85.2348C219.605 83.5481 220.595 82.0448 221.805 80.7248C223.015 79.3681 224.427 78.2681 226.04 77.4248C227.69 76.5448 229.56 76.0315 231.65 75.8848C233.3 75.7748 234.712 75.9398 235.885 76.3798C237.058 76.7831 238.012 77.4065 238.745 78.2498L239.405 77.0948C239.588 76.7648 239.882 76.5265 240.285 76.3798C240.725 76.2331 241.128 76.1598 241.495 76.1598L245.4 75.8848C245.73 75.8848 245.987 75.9948 246.17 76.2148C246.39 76.4348 246.463 76.7098 246.39 77.0398L241.88 101.405C241.807 101.735 241.587 102.065 241.22 102.395C240.89 102.688 240.56 102.853 240.23 102.89C239.387 102.963 238.672 103 238.085 103C237.535 102.963 236.875 102.945 236.105 102.945C235.775 102.908 235.445 102.853 235.115 102.78C234.822 102.67 234.602 102.358 234.455 101.845L234.125 100.305ZM228.955 97.0048C230.458 97.1148 231.705 96.5465 232.695 95.2998C233.722 94.0165 234.473 92.5498 234.95 90.8998L235.17 89.7998C235.353 88.9198 235.427 88.0581 235.39 87.2148C235.39 86.3715 235.28 85.6198 235.06 84.9598C234.877 84.2631 234.583 83.7131 234.18 83.3098C233.813 82.8698 233.337 82.6315 232.75 82.5948C231.65 82.5215 230.66 82.8331 229.78 83.5298C228.937 84.1898 228.222 85.0515 227.635 86.1148C227.048 87.1415 226.608 88.2781 226.315 89.5248C226.022 90.7715 225.912 91.9448 225.985 93.0448C226.095 94.1448 226.388 95.0798 226.865 95.8498C227.342 96.5831 228.038 96.9681 228.955 97.0048Z" fill="white"/>
<path d="M258.54 103.44C256.486 103.55 254.781 103.495 253.425 103.275C252.068 103.091 251.023 102.651 250.29 101.955C249.593 101.221 249.19 100.176 249.08 98.8198C249.006 97.4631 249.19 95.7031 249.63 93.5398C250.033 91.6698 250.4 89.9648 250.73 88.4248C251.06 86.8848 251.39 85.4181 251.72 84.0248L249.465 84.0798C248.731 84.1165 248.365 84.0615 248.365 83.9148C248.365 83.7681 248.401 83.5298 248.475 83.1998L249.63 77.8098C249.703 77.5531 249.776 77.3331 249.85 77.1498C249.923 76.9298 250.253 76.8198 250.84 76.8198L253.425 76.7648C253.645 75.8115 253.865 74.8398 254.085 73.8498C254.305 72.8598 254.543 71.7965 254.8 70.6598C254.873 70.3298 255.056 70.0365 255.35 69.7798C255.643 69.5231 255.955 69.3765 256.285 69.3398C256.908 69.3398 257.403 69.3398 257.77 69.3398C258.173 69.3031 258.558 69.2848 258.924 69.2848C259.291 69.2481 259.676 69.2298 260.08 69.2298C260.483 69.1931 260.978 69.1565 261.565 69.1198C262.188 69.0831 262.628 69.1931 262.885 69.4498C263.178 69.6698 263.288 69.9448 263.215 70.2748C262.958 71.4481 262.701 72.5665 262.445 73.6298C262.225 74.6565 262.023 75.6465 261.84 76.5998L266.625 76.4898C266.551 76.4898 266.551 76.5815 266.625 76.7648C266.698 76.9115 266.698 77.1131 266.625 77.3698C266.441 78.2131 266.276 79.0748 266.13 79.9548C266.02 80.8348 265.873 81.6965 265.69 82.5398C265.653 82.7965 265.561 83.0165 265.415 83.1998C265.268 83.3465 265.231 83.4198 265.305 83.4198L260.3 83.6398C260.006 85.0331 259.713 86.4631 259.42 87.9298C259.126 89.3965 258.778 91.0648 258.375 92.9348C258.081 94.1081 258.136 94.8965 258.54 95.2998C258.943 95.6665 259.731 95.8315 260.905 95.7948C261.198 95.7581 261.491 95.8681 261.785 96.1248C262.078 96.3815 262.17 96.6931 262.06 97.0598L260.685 102.23C260.501 102.78 260.153 103.11 259.64 103.22C259.163 103.366 258.796 103.44 258.54 103.44Z" fill="white"/>
<path d="M287.339 100.635C285.689 101.588 283.966 102.303 282.169 102.78C280.409 103.256 278.686 103.495 276.999 103.495C275.203 103.495 273.534 103.22 271.994 102.67C270.491 102.083 269.244 101.185 268.254 99.9748C267.264 98.7648 266.604 97.2248 266.274 95.3548C265.981 93.4848 266.164 91.2481 266.824 88.6448C267.411 86.3715 268.273 84.4098 269.409 82.7598C270.546 81.0731 271.829 79.6981 273.259 78.6348C274.689 77.5348 276.211 76.7281 277.824 76.2148C279.438 75.6648 281.014 75.3898 282.554 75.3898C283.984 75.3898 285.323 75.6098 286.569 76.0498C287.816 76.4898 288.861 77.1498 289.704 78.0298C290.584 78.9098 291.208 79.9915 291.574 81.2748C291.941 82.5581 291.941 84.0248 291.574 85.6748C291.281 87.0315 290.694 88.2965 289.814 89.4698C288.934 90.6431 287.871 91.6515 286.624 92.4948C285.414 93.3381 284.094 93.9981 282.664 94.4748C281.234 94.9515 279.841 95.1898 278.484 95.1898C276.981 95.1898 275.624 94.8598 274.414 94.1998C274.818 95.2631 275.459 96.0331 276.339 96.5098C277.256 96.9498 278.338 97.1698 279.584 97.1698C280.501 97.1698 281.473 97.0598 282.499 96.8398C283.526 96.5831 284.571 96.2531 285.634 95.8498C285.928 95.7765 286.148 95.8131 286.294 95.9598C286.441 96.0698 286.533 96.1798 286.569 96.2898C286.789 96.9498 286.991 97.5181 287.174 97.9948C287.394 98.4348 287.614 98.9665 287.834 99.5898C287.871 99.6998 287.816 99.8831 287.669 100.14C287.559 100.396 287.449 100.561 287.339 100.635ZM274.744 88.3698C275.478 88.9198 276.449 89.1948 277.659 89.1948C278.319 89.1948 278.979 89.1215 279.639 88.9748C280.336 88.7915 280.978 88.5348 281.564 88.2048C282.151 87.8748 282.646 87.4715 283.049 86.9948C283.489 86.5181 283.783 85.9681 283.929 85.3448C284.149 84.3548 283.984 83.5848 283.434 83.0348C282.884 82.4848 282.169 82.2098 281.289 82.2098C280.153 82.2098 278.943 82.6865 277.659 83.6398C276.376 84.5931 275.404 86.1698 274.744 88.3698Z" fill="white"/>
<path d="M323.456 103.275C322.099 103.348 320.871 103.366 319.771 103.33C318.671 103.33 317.534 103.293 316.361 103.22C316.031 103.183 315.756 103.018 315.536 102.725C315.316 102.395 315.243 102.065 315.316 101.735L322.191 73.8498L314.711 73.9598C314.418 73.9598 314.143 73.8681 313.886 73.6848C313.666 73.5015 313.592 73.2448 313.666 72.9148C313.776 71.7781 313.923 70.7515 314.106 69.8348C314.289 68.8815 314.473 67.7815 314.656 66.5348C314.729 66.2415 314.876 65.9665 315.096 65.7098C315.316 65.4165 315.591 65.2698 315.921 65.2698L342.486 64.1148C342.816 64.0781 343.109 64.1698 343.366 64.3898C343.623 64.6098 343.678 64.9581 343.531 65.4348L341.551 72.2548C341.368 73.0981 340.707 73.5381 339.571 73.5748L331.211 73.6848L324.831 102.34C324.684 102.89 324.226 103.201 323.456 103.275Z" fill="white"/>
<path d="M357.255 102.835C356.925 102.871 356.375 102.926 355.605 103C354.872 103.073 354.01 103.146 353.02 103.22C352.03 103.33 350.985 103.403 349.885 103.44C348.785 103.513 347.703 103.55 346.64 103.55C345.393 103.55 344.238 103.495 343.175 103.385C342.148 103.275 341.378 103.073 340.865 102.78H340.59C340.223 102.816 339.948 102.725 339.765 102.505C339.582 102.285 339.527 101.991 339.6 101.625L345.87 74.6748C345.723 74.7481 345.595 74.8031 345.485 74.8398C345.008 75.0231 344.66 75.0415 344.44 74.8948C344.22 74.7115 344.092 74.4731 344.055 74.1798C344.018 73.8131 343.963 73.3181 343.89 72.6948C343.853 72.0715 343.817 71.4298 343.78 70.7698C343.743 70.1098 343.725 69.4681 343.725 68.8448C343.725 68.1848 343.78 67.6715 343.89 67.3048C343.963 66.9748 344.147 66.6998 344.44 66.4798C344.77 66.2231 345.082 66.0398 345.375 65.9298C346.512 65.5265 347.777 65.1965 349.17 64.9398C350.6 64.6831 352.048 64.4815 353.515 64.3348C354.982 64.1881 356.412 64.1148 357.805 64.1148C359.235 64.0781 360.518 64.0965 361.655 64.1698C364.515 64.3531 366.66 65.0865 368.09 66.3698C369.557 67.6165 370.382 69.1198 370.565 70.8798C370.785 72.6398 370.437 74.5098 369.52 76.4898C368.64 78.4698 367.283 80.2848 365.45 81.9348C367.027 82.5581 368.237 83.4748 369.08 84.6848C369.923 85.8581 370.418 87.1781 370.565 88.6448C370.712 90.0748 370.528 91.5781 370.015 93.1548C369.502 94.6948 368.677 96.1431 367.54 97.4998C366.44 98.8198 365.01 99.9748 363.25 100.965C361.527 101.918 359.528 102.541 357.255 102.835ZM362.095 75.4448C362.205 74.9681 362.205 74.5098 362.095 74.0698C362.022 73.6298 361.82 73.2448 361.49 72.9148C361.16 72.5481 360.683 72.2548 360.06 72.0348C359.473 71.8148 358.703 71.7048 357.75 71.7048C356.87 71.7048 355.825 71.8148 354.615 72.0348L352.965 81.0548C355.605 80.7615 357.713 80.1381 359.29 79.1848C360.867 78.1948 361.802 76.9481 362.095 75.4448ZM357.145 87.8748C356.118 87.9481 355.147 88.0765 354.23 88.2598C353.35 88.4065 352.452 88.5715 351.535 88.7548L350.38 95.1898C351.59 95.1531 352.708 95.1348 353.735 95.1348C354.762 95.0981 355.513 95.0431 355.99 94.9698C357.64 94.8231 358.905 94.3465 359.785 93.5398C360.665 92.7331 361.16 91.8898 361.27 91.0098C361.38 90.0931 361.087 89.3048 360.39 88.6448C359.73 87.9481 358.648 87.6915 357.145 87.8748Z" fill="white"/>
<path d="M379.446 101.955C379.262 102.285 378.988 102.578 378.621 102.835C378.254 103.055 377.888 103.165 377.521 103.165C376.348 103.128 375.009 103.091 373.506 103.055C372.039 103.018 370.719 102.981 369.546 102.945C369.216 102.945 368.996 102.816 368.886 102.56C368.776 102.303 368.813 102.01 368.996 101.68C372.443 95.7765 375.852 89.8731 379.226 83.9698C382.636 78.0298 386.046 72.1631 389.456 66.3698C389.933 65.5631 390.629 65.1598 391.546 65.1598C391.656 65.1231 391.803 65.1048 391.986 65.1048C392.499 65.1048 392.939 65.1231 393.306 65.1598C393.709 65.1598 394.076 65.1781 394.406 65.2148H396.881C396.991 65.2148 397.119 65.2515 397.266 65.3248H397.486C397.816 65.3615 398.109 65.5081 398.366 65.7648C398.623 65.9848 398.769 66.2598 398.806 66.5898C399.063 68.8631 399.319 71.0815 399.576 73.2448C399.833 75.4081 400.108 77.5898 400.401 79.7898L401.446 88.4798C401.739 90.6431 402.014 92.8248 402.271 95.0248C402.528 97.1881 402.784 99.3881 403.041 101.625C403.077 101.991 402.986 102.303 402.766 102.56C402.546 102.78 402.271 102.871 401.941 102.835C400.768 102.798 399.429 102.78 397.926 102.78C396.459 102.743 395.139 102.688 393.966 102.615C393.636 102.615 393.343 102.505 393.086 102.285C392.829 102.028 392.683 101.735 392.646 101.405C392.536 100.488 392.444 99.5898 392.371 98.7098C392.334 97.8298 392.279 96.9498 392.206 96.0698H382.526C382.013 97.0598 381.499 98.0498 380.986 99.0398C380.473 100.03 379.959 101.001 379.446 101.955ZM391.656 77.6448C390.739 79.4781 389.841 81.2931 388.961 83.0898C388.081 84.8865 387.201 86.7198 386.321 88.5898L391.876 88.0948C391.803 86.3348 391.766 84.5931 391.766 82.8698C391.766 81.1465 391.729 79.4048 391.656 77.6448Z" fill="white"/>
<path d="M13.2315 200.616C13.1888 200.808 13.0821 200.968 12.9115 201.096C12.7408 201.224 12.5595 201.288 12.3675 201.288C11.6848 201.245 11.0021 201.202 10.3195 201.16C9.63681 201.117 8.95414 201.074 8.27148 201.032C7.82348 200.989 7.63148 200.733 7.69548 200.264L11.5355 184.52C11.4288 184.498 11.3435 184.445 11.2795 184.36C11.2155 184.253 11.1728 184.146 11.1515 184.04C11.1301 183.826 11.1088 183.549 11.0875 183.208C11.0875 182.866 11.0875 182.514 11.0875 182.152C11.0875 181.789 11.0875 181.437 11.0875 181.096C11.1088 180.733 11.1515 180.445 11.2155 180.232C11.2581 180.04 11.3648 179.88 11.5355 179.752C11.7275 179.602 11.9088 179.496 12.0795 179.432C13.4235 178.984 14.8315 178.674 16.3035 178.504C17.7968 178.333 19.2155 178.301 20.5595 178.408C22.2021 178.514 23.4928 179.005 24.4315 179.88C25.3701 180.754 25.9675 181.821 26.2235 183.08C26.4795 184.317 26.4048 185.661 25.9995 187.112C25.6155 188.541 24.9115 189.874 23.8875 191.112C22.8635 192.349 21.5301 193.405 19.8875 194.28C18.2661 195.133 16.3568 195.613 14.1595 195.72L13.2315 200.616ZM20.3675 186.344C20.6021 185.341 20.3888 184.562 19.7275 184.008C19.0875 183.453 18.0315 183.229 16.5595 183.336L15.0875 190.92C16.6235 190.685 17.8288 190.162 18.7035 189.352C19.5781 188.541 20.1328 187.538 20.3675 186.344Z" fill="white"/>
<path d="M26.4762 201.032C26.3269 201.032 26.1669 201.032 25.9962 201.032C25.8469 201.053 25.6869 201.064 25.5162 201.064C25.3242 201.085 25.1642 201.032 25.0362 200.904C24.9296 200.776 24.8976 200.605 24.9402 200.392L27.7562 186.44C27.7989 186.248 27.9162 186.066 28.1082 185.896C28.3002 185.725 28.5029 185.629 28.7162 185.608C29.0789 185.586 29.3349 185.576 29.4842 185.576C29.6549 185.554 29.8042 185.544 29.9322 185.544C30.0816 185.544 30.2416 185.544 30.4122 185.544C30.6042 185.544 30.8922 185.554 31.2762 185.576C31.7242 185.618 31.9802 185.8 32.0442 186.12L32.2042 187.848C32.8229 187.058 33.5482 186.418 34.3802 185.928C35.2122 185.416 36.2042 185.181 37.3562 185.224C37.6549 185.245 37.8042 185.352 37.8042 185.544C37.8256 185.714 37.8149 185.885 37.7722 186.056L37.1002 189.16C36.9936 189.672 36.7376 189.928 36.3322 189.928C34.7962 189.928 33.6442 190.269 32.8762 190.952C32.1296 191.634 31.6389 192.552 31.4042 193.704L30.0282 200.2C29.9856 200.392 29.8789 200.562 29.7082 200.712C29.5589 200.84 29.3776 200.914 29.1642 200.936C28.9936 200.936 28.8229 200.946 28.6522 200.968C28.5029 200.968 28.3536 200.968 28.2042 200.968L26.4762 201.032Z" fill="white"/>
<path d="M45.8825 180.84C45.6691 181.8 45.2105 182.589 44.5065 183.208C43.8025 183.805 42.8851 184.018 41.7545 183.848C41.0078 183.741 40.4958 183.432 40.2185 182.92C39.9411 182.408 39.8558 181.8 39.9625 181.096C40.1118 180.306 40.4745 179.592 41.0505 178.952C41.6478 178.29 42.4905 177.938 43.5785 177.896C44.5598 177.832 45.2425 178.066 45.6265 178.6C46.0105 179.133 46.0958 179.88 45.8825 180.84ZM38.0745 201.032C37.9251 201.032 37.7651 201.032 37.5945 201.032C37.4451 201.053 37.2851 201.064 37.1145 201.064C36.9225 201.085 36.7625 201.032 36.6345 200.904C36.5278 200.776 36.4958 200.605 36.5385 200.392L38.9705 186.44C39.0131 186.248 39.1305 186.066 39.3225 185.896C39.5145 185.725 39.7171 185.629 39.9305 185.608C40.6345 185.565 41.3065 185.544 41.9465 185.544C42.6078 185.522 43.3225 185.533 44.0905 185.576C44.5171 185.618 44.6985 185.8 44.6345 186.12L41.6585 200.168C41.6158 200.381 41.5091 200.562 41.3385 200.712C41.1678 200.84 40.9758 200.914 40.7625 200.936C40.5918 200.936 40.4211 200.946 40.2505 200.968C40.1011 200.968 39.9518 200.968 39.8025 200.968L38.0745 201.032Z" fill="white"/>
<path d="M49.8862 201.192C49.6089 201.213 49.2996 201.202 48.9582 201.16C48.6169 201.138 48.4142 200.957 48.3502 200.616L45.8542 187.304C45.8116 187.154 45.8649 186.994 46.0142 186.824C46.1636 186.653 46.3236 186.546 46.4942 186.504L50.0782 185.288C50.2702 185.224 50.4836 185.224 50.7182 185.288C50.9529 185.352 51.0809 185.48 51.1022 185.672L51.8062 193.416L56.2862 185.64C56.3929 185.448 56.5849 185.32 56.8622 185.256C57.1396 185.17 57.3742 185.16 57.5662 185.224L60.1902 186.248C60.3822 186.333 60.5316 186.493 60.6382 186.728C60.7449 186.941 60.7342 187.144 60.6062 187.336L51.9342 200.68C51.9129 200.829 51.8169 200.936 51.6462 201C51.4969 201.064 51.3156 201.106 51.1022 201.128C50.8889 201.17 50.6649 201.192 50.4302 201.192C50.2169 201.192 50.0356 201.192 49.8862 201.192Z" fill="white"/>
<path d="M69.6885 199.432C69.0271 199.986 68.3018 200.413 67.5125 200.712C66.7445 201.01 65.9018 201.16 64.9845 201.16C64.5578 201.16 64.1205 201.128 63.6725 201.064C61.9658 200.765 60.8138 199.933 60.2165 198.568C59.6405 197.202 59.5231 195.581 59.8645 193.704C60.0351 192.658 60.3445 191.645 60.7925 190.664C61.2405 189.682 61.8165 188.808 62.5205 188.04C63.2245 187.25 64.0458 186.61 64.9845 186.12C65.9445 185.608 67.0325 185.309 68.2485 185.224C69.2085 185.16 70.0298 185.256 70.7125 185.512C71.3951 185.746 71.9498 186.109 72.3765 186.6L72.7605 185.928C72.8671 185.736 73.0378 185.597 73.2725 185.512C73.5285 185.426 73.7631 185.384 73.9765 185.384L76.2485 185.224C76.4405 185.224 76.5898 185.288 76.6965 185.416C76.8245 185.544 76.8671 185.704 76.8245 185.896L74.2005 200.072C74.1578 200.264 74.0298 200.456 73.8165 200.648C73.6245 200.818 73.4325 200.914 73.2405 200.936C72.7498 200.978 72.3338 201 71.9925 201C71.6725 200.978 71.2885 200.968 70.8405 200.968C70.6485 200.946 70.4565 200.914 70.2645 200.872C70.0938 200.808 69.9658 200.626 69.8805 200.328L69.6885 199.432ZM66.6805 197.512C67.5551 197.576 68.2805 197.245 68.8565 196.52C69.4538 195.773 69.8911 194.92 70.1685 193.96L70.2965 193.32C70.4031 192.808 70.4458 192.306 70.4245 191.816C70.4245 191.325 70.3605 190.888 70.2325 190.504C70.1258 190.098 69.9551 189.778 69.7205 189.544C69.5071 189.288 69.2298 189.149 68.8885 189.128C68.2485 189.085 67.6725 189.266 67.1605 189.672C66.6698 190.056 66.2538 190.557 65.9125 191.176C65.5711 191.773 65.3151 192.434 65.1445 193.16C64.9738 193.885 64.9098 194.568 64.9525 195.208C65.0165 195.848 65.1871 196.392 65.4645 196.84C65.7418 197.266 66.1471 197.49 66.6805 197.512Z" fill="white"/>
<path d="M83.8932 201.256C82.6986 201.32 81.7066 201.288 80.9172 201.16C80.1279 201.053 79.5199 200.797 79.0932 200.392C78.6879 199.965 78.4532 199.357 78.3892 198.568C78.3466 197.778 78.4532 196.754 78.7092 195.496C78.9439 194.408 79.1572 193.416 79.3492 192.52C79.5412 191.624 79.7332 190.77 79.9252 189.96L78.6132 189.992C78.1866 190.013 77.9732 189.981 77.9732 189.896C77.9732 189.81 77.9946 189.672 78.0372 189.48L78.7092 186.344C78.7519 186.194 78.7946 186.066 78.8372 185.96C78.8799 185.832 79.0719 185.768 79.4132 185.768L80.9172 185.736C81.0452 185.181 81.1732 184.616 81.3012 184.04C81.4292 183.464 81.5679 182.845 81.7172 182.184C81.7599 181.992 81.8666 181.821 82.0372 181.672C82.2079 181.522 82.3892 181.437 82.5812 181.416C82.9439 181.416 83.2319 181.416 83.4452 181.416C83.6799 181.394 83.9039 181.384 84.1172 181.384C84.3306 181.362 84.5546 181.352 84.7892 181.352C85.0239 181.33 85.3119 181.309 85.6532 181.288C86.0159 181.266 86.2719 181.33 86.4212 181.48C86.5919 181.608 86.6559 181.768 86.6132 181.96C86.4639 182.642 86.3146 183.293 86.1652 183.912C86.0372 184.509 85.9199 185.085 85.8132 185.64L88.5972 185.576C88.5546 185.576 88.5546 185.629 88.5972 185.736C88.6399 185.821 88.6399 185.938 88.5972 186.088C88.4906 186.578 88.3946 187.08 88.3092 187.592C88.2452 188.104 88.1599 188.605 88.0532 189.096C88.0319 189.245 87.9786 189.373 87.8932 189.48C87.8079 189.565 87.7866 189.608 87.8292 189.608L84.9172 189.736C84.7466 190.546 84.5759 191.378 84.4052 192.232C84.2346 193.085 84.0319 194.056 83.7972 195.144C83.6266 195.826 83.6586 196.285 83.8932 196.52C84.1279 196.733 84.5866 196.829 85.2692 196.808C85.4399 196.786 85.6106 196.85 85.7812 197C85.9519 197.149 86.0052 197.33 85.9412 197.544L85.1412 200.552C85.0346 200.872 84.8319 201.064 84.5332 201.128C84.2559 201.213 84.0426 201.256 83.8932 201.256Z" fill="white"/>
<path d="M100.649 199.624C99.6895 200.178 98.6868 200.594 97.6415 200.872C96.6175 201.149 95.6148 201.288 94.6335 201.288C93.5881 201.288 92.6175 201.128 91.7215 200.808C90.8468 200.466 90.1215 199.944 89.5455 199.24C88.9695 198.536 88.5855 197.64 88.3935 196.552C88.2228 195.464 88.3295 194.162 88.7135 192.648C89.0548 191.325 89.5561 190.184 90.2175 189.224C90.8788 188.242 91.6255 187.442 92.4575 186.824C93.2895 186.184 94.1748 185.714 95.1135 185.416C96.0521 185.096 96.9695 184.936 97.8655 184.936C98.6975 184.936 99.4761 185.064 100.201 185.32C100.927 185.576 101.535 185.96 102.025 186.472C102.537 186.984 102.9 187.613 103.113 188.36C103.327 189.106 103.327 189.96 103.113 190.92C102.943 191.709 102.601 192.445 102.089 193.128C101.577 193.81 100.959 194.397 100.233 194.888C99.5295 195.378 98.7615 195.762 97.9295 196.04C97.0975 196.317 96.2868 196.456 95.4975 196.456C94.6228 196.456 93.8335 196.264 93.1295 195.88C93.3641 196.498 93.7375 196.946 94.2495 197.224C94.7828 197.48 95.4121 197.608 96.1375 197.608C96.6708 197.608 97.2361 197.544 97.8335 197.416C98.4308 197.266 99.0388 197.074 99.6575 196.84C99.8281 196.797 99.9561 196.818 100.041 196.904C100.127 196.968 100.18 197.032 100.201 197.096C100.329 197.48 100.447 197.81 100.553 198.088C100.681 198.344 100.809 198.653 100.937 199.016C100.959 199.08 100.927 199.186 100.841 199.336C100.777 199.485 100.713 199.581 100.649 199.624ZM93.3215 192.488C93.7481 192.808 94.3135 192.968 95.0175 192.968C95.4015 192.968 95.7855 192.925 96.1695 192.84C96.5748 192.733 96.9481 192.584 97.2895 192.392C97.6308 192.2 97.9188 191.965 98.1535 191.688C98.4095 191.41 98.5801 191.09 98.6655 190.728C98.7935 190.152 98.6975 189.704 98.3775 189.384C98.0575 189.064 97.6415 188.904 97.1295 188.904C96.4681 188.904 95.7641 189.181 95.0175 189.736C94.2708 190.29 93.7055 191.208 93.3215 192.488Z" fill="white"/>
<path d="M129.983 194.44C129.684 195.528 129.204 196.498 128.543 197.352C127.903 198.184 127.135 198.888 126.239 199.464C125.364 200.04 124.393 200.466 123.327 200.744C122.281 201.021 121.215 201.138 120.127 201.096C119.209 201.053 118.324 200.872 117.471 200.552C116.617 200.232 115.892 199.784 115.295 199.208C114.697 198.61 114.26 197.885 113.983 197.032C113.727 196.178 113.716 195.197 113.951 194.088C114.015 193.789 114.1 193.586 114.207 193.48C114.313 193.352 114.463 193.277 114.655 193.256L118.879 192.648C119.241 192.584 119.412 192.776 119.391 193.224C119.305 194.248 119.519 195.016 120.031 195.528C120.564 196.04 121.14 196.296 121.759 196.296C122.228 196.296 122.665 196.157 123.071 195.88C123.497 195.581 123.796 195.144 123.967 194.568C124.201 193.864 124.159 193.288 123.839 192.84C123.519 192.392 123.071 191.986 122.495 191.624C121.94 191.24 121.3 190.866 120.575 190.504C119.871 190.12 119.231 189.672 118.655 189.16C118.1 188.648 117.673 188.018 117.375 187.272C117.076 186.504 117.044 185.554 117.279 184.424C117.513 183.378 117.897 182.472 118.431 181.704C118.964 180.936 119.604 180.306 120.351 179.816C121.119 179.304 121.961 178.93 122.879 178.696C123.817 178.461 124.788 178.344 125.791 178.344C126.601 178.344 127.305 178.418 127.903 178.568C128.521 178.717 129.065 178.941 129.535 179.24C130.004 179.517 130.409 179.869 130.751 180.296C131.113 180.722 131.455 181.224 131.775 181.8C131.817 181.885 131.839 181.992 131.839 182.12C131.839 182.248 131.785 182.344 131.679 182.408C131.06 182.834 130.42 183.25 129.759 183.656C129.097 184.061 128.425 184.413 127.743 184.712C127.615 184.776 127.476 184.797 127.327 184.776C127.177 184.733 127.081 184.658 127.039 184.552C126.804 183.89 126.473 183.41 126.047 183.112C125.62 182.792 125.193 182.632 124.767 182.632C124.34 182.632 123.956 182.77 123.615 183.048C123.273 183.325 123.049 183.73 122.943 184.264C122.836 184.797 122.975 185.245 123.359 185.608C123.764 185.97 124.276 186.322 124.895 186.664C125.535 186.984 126.217 187.336 126.943 187.72C127.689 188.104 128.34 188.584 128.895 189.16C129.471 189.736 129.876 190.45 130.111 191.304C130.367 192.136 130.324 193.181 129.983 194.44Z" fill="white"/>
<path d="M141.282 199.432C140.621 199.986 139.896 200.413 139.106 200.712C138.338 201.01 137.496 201.16 136.578 201.16C136.152 201.16 135.714 201.128 135.266 201.064C133.56 200.765 132.408 199.933 131.81 198.568C131.234 197.202 131.117 195.581 131.458 193.704C131.629 192.658 131.938 191.645 132.386 190.664C132.834 189.682 133.41 188.808 134.114 188.04C134.818 187.25 135.64 186.61 136.578 186.12C137.538 185.608 138.626 185.309 139.842 185.224C140.802 185.16 141.624 185.256 142.306 185.512C142.989 185.746 143.544 186.109 143.97 186.6L144.354 185.928C144.461 185.736 144.632 185.597 144.866 185.512C145.122 185.426 145.357 185.384 145.57 185.384L147.842 185.224C148.034 185.224 148.184 185.288 148.29 185.416C148.418 185.544 148.461 185.704 148.418 185.896L145.794 200.072C145.752 200.264 145.624 200.456 145.41 200.648C145.218 200.818 145.026 200.914 144.834 200.936C144.344 200.978 143.928 201 143.586 201C143.266 200.978 142.882 200.968 142.434 200.968C142.242 200.946 142.05 200.914 141.858 200.872C141.688 200.808 141.56 200.626 141.474 200.328L141.282 199.432ZM138.274 197.512C139.149 197.576 139.874 197.245 140.45 196.52C141.048 195.773 141.485 194.92 141.762 193.96L141.89 193.32C141.997 192.808 142.04 192.306 142.018 191.816C142.018 191.325 141.954 190.888 141.826 190.504C141.72 190.098 141.549 189.778 141.314 189.544C141.101 189.288 140.824 189.149 140.482 189.128C139.842 189.085 139.266 189.266 138.754 189.672C138.264 190.056 137.848 190.557 137.506 191.176C137.165 191.773 136.909 192.434 136.738 193.16C136.568 193.885 136.504 194.568 136.546 195.208C136.61 195.848 136.781 196.392 137.058 196.84C137.336 197.266 137.741 197.49 138.274 197.512Z" fill="white"/>
<path d="M154.218 201.256C153.045 201.32 152.042 201.288 151.21 201.16C150.378 201.053 149.728 200.797 149.258 200.392C148.789 199.965 148.501 199.357 148.394 198.568C148.309 197.778 148.394 196.754 148.65 195.496C149.205 192.808 149.717 190.194 150.186 187.656C150.677 185.117 151.21 182.504 151.786 179.816C151.829 179.624 151.936 179.453 152.106 179.304C152.277 179.154 152.458 179.08 152.65 179.08C153.354 179.037 153.994 179.016 154.57 179.016C155.146 178.994 155.786 178.962 156.49 178.92C156.853 178.898 157.12 178.962 157.29 179.112C157.461 179.24 157.525 179.4 157.482 179.592C156.864 182.258 156.288 184.85 155.754 187.368C155.242 189.885 154.698 192.477 154.122 195.144C153.973 195.826 154.016 196.285 154.25 196.52C154.485 196.733 154.944 196.829 155.626 196.808C155.797 196.786 155.957 196.85 156.106 197C156.277 197.149 156.341 197.33 156.298 197.544L155.466 200.552C155.381 200.872 155.189 201.064 154.89 201.128C154.592 201.213 154.368 201.256 154.218 201.256Z" fill="white"/>
<path d="M170.243 199.624C169.283 200.178 168.281 200.594 167.235 200.872C166.211 201.149 165.209 201.288 164.227 201.288C163.182 201.288 162.211 201.128 161.315 200.808C160.441 200.466 159.715 199.944 159.139 199.24C158.563 198.536 158.179 197.64 157.987 196.552C157.817 195.464 157.923 194.162 158.307 192.648C158.649 191.325 159.15 190.184 159.811 189.224C160.473 188.242 161.219 187.442 162.051 186.824C162.883 186.184 163.769 185.714 164.707 185.416C165.646 185.096 166.563 184.936 167.459 184.936C168.291 184.936 169.07 185.064 169.795 185.32C170.521 185.576 171.129 185.96 171.619 186.472C172.131 186.984 172.494 187.613 172.707 188.36C172.921 189.106 172.921 189.96 172.707 190.92C172.537 191.709 172.195 192.445 171.683 193.128C171.171 193.81 170.553 194.397 169.827 194.888C169.123 195.378 168.355 195.762 167.523 196.04C166.691 196.317 165.881 196.456 165.091 196.456C164.217 196.456 163.427 196.264 162.723 195.88C162.958 196.498 163.331 196.946 163.843 197.224C164.377 197.48 165.006 197.608 165.731 197.608C166.265 197.608 166.83 197.544 167.427 197.416C168.025 197.266 168.633 197.074 169.251 196.84C169.422 196.797 169.55 196.818 169.635 196.904C169.721 196.968 169.774 197.032 169.795 197.096C169.923 197.48 170.041 197.81 170.147 198.088C170.275 198.344 170.403 198.653 170.531 199.016C170.553 199.08 170.521 199.186 170.435 199.336C170.371 199.485 170.307 199.581 170.243 199.624ZM162.915 192.488C163.342 192.808 163.907 192.968 164.611 192.968C164.995 192.968 165.379 192.925 165.763 192.84C166.169 192.733 166.542 192.584 166.883 192.392C167.225 192.2 167.513 191.965 167.747 191.688C168.003 191.41 168.174 191.09 168.259 190.728C168.387 190.152 168.291 189.704 167.971 189.384C167.651 189.064 167.235 188.904 166.723 188.904C166.062 188.904 165.358 189.181 164.611 189.736C163.865 190.29 163.299 191.208 162.915 192.488Z" fill="white"/>
<path d="M181.329 185.64C181.115 186.6 180.657 187.378 179.953 187.976C179.249 188.573 178.342 188.797 177.233 188.648C176.465 188.541 175.942 188.232 175.665 187.72C175.387 187.186 175.313 186.568 175.441 185.864C175.569 185.074 175.921 184.36 176.497 183.72C177.094 183.08 177.937 182.728 179.025 182.664C180.027 182.6 180.71 182.845 181.073 183.4C181.457 183.933 181.542 184.68 181.329 185.64ZM179.505 194.248C179.291 195.208 178.833 195.986 178.129 196.584C177.425 197.181 176.518 197.405 175.409 197.256C174.641 197.149 174.118 196.84 173.841 196.328C173.563 195.794 173.478 195.176 173.585 194.472C173.734 193.682 174.097 192.968 174.673 192.328C175.27 191.688 176.113 191.336 177.201 191.272C178.182 191.229 178.865 191.474 179.249 192.008C179.633 192.541 179.718 193.288 179.505 194.248Z" fill="white"/>
<path d="M27.5355 227.312C27.1728 228.997 26.6288 230.522 25.9035 231.888C25.1995 233.232 24.3461 234.384 23.3435 235.344C22.3408 236.282 21.1888 237.008 19.8875 237.52C18.6075 238.032 17.2101 238.277 15.6955 238.256C14.2661 238.234 13.0821 237.872 12.1435 237.168C11.2048 236.464 10.4795 235.568 9.96748 234.48C9.45548 233.392 9.14614 232.197 9.03948 230.896C8.93281 229.594 9.00748 228.346 9.26348 227.152C9.54081 225.893 9.95681 224.57 10.5115 223.184C11.0661 221.776 11.8341 220.496 12.8155 219.344C13.7968 218.192 15.0021 217.264 16.4315 216.56C17.8821 215.834 19.6315 215.525 21.6795 215.632C23.0661 215.696 24.2181 216.026 25.1355 216.624C26.0528 217.221 26.7461 218.032 27.2155 219.056C27.7061 220.08 27.9728 221.296 28.0155 222.704C28.0581 224.09 27.8981 225.626 27.5355 227.312ZM16.6235 233.584C17.2635 233.626 17.8608 233.466 18.4155 233.104C18.9701 232.741 19.4715 232.25 19.9195 231.632C20.3675 231.013 20.7621 230.309 21.1035 229.52C21.4448 228.709 21.7115 227.877 21.9035 227.024C22.0955 226.213 22.2128 225.413 22.2555 224.624C22.2981 223.834 22.2555 223.13 22.1275 222.512C21.9995 221.872 21.7755 221.36 21.4555 220.976C21.1568 220.57 20.7515 220.346 20.2395 220.304C19.5141 220.24 18.8635 220.421 18.2875 220.848C17.7328 221.253 17.2421 221.797 16.8155 222.48C16.4101 223.141 16.0688 223.888 15.7915 224.72C15.5355 225.53 15.3328 226.309 15.1835 227.056C15.0341 227.76 14.9275 228.496 14.8635 229.264C14.7995 230.01 14.8101 230.704 14.8955 231.344C15.0021 231.962 15.1835 232.485 15.4395 232.912C15.7168 233.317 16.1115 233.541 16.6235 233.584Z" fill="white"/>
<path d="M33.2247 235.824C33.0327 236.784 32.5741 237.562 31.8487 238.16C31.1447 238.778 30.2381 239.002 29.1287 238.832C28.3607 238.725 27.8381 238.416 27.5607 237.904C27.3047 237.392 27.2301 236.784 27.3367 236.08C27.4647 235.29 27.8274 234.576 28.4247 233.936C29.0221 233.274 29.8647 232.922 30.9527 232.88C31.9341 232.816 32.6061 233.05 32.9687 233.584C33.3527 234.117 33.4381 234.864 33.2247 235.824Z" fill="white"/>
<path d="M54.973 227.312C54.6103 228.997 54.0663 230.522 53.341 231.888C52.637 233.232 51.7836 234.384 50.781 235.344C49.7783 236.282 48.6263 237.008 47.325 237.52C46.045 238.032 44.6476 238.277 43.133 238.256C41.7036 238.234 40.5196 237.872 39.581 237.168C38.6423 236.464 37.917 235.568 37.405 234.48C36.893 233.392 36.5836 232.197 36.477 230.896C36.3703 229.594 36.445 228.346 36.701 227.152C36.9783 225.893 37.3943 224.57 37.949 223.184C38.5036 221.776 39.2716 220.496 40.253 219.344C41.2343 218.192 42.4396 217.264 43.869 216.56C45.3196 215.834 47.069 215.525 49.117 215.632C50.5036 215.696 51.6556 216.026 52.573 216.624C53.4903 217.221 54.1836 218.032 54.653 219.056C55.1436 220.08 55.4103 221.296 55.453 222.704C55.4956 224.09 55.3356 225.626 54.973 227.312ZM44.061 233.584C44.701 233.626 45.2983 233.466 45.853 233.104C46.4076 232.741 46.909 232.25 47.357 231.632C47.805 231.013 48.1996 230.309 48.541 229.52C48.8823 228.709 49.149 227.877 49.341 227.024C49.533 226.213 49.6503 225.413 49.693 224.624C49.7356 223.834 49.693 223.13 49.565 222.512C49.437 221.872 49.213 221.36 48.893 220.976C48.5943 220.57 48.189 220.346 47.677 220.304C46.9516 220.24 46.301 220.421 45.725 220.848C45.1703 221.253 44.6796 221.797 44.253 222.48C43.8476 223.141 43.5063 223.888 43.229 224.72C42.973 225.53 42.7703 226.309 42.621 227.056C42.4716 227.76 42.365 228.496 42.301 229.264C42.237 230.01 42.2476 230.704 42.333 231.344C42.4396 231.962 42.621 232.485 42.877 232.912C43.1543 233.317 43.549 233.541 44.061 233.584Z" fill="white"/>
<path d="M71.2357 237.488C71.1931 237.658 71.0864 237.808 70.9157 237.936C70.7451 238.064 70.5744 238.128 70.4037 238.128L54.6917 237.872C54.3077 237.872 54.1691 237.68 54.2757 237.296C54.4037 236.805 54.5317 236.272 54.6597 235.696C54.7877 235.12 54.9157 234.576 55.0437 234.064C55.3211 232.805 55.8011 231.76 56.4837 230.928C57.1664 230.096 57.9451 229.381 58.8197 228.784C59.6944 228.186 60.6224 227.674 61.6037 227.248C62.5851 226.8 63.5024 226.362 64.3557 225.936C65.2091 225.488 65.9344 225.008 66.5317 224.496C67.1504 223.984 67.5451 223.344 67.7157 222.576C67.8437 221.957 67.7371 221.477 67.3957 221.136C67.0757 220.773 66.6704 220.592 66.1797 220.592C65.7104 220.592 65.2197 220.773 64.7077 221.136C64.2171 221.477 63.8117 222.042 63.4917 222.832C63.3637 223.152 63.0757 223.28 62.6277 223.216L58.1797 222.512C57.9664 222.469 57.8491 222.384 57.8277 222.256C57.8277 222.106 57.8597 221.946 57.9237 221.776C58.3931 220.666 58.9904 219.706 59.7157 218.896C60.4411 218.085 61.2411 217.413 62.1157 216.88C62.9904 216.346 63.9077 215.952 64.8677 215.696C65.8491 215.44 66.7984 215.312 67.7157 215.312C68.7397 215.312 69.6997 215.461 70.5957 215.76C71.4917 216.058 72.2491 216.496 72.8677 217.072C73.5077 217.648 73.9664 218.362 74.2437 219.216C74.5211 220.048 74.5424 221.008 74.3077 222.096C74.0304 223.376 73.5717 224.453 72.9317 225.328C72.2917 226.202 71.5557 226.949 70.7237 227.568C69.9131 228.186 69.0384 228.709 68.0997 229.136C67.1824 229.562 66.3077 229.968 65.4757 230.352C64.6651 230.736 63.9291 231.141 63.2677 231.568C62.6277 231.994 62.1691 232.496 61.8917 233.072L71.7797 232.944C72.0571 232.944 72.1637 233.125 72.0997 233.488C71.9931 234.106 71.8544 234.789 71.6837 235.536C71.5344 236.282 71.3851 236.933 71.2357 237.488Z" fill="white"/>
<path d="M98.018 237.744C97.9753 237.914 97.8686 238.064 97.698 238.192C97.5273 238.32 97.3566 238.373 97.186 238.352L88.162 238.16C87.5006 238.202 86.882 238.213 86.306 238.192C85.7513 238.192 85.1753 238.17 84.578 238.128C84.386 238.106 84.226 238.01 84.098 237.84C83.97 237.648 83.9273 237.456 83.97 237.264L87.874 220.944C87.746 220.858 87.714 220.645 87.778 220.304C87.8846 219.621 87.9806 219.024 88.066 218.512C88.1726 217.978 88.3113 217.36 88.482 216.656C88.5246 216.464 88.6313 216.304 88.802 216.176C88.994 216.026 89.186 215.952 89.378 215.952L101.922 215.728C102.37 215.728 102.626 215.792 102.69 215.92C102.775 216.026 102.786 216.186 102.722 216.4L101.41 220.56C101.325 220.816 101.207 221.018 101.058 221.168C100.909 221.296 100.685 221.349 100.386 221.328L92.994 221.136L92.162 225.104L97.954 224.944C98.21 224.944 98.3166 225.104 98.274 225.424C98.1673 225.978 98.0286 226.629 97.858 227.376C97.7086 228.101 97.57 228.709 97.442 229.2C97.3993 229.349 97.2926 229.488 97.122 229.616C96.9726 229.722 96.834 229.776 96.706 229.776L91.202 229.52L90.466 233.104L98.594 232.976C98.8713 232.976 98.9886 233.157 98.946 233.52C98.8393 234.138 98.7006 234.864 98.53 235.696C98.3593 236.506 98.1886 237.189 98.018 237.744Z" fill="white"/>
<path d="M108.475 238.16C107.686 238.202 106.971 238.213 106.331 238.192C105.691 238.192 105.03 238.17 104.347 238.128C104.155 238.106 103.995 238.01 103.867 237.84C103.739 237.648 103.697 237.456 103.739 237.264L107.739 221.04L103.387 221.104C103.217 221.104 103.057 221.05 102.907 220.944C102.779 220.837 102.737 220.688 102.779 220.496C102.843 219.834 102.929 219.237 103.035 218.704C103.142 218.149 103.249 217.509 103.355 216.784C103.398 216.613 103.483 216.453 103.611 216.304C103.739 216.133 103.899 216.048 104.091 216.048L119.547 215.376C119.739 215.354 119.91 215.408 120.059 215.536C120.209 215.664 120.241 215.866 120.155 216.144L119.003 220.112C118.897 220.602 118.513 220.858 117.851 220.88L112.987 220.944L109.275 237.616C109.19 237.936 108.923 238.117 108.475 238.16Z" fill="white"/>
<path d="M118.86 238.16C118.69 238.16 118.53 238.16 118.38 238.16C118.231 238.16 118.071 238.17 117.9 238.192C117.687 238.213 117.516 238.149 117.388 238C117.282 237.872 117.25 237.712 117.292 237.52L121.132 216.88C121.175 216.688 121.292 216.506 121.484 216.336C121.698 216.144 121.911 216.037 122.124 216.016C122.807 215.973 123.468 215.952 124.108 215.952C124.77 215.952 125.495 215.973 126.284 216.016C126.711 216.016 126.882 216.197 126.796 216.56L125.036 224.976L131.02 224.4L132.812 216.4C132.855 216.208 132.983 216.026 133.196 215.856C133.41 215.685 133.612 215.6 133.804 215.6C134.508 215.6 135.18 215.61 135.82 215.632C136.46 215.653 137.154 215.706 137.9 215.792C138.348 215.834 138.519 216.026 138.412 216.368L133.228 237.136C133.164 237.328 133.047 237.498 132.876 237.648C132.706 237.776 132.514 237.84 132.3 237.84C131.618 237.84 131.02 237.829 130.508 237.808C129.996 237.786 129.399 237.776 128.716 237.776C128.503 237.776 128.343 237.712 128.236 237.584C128.151 237.434 128.13 237.264 128.172 237.072L129.932 229.136L124.108 229.296L122.412 237.296C122.37 237.509 122.263 237.69 122.092 237.84C121.922 237.968 121.74 238.042 121.548 238.064C121.378 238.064 121.207 238.064 121.036 238.064C120.887 238.085 120.727 238.096 120.556 238.096L118.86 238.16Z" fill="white"/>
<path d="M236.231 200.616C236.189 200.808 236.082 200.968 235.911 201.096C235.741 201.224 235.559 201.288 235.367 201.288C234.685 201.245 234.002 201.202 233.319 201.16C232.637 201.117 231.954 201.074 231.271 201.032C230.823 200.989 230.631 200.733 230.695 200.264L234.535 184.52C234.429 184.498 234.343 184.445 234.279 184.36C234.215 184.253 234.173 184.146 234.151 184.04C234.13 183.826 234.109 183.549 234.087 183.208C234.087 182.866 234.087 182.514 234.087 182.152C234.087 181.789 234.087 181.437 234.087 181.096C234.109 180.733 234.151 180.445 234.215 180.232C234.258 180.04 234.365 179.88 234.535 179.752C234.727 179.602 234.909 179.496 235.079 179.432C236.423 178.984 237.831 178.674 239.303 178.504C240.797 178.333 242.215 178.301 243.559 178.408C245.202 178.514 246.493 179.005 247.431 179.88C248.37 180.754 248.967 181.821 249.223 183.08C249.479 184.317 249.405 185.661 248.999 187.112C248.615 188.541 247.911 189.874 246.887 191.112C245.863 192.349 244.53 193.405 242.887 194.28C241.266 195.133 239.357 195.613 237.159 195.72L236.231 200.616ZM243.367 186.344C243.602 185.341 243.389 184.562 242.727 184.008C242.087 183.453 241.031 183.229 239.559 183.336L238.087 190.92C239.623 190.685 240.829 190.162 241.703 189.352C242.578 188.541 243.133 187.538 243.367 186.344Z" fill="white"/>
<path d="M258.82 199.304C258.223 200.008 257.519 200.552 256.708 200.936C255.898 201.32 254.948 201.522 253.86 201.544C252.687 201.565 251.727 201.384 250.98 201C250.234 200.594 249.668 200.029 249.284 199.304C248.922 198.578 248.719 197.704 248.676 196.68C248.655 195.656 248.772 194.525 249.028 193.288C249.135 192.776 249.263 192.221 249.412 191.624C249.583 191.026 249.754 190.418 249.924 189.8C250.095 189.181 250.255 188.573 250.404 187.976C250.575 187.357 250.724 186.792 250.852 186.28C250.895 186.088 251.002 185.938 251.172 185.832C251.343 185.704 251.524 185.64 251.716 185.64L255.364 185.576C255.556 185.576 255.706 185.65 255.812 185.8C255.919 185.949 255.951 186.12 255.908 186.312C255.674 187.357 255.396 188.498 255.076 189.736C254.778 190.952 254.511 192.072 254.276 193.096C254.148 193.693 254.052 194.28 253.988 194.856C253.946 195.41 253.978 195.901 254.084 196.328C254.191 196.754 254.383 197.085 254.66 197.32C254.959 197.554 255.375 197.661 255.908 197.64C256.335 197.618 256.73 197.48 257.092 197.224C257.476 196.946 257.818 196.594 258.116 196.168C258.436 195.741 258.703 195.261 258.916 194.728C259.151 194.194 259.322 193.64 259.428 193.064L260.804 186.6C260.847 186.408 260.954 186.237 261.124 186.088C261.295 185.938 261.487 185.864 261.7 185.864C262.404 185.821 263.012 185.8 263.524 185.8C264.036 185.778 264.644 185.746 265.348 185.704C265.54 185.682 265.69 185.746 265.796 185.896C265.924 186.024 265.967 186.184 265.924 186.376L263.364 200.136C263.322 200.328 263.194 200.52 262.98 200.712C262.788 200.882 262.586 200.968 262.372 200.968C262.031 200.989 261.775 201 261.604 201C261.434 201.021 261.274 201.032 261.124 201.032C260.996 201.032 260.836 201.032 260.644 201.032C260.474 201.032 260.196 201.021 259.812 201C259.386 201 259.14 200.818 259.076 200.456L258.82 199.304Z" fill="white"/>
<path d="M274.586 201.128C273.541 201.213 272.656 201.106 271.93 200.808C271.205 200.509 270.629 200.061 270.202 199.464L269.434 200.392C269.2 200.626 268.986 200.776 268.794 200.84C268.624 200.904 268.442 200.946 268.25 200.968C267.802 200.968 267.44 200.978 267.162 201C266.906 201 266.544 200.978 266.074 200.936C265.882 200.914 265.722 200.818 265.594 200.648C265.466 200.456 265.424 200.264 265.466 200.072L270.714 179.176C270.757 178.984 270.853 178.824 271.002 178.696C271.173 178.568 271.354 178.514 271.546 178.536C272.229 178.557 272.762 178.578 273.146 178.6C273.552 178.6 274.085 178.621 274.746 178.664C275.216 178.706 275.408 178.952 275.322 179.4L273.882 186.376C275.077 185.608 276.389 185.224 277.818 185.224C278.266 185.224 278.714 185.256 279.162 185.32C280.016 185.448 280.72 185.736 281.274 186.184C281.85 186.61 282.288 187.154 282.586 187.816C282.885 188.456 283.066 189.192 283.13 190.024C283.194 190.834 283.141 191.709 282.97 192.648C282.778 193.693 282.458 194.706 282.01 195.688C281.584 196.669 281.018 197.554 280.314 198.344C279.61 199.112 278.778 199.752 277.818 200.264C276.88 200.754 275.802 201.042 274.586 201.128ZM273.914 197.224C274.554 197.266 275.13 197.096 275.642 196.712C276.154 196.328 276.581 195.837 276.922 195.24C277.264 194.642 277.509 193.992 277.658 193.288C277.829 192.584 277.882 191.922 277.818 191.304C277.776 190.685 277.616 190.162 277.338 189.736C277.061 189.309 276.645 189.074 276.09 189.032C275.621 188.989 275.184 189.085 274.778 189.32C274.394 189.533 274.053 189.821 273.754 190.184C273.456 190.546 273.2 190.973 272.986 191.464C272.794 191.954 272.645 192.456 272.538 192.968V193C272.432 193.512 272.378 194.024 272.378 194.536C272.378 195.026 272.432 195.474 272.538 195.88C272.645 196.264 272.816 196.584 273.05 196.84C273.285 197.074 273.573 197.202 273.914 197.224Z" fill="white"/>
<path d="M289.874 201.256C288.701 201.32 287.698 201.288 286.866 201.16C286.034 201.053 285.384 200.797 284.914 200.392C284.445 199.965 284.157 199.357 284.05 198.568C283.965 197.778 284.05 196.754 284.306 195.496C284.861 192.808 285.373 190.194 285.842 187.656C286.333 185.117 286.866 182.504 287.442 179.816C287.485 179.624 287.592 179.453 287.762 179.304C287.933 179.154 288.114 179.08 288.306 179.08C289.01 179.037 289.65 179.016 290.226 179.016C290.802 178.994 291.442 178.962 292.146 178.92C292.509 178.898 292.776 178.962 292.946 179.112C293.117 179.24 293.181 179.4 293.138 179.592C292.52 182.258 291.944 184.85 291.41 187.368C290.898 189.885 290.354 192.477 289.778 195.144C289.629 195.826 289.672 196.285 289.906 196.52C290.141 196.733 290.6 196.829 291.282 196.808C291.453 196.786 291.613 196.85 291.762 197C291.933 197.149 291.997 197.33 291.954 197.544L291.122 200.552C291.037 200.872 290.845 201.064 290.546 201.128C290.248 201.213 290.024 201.256 289.874 201.256Z" fill="white"/>
<path d="M302.507 180.84C302.294 181.8 301.835 182.589 301.131 183.208C300.427 183.805 299.51 184.018 298.379 183.848C297.633 183.741 297.121 183.432 296.843 182.92C296.566 182.408 296.481 181.8 296.587 181.096C296.737 180.306 297.099 179.592 297.675 178.952C298.273 178.29 299.115 177.938 300.203 177.896C301.185 177.832 301.867 178.066 302.251 178.6C302.635 179.133 302.721 179.88 302.507 180.84ZM294.699 201.032C294.55 201.032 294.39 201.032 294.219 201.032C294.07 201.053 293.91 201.064 293.739 201.064C293.547 201.085 293.387 201.032 293.259 200.904C293.153 200.776 293.121 200.605 293.163 200.392L295.595 186.44C295.638 186.248 295.755 186.066 295.947 185.896C296.139 185.725 296.342 185.629 296.555 185.608C297.259 185.565 297.931 185.544 298.571 185.544C299.233 185.522 299.947 185.533 300.715 185.576C301.142 185.618 301.323 185.8 301.259 186.12L298.283 200.168C298.241 200.381 298.134 200.562 297.963 200.712C297.793 200.84 297.601 200.914 297.387 200.936C297.217 200.936 297.046 200.946 296.875 200.968C296.726 200.968 296.577 200.968 296.427 200.968L294.699 201.032Z" fill="white"/>
<path d="M314.479 197.128C313.541 198.536 312.431 199.57 311.151 200.232C309.871 200.893 308.602 201.224 307.343 201.224C306.405 201.224 305.519 201.042 304.687 200.68C303.855 200.296 303.162 199.741 302.607 199.016C302.074 198.29 301.711 197.394 301.519 196.328C301.349 195.261 301.434 194.034 301.775 192.648C302.074 191.432 302.543 190.365 303.183 189.448C303.845 188.509 304.591 187.72 305.423 187.08C306.277 186.44 307.173 185.96 308.111 185.64C309.071 185.298 310.01 185.128 310.927 185.128C312.207 185.128 313.349 185.48 314.351 186.184C315.354 186.888 315.983 187.976 316.239 189.448C316.346 189.896 316.154 190.205 315.663 190.376C315.514 190.418 315.375 190.461 315.247 190.504C315.119 190.546 314.991 190.589 314.863 190.632L313.359 191.176C313.125 191.24 312.869 191.325 312.591 191.432C312.357 191.496 312.186 191.474 312.079 191.368C311.994 191.261 311.941 191.122 311.919 190.952C311.877 190.29 311.663 189.789 311.279 189.448C310.895 189.106 310.458 188.936 309.967 188.936C309.306 188.936 308.634 189.224 307.951 189.8C307.269 190.376 306.767 191.272 306.447 192.488C306.085 193.832 306.053 194.941 306.351 195.816C306.65 196.669 307.173 197.149 307.919 197.256C309.071 197.405 310.085 196.818 310.959 195.496C311.13 195.24 311.29 195.058 311.439 194.952C311.61 194.824 311.834 194.813 312.111 194.92C312.41 195.005 312.677 195.133 312.911 195.304L313.423 195.592C313.53 195.656 313.647 195.72 313.775 195.784C313.925 195.848 314.074 195.912 314.223 195.976C314.458 196.061 314.597 196.221 314.639 196.456C314.703 196.669 314.65 196.893 314.479 197.128Z" fill="white"/>
<path d="M342.733 194.44C342.434 195.528 341.954 196.498 341.293 197.352C340.653 198.184 339.885 198.888 338.989 199.464C338.114 200.04 337.143 200.466 336.077 200.744C335.031 201.021 333.965 201.138 332.877 201.096C331.959 201.053 331.074 200.872 330.221 200.552C329.367 200.232 328.642 199.784 328.045 199.208C327.447 198.61 327.01 197.885 326.733 197.032C326.477 196.178 326.466 195.197 326.701 194.088C326.765 193.789 326.85 193.586 326.957 193.48C327.063 193.352 327.213 193.277 327.405 193.256L331.629 192.648C331.991 192.584 332.162 192.776 332.141 193.224C332.055 194.248 332.269 195.016 332.781 195.528C333.314 196.04 333.89 196.296 334.509 196.296C334.978 196.296 335.415 196.157 335.821 195.88C336.247 195.581 336.546 195.144 336.717 194.568C336.951 193.864 336.909 193.288 336.589 192.84C336.269 192.392 335.821 191.986 335.245 191.624C334.69 191.24 334.05 190.866 333.325 190.504C332.621 190.12 331.981 189.672 331.405 189.16C330.85 188.648 330.423 188.018 330.125 187.272C329.826 186.504 329.794 185.554 330.029 184.424C330.263 183.378 330.647 182.472 331.181 181.704C331.714 180.936 332.354 180.306 333.101 179.816C333.869 179.304 334.711 178.93 335.629 178.696C336.567 178.461 337.538 178.344 338.541 178.344C339.351 178.344 340.055 178.418 340.653 178.568C341.271 178.717 341.815 178.941 342.285 179.24C342.754 179.517 343.159 179.869 343.501 180.296C343.863 180.722 344.205 181.224 344.525 181.8C344.567 181.885 344.589 181.992 344.589 182.12C344.589 182.248 344.535 182.344 344.429 182.408C343.81 182.834 343.17 183.25 342.509 183.656C341.847 184.061 341.175 184.413 340.493 184.712C340.365 184.776 340.226 184.797 340.077 184.776C339.927 184.733 339.831 184.658 339.789 184.552C339.554 183.89 339.223 183.41 338.797 183.112C338.37 182.792 337.943 182.632 337.517 182.632C337.09 182.632 336.706 182.77 336.365 183.048C336.023 183.325 335.799 183.73 335.693 184.264C335.586 184.797 335.725 185.245 336.109 185.608C336.514 185.97 337.026 186.322 337.645 186.664C338.285 186.984 338.967 187.336 339.693 187.72C340.439 188.104 341.09 188.584 341.645 189.16C342.221 189.736 342.626 190.45 342.861 191.304C343.117 192.136 343.074 193.181 342.733 194.44Z" fill="white"/>
<path d="M354.032 199.432C353.371 199.986 352.646 200.413 351.856 200.712C351.088 201.01 350.246 201.16 349.328 201.16C348.902 201.16 348.464 201.128 348.016 201.064C346.31 200.765 345.158 199.933 344.56 198.568C343.984 197.202 343.867 195.581 344.208 193.704C344.379 192.658 344.688 191.645 345.136 190.664C345.584 189.682 346.16 188.808 346.864 188.04C347.568 187.25 348.39 186.61 349.328 186.12C350.288 185.608 351.376 185.309 352.592 185.224C353.552 185.16 354.374 185.256 355.056 185.512C355.739 185.746 356.294 186.109 356.72 186.6L357.104 185.928C357.211 185.736 357.382 185.597 357.616 185.512C357.872 185.426 358.107 185.384 358.32 185.384L360.592 185.224C360.784 185.224 360.934 185.288 361.04 185.416C361.168 185.544 361.211 185.704 361.168 185.896L358.544 200.072C358.502 200.264 358.374 200.456 358.16 200.648C357.968 200.818 357.776 200.914 357.584 200.936C357.094 200.978 356.678 201 356.336 201C356.016 200.978 355.632 200.968 355.184 200.968C354.992 200.946 354.8 200.914 354.608 200.872C354.438 200.808 354.31 200.626 354.224 200.328L354.032 199.432ZM351.024 197.512C351.899 197.576 352.624 197.245 353.2 196.52C353.798 195.773 354.235 194.92 354.512 193.96L354.64 193.32C354.747 192.808 354.79 192.306 354.768 191.816C354.768 191.325 354.704 190.888 354.576 190.504C354.47 190.098 354.299 189.778 354.064 189.544C353.851 189.288 353.574 189.149 353.232 189.128C352.592 189.085 352.016 189.266 351.504 189.672C351.014 190.056 350.598 190.557 350.256 191.176C349.915 191.773 349.659 192.434 349.488 193.16C349.318 193.885 349.254 194.568 349.296 195.208C349.36 195.848 349.531 196.392 349.808 196.84C350.086 197.266 350.491 197.49 351.024 197.512Z" fill="white"/>
<path d="M366.968 201.256C365.795 201.32 364.792 201.288 363.96 201.16C363.128 201.053 362.478 200.797 362.008 200.392C361.539 199.965 361.251 199.357 361.144 198.568C361.059 197.778 361.144 196.754 361.4 195.496C361.955 192.808 362.467 190.194 362.936 187.656C363.427 185.117 363.96 182.504 364.536 179.816C364.579 179.624 364.686 179.453 364.856 179.304C365.027 179.154 365.208 179.08 365.4 179.08C366.104 179.037 366.744 179.016 367.32 179.016C367.896 178.994 368.536 178.962 369.24 178.92C369.603 178.898 369.87 178.962 370.04 179.112C370.211 179.24 370.275 179.4 370.232 179.592C369.614 182.258 369.038 184.85 368.504 187.368C367.992 189.885 367.448 192.477 366.872 195.144C366.723 195.826 366.766 196.285 367 196.52C367.235 196.733 367.694 196.829 368.376 196.808C368.547 196.786 368.707 196.85 368.856 197C369.027 197.149 369.091 197.33 369.048 197.544L368.216 200.552C368.131 200.872 367.939 201.064 367.64 201.128C367.342 201.213 367.118 201.256 366.968 201.256Z" fill="white"/>
<path d="M382.993 199.624C382.033 200.178 381.031 200.594 379.985 200.872C378.961 201.149 377.959 201.288 376.977 201.288C375.932 201.288 374.961 201.128 374.065 200.808C373.191 200.466 372.465 199.944 371.889 199.24C371.313 198.536 370.929 197.64 370.737 196.552C370.567 195.464 370.673 194.162 371.057 192.648C371.399 191.325 371.9 190.184 372.561 189.224C373.223 188.242 373.969 187.442 374.801 186.824C375.633 186.184 376.519 185.714 377.457 185.416C378.396 185.096 379.313 184.936 380.209 184.936C381.041 184.936 381.82 185.064 382.545 185.32C383.271 185.576 383.879 185.96 384.369 186.472C384.881 186.984 385.244 187.613 385.457 188.36C385.671 189.106 385.671 189.96 385.457 190.92C385.287 191.709 384.945 192.445 384.433 193.128C383.921 193.81 383.303 194.397 382.577 194.888C381.873 195.378 381.105 195.762 380.273 196.04C379.441 196.317 378.631 196.456 377.841 196.456C376.967 196.456 376.177 196.264 375.473 195.88C375.708 196.498 376.081 196.946 376.593 197.224C377.127 197.48 377.756 197.608 378.481 197.608C379.015 197.608 379.58 197.544 380.177 197.416C380.775 197.266 381.383 197.074 382.001 196.84C382.172 196.797 382.3 196.818 382.385 196.904C382.471 196.968 382.524 197.032 382.545 197.096C382.673 197.48 382.791 197.81 382.897 198.088C383.025 198.344 383.153 198.653 383.281 199.016C383.303 199.08 383.271 199.186 383.185 199.336C383.121 199.485 383.057 199.581 382.993 199.624ZM375.665 192.488C376.092 192.808 376.657 192.968 377.361 192.968C377.745 192.968 378.129 192.925 378.513 192.84C378.919 192.733 379.292 192.584 379.633 192.392C379.975 192.2 380.263 191.965 380.497 191.688C380.753 191.41 380.924 191.09 381.009 190.728C381.137 190.152 381.041 189.704 380.721 189.384C380.401 189.064 379.985 188.904 379.473 188.904C378.812 188.904 378.108 189.181 377.361 189.736C376.615 190.29 376.049 191.208 375.665 192.488Z" fill="white"/>
<path d="M394.079 185.64C393.865 186.6 393.407 187.378 392.703 187.976C391.999 188.573 391.092 188.797 389.983 188.648C389.215 188.541 388.692 188.232 388.415 187.72C388.137 187.186 388.063 186.568 388.191 185.864C388.319 185.074 388.671 184.36 389.247 183.72C389.844 183.08 390.687 182.728 391.775 182.664C392.777 182.6 393.46 182.845 393.823 183.4C394.207 183.933 394.292 184.68 394.079 185.64ZM392.255 194.248C392.041 195.208 391.583 195.986 390.879 196.584C390.175 197.181 389.268 197.405 388.159 197.256C387.391 197.149 386.868 196.84 386.591 196.328C386.313 195.794 386.228 195.176 386.335 194.472C386.484 193.682 386.847 192.968 387.423 192.328C388.02 191.688 388.863 191.336 389.951 191.272C390.932 191.229 391.615 191.474 391.999 192.008C392.383 192.541 392.468 193.288 392.255 194.248Z" fill="white"/>
<path d="M250.535 227.312C250.173 228.997 249.629 230.522 248.903 231.888C248.199 233.232 247.346 234.384 246.343 235.344C245.341 236.282 244.189 237.008 242.887 237.52C241.607 238.032 240.21 238.277 238.695 238.256C237.266 238.234 236.082 237.872 235.143 237.168C234.205 236.464 233.479 235.568 232.967 234.48C232.455 233.392 232.146 232.197 232.039 230.896C231.933 229.594 232.007 228.346 232.263 227.152C232.541 225.893 232.957 224.57 233.511 223.184C234.066 221.776 234.834 220.496 235.815 219.344C236.797 218.192 238.002 217.264 239.431 216.56C240.882 215.834 242.631 215.525 244.679 215.632C246.066 215.696 247.218 216.026 248.135 216.624C249.053 217.221 249.746 218.032 250.215 219.056C250.706 220.08 250.973 221.296 251.015 222.704C251.058 224.09 250.898 225.626 250.535 227.312ZM239.623 233.584C240.263 233.626 240.861 233.466 241.415 233.104C241.97 232.741 242.471 232.25 242.919 231.632C243.367 231.013 243.762 230.309 244.103 229.52C244.445 228.709 244.711 227.877 244.903 227.024C245.095 226.213 245.213 225.413 245.255 224.624C245.298 223.834 245.255 223.13 245.127 222.512C244.999 221.872 244.775 221.36 244.455 220.976C244.157 220.57 243.751 220.346 243.239 220.304C242.514 220.24 241.863 220.421 241.287 220.848C240.733 221.253 240.242 221.797 239.815 222.48C239.41 223.141 239.069 223.888 238.791 224.72C238.535 225.53 238.333 226.309 238.183 227.056C238.034 227.76 237.927 228.496 237.863 229.264C237.799 230.01 237.81 230.704 237.895 231.344C238.002 231.962 238.183 232.485 238.439 232.912C238.717 233.317 239.111 233.541 239.623 233.584Z" fill="white"/>
<path d="M256.225 235.824C256.033 236.784 255.574 237.562 254.849 238.16C254.145 238.778 253.238 239.002 252.129 238.832C251.361 238.725 250.838 238.416 250.561 237.904C250.305 237.392 250.23 236.784 250.337 236.08C250.465 235.29 250.827 234.576 251.425 233.936C252.022 233.274 252.865 232.922 253.953 232.88C254.934 232.816 255.606 233.05 255.969 233.584C256.353 234.117 256.438 234.864 256.225 235.824Z" fill="white"/>
<path d="M277.973 227.312C277.61 228.997 277.066 230.522 276.341 231.888C275.637 233.232 274.784 234.384 273.781 235.344C272.778 236.282 271.626 237.008 270.325 237.52C269.045 238.032 267.648 238.277 266.133 238.256C264.704 238.234 263.52 237.872 262.581 237.168C261.642 236.464 260.917 235.568 260.405 234.48C259.893 233.392 259.584 232.197 259.477 230.896C259.37 229.594 259.445 228.346 259.701 227.152C259.978 225.893 260.394 224.57 260.949 223.184C261.504 221.776 262.272 220.496 263.253 219.344C264.234 218.192 265.44 217.264 266.869 216.56C268.32 215.834 270.069 215.525 272.117 215.632C273.504 215.696 274.656 216.026 275.573 216.624C276.49 217.221 277.184 218.032 277.653 219.056C278.144 220.08 278.41 221.296 278.453 222.704C278.496 224.09 278.336 225.626 277.973 227.312ZM267.061 233.584C267.701 233.626 268.298 233.466 268.853 233.104C269.408 232.741 269.909 232.25 270.357 231.632C270.805 231.013 271.2 230.309 271.541 229.52C271.882 228.709 272.149 227.877 272.341 227.024C272.533 226.213 272.65 225.413 272.693 224.624C272.736 223.834 272.693 223.13 272.565 222.512C272.437 221.872 272.213 221.36 271.893 220.976C271.594 220.57 271.189 220.346 270.677 220.304C269.952 220.24 269.301 220.421 268.725 220.848C268.17 221.253 267.68 221.797 267.253 222.48C266.848 223.141 266.506 223.888 266.229 224.72C265.973 225.53 265.77 226.309 265.621 227.056C265.472 227.76 265.365 228.496 265.301 229.264C265.237 230.01 265.248 230.704 265.333 231.344C265.44 231.962 265.621 232.485 265.877 232.912C266.154 233.317 266.549 233.541 267.061 233.584Z" fill="white"/>
<path d="M293.23 237.488C293.188 237.68 293.081 237.85 292.91 238C292.74 238.128 292.558 238.181 292.366 238.16C291.684 238.117 291.086 238.085 290.574 238.064C290.062 238.064 289.465 238.042 288.782 238C288.59 238 288.43 237.925 288.302 237.776C288.196 237.626 288.164 237.456 288.206 237.264L288.878 234.128L278.478 233.968C278.329 233.968 278.212 233.914 278.126 233.808C278.062 233.701 278.052 233.562 278.094 233.392C278.18 233.093 278.265 232.72 278.35 232.272C278.457 231.824 278.542 231.44 278.606 231.12C278.649 230.949 278.724 230.81 278.83 230.704L292.686 216.272C292.9 216.058 293.145 215.952 293.422 215.952C294.212 215.909 294.926 215.898 295.566 215.92C296.228 215.92 296.9 215.941 297.582 215.984C297.774 216.005 297.924 216.112 298.03 216.304C298.158 216.474 298.201 216.656 298.158 216.848L295.246 229.072H297.614C297.892 229.05 297.998 229.221 297.934 229.584C297.828 230.202 297.689 230.896 297.518 231.664C297.369 232.41 297.22 233.061 297.07 233.616C297.028 233.786 296.921 233.936 296.75 234.064C296.58 234.192 296.409 234.245 296.238 234.224L293.998 234.192L293.23 237.488ZM291.022 224.08L285.774 229.2L289.966 229.136L291.022 224.08Z" fill="white"/>
<path d="M322.768 237.744C322.725 237.914 322.619 238.064 322.448 238.192C322.277 238.32 322.107 238.373 321.936 238.352L312.912 238.16C312.251 238.202 311.632 238.213 311.056 238.192C310.501 238.192 309.925 238.17 309.328 238.128C309.136 238.106 308.976 238.01 308.848 237.84C308.72 237.648 308.677 237.456 308.72 237.264L312.624 220.944C312.496 220.858 312.464 220.645 312.528 220.304C312.635 219.621 312.731 219.024 312.816 218.512C312.923 217.978 313.061 217.36 313.232 216.656C313.275 216.464 313.381 216.304 313.552 216.176C313.744 216.026 313.936 215.952 314.128 215.952L326.672 215.728C327.12 215.728 327.376 215.792 327.44 215.92C327.525 216.026 327.536 216.186 327.472 216.4L326.16 220.56C326.075 220.816 325.957 221.018 325.808 221.168C325.659 221.296 325.435 221.349 325.136 221.328L317.744 221.136L316.912 225.104L322.704 224.944C322.96 224.944 323.067 225.104 323.024 225.424C322.917 225.978 322.779 226.629 322.608 227.376C322.459 228.101 322.32 228.709 322.192 229.2C322.149 229.349 322.043 229.488 321.872 229.616C321.723 229.722 321.584 229.776 321.456 229.776L315.952 229.52L315.216 233.104L323.344 232.976C323.621 232.976 323.739 233.157 323.696 233.52C323.589 234.138 323.451 234.864 323.28 235.696C323.109 236.506 322.939 237.189 322.768 237.744Z" fill="white"/>
<path d="M333.225 238.16C332.436 238.202 331.721 238.213 331.081 238.192C330.441 238.192 329.78 238.17 329.097 238.128C328.905 238.106 328.745 238.01 328.617 237.84C328.489 237.648 328.447 237.456 328.489 237.264L332.489 221.04L328.137 221.104C327.967 221.104 327.807 221.05 327.657 220.944C327.529 220.837 327.487 220.688 327.529 220.496C327.593 219.834 327.679 219.237 327.785 218.704C327.892 218.149 327.999 217.509 328.105 216.784C328.148 216.613 328.233 216.453 328.361 216.304C328.489 216.133 328.649 216.048 328.841 216.048L344.297 215.376C344.489 215.354 344.66 215.408 344.809 215.536C344.959 215.664 344.991 215.866 344.905 216.144L343.753 220.112C343.647 220.602 343.263 220.858 342.601 220.88L337.737 220.944L334.025 237.616C333.94 237.936 333.673 238.117 333.225 238.16Z" fill="white"/>
<path d="M343.61 238.16C343.44 238.16 343.28 238.16 343.13 238.16C342.981 238.16 342.821 238.17 342.65 238.192C342.437 238.213 342.266 238.149 342.138 238C342.032 237.872 342 237.712 342.042 237.52L345.882 216.88C345.925 216.688 346.042 216.506 346.234 216.336C346.448 216.144 346.661 216.037 346.874 216.016C347.557 215.973 348.218 215.952 348.858 215.952C349.52 215.952 350.245 215.973 351.034 216.016C351.461 216.016 351.632 216.197 351.546 216.56L349.786 224.976L355.77 224.4L357.562 216.4C357.605 216.208 357.733 216.026 357.946 215.856C358.16 215.685 358.362 215.6 358.554 215.6C359.258 215.6 359.93 215.61 360.57 215.632C361.21 215.653 361.904 215.706 362.65 215.792C363.098 215.834 363.269 216.026 363.162 216.368L357.978 237.136C357.914 237.328 357.797 237.498 357.626 237.648C357.456 237.776 357.264 237.84 357.05 237.84C356.368 237.84 355.77 237.829 355.258 237.808C354.746 237.786 354.149 237.776 353.466 237.776C353.253 237.776 353.093 237.712 352.986 237.584C352.901 237.434 352.88 237.264 352.922 237.072L354.682 229.136L348.858 229.296L347.162 237.296C347.12 237.509 347.013 237.69 346.842 237.84C346.672 237.968 346.49 238.042 346.298 238.064C346.128 238.064 345.957 238.064 345.786 238.064C345.637 238.085 345.477 238.096 345.306 238.096L343.61 238.16Z" fill="white"/>
</svg>
