<svg width="129" height="34" viewBox="0 0 129 34" fill="none" xmlns="http://www.w3.org/2000/svg">
<path d="M19.8573 32.9243C19.7073 32.9843 19.5723 33.0443 19.4523 33.1043C19.3623 33.1643 19.2573 33.1943 19.1373 33.1943C18.8073 33.1943 18.5073 32.9993 18.2373 32.6093L9.8673 20.7743L8.1123 22.5743V30.8993C8.1123 31.1993 8.0073 31.4543 7.7973 31.6643C7.6173 31.8443 7.3923 31.9493 7.1223 31.9793C6.8823 31.9793 6.6423 31.9793 6.4023 31.9793C6.1923 32.0093 5.9823 32.0243 5.77231 32.0243L3.3873 32.1143C3.1473 32.1143 2.9223 32.1143 2.7123 32.1143C2.5023 32.1143 2.2773 32.1293 2.0373 32.1593C1.7673 32.1893 1.5273 32.0993 1.3173 31.8893C1.1373 31.7093 1.0323 31.4843 1.0023 31.2143L0.237305 2.18925C0.237305 1.91925 0.342305 1.66425 0.552305 1.42425C0.792305 1.15425 1.0623 1.00425 1.3623 0.974253C2.3223 0.914253 3.2523 0.884254 4.1523 0.884254C5.0823 0.884254 6.0873 0.914253 7.1673 0.974253C7.7973 0.974253 8.1123 1.22925 8.1123 1.73925V11.6393L17.8323 0.524253C18.0123 0.344254 18.1923 0.254254 18.3723 0.254254C18.5523 0.254254 18.7773 0.359254 19.0473 0.569253C19.9173 1.25925 20.7723 1.90425 21.6123 2.50425C22.4823 3.10425 23.2623 3.74925 23.9523 4.43925C24.1623 4.61925 24.2673 4.88925 24.2673 5.24925C24.2673 5.57925 24.1623 5.84925 23.9523 6.05925L15.0423 15.3743L25.1673 28.1093C25.3473 28.3493 25.4373 28.6343 25.4373 28.9643C25.4673 29.2643 25.3173 29.5193 24.9873 29.7293L19.8573 32.9243Z" fill="white"/>
<path d="M19.8573 32.9243C19.7073 32.9843 19.5723 33.0443 19.4523 33.1043C19.3623 33.1643 19.2573 33.1943 19.1373 33.1943C18.8073 33.1943 18.5073 32.9993 18.2373 32.6093L9.8673 20.7743L8.1123 22.5743V30.8993C8.1123 31.1993 8.0073 31.4543 7.7973 31.6643C7.6173 31.8443 7.3923 31.9493 7.1223 31.9793C6.8823 31.9793 6.6423 31.9793 6.4023 31.9793C6.1923 32.0093 5.9823 32.0243 5.77231 32.0243L3.3873 32.1143C3.1473 32.1143 2.9223 32.1143 2.7123 32.1143C2.5023 32.1143 2.2773 32.1293 2.0373 32.1593C1.7673 32.1893 1.5273 32.0993 1.3173 31.8893C1.1373 31.7093 1.0323 31.4843 1.0023 31.2143L0.237305 2.18925C0.237305 1.91925 0.342305 1.66425 0.552305 1.42425C0.792305 1.15425 1.0623 1.00425 1.3623 0.974253C2.3223 0.914253 3.2523 0.884254 4.1523 0.884254C5.0823 0.884254 6.0873 0.914253 7.1673 0.974253C7.7973 0.974253 8.1123 1.22925 8.1123 1.73925V11.6393L17.8323 0.524253C18.0123 0.344254 18.1923 0.254254 18.3723 0.254254C18.5523 0.254254 18.7773 0.359254 19.0473 0.569253C19.9173 1.25925 20.7723 1.90425 21.6123 2.50425C22.4823 3.10425 23.2623 3.74925 23.9523 4.43925C24.1623 4.61925 24.2673 4.88925 24.2673 5.24925C24.2673 5.57925 24.1623 5.84925 23.9523 6.05925L15.0423 15.3743L25.1673 28.1093C25.3473 28.3493 25.4373 28.6343 25.4373 28.9643C25.4673 29.2643 25.3173 29.5193 24.9873 29.7293L19.8573 32.9243Z" fill="white"/>
<path d="M19.8573 32.9243C19.7073 32.9843 19.5723 33.0443 19.4523 33.1043C19.3623 33.1643 19.2573 33.1943 19.1373 33.1943C18.8073 33.1943 18.5073 32.9993 18.2373 32.6093L9.8673 20.7743L8.1123 22.5743V30.8993C8.1123 31.1993 8.0073 31.4543 7.7973 31.6643C7.6173 31.8443 7.3923 31.9493 7.1223 31.9793C6.8823 31.9793 6.6423 31.9793 6.4023 31.9793C6.1923 32.0093 5.9823 32.0243 5.77231 32.0243L3.3873 32.1143C3.1473 32.1143 2.9223 32.1143 2.7123 32.1143C2.5023 32.1143 2.2773 32.1293 2.0373 32.1593C1.7673 32.1893 1.5273 32.0993 1.3173 31.8893C1.1373 31.7093 1.0323 31.4843 1.0023 31.2143L0.237305 2.18925C0.237305 1.91925 0.342305 1.66425 0.552305 1.42425C0.792305 1.15425 1.0623 1.00425 1.3623 0.974253C2.3223 0.914253 3.2523 0.884254 4.1523 0.884254C5.0823 0.884254 6.0873 0.914253 7.1673 0.974253C7.7973 0.974253 8.1123 1.22925 8.1123 1.73925V11.6393L17.8323 0.524253C18.0123 0.344254 18.1923 0.254254 18.3723 0.254254C18.5523 0.254254 18.7773 0.359254 19.0473 0.569253C19.9173 1.25925 20.7723 1.90425 21.6123 2.50425C22.4823 3.10425 23.2623 3.74925 23.9523 4.43925C24.1623 4.61925 24.2673 4.88925 24.2673 5.24925C24.2673 5.57925 24.1623 5.84925 23.9523 6.05925L15.0423 15.3743L25.1673 28.1093C25.3473 28.3493 25.4373 28.6343 25.4373 28.9643C25.4673 29.2643 25.3173 29.5193 24.9873 29.7293L19.8573 32.9243Z" fill="black"/>
<path d="M34.2366 31.0343C34.1166 31.3043 33.9216 31.5443 33.6516 31.7543C33.4116 31.9343 33.1566 32.0243 32.8866 32.0243C31.9266 31.9943 30.8316 31.9643 29.6016 31.9343C28.3716 31.9043 27.2766 31.8743 26.3166 31.8443C26.0466 31.8443 25.8366 31.7393 25.6866 31.5293C25.5666 31.3193 25.5516 31.0793 25.6416 30.8093C27.4416 25.9793 29.2116 21.1493 30.9516 16.3193C32.6916 11.4593 34.4616 6.65925 36.2616 1.91925C36.3816 1.58925 36.5766 1.34925 36.8466 1.19925C37.1166 1.01925 37.4166 0.929253 37.7466 0.929253C37.8066 0.899254 37.9266 0.884254 38.1066 0.884254C38.5266 0.884254 38.8866 0.899254 39.1866 0.929253C39.5166 0.929253 39.8166 0.944253 40.0866 0.974253H42.1116C42.2016 0.974253 42.3066 1.00425 42.4266 1.06425H42.6066C42.8766 1.09425 43.1316 1.21425 43.3716 1.42425C43.6416 1.60425 43.8216 1.82925 43.9116 2.09925C44.5116 3.95925 45.1116 5.77425 45.7116 7.54425C46.3116 9.31425 46.9116 11.0993 47.5116 12.8993L49.8966 20.0093C50.4966 21.7793 51.0966 23.5643 51.6966 25.3643C52.2966 27.1343 52.8966 28.9343 53.4966 30.7643C53.5866 31.0643 53.5566 31.3193 53.4066 31.5293C53.2866 31.7093 53.0916 31.7843 52.8216 31.7543C51.8616 31.7243 50.7666 31.7093 49.5366 31.7093C48.3066 31.6793 47.2116 31.6343 46.2516 31.5743C45.9816 31.5743 45.7116 31.4843 45.4416 31.3043C45.1716 31.0943 44.9916 30.8543 44.9016 30.5843C44.6616 29.8343 44.4366 29.0993 44.2266 28.3793C44.0466 27.6593 43.8516 26.9393 43.6416 26.2193H35.7216C35.2416 27.9293 34.7466 29.5343 34.2366 31.0343ZM39.9966 11.1443C39.5766 12.6443 39.1566 14.1293 38.7366 15.5993C38.3466 17.0693 37.9416 18.5693 37.5216 20.0993L41.9766 19.6943C41.6466 18.2543 41.3166 16.8293 40.9866 15.4193C40.6566 14.0093 40.3266 12.5843 39.9966 11.1443Z" fill="white"/>
<path d="M34.2366 31.0343C34.1166 31.3043 33.9216 31.5443 33.6516 31.7543C33.4116 31.9343 33.1566 32.0243 32.8866 32.0243C31.9266 31.9943 30.8316 31.9643 29.6016 31.9343C28.3716 31.9043 27.2766 31.8743 26.3166 31.8443C26.0466 31.8443 25.8366 31.7393 25.6866 31.5293C25.5666 31.3193 25.5516 31.0793 25.6416 30.8093C27.4416 25.9793 29.2116 21.1493 30.9516 16.3193C32.6916 11.4593 34.4616 6.65925 36.2616 1.91925C36.3816 1.58925 36.5766 1.34925 36.8466 1.19925C37.1166 1.01925 37.4166 0.929253 37.7466 0.929253C37.8066 0.899254 37.9266 0.884254 38.1066 0.884254C38.5266 0.884254 38.8866 0.899254 39.1866 0.929253C39.5166 0.929253 39.8166 0.944253 40.0866 0.974253H42.1116C42.2016 0.974253 42.3066 1.00425 42.4266 1.06425H42.6066C42.8766 1.09425 43.1316 1.21425 43.3716 1.42425C43.6416 1.60425 43.8216 1.82925 43.9116 2.09925C44.5116 3.95925 45.1116 5.77425 45.7116 7.54425C46.3116 9.31425 46.9116 11.0993 47.5116 12.8993L49.8966 20.0093C50.4966 21.7793 51.0966 23.5643 51.6966 25.3643C52.2966 27.1343 52.8966 28.9343 53.4966 30.7643C53.5866 31.0643 53.5566 31.3193 53.4066 31.5293C53.2866 31.7093 53.0916 31.7843 52.8216 31.7543C51.8616 31.7243 50.7666 31.7093 49.5366 31.7093C48.3066 31.6793 47.2116 31.6343 46.2516 31.5743C45.9816 31.5743 45.7116 31.4843 45.4416 31.3043C45.1716 31.0943 44.9916 30.8543 44.9016 30.5843C44.6616 29.8343 44.4366 29.0993 44.2266 28.3793C44.0466 27.6593 43.8516 26.9393 43.6416 26.2193H35.7216C35.2416 27.9293 34.7466 29.5343 34.2366 31.0343ZM39.9966 11.1443C39.5766 12.6443 39.1566 14.1293 38.7366 15.5993C38.3466 17.0693 37.9416 18.5693 37.5216 20.0993L41.9766 19.6943C41.6466 18.2543 41.3166 16.8293 40.9866 15.4193C40.6566 14.0093 40.3266 12.5843 39.9966 11.1443Z" fill="white"/>
<path d="M34.2366 31.0343C34.1166 31.3043 33.9216 31.5443 33.6516 31.7543C33.4116 31.9343 33.1566 32.0243 32.8866 32.0243C31.9266 31.9943 30.8316 31.9643 29.6016 31.9343C28.3716 31.9043 27.2766 31.8743 26.3166 31.8443C26.0466 31.8443 25.8366 31.7393 25.6866 31.5293C25.5666 31.3193 25.5516 31.0793 25.6416 30.8093C27.4416 25.9793 29.2116 21.1493 30.9516 16.3193C32.6916 11.4593 34.4616 6.65925 36.2616 1.91925C36.3816 1.58925 36.5766 1.34925 36.8466 1.19925C37.1166 1.01925 37.4166 0.929253 37.7466 0.929253C37.8066 0.899254 37.9266 0.884254 38.1066 0.884254C38.5266 0.884254 38.8866 0.899254 39.1866 0.929253C39.5166 0.929253 39.8166 0.944253 40.0866 0.974253H42.1116C42.2016 0.974253 42.3066 1.00425 42.4266 1.06425H42.6066C42.8766 1.09425 43.1316 1.21425 43.3716 1.42425C43.6416 1.60425 43.8216 1.82925 43.9116 2.09925C44.5116 3.95925 45.1116 5.77425 45.7116 7.54425C46.3116 9.31425 46.9116 11.0993 47.5116 12.8993L49.8966 20.0093C50.4966 21.7793 51.0966 23.5643 51.6966 25.3643C52.2966 27.1343 52.8966 28.9343 53.4966 30.7643C53.5866 31.0643 53.5566 31.3193 53.4066 31.5293C53.2866 31.7093 53.0916 31.7843 52.8216 31.7543C51.8616 31.7243 50.7666 31.7093 49.5366 31.7093C48.3066 31.6793 47.2116 31.6343 46.2516 31.5743C45.9816 31.5743 45.7116 31.4843 45.4416 31.3043C45.1716 31.0943 44.9916 30.8543 44.9016 30.5843C44.6616 29.8343 44.4366 29.0993 44.2266 28.3793C44.0466 27.6593 43.8516 26.9393 43.6416 26.2193H35.7216C35.2416 27.9293 34.7466 29.5343 34.2366 31.0343ZM39.9966 11.1443C39.5766 12.6443 39.1566 14.1293 38.7366 15.5993C38.3466 17.0693 37.9416 18.5693 37.5216 20.0993L41.9766 19.6943C41.6466 18.2543 41.3166 16.8293 40.9866 15.4193C40.6566 14.0093 40.3266 12.5843 39.9966 11.1443Z" fill="black"/>
<path d="M56.8789 32.6993C55.9789 32.8493 55.5289 32.5193 55.5289 31.7093L56.2489 8.62425C56.0389 8.50425 55.9039 8.30925 55.8439 8.03925C55.7539 7.73925 55.6339 7.34925 55.4839 6.86925C55.3639 6.38925 55.2439 5.89425 55.1239 5.38425C55.0339 4.87425 54.9439 4.37925 54.8539 3.89925C54.7939 3.38925 54.7639 2.98425 54.7639 2.68425C54.7639 2.41425 54.8689 2.18925 55.0789 2.00925C55.2889 1.79925 55.4989 1.64925 55.7089 1.55925C57.4789 0.929252 59.3389 0.494253 61.2889 0.254254C63.2689 0.0142535 65.2039 -0.0307468 67.0939 0.119253C68.9839 0.239253 70.6189 0.719253 71.9989 1.55925C73.4089 2.36925 74.5339 3.38925 75.3739 4.61925C76.2439 5.84925 76.8289 7.22925 77.1289 8.75925C77.4589 10.2893 77.4739 11.8193 77.1739 13.3493C76.9039 14.8793 76.3339 16.3493 75.4639 17.7593C74.5939 19.1393 73.4089 20.3393 71.9089 21.3593C73.1989 22.1693 74.3989 23.1143 75.5089 24.1943C76.6189 25.2743 77.5939 26.4743 78.4339 27.7943C78.5839 28.0043 78.7189 28.2593 78.8389 28.5593C78.9889 28.8293 78.8989 29.0393 78.5689 29.1893L73.6189 31.9793C73.2589 32.1593 72.9739 32.2493 72.7639 32.2493C72.4939 32.2493 72.2689 32.1143 72.0889 31.8443C71.4889 31.0343 70.8739 30.1943 70.2439 29.3243C69.6439 28.4243 69.0139 27.5993 68.3539 26.8493C67.6939 26.0993 67.0039 25.4543 66.2839 24.9143C65.5639 24.3443 64.7989 23.9993 63.9889 23.8793C63.8089 23.9093 63.5689 23.9243 63.2689 23.9243L63.4039 31.0793C63.4339 31.3493 63.3439 31.5593 63.1339 31.7093C62.9239 31.8593 62.6839 31.9493 62.4139 31.9793L56.8789 32.6993ZM69.2089 11.2793C69.2089 9.83925 68.6689 8.72925 67.5889 7.94925C66.5389 7.16925 64.9789 6.86925 62.9089 7.04925L63.1339 17.7143C65.2339 17.3843 66.7639 16.6493 67.7239 15.5093C68.7139 14.3693 69.2089 12.9593 69.2089 11.2793Z" fill="white"/>
<path d="M56.8789 32.6993C55.9789 32.8493 55.5289 32.5193 55.5289 31.7093L56.2489 8.62425C56.0389 8.50425 55.9039 8.30925 55.8439 8.03925C55.7539 7.73925 55.6339 7.34925 55.4839 6.86925C55.3639 6.38925 55.2439 5.89425 55.1239 5.38425C55.0339 4.87425 54.9439 4.37925 54.8539 3.89925C54.7939 3.38925 54.7639 2.98425 54.7639 2.68425C54.7639 2.41425 54.8689 2.18925 55.0789 2.00925C55.2889 1.79925 55.4989 1.64925 55.7089 1.55925C57.4789 0.929252 59.3389 0.494253 61.2889 0.254254C63.2689 0.0142535 65.2039 -0.0307468 67.0939 0.119253C68.9839 0.239253 70.6189 0.719253 71.9989 1.55925C73.4089 2.36925 74.5339 3.38925 75.3739 4.61925C76.2439 5.84925 76.8289 7.22925 77.1289 8.75925C77.4589 10.2893 77.4739 11.8193 77.1739 13.3493C76.9039 14.8793 76.3339 16.3493 75.4639 17.7593C74.5939 19.1393 73.4089 20.3393 71.9089 21.3593C73.1989 22.1693 74.3989 23.1143 75.5089 24.1943C76.6189 25.2743 77.5939 26.4743 78.4339 27.7943C78.5839 28.0043 78.7189 28.2593 78.8389 28.5593C78.9889 28.8293 78.8989 29.0393 78.5689 29.1893L73.6189 31.9793C73.2589 32.1593 72.9739 32.2493 72.7639 32.2493C72.4939 32.2493 72.2689 32.1143 72.0889 31.8443C71.4889 31.0343 70.8739 30.1943 70.2439 29.3243C69.6439 28.4243 69.0139 27.5993 68.3539 26.8493C67.6939 26.0993 67.0039 25.4543 66.2839 24.9143C65.5639 24.3443 64.7989 23.9993 63.9889 23.8793C63.8089 23.9093 63.5689 23.9243 63.2689 23.9243L63.4039 31.0793C63.4339 31.3493 63.3439 31.5593 63.1339 31.7093C62.9239 31.8593 62.6839 31.9493 62.4139 31.9793L56.8789 32.6993ZM69.2089 11.2793C69.2089 9.83925 68.6689 8.72925 67.5889 7.94925C66.5389 7.16925 64.9789 6.86925 62.9089 7.04925L63.1339 17.7143C65.2339 17.3843 66.7639 16.6493 67.7239 15.5093C68.7139 14.3693 69.2089 12.9593 69.2089 11.2793Z" fill="white"/>
<path d="M56.8789 32.6993C55.9789 32.8493 55.5289 32.5193 55.5289 31.7093L56.2489 8.62425C56.0389 8.50425 55.9039 8.30925 55.8439 8.03925C55.7539 7.73925 55.6339 7.34925 55.4839 6.86925C55.3639 6.38925 55.2439 5.89425 55.1239 5.38425C55.0339 4.87425 54.9439 4.37925 54.8539 3.89925C54.7939 3.38925 54.7639 2.98425 54.7639 2.68425C54.7639 2.41425 54.8689 2.18925 55.0789 2.00925C55.2889 1.79925 55.4989 1.64925 55.7089 1.55925C57.4789 0.929252 59.3389 0.494253 61.2889 0.254254C63.2689 0.0142535 65.2039 -0.0307468 67.0939 0.119253C68.9839 0.239253 70.6189 0.719253 71.9989 1.55925C73.4089 2.36925 74.5339 3.38925 75.3739 4.61925C76.2439 5.84925 76.8289 7.22925 77.1289 8.75925C77.4589 10.2893 77.4739 11.8193 77.1739 13.3493C76.9039 14.8793 76.3339 16.3493 75.4639 17.7593C74.5939 19.1393 73.4089 20.3393 71.9089 21.3593C73.1989 22.1693 74.3989 23.1143 75.5089 24.1943C76.6189 25.2743 77.5939 26.4743 78.4339 27.7943C78.5839 28.0043 78.7189 28.2593 78.8389 28.5593C78.9889 28.8293 78.8989 29.0393 78.5689 29.1893L73.6189 31.9793C73.2589 32.1593 72.9739 32.2493 72.7639 32.2493C72.4939 32.2493 72.2689 32.1143 72.0889 31.8443C71.4889 31.0343 70.8739 30.1943 70.2439 29.3243C69.6439 28.4243 69.0139 27.5993 68.3539 26.8493C67.6939 26.0993 67.0039 25.4543 66.2839 24.9143C65.5639 24.3443 64.7989 23.9993 63.9889 23.8793C63.8089 23.9093 63.5689 23.9243 63.2689 23.9243L63.4039 31.0793C63.4339 31.3493 63.3439 31.5593 63.1339 31.7093C62.9239 31.8593 62.6839 31.9493 62.4139 31.9793L56.8789 32.6993ZM69.2089 11.2793C69.2089 9.83925 68.6689 8.72925 67.5889 7.94925C66.5389 7.16925 64.9789 6.86925 62.9089 7.04925L63.1339 17.7143C65.2339 17.3843 66.7639 16.6493 67.7239 15.5093C68.7139 14.3693 69.2089 12.9593 69.2089 11.2793Z" fill="black"/>
<path d="M101.077 31.5293C101.077 31.7693 100.972 31.9793 100.762 32.1593C100.582 32.3393 100.372 32.4143 100.132 32.3843L87.3517 32.1143C86.4517 32.1743 85.5967 32.1893 84.7867 32.1593C84.0067 32.1593 83.1817 32.1293 82.3117 32.0693C82.0117 32.0393 81.7417 31.9043 81.5017 31.6643C81.2917 31.3943 81.1867 31.1243 81.1867 30.8543L81.8167 7.90425C81.6067 7.75425 81.4867 7.45425 81.4567 7.00425C81.4267 6.04425 81.3967 5.20425 81.3667 4.48425C81.3667 3.73425 81.3817 2.86425 81.4117 1.87425C81.4117 1.60425 81.5167 1.37925 81.7267 1.19925C81.9367 0.989253 82.1767 0.884254 82.4467 0.884254L99.9967 0.569253C100.627 0.569253 101.017 0.659252 101.167 0.839252C101.317 0.989252 101.362 1.21425 101.302 1.51425L100.717 7.36425C100.657 8.11425 100.267 8.47425 99.5467 8.44425L89.0617 8.17425V13.7543L97.2067 13.5293C97.5667 13.5293 97.7467 13.7543 97.7467 14.2043C97.8067 14.9843 97.8217 15.8993 97.7917 16.9493C97.7917 17.9693 97.7617 18.8243 97.7017 19.5143C97.7017 19.7243 97.6117 19.9193 97.4317 20.0993C97.2517 20.2493 97.0567 20.3243 96.8467 20.3243L89.0617 19.9643V25.0043L100.492 24.8243C100.852 24.8243 101.062 25.0793 101.122 25.5893C101.182 26.4593 101.197 27.4793 101.167 28.6493C101.167 29.7893 101.137 30.7493 101.077 31.5293Z" fill="white"/>
<path d="M101.077 31.5293C101.077 31.7693 100.972 31.9793 100.762 32.1593C100.582 32.3393 100.372 32.4143 100.132 32.3843L87.3517 32.1143C86.4517 32.1743 85.5967 32.1893 84.7867 32.1593C84.0067 32.1593 83.1817 32.1293 82.3117 32.0693C82.0117 32.0393 81.7417 31.9043 81.5017 31.6643C81.2917 31.3943 81.1867 31.1243 81.1867 30.8543L81.8167 7.90425C81.6067 7.75425 81.4867 7.45425 81.4567 7.00425C81.4267 6.04425 81.3967 5.20425 81.3667 4.48425C81.3667 3.73425 81.3817 2.86425 81.4117 1.87425C81.4117 1.60425 81.5167 1.37925 81.7267 1.19925C81.9367 0.989253 82.1767 0.884254 82.4467 0.884254L99.9967 0.569253C100.627 0.569253 101.017 0.659252 101.167 0.839252C101.317 0.989252 101.362 1.21425 101.302 1.51425L100.717 7.36425C100.657 8.11425 100.267 8.47425 99.5467 8.44425L89.0617 8.17425V13.7543L97.2067 13.5293C97.5667 13.5293 97.7467 13.7543 97.7467 14.2043C97.8067 14.9843 97.8217 15.8993 97.7917 16.9493C97.7917 17.9693 97.7617 18.8243 97.7017 19.5143C97.7017 19.7243 97.6117 19.9193 97.4317 20.0993C97.2517 20.2493 97.0567 20.3243 96.8467 20.3243L89.0617 19.9643V25.0043L100.492 24.8243C100.852 24.8243 101.062 25.0793 101.122 25.5893C101.182 26.4593 101.197 27.4793 101.167 28.6493C101.167 29.7893 101.137 30.7493 101.077 31.5293Z" fill="white"/>
<path d="M101.077 31.5293C101.077 31.7693 100.972 31.9793 100.762 32.1593C100.582 32.3393 100.372 32.4143 100.132 32.3843L87.3517 32.1143C86.4517 32.1743 85.5967 32.1893 84.7867 32.1593C84.0067 32.1593 83.1817 32.1293 82.3117 32.0693C82.0117 32.0393 81.7417 31.9043 81.5017 31.6643C81.2917 31.3943 81.1867 31.1243 81.1867 30.8543L81.8167 7.90425C81.6067 7.75425 81.4867 7.45425 81.4567 7.00425C81.4267 6.04425 81.3967 5.20425 81.3667 4.48425C81.3667 3.73425 81.3817 2.86425 81.4117 1.87425C81.4117 1.60425 81.5167 1.37925 81.7267 1.19925C81.9367 0.989253 82.1767 0.884254 82.4467 0.884254L99.9967 0.569253C100.627 0.569253 101.017 0.659252 101.167 0.839252C101.317 0.989252 101.362 1.21425 101.302 1.51425L100.717 7.36425C100.657 8.11425 100.267 8.47425 99.5467 8.44425L89.0617 8.17425V13.7543L97.2067 13.5293C97.5667 13.5293 97.7467 13.7543 97.7467 14.2043C97.8067 14.9843 97.8217 15.8993 97.7917 16.9493C97.7917 17.9693 97.7617 18.8243 97.7017 19.5143C97.7017 19.7243 97.6117 19.9193 97.4317 20.0993C97.2517 20.2493 97.0567 20.3243 96.8467 20.3243L89.0617 19.9643V25.0043L100.492 24.8243C100.852 24.8243 101.062 25.0793 101.122 25.5893C101.182 26.4593 101.197 27.4793 101.167 28.6493C101.167 29.7893 101.137 30.7493 101.077 31.5293Z" fill="black"/>
<path d="M111.237 31.8443C110.127 31.9043 109.122 31.9343 108.222 31.9343C107.322 31.9643 106.377 31.9643 105.387 31.9343C105.117 31.9043 104.862 31.7693 104.622 31.5293C104.382 31.2593 104.262 30.9893 104.262 30.7193L104.442 2.23425C104.442 1.96425 104.532 1.73925 104.712 1.55925C104.922 1.34925 105.162 1.25925 105.432 1.28925C106.392 1.31925 107.232 1.33425 107.952 1.33425C108.702 1.30425 109.557 1.31925 110.517 1.37925C110.997 1.37925 111.312 1.60425 111.462 2.05425L120.867 16.5893L121.047 1.19925C121.047 0.689252 121.362 0.434252 121.992 0.434252C123.072 0.374252 124.062 0.359253 124.962 0.389252C125.892 0.419252 126.837 0.464252 127.797 0.524253C128.097 0.524253 128.352 0.659253 128.562 0.929253C128.802 1.16925 128.922 1.42425 128.922 1.69425L127.842 30.7643C127.842 31.0343 127.737 31.2593 127.527 31.4393C127.347 31.6193 127.122 31.6943 126.852 31.6643C126.612 31.6643 126.372 31.6643 126.132 31.6643C125.922 31.6343 125.712 31.6193 125.502 31.6193L123.072 31.5293C122.862 31.4993 122.637 31.4843 122.397 31.4843C122.187 31.4843 121.962 31.4693 121.722 31.4393C121.422 31.4093 121.152 31.2443 120.912 30.9443L111.822 15.9143L112.137 31.0343C112.167 31.5143 111.867 31.7843 111.237 31.8443Z" fill="white"/>
<path d="M111.237 31.8443C110.127 31.9043 109.122 31.9343 108.222 31.9343C107.322 31.9643 106.377 31.9643 105.387 31.9343C105.117 31.9043 104.862 31.7693 104.622 31.5293C104.382 31.2593 104.262 30.9893 104.262 30.7193L104.442 2.23425C104.442 1.96425 104.532 1.73925 104.712 1.55925C104.922 1.34925 105.162 1.25925 105.432 1.28925C106.392 1.31925 107.232 1.33425 107.952 1.33425C108.702 1.30425 109.557 1.31925 110.517 1.37925C110.997 1.37925 111.312 1.60425 111.462 2.05425L120.867 16.5893L121.047 1.19925C121.047 0.689252 121.362 0.434252 121.992 0.434252C123.072 0.374252 124.062 0.359253 124.962 0.389252C125.892 0.419252 126.837 0.464252 127.797 0.524253C128.097 0.524253 128.352 0.659253 128.562 0.929253C128.802 1.16925 128.922 1.42425 128.922 1.69425L127.842 30.7643C127.842 31.0343 127.737 31.2593 127.527 31.4393C127.347 31.6193 127.122 31.6943 126.852 31.6643C126.612 31.6643 126.372 31.6643 126.132 31.6643C125.922 31.6343 125.712 31.6193 125.502 31.6193L123.072 31.5293C122.862 31.4993 122.637 31.4843 122.397 31.4843C122.187 31.4843 121.962 31.4693 121.722 31.4393C121.422 31.4093 121.152 31.2443 120.912 30.9443L111.822 15.9143L112.137 31.0343C112.167 31.5143 111.867 31.7843 111.237 31.8443Z" fill="white"/>
<path d="M111.237 31.8443C110.127 31.9043 109.122 31.9343 108.222 31.9343C107.322 31.9643 106.377 31.9643 105.387 31.9343C105.117 31.9043 104.862 31.7693 104.622 31.5293C104.382 31.2593 104.262 30.9893 104.262 30.7193L104.442 2.23425C104.442 1.96425 104.532 1.73925 104.712 1.55925C104.922 1.34925 105.162 1.25925 105.432 1.28925C106.392 1.31925 107.232 1.33425 107.952 1.33425C108.702 1.30425 109.557 1.31925 110.517 1.37925C110.997 1.37925 111.312 1.60425 111.462 2.05425L120.867 16.5893L121.047 1.19925C121.047 0.689252 121.362 0.434252 121.992 0.434252C123.072 0.374252 124.062 0.359253 124.962 0.389252C125.892 0.419252 126.837 0.464252 127.797 0.524253C128.097 0.524253 128.352 0.659253 128.562 0.929253C128.802 1.16925 128.922 1.42425 128.922 1.69425L127.842 30.7643C127.842 31.0343 127.737 31.2593 127.527 31.4393C127.347 31.6193 127.122 31.6943 126.852 31.6643C126.612 31.6643 126.372 31.6643 126.132 31.6643C125.922 31.6343 125.712 31.6193 125.502 31.6193L123.072 31.5293C122.862 31.4993 122.637 31.4843 122.397 31.4843C122.187 31.4843 121.962 31.4693 121.722 31.4393C121.422 31.4093 121.152 31.2443 120.912 30.9443L111.822 15.9143L112.137 31.0343C112.167 31.5143 111.867 31.7843 111.237 31.8443Z" fill="black"/>
</svg>
