<svg width="187" height="35" viewBox="0 0 187 35" fill="none" xmlns="http://www.w3.org/2000/svg">
<path d="M49.3475 33.8403C49.1975 33.9003 49.0625 33.9603 48.9425 34.0203C48.8525 34.0803 48.7475 34.1103 48.6275 34.1103C48.2975 34.1103 47.9975 33.9153 47.7275 33.5253L39.3575 21.6903L37.6025 23.4903V31.8153C37.6025 32.1153 37.4975 32.3703 37.2875 32.5803C37.1075 32.7603 36.8825 32.8653 36.6125 32.8953C36.3725 32.8953 36.1325 32.8953 35.8925 32.8953C35.6825 32.9253 35.4725 32.9403 35.2625 32.9403L32.8775 33.0303C32.6375 33.0303 32.4125 33.0303 32.2025 33.0303C31.9925 33.0303 31.7675 33.0453 31.5275 33.0753C31.2575 33.1053 31.0175 33.0153 30.8075 32.8053C30.6275 32.6253 30.5225 32.4003 30.4925 32.1303L29.7275 3.10527C29.7275 2.83527 29.8325 2.58027 30.0425 2.34027C30.2825 2.07027 30.5525 1.92027 30.8525 1.89027C31.8125 1.83027 32.7425 1.80027 33.6425 1.80027C34.5725 1.80027 35.5775 1.83027 36.6575 1.89027C37.2875 1.89027 37.6025 2.14527 37.6025 2.65527V12.5553L47.3225 1.44027C47.5025 1.26027 47.6825 1.17027 47.8625 1.17027C48.0425 1.17027 48.2675 1.27527 48.5375 1.48527C49.4075 2.17527 50.2625 2.82027 51.1025 3.42027C51.9725 4.02027 52.7525 4.66527 53.4425 5.35527C53.6525 5.53527 53.7575 5.80527 53.7575 6.16527C53.7575 6.49527 53.6525 6.76527 53.4425 6.97527L44.5325 16.2903L54.6575 29.0253C54.8375 29.2653 54.9275 29.5503 54.9275 29.8803C54.9575 30.1803 54.8075 30.4353 54.4775 30.6453L49.3475 33.8403Z" fill="white"/>
<path d="M49.3475 33.8403C49.1975 33.9003 49.0625 33.9603 48.9425 34.0203C48.8525 34.0803 48.7475 34.1103 48.6275 34.1103C48.2975 34.1103 47.9975 33.9153 47.7275 33.5253L39.3575 21.6903L37.6025 23.4903V31.8153C37.6025 32.1153 37.4975 32.3703 37.2875 32.5803C37.1075 32.7603 36.8825 32.8653 36.6125 32.8953C36.3725 32.8953 36.1325 32.8953 35.8925 32.8953C35.6825 32.9253 35.4725 32.9403 35.2625 32.9403L32.8775 33.0303C32.6375 33.0303 32.4125 33.0303 32.2025 33.0303C31.9925 33.0303 31.7675 33.0453 31.5275 33.0753C31.2575 33.1053 31.0175 33.0153 30.8075 32.8053C30.6275 32.6253 30.5225 32.4003 30.4925 32.1303L29.7275 3.10527C29.7275 2.83527 29.8325 2.58027 30.0425 2.34027C30.2825 2.07027 30.5525 1.92027 30.8525 1.89027C31.8125 1.83027 32.7425 1.80027 33.6425 1.80027C34.5725 1.80027 35.5775 1.83027 36.6575 1.89027C37.2875 1.89027 37.6025 2.14527 37.6025 2.65527V12.5553L47.3225 1.44027C47.5025 1.26027 47.6825 1.17027 47.8625 1.17027C48.0425 1.17027 48.2675 1.27527 48.5375 1.48527C49.4075 2.17527 50.2625 2.82027 51.1025 3.42027C51.9725 4.02027 52.7525 4.66527 53.4425 5.35527C53.6525 5.53527 53.7575 5.80527 53.7575 6.16527C53.7575 6.49527 53.6525 6.76527 53.4425 6.97527L44.5325 16.2903L54.6575 29.0253C54.8375 29.2653 54.9275 29.5503 54.9275 29.8803C54.9575 30.1803 54.8075 30.4353 54.4775 30.6453L49.3475 33.8403Z" fill="white"/>
<path d="M49.3475 33.8403C49.1975 33.9003 49.0625 33.9603 48.9425 34.0203C48.8525 34.0803 48.7475 34.1103 48.6275 34.1103C48.2975 34.1103 47.9975 33.9153 47.7275 33.5253L39.3575 21.6903L37.6025 23.4903V31.8153C37.6025 32.1153 37.4975 32.3703 37.2875 32.5803C37.1075 32.7603 36.8825 32.8653 36.6125 32.8953C36.3725 32.8953 36.1325 32.8953 35.8925 32.8953C35.6825 32.9253 35.4725 32.9403 35.2625 32.9403L32.8775 33.0303C32.6375 33.0303 32.4125 33.0303 32.2025 33.0303C31.9925 33.0303 31.7675 33.0453 31.5275 33.0753C31.2575 33.1053 31.0175 33.0153 30.8075 32.8053C30.6275 32.6253 30.5225 32.4003 30.4925 32.1303L29.7275 3.10527C29.7275 2.83527 29.8325 2.58027 30.0425 2.34027C30.2825 2.07027 30.5525 1.92027 30.8525 1.89027C31.8125 1.83027 32.7425 1.80027 33.6425 1.80027C34.5725 1.80027 35.5775 1.83027 36.6575 1.89027C37.2875 1.89027 37.6025 2.14527 37.6025 2.65527V12.5553L47.3225 1.44027C47.5025 1.26027 47.6825 1.17027 47.8625 1.17027C48.0425 1.17027 48.2675 1.27527 48.5375 1.48527C49.4075 2.17527 50.2625 2.82027 51.1025 3.42027C51.9725 4.02027 52.7525 4.66527 53.4425 5.35527C53.6525 5.53527 53.7575 5.80527 53.7575 6.16527C53.7575 6.49527 53.6525 6.76527 53.4425 6.97527L44.5325 16.2903L54.6575 29.0253C54.8375 29.2653 54.9275 29.5503 54.9275 29.8803C54.9575 30.1803 54.8075 30.4353 54.4775 30.6453L49.3475 33.8403Z" fill="white"/>
<path d="M63.7268 31.9503C63.6068 32.2203 63.4118 32.4603 63.1418 32.6703C62.9018 32.8503 62.6468 32.9403 62.3768 32.9403C61.4168 32.9103 60.3218 32.8803 59.0918 32.8503C57.8618 32.8203 56.7668 32.7903 55.8068 32.7603C55.5368 32.7603 55.3268 32.6553 55.1768 32.4453C55.0568 32.2353 55.0418 31.9953 55.1318 31.7253C56.9318 26.8953 58.7018 22.0653 60.4418 17.2353C62.1818 12.3753 63.9518 7.57527 65.7518 2.83527C65.8718 2.50527 66.0668 2.26527 66.3368 2.11527C66.6068 1.93527 66.9068 1.84527 67.2368 1.84527C67.2968 1.81527 67.4168 1.80027 67.5968 1.80027C68.0168 1.80027 68.3768 1.81527 68.6768 1.84527C69.0068 1.84527 69.3068 1.86027 69.5768 1.89027H71.6018C71.6918 1.89027 71.7968 1.92027 71.9168 1.98027H72.0968C72.3668 2.01027 72.6218 2.13027 72.8618 2.34027C73.1318 2.52027 73.3118 2.74527 73.4018 3.01527C74.0018 4.87527 74.6018 6.69027 75.2018 8.46027C75.8018 10.2303 76.4018 12.0153 77.0018 13.8153L79.3868 20.9253C79.9868 22.6953 80.5868 24.4803 81.1868 26.2803C81.7868 28.0503 82.3868 29.8503 82.9868 31.6803C83.0768 31.9803 83.0468 32.2353 82.8968 32.4453C82.7768 32.6253 82.5818 32.7003 82.3118 32.6703C81.3518 32.6403 80.2568 32.6253 79.0268 32.6253C77.7968 32.5953 76.7018 32.5503 75.7418 32.4903C75.4718 32.4903 75.2018 32.4003 74.9318 32.2203C74.6618 32.0103 74.4818 31.7703 74.3918 31.5003C74.1518 30.7503 73.9268 30.0153 73.7168 29.2953C73.5368 28.5753 73.3418 27.8553 73.1318 27.1353H65.2118C64.7318 28.8453 64.2368 30.4503 63.7268 31.9503ZM69.4868 12.0603C69.0668 13.5603 68.6468 15.0453 68.2268 16.5153C67.8368 17.9853 67.4318 19.4853 67.0118 21.0153L71.4668 20.6103C71.1368 19.1703 70.8068 17.7453 70.4768 16.3353C70.1468 14.9253 69.8168 13.5003 69.4868 12.0603Z" fill="white"/>
<path d="M63.7268 31.9503C63.6068 32.2203 63.4118 32.4603 63.1418 32.6703C62.9018 32.8503 62.6468 32.9403 62.3768 32.9403C61.4168 32.9103 60.3218 32.8803 59.0918 32.8503C57.8618 32.8203 56.7668 32.7903 55.8068 32.7603C55.5368 32.7603 55.3268 32.6553 55.1768 32.4453C55.0568 32.2353 55.0418 31.9953 55.1318 31.7253C56.9318 26.8953 58.7018 22.0653 60.4418 17.2353C62.1818 12.3753 63.9518 7.57527 65.7518 2.83527C65.8718 2.50527 66.0668 2.26527 66.3368 2.11527C66.6068 1.93527 66.9068 1.84527 67.2368 1.84527C67.2968 1.81527 67.4168 1.80027 67.5968 1.80027C68.0168 1.80027 68.3768 1.81527 68.6768 1.84527C69.0068 1.84527 69.3068 1.86027 69.5768 1.89027H71.6018C71.6918 1.89027 71.7968 1.92027 71.9168 1.98027H72.0968C72.3668 2.01027 72.6218 2.13027 72.8618 2.34027C73.1318 2.52027 73.3118 2.74527 73.4018 3.01527C74.0018 4.87527 74.6018 6.69027 75.2018 8.46027C75.8018 10.2303 76.4018 12.0153 77.0018 13.8153L79.3868 20.9253C79.9868 22.6953 80.5868 24.4803 81.1868 26.2803C81.7868 28.0503 82.3868 29.8503 82.9868 31.6803C83.0768 31.9803 83.0468 32.2353 82.8968 32.4453C82.7768 32.6253 82.5818 32.7003 82.3118 32.6703C81.3518 32.6403 80.2568 32.6253 79.0268 32.6253C77.7968 32.5953 76.7018 32.5503 75.7418 32.4903C75.4718 32.4903 75.2018 32.4003 74.9318 32.2203C74.6618 32.0103 74.4818 31.7703 74.3918 31.5003C74.1518 30.7503 73.9268 30.0153 73.7168 29.2953C73.5368 28.5753 73.3418 27.8553 73.1318 27.1353H65.2118C64.7318 28.8453 64.2368 30.4503 63.7268 31.9503ZM69.4868 12.0603C69.0668 13.5603 68.6468 15.0453 68.2268 16.5153C67.8368 17.9853 67.4318 19.4853 67.0118 21.0153L71.4668 20.6103C71.1368 19.1703 70.8068 17.7453 70.4768 16.3353C70.1468 14.9253 69.8168 13.5003 69.4868 12.0603Z" fill="white"/>
<path d="M63.7268 31.9503C63.6068 32.2203 63.4118 32.4603 63.1418 32.6703C62.9018 32.8503 62.6468 32.9403 62.3768 32.9403C61.4168 32.9103 60.3218 32.8803 59.0918 32.8503C57.8618 32.8203 56.7668 32.7903 55.8068 32.7603C55.5368 32.7603 55.3268 32.6553 55.1768 32.4453C55.0568 32.2353 55.0418 31.9953 55.1318 31.7253C56.9318 26.8953 58.7018 22.0653 60.4418 17.2353C62.1818 12.3753 63.9518 7.57527 65.7518 2.83527C65.8718 2.50527 66.0668 2.26527 66.3368 2.11527C66.6068 1.93527 66.9068 1.84527 67.2368 1.84527C67.2968 1.81527 67.4168 1.80027 67.5968 1.80027C68.0168 1.80027 68.3768 1.81527 68.6768 1.84527C69.0068 1.84527 69.3068 1.86027 69.5768 1.89027H71.6018C71.6918 1.89027 71.7968 1.92027 71.9168 1.98027H72.0968C72.3668 2.01027 72.6218 2.13027 72.8618 2.34027C73.1318 2.52027 73.3118 2.74527 73.4018 3.01527C74.0018 4.87527 74.6018 6.69027 75.2018 8.46027C75.8018 10.2303 76.4018 12.0153 77.0018 13.8153L79.3868 20.9253C79.9868 22.6953 80.5868 24.4803 81.1868 26.2803C81.7868 28.0503 82.3868 29.8503 82.9868 31.6803C83.0768 31.9803 83.0468 32.2353 82.8968 32.4453C82.7768 32.6253 82.5818 32.7003 82.3118 32.6703C81.3518 32.6403 80.2568 32.6253 79.0268 32.6253C77.7968 32.5953 76.7018 32.5503 75.7418 32.4903C75.4718 32.4903 75.2018 32.4003 74.9318 32.2203C74.6618 32.0103 74.4818 31.7703 74.3918 31.5003C74.1518 30.7503 73.9268 30.0153 73.7168 29.2953C73.5368 28.5753 73.3418 27.8553 73.1318 27.1353H65.2118C64.7318 28.8453 64.2368 30.4503 63.7268 31.9503ZM69.4868 12.0603C69.0668 13.5603 68.6468 15.0453 68.2268 16.5153C67.8368 17.9853 67.4318 19.4853 67.0118 21.0153L71.4668 20.6103C71.1368 19.1703 70.8068 17.7453 70.4768 16.3353C70.1468 14.9253 69.8168 13.5003 69.4868 12.0603Z" fill="white"/>
<path d="M86.3692 33.6153C85.4692 33.7653 85.0192 33.4353 85.0192 32.6253L85.7392 9.54027C85.5292 9.42027 85.3942 9.22527 85.3342 8.95527C85.2442 8.65527 85.1242 8.26527 84.9742 7.78527C84.8542 7.30527 84.7342 6.81027 84.6142 6.30027C84.5242 5.79027 84.4342 5.29527 84.3442 4.81527C84.2842 4.30527 84.2542 3.90027 84.2542 3.60027C84.2542 3.33027 84.3592 3.10527 84.5692 2.92527C84.7792 2.71527 84.9892 2.56527 85.1992 2.47527C86.9692 1.84527 88.8292 1.41027 90.7792 1.17027C92.7592 0.930269 94.6942 0.885269 96.5842 1.03527C98.4742 1.15527 100.109 1.63527 101.489 2.47527C102.899 3.28527 104.024 4.30527 104.864 5.53527C105.734 6.76527 106.319 8.14527 106.619 9.67527C106.949 11.2053 106.964 12.7353 106.664 14.2653C106.394 15.7953 105.824 17.2653 104.954 18.6753C104.084 20.0553 102.899 21.2553 101.399 22.2753C102.689 23.0853 103.889 24.0303 104.999 25.1103C106.109 26.1903 107.084 27.3903 107.924 28.7103C108.074 28.9203 108.209 29.1753 108.329 29.4753C108.479 29.7453 108.389 29.9553 108.059 30.1053L103.109 32.8953C102.749 33.0753 102.464 33.1653 102.254 33.1653C101.984 33.1653 101.759 33.0303 101.579 32.7603C100.979 31.9503 100.364 31.1103 99.7342 30.2403C99.1342 29.3403 98.5042 28.5153 97.8442 27.7653C97.1842 27.0153 96.4942 26.3703 95.7742 25.8303C95.0542 25.2603 94.2892 24.9153 93.4792 24.7953C93.2992 24.8253 93.0592 24.8403 92.7592 24.8403L92.8942 31.9953C92.9242 32.2653 92.8342 32.4753 92.6242 32.6253C92.4142 32.7753 92.1742 32.8653 91.9042 32.8953L86.3692 33.6153ZM98.6992 12.1953C98.6992 10.7553 98.1592 9.64527 97.0792 8.86527C96.0292 8.08527 94.4692 7.78527 92.3992 7.96527L92.6242 18.6303C94.7242 18.3003 96.2542 17.5653 97.2142 16.4253C98.2042 15.2853 98.6992 13.8753 98.6992 12.1953Z" fill="white"/>
<path d="M86.3692 33.6153C85.4692 33.7653 85.0192 33.4353 85.0192 32.6253L85.7392 9.54027C85.5292 9.42027 85.3942 9.22527 85.3342 8.95527C85.2442 8.65527 85.1242 8.26527 84.9742 7.78527C84.8542 7.30527 84.7342 6.81027 84.6142 6.30027C84.5242 5.79027 84.4342 5.29527 84.3442 4.81527C84.2842 4.30527 84.2542 3.90027 84.2542 3.60027C84.2542 3.33027 84.3592 3.10527 84.5692 2.92527C84.7792 2.71527 84.9892 2.56527 85.1992 2.47527C86.9692 1.84527 88.8292 1.41027 90.7792 1.17027C92.7592 0.930269 94.6942 0.885269 96.5842 1.03527C98.4742 1.15527 100.109 1.63527 101.489 2.47527C102.899 3.28527 104.024 4.30527 104.864 5.53527C105.734 6.76527 106.319 8.14527 106.619 9.67527C106.949 11.2053 106.964 12.7353 106.664 14.2653C106.394 15.7953 105.824 17.2653 104.954 18.6753C104.084 20.0553 102.899 21.2553 101.399 22.2753C102.689 23.0853 103.889 24.0303 104.999 25.1103C106.109 26.1903 107.084 27.3903 107.924 28.7103C108.074 28.9203 108.209 29.1753 108.329 29.4753C108.479 29.7453 108.389 29.9553 108.059 30.1053L103.109 32.8953C102.749 33.0753 102.464 33.1653 102.254 33.1653C101.984 33.1653 101.759 33.0303 101.579 32.7603C100.979 31.9503 100.364 31.1103 99.7342 30.2403C99.1342 29.3403 98.5042 28.5153 97.8442 27.7653C97.1842 27.0153 96.4942 26.3703 95.7742 25.8303C95.0542 25.2603 94.2892 24.9153 93.4792 24.7953C93.2992 24.8253 93.0592 24.8403 92.7592 24.8403L92.8942 31.9953C92.9242 32.2653 92.8342 32.4753 92.6242 32.6253C92.4142 32.7753 92.1742 32.8653 91.9042 32.8953L86.3692 33.6153ZM98.6992 12.1953C98.6992 10.7553 98.1592 9.64527 97.0792 8.86527C96.0292 8.08527 94.4692 7.78527 92.3992 7.96527L92.6242 18.6303C94.7242 18.3003 96.2542 17.5653 97.2142 16.4253C98.2042 15.2853 98.6992 13.8753 98.6992 12.1953Z" fill="white"/>
<path d="M86.3692 33.6153C85.4692 33.7653 85.0192 33.4353 85.0192 32.6253L85.7392 9.54027C85.5292 9.42027 85.3942 9.22527 85.3342 8.95527C85.2442 8.65527 85.1242 8.26527 84.9742 7.78527C84.8542 7.30527 84.7342 6.81027 84.6142 6.30027C84.5242 5.79027 84.4342 5.29527 84.3442 4.81527C84.2842 4.30527 84.2542 3.90027 84.2542 3.60027C84.2542 3.33027 84.3592 3.10527 84.5692 2.92527C84.7792 2.71527 84.9892 2.56527 85.1992 2.47527C86.9692 1.84527 88.8292 1.41027 90.7792 1.17027C92.7592 0.930269 94.6942 0.885269 96.5842 1.03527C98.4742 1.15527 100.109 1.63527 101.489 2.47527C102.899 3.28527 104.024 4.30527 104.864 5.53527C105.734 6.76527 106.319 8.14527 106.619 9.67527C106.949 11.2053 106.964 12.7353 106.664 14.2653C106.394 15.7953 105.824 17.2653 104.954 18.6753C104.084 20.0553 102.899 21.2553 101.399 22.2753C102.689 23.0853 103.889 24.0303 104.999 25.1103C106.109 26.1903 107.084 27.3903 107.924 28.7103C108.074 28.9203 108.209 29.1753 108.329 29.4753C108.479 29.7453 108.389 29.9553 108.059 30.1053L103.109 32.8953C102.749 33.0753 102.464 33.1653 102.254 33.1653C101.984 33.1653 101.759 33.0303 101.579 32.7603C100.979 31.9503 100.364 31.1103 99.7342 30.2403C99.1342 29.3403 98.5042 28.5153 97.8442 27.7653C97.1842 27.0153 96.4942 26.3703 95.7742 25.8303C95.0542 25.2603 94.2892 24.9153 93.4792 24.7953C93.2992 24.8253 93.0592 24.8403 92.7592 24.8403L92.8942 31.9953C92.9242 32.2653 92.8342 32.4753 92.6242 32.6253C92.4142 32.7753 92.1742 32.8653 91.9042 32.8953L86.3692 33.6153ZM98.6992 12.1953C98.6992 10.7553 98.1592 9.64527 97.0792 8.86527C96.0292 8.08527 94.4692 7.78527 92.3992 7.96527L92.6242 18.6303C94.7242 18.3003 96.2542 17.5653 97.2142 16.4253C98.2042 15.2853 98.6992 13.8753 98.6992 12.1953Z" fill="white"/>
<path d="M130.567 32.4453C130.567 32.6853 130.462 32.8953 130.252 33.0753C130.072 33.2553 129.862 33.3303 129.622 33.3003L116.842 33.0303C115.942 33.0903 115.087 33.1053 114.277 33.0753C113.497 33.0753 112.672 33.0453 111.802 32.9853C111.502 32.9553 111.232 32.8203 110.992 32.5803C110.782 32.3103 110.677 32.0403 110.677 31.7703L111.307 8.82027C111.097 8.67027 110.977 8.37027 110.947 7.92027C110.917 6.96027 110.887 6.12027 110.857 5.40027C110.857 4.65027 110.872 3.78027 110.902 2.79027C110.902 2.52027 111.007 2.29527 111.217 2.11527C111.427 1.90527 111.667 1.80027 111.937 1.80027L129.487 1.48527C130.117 1.48527 130.507 1.57527 130.657 1.75527C130.807 1.90527 130.852 2.13027 130.792 2.43027L130.207 8.28027C130.147 9.03027 129.757 9.39027 129.037 9.36027L118.552 9.09027V14.6703L126.697 14.4453C127.057 14.4453 127.237 14.6703 127.237 15.1203C127.297 15.9003 127.312 16.8153 127.282 17.8653C127.282 18.8853 127.252 19.7403 127.192 20.4303C127.192 20.6403 127.102 20.8353 126.922 21.0153C126.742 21.1653 126.547 21.2403 126.337 21.2403L118.552 20.8803V25.9203L129.982 25.7403C130.342 25.7403 130.552 25.9953 130.612 26.5053C130.672 27.3753 130.687 28.3953 130.657 29.5653C130.657 30.7053 130.627 31.6653 130.567 32.4453Z" fill="white"/>
<path d="M130.567 32.4453C130.567 32.6853 130.462 32.8953 130.252 33.0753C130.072 33.2553 129.862 33.3303 129.622 33.3003L116.842 33.0303C115.942 33.0903 115.087 33.1053 114.277 33.0753C113.497 33.0753 112.672 33.0453 111.802 32.9853C111.502 32.9553 111.232 32.8203 110.992 32.5803C110.782 32.3103 110.677 32.0403 110.677 31.7703L111.307 8.82027C111.097 8.67027 110.977 8.37027 110.947 7.92027C110.917 6.96027 110.887 6.12027 110.857 5.40027C110.857 4.65027 110.872 3.78027 110.902 2.79027C110.902 2.52027 111.007 2.29527 111.217 2.11527C111.427 1.90527 111.667 1.80027 111.937 1.80027L129.487 1.48527C130.117 1.48527 130.507 1.57527 130.657 1.75527C130.807 1.90527 130.852 2.13027 130.792 2.43027L130.207 8.28027C130.147 9.03027 129.757 9.39027 129.037 9.36027L118.552 9.09027V14.6703L126.697 14.4453C127.057 14.4453 127.237 14.6703 127.237 15.1203C127.297 15.9003 127.312 16.8153 127.282 17.8653C127.282 18.8853 127.252 19.7403 127.192 20.4303C127.192 20.6403 127.102 20.8353 126.922 21.0153C126.742 21.1653 126.547 21.2403 126.337 21.2403L118.552 20.8803V25.9203L129.982 25.7403C130.342 25.7403 130.552 25.9953 130.612 26.5053C130.672 27.3753 130.687 28.3953 130.657 29.5653C130.657 30.7053 130.627 31.6653 130.567 32.4453Z" fill="white"/>
<path d="M130.567 32.4453C130.567 32.6853 130.462 32.8953 130.252 33.0753C130.072 33.2553 129.862 33.3303 129.622 33.3003L116.842 33.0303C115.942 33.0903 115.087 33.1053 114.277 33.0753C113.497 33.0753 112.672 33.0453 111.802 32.9853C111.502 32.9553 111.232 32.8203 110.992 32.5803C110.782 32.3103 110.677 32.0403 110.677 31.7703L111.307 8.82027C111.097 8.67027 110.977 8.37027 110.947 7.92027C110.917 6.96027 110.887 6.12027 110.857 5.40027C110.857 4.65027 110.872 3.78027 110.902 2.79027C110.902 2.52027 111.007 2.29527 111.217 2.11527C111.427 1.90527 111.667 1.80027 111.937 1.80027L129.487 1.48527C130.117 1.48527 130.507 1.57527 130.657 1.75527C130.807 1.90527 130.852 2.13027 130.792 2.43027L130.207 8.28027C130.147 9.03027 129.757 9.39027 129.037 9.36027L118.552 9.09027V14.6703L126.697 14.4453C127.057 14.4453 127.237 14.6703 127.237 15.1203C127.297 15.9003 127.312 16.8153 127.282 17.8653C127.282 18.8853 127.252 19.7403 127.192 20.4303C127.192 20.6403 127.102 20.8353 126.922 21.0153C126.742 21.1653 126.547 21.2403 126.337 21.2403L118.552 20.8803V25.9203L129.982 25.7403C130.342 25.7403 130.552 25.9953 130.612 26.5053C130.672 27.3753 130.687 28.3953 130.657 29.5653C130.657 30.7053 130.627 31.6653 130.567 32.4453Z" fill="white"/>
<path d="M140.727 32.7603C139.617 32.8203 138.612 32.8503 137.712 32.8503C136.812 32.8803 135.867 32.8803 134.877 32.8503C134.607 32.8203 134.352 32.6853 134.112 32.4453C133.872 32.1753 133.752 31.9053 133.752 31.6353L133.932 3.15027C133.932 2.88027 134.022 2.65527 134.202 2.47527C134.412 2.26527 134.652 2.17527 134.922 2.20527C135.882 2.23527 136.722 2.25027 137.442 2.25027C138.192 2.22027 139.047 2.23527 140.007 2.29527C140.487 2.29527 140.802 2.52027 140.952 2.97027L150.357 17.5053L150.537 2.11527C150.537 1.60527 150.852 1.35027 151.482 1.35027C152.562 1.29027 153.552 1.27527 154.452 1.30527C155.382 1.33527 156.327 1.38027 157.287 1.44027C157.587 1.44027 157.842 1.57527 158.052 1.84527C158.292 2.08527 158.412 2.34027 158.412 2.61027L157.332 31.6803C157.332 31.9503 157.227 32.1753 157.017 32.3553C156.837 32.5353 156.612 32.6103 156.342 32.5803C156.102 32.5803 155.862 32.5803 155.622 32.5803C155.412 32.5503 155.202 32.5353 154.992 32.5353L152.562 32.4453C152.352 32.4153 152.127 32.4003 151.887 32.4003C151.677 32.4003 151.452 32.3853 151.212 32.3553C150.912 32.3253 150.642 32.1603 150.402 31.8603L141.312 16.8303L141.627 31.9503C141.657 32.4303 141.357 32.7003 140.727 32.7603Z" fill="white"/>
<path d="M140.727 32.7603C139.617 32.8203 138.612 32.8503 137.712 32.8503C136.812 32.8803 135.867 32.8803 134.877 32.8503C134.607 32.8203 134.352 32.6853 134.112 32.4453C133.872 32.1753 133.752 31.9053 133.752 31.6353L133.932 3.15027C133.932 2.88027 134.022 2.65527 134.202 2.47527C134.412 2.26527 134.652 2.17527 134.922 2.20527C135.882 2.23527 136.722 2.25027 137.442 2.25027C138.192 2.22027 139.047 2.23527 140.007 2.29527C140.487 2.29527 140.802 2.52027 140.952 2.97027L150.357 17.5053L150.537 2.11527C150.537 1.60527 150.852 1.35027 151.482 1.35027C152.562 1.29027 153.552 1.27527 154.452 1.30527C155.382 1.33527 156.327 1.38027 157.287 1.44027C157.587 1.44027 157.842 1.57527 158.052 1.84527C158.292 2.08527 158.412 2.34027 158.412 2.61027L157.332 31.6803C157.332 31.9503 157.227 32.1753 157.017 32.3553C156.837 32.5353 156.612 32.6103 156.342 32.5803C156.102 32.5803 155.862 32.5803 155.622 32.5803C155.412 32.5503 155.202 32.5353 154.992 32.5353L152.562 32.4453C152.352 32.4153 152.127 32.4003 151.887 32.4003C151.677 32.4003 151.452 32.3853 151.212 32.3553C150.912 32.3253 150.642 32.1603 150.402 31.8603L141.312 16.8303L141.627 31.9503C141.657 32.4303 141.357 32.7003 140.727 32.7603Z" fill="white"/>
<path d="M140.727 32.7603C139.617 32.8203 138.612 32.8503 137.712 32.8503C136.812 32.8803 135.867 32.8803 134.877 32.8503C134.607 32.8203 134.352 32.6853 134.112 32.4453C133.872 32.1753 133.752 31.9053 133.752 31.6353L133.932 3.15027C133.932 2.88027 134.022 2.65527 134.202 2.47527C134.412 2.26527 134.652 2.17527 134.922 2.20527C135.882 2.23527 136.722 2.25027 137.442 2.25027C138.192 2.22027 139.047 2.23527 140.007 2.29527C140.487 2.29527 140.802 2.52027 140.952 2.97027L150.357 17.5053L150.537 2.11527C150.537 1.60527 150.852 1.35027 151.482 1.35027C152.562 1.29027 153.552 1.27527 154.452 1.30527C155.382 1.33527 156.327 1.38027 157.287 1.44027C157.587 1.44027 157.842 1.57527 158.052 1.84527C158.292 2.08527 158.412 2.34027 158.412 2.61027L157.332 31.6803C157.332 31.9503 157.227 32.1753 157.017 32.3553C156.837 32.5353 156.612 32.6103 156.342 32.5803C156.102 32.5803 155.862 32.5803 155.622 32.5803C155.412 32.5503 155.202 32.5353 154.992 32.5353L152.562 32.4453C152.352 32.4153 152.127 32.4003 151.887 32.4003C151.677 32.4003 151.452 32.3853 151.212 32.3553C150.912 32.3253 150.642 32.1603 150.402 31.8603L141.312 16.8303L141.627 31.9503C141.657 32.4303 141.357 32.7003 140.727 32.7603Z" fill="white"/>
</svg>
