<svg width="34" height="27" viewBox="0 0 34 27" fill="none" xmlns="http://www.w3.org/2000/svg">
<path d="M34 3.20269C32.7497 3.74391 31.4065 4.10959 29.9945 4.27488C31.4514 3.42326 32.5414 2.08292 33.0611 0.50394C31.6923 1.29819 30.1941 1.85726 28.6318 2.15684C27.5812 1.06105 26.1896 0.33474 24.6732 0.0906787C23.1567 -0.153382 21.6002 0.0984568 20.2452 0.807097C18.8903 1.51574 17.8128 2.64153 17.1799 4.00969C16.5471 5.37785 16.3944 6.91183 16.7454 8.37347C13.9718 8.23743 11.2584 7.5332 8.7814 6.30649C6.30439 5.07977 4.11911 3.35798 2.36739 1.25286C1.76843 2.26215 1.42403 3.43234 1.42403 4.6786C1.42336 5.80051 1.70619 6.90524 2.24742 7.89477C2.78865 8.8843 3.57154 9.72803 4.52665 10.3511C3.41898 10.3167 2.33576 10.0243 1.36713 9.49832V9.58608C1.36702 11.1596 1.92421 12.6847 2.94417 13.9026C3.96412 15.1205 5.38401 15.9562 6.96292 16.2679C5.93538 16.5395 4.85808 16.5795 3.81238 16.3849C4.25786 17.7388 5.1256 18.9228 6.29413 19.771C7.46266 20.6193 8.87348 21.0893 10.3291 21.1154C7.85811 23.0102 4.80649 24.0381 1.66511 24.0336C1.10865 24.0337 0.552655 24.002 0 23.9385C3.18868 25.9412 6.90054 27.0041 10.6914 27C23.5242 27 30.5395 16.6175 30.5395 7.61285C30.5395 7.3203 30.532 7.02483 30.5185 6.73228C31.8831 5.7683 33.061 4.57459 33.997 3.20708L34 3.20269Z" fill="black"/>
</svg>
