<svg width="30" height="23" viewBox="0 0 30 23" fill="none" xmlns="http://www.w3.org/2000/svg">
<path d="M24.6943 1.85257C22.835 0.995097 20.8413 0.363347 18.7567 0.00151783C18.7187 -0.00546537 18.6808 0.011986 18.6612 0.0468896C18.4048 0.505282 18.1208 1.10329 17.9219 1.57333C15.6798 1.23594 13.4491 1.23594 11.253 1.57333C11.0541 1.09285 10.7597 0.505282 10.5022 0.0468896C10.4826 0.0131506 10.4447 -0.00430081 10.4067 0.00151783C8.32327 0.362191 6.32951 0.993941 4.46912 1.85257C4.45301 1.85955 4.43921 1.8712 4.43005 1.88631C0.648309 7.56512 -0.387667 13.1044 0.120548 18.5749C0.122848 18.6017 0.137795 18.6273 0.158492 18.6435C2.65357 20.4853 5.07049 21.6034 7.44252 22.3445C7.48048 22.3561 7.52071 22.3422 7.54486 22.3107C8.10597 21.5406 8.60614 20.7285 9.035 19.8745C9.0603 19.8244 9.03615 19.7651 8.98442 19.7453C8.19106 19.4428 7.43562 19.074 6.70894 18.6552C6.65146 18.6214 6.64686 18.5388 6.69974 18.4993C6.85266 18.3841 7.00562 18.2642 7.15164 18.1432C7.17805 18.1211 7.21487 18.1165 7.24593 18.1304C12.0199 20.3212 17.1883 20.3212 21.9059 18.1304C21.937 18.1153 21.9738 18.12 22.0014 18.1421C22.1474 18.2631 22.3004 18.3841 22.4544 18.4993C22.5073 18.5388 22.5039 18.6214 22.4464 18.6552C21.7197 19.0821 20.9643 19.4428 20.1698 19.7442C20.118 19.7639 20.095 19.8244 20.1203 19.8745C20.5584 20.7273 21.0586 21.5394 21.6093 22.3096C21.6323 22.3422 21.6737 22.3561 21.7117 22.3445C24.0952 21.6034 26.5121 20.4853 29.0072 18.6435C29.029 18.6273 29.0428 18.6028 29.0451 18.5761C29.6534 12.2515 28.0264 6.7577 24.7322 1.88747C24.7241 1.8712 24.7104 1.85955 24.6943 1.85257ZM9.74791 15.2439C8.31062 15.2439 7.12633 13.9176 7.12633 12.2888C7.12633 10.6599 8.28765 9.33359 9.74791 9.33359C11.2196 9.33359 12.3925 10.6715 12.3695 12.2888C12.3695 13.9176 11.2081 15.2439 9.74791 15.2439ZM19.4408 15.2439C18.0035 15.2439 16.8192 13.9176 16.8192 12.2888C16.8192 10.6599 17.9805 9.33359 19.4408 9.33359C20.9125 9.33359 22.0853 10.6715 22.0624 12.2888C22.0624 13.9176 20.9125 15.2439 19.4408 15.2439Z" fill="#FFFEE4"/>
</svg>
