<svg width="30" height="30" viewBox="0 0 30 30" fill="none" xmlns="http://www.w3.org/2000/svg">
<path fill-rule="evenodd" clip-rule="evenodd" d="M0 14.9554C0 21.5618 4.21246 27.1676 10.055 29.1451C10.7906 29.2828 11.0587 28.821 11.0587 28.4244C11.0587 28.0691 11.0461 27.129 11.0389 25.8814C6.94916 26.7847 6.08627 23.8763 6.08627 23.8763C5.41744 22.1485 4.45345 21.6885 4.45345 21.6885C3.1185 20.7604 4.55455 20.7796 4.55455 20.7796C6.03031 20.8852 6.80655 22.3211 6.80655 22.3211C8.11893 24.6062 10.2482 23.9461 11.0858 23.5632C11.2194 22.5965 11.5994 21.9382 12.0191 21.5637C8.75437 21.1863 5.32176 19.9038 5.32176 14.1732C5.32176 12.5399 5.89492 11.2051 6.83543 10.1594C6.68469 9.78114 6.18014 8.26081 6.97985 6.20249C6.97985 6.20249 8.21461 5.79946 11.0226 7.73475C12.196 7.40333 13.4533 7.23716 14.7034 7.23165C15.9526 7.23716 17.21 7.40333 18.3852 7.73475C21.1914 5.79946 22.4243 6.20249 22.4243 6.20249C23.2258 8.26081 22.7213 9.78114 22.5705 10.1594C23.5129 11.2051 24.0815 12.5399 24.0815 14.1732C24.0815 19.9176 20.6444 21.1817 17.3688 21.5527C17.8969 22.0144 18.3662 22.927 18.3662 24.3216C18.3662 26.3211 18.3491 27.9342 18.3491 28.4244C18.3491 28.8247 18.6135 29.2892 19.36 29.1433C25.1971 27.1621 29.406 21.5609 29.406 14.9554C29.406 6.6955 22.8224 0 14.7016 0C6.5836 0 0 6.6955 0 14.9554Z" fill="#FFFEE4"/>
</svg>
