<svg width="30" height="25" viewBox="0 0 30 25" fill="none" xmlns="http://www.w3.org/2000/svg">
<path d="M26.1843 6.09069C26.2021 6.35613 26.2021 6.62156 26.2021 6.88945C26.2021 15.0519 20.1819 24.4658 9.1737 24.4658V24.4609C5.92184 24.4658 2.73753 23.5043 0 21.6915C0.472847 21.7502 0.948064 21.7796 1.42447 21.7808C4.11934 21.7833 6.73718 20.85 8.85728 19.1313C6.29633 19.0812 4.0506 17.3577 3.26608 14.8415C4.16318 15.0201 5.08755 14.9834 5.96806 14.7351C3.17601 14.1529 1.1673 11.6208 1.1673 8.68023C1.1673 8.65332 1.1673 8.62763 1.1673 8.60194C1.99923 9.08022 2.9307 9.34566 3.88351 9.37501C1.25381 7.56099 0.44322 3.95007 2.03123 1.1269C5.06977 4.98613 9.55293 7.33225 14.3655 7.58056C13.8832 5.43505 14.5421 3.18679 16.0969 1.67857C18.5074 -0.660213 22.2985 -0.540338 24.5643 1.94645C25.9046 1.67367 27.1893 1.16604 28.3649 0.446793C27.9181 1.87673 26.9831 3.09138 25.734 3.86322C26.9203 3.71888 28.0793 3.39106 29.1707 2.89077C28.3672 4.13355 27.3552 5.21609 26.1843 6.09069Z" fill="#FFFEE4"/>
</svg>
