<svg width="30" height="30" viewBox="0 0 30 30" fill="none" xmlns="http://www.w3.org/2000/svg">
<path fill-rule="evenodd" clip-rule="evenodd" d="M29.1707 14.703C29.1707 22.8232 22.6406 29.406 14.5854 29.406C6.53009 29.406 0 22.8232 0 14.703C0 6.58275 6.53009 0 14.5854 0C22.6406 0 29.1707 6.58275 29.1707 14.703ZM15.5948 11.0032C14.1761 11.598 11.3408 12.8291 7.0889 14.6966C6.39845 14.9734 6.03676 15.2441 6.00384 15.5089C5.94819 15.9564 6.50405 16.1326 7.26098 16.3725C7.36394 16.4051 7.47062 16.4389 7.57999 16.4748C8.3247 16.7188 9.32645 17.0043 9.84723 17.0156C10.3196 17.0259 10.8469 16.8296 11.429 16.4267C15.4017 13.7233 17.4524 12.357 17.5811 12.3275C17.672 12.3067 17.7978 12.2806 17.8831 12.357C17.9684 12.4334 17.96 12.5781 17.951 12.6169C17.8959 12.8536 15.7139 14.8985 14.5848 15.9567C14.2328 16.2866 13.9831 16.5206 13.9321 16.5741C13.8177 16.6938 13.7012 16.807 13.5892 16.9159C12.8974 17.5882 12.3785 18.0924 13.6179 18.9157C14.2135 19.3113 14.6901 19.6385 15.1656 19.9649C15.6849 20.3214 16.2028 20.677 16.8729 21.1198C17.0436 21.2326 17.2067 21.3498 17.3655 21.4639C17.9698 21.8982 18.5127 22.2884 19.1834 22.2261C19.5732 22.19 19.9758 21.8205 20.1802 20.7187C20.6634 18.1148 21.6132 12.4729 21.8327 10.148C21.8519 9.94434 21.8277 9.68366 21.8083 9.56922C21.7888 9.45479 21.7482 9.29174 21.6007 9.17105C21.4259 9.0281 21.1562 8.99796 21.0355 9.0001C20.4869 9.00985 19.6453 9.30486 15.5948 11.0032Z" fill="#FFFEE4"/>
</svg>
