<svg width="171" height="44" viewBox="0 0 171 44" fill="none" xmlns="http://www.w3.org/2000/svg">
<path fill-rule="evenodd" clip-rule="evenodd" d="M76.2773 42.5299C76.8232 42.9667 77.3692 43.185 78.0243 43.185L84.9034 42.3115C85.2855 42.2569 85.7769 42.0385 86.3774 41.711C86.978 41.3834 87.251 40.7828 87.1964 39.9093L87.0872 33.1395L87.4694 33.1941C88.1791 33.5762 88.8888 34.0676 89.544 34.6681C90.1445 35.2687 90.7997 35.9784 91.4002 36.7974C92.0008 37.5617 92.6013 38.3806 93.2019 39.2542C93.7478 40.1277 94.3483 40.892 94.9489 41.6563L94.9489 41.6564C95.0581 41.8748 95.2765 42.0385 95.6041 42.2569C95.8771 42.5299 96.2592 42.6391 96.7506 42.6391C96.9837 42.6391 97.2567 42.5594 97.5695 42.4682C97.623 42.4526 97.6776 42.4366 97.7333 42.4207L100.736 40.892C101.189 40.6132 101.642 40.3566 102.081 40.108C102.33 39.9673 102.574 39.8291 102.811 39.6909C103.466 39.3088 103.957 39.0358 104.176 38.9266C104.449 38.7628 104.667 38.5444 104.885 38.2714C105.049 37.9985 105.158 37.6709 105.158 37.2341C105.158 37.0157 105.158 36.7974 105.049 36.579C104.995 36.3606 104.94 36.1968 104.831 36.033L103.575 33.4124C103.357 33.1395 103.193 32.9211 103.138 32.8119C101.937 30.9556 100.518 29.2632 98.8798 27.7891C100.354 26.315 101.5 24.6772 102.265 22.8209C103.029 20.9101 103.466 18.9446 103.466 16.87C103.466 15.6689 103.302 14.4678 103.029 13.3759C102.811 12.284 102.429 11.1921 101.937 10.264L100.627 7.64337C99.2074 4.74981 97.242 2.78437 94.7306 1.69246C92.2192 0.545955 89.4894 0 86.4866 0C85.7703 0 84.958 0.0479591 84.0947 0.0989274L83.9206 0.109191C82.9925 0.163787 82.0098 0.272978 81.0271 0.436764C80.0444 0.545955 79.0617 0.709742 78.1335 0.928124C77.2054 1.14651 76.3865 1.41948 75.6767 1.69246C75.5402 1.74705 75.4038 1.8153 75.2673 1.88354C75.1308 1.95178 74.9943 2.02003 74.8578 2.07463C74.5848 2.23842 74.3664 2.4022 74.1481 2.62058C73.8751 2.78437 73.7113 3.00275 73.4929 3.33033C73.3291 3.6579 73.2745 3.98547 73.2745 4.36764C73.2745 5.29576 73.3837 6.33308 73.6021 7.47958C73.8751 8.62609 74.1481 9.60881 74.421 10.4823C74.4392 10.5369 74.4574 10.5975 74.4756 10.6582C74.512 10.7795 74.5484 10.9009 74.5848 10.9737L74.7486 11.4651L74.9124 11.738L74.1481 37.9985L75.4583 40.6191C75.4583 41.4926 75.7313 42.0931 76.2773 42.5299ZM68.6339 26.6426L69.0161 19.9274L69.562 18.5625C70.2718 20.2003 70.8177 22.7117 68.6339 26.6426ZM67.9788 20.7463L68.0334 23.1485L67.8696 23.8036L67.4874 29.4816L69.1799 27.7891C72.3346 21.5205 71.2156 19.495 70.2991 17.8361C69.9944 17.2844 69.712 16.7734 69.6166 16.1603C68.5793 9.718 62.3008 4.69521 56.2953 3.27573C44.6762 0.44179 38.982 5.78029 37.1272 7.51928C36.8381 7.79038 36.6422 7.974 36.5318 8.02554L34.4025 12.2294C34.3487 12.911 34.0474 13.5278 33.7116 14.2152C33.0252 15.6203 32.1945 17.3206 33.0376 20.4733C33.2662 21.3648 33.1981 21.8065 33.1258 22.2752C33.0255 22.9259 32.9171 23.6287 33.5836 25.6599L33.9112 25.2231L34.5117 29.7545L35.0031 29.5908L35.1123 29.9729C35.3853 29.8819 35.5909 29.694 35.8052 29.4981C36.3622 28.9889 36.9778 28.4262 38.9885 29.3724L39.0431 29.427L39.1523 29.5362L39.3707 29.3724C39.4799 30.9011 41.227 40.3461 42.5373 41.0012L43.5746 43.4034C43.9567 38.1077 44.3935 36.1968 48.7611 32.1567L57.6602 26.1512C57.8253 26.093 58.1339 26.0727 58.5518 26.0453C60.4826 25.9185 64.7472 25.6385 67.9788 20.7463ZM34.5117 29.7545L34.5663 29.7H34.5117V29.7545ZM68.3768 15.6648C68.6562 16.4991 68.9114 17.2612 69.2345 17.9073L68.9615 17.416C68.4371 18.0426 67.9997 18.7322 67.5544 19.4341C66.0986 21.7288 64.5589 24.1558 59.6256 24.9501C60.9359 23.5307 62.137 22.1112 62.41 20.4733L60.8268 21.0739C59.1137 24.1329 56.1173 25.9962 53.0273 27.9177C49.2237 30.2829 45.2784 32.7363 43.4108 37.6163C43.6838 30.6281 44.7211 27.9529 47.7784 22.4933L46.0314 23.1485C43.0832 27.1886 42.3189 31.9384 42.0459 37.1249C41.8275 36.4698 41.6637 35.7601 41.5545 35.1049C40.6691 31.2678 40.5017 29.1701 40.3794 27.6384C40.2756 26.337 40.2043 25.4442 39.7529 24.2404C38.7156 25.4961 38.661 25.9329 38.8794 28.2259C37.6237 27.5707 36.4226 27.6799 35.2761 28.5534C34.8129 26.3801 34.8845 25.8343 35.0053 24.9133C35.0696 24.4229 35.1479 23.8262 35.1669 22.8209L34.1295 23.1485C34.1638 19.8586 35.0585 18.6123 35.882 17.4652C36.3704 16.7848 36.8338 16.1393 37.0777 15.123C35.3307 15.2321 34.6755 15.9965 33.7474 17.9619C33.8395 14.7365 35.915 12.4833 37.9717 10.2504C38.3519 9.83768 38.7315 9.42563 39.0977 9.00826C38.8243 9.14498 38.5466 9.27325 38.2694 9.4013C37.5504 9.73343 36.8346 10.0641 36.2042 10.5369C37.5145 7.75256 40.681 5.51415 43.6838 4.58602C50.0168 2.62058 55.4764 3.33033 61.0997 6.38767C66.2022 9.17087 67.4287 12.8335 68.3768 15.6648ZM35.0577 29.5908L35.1669 29.5362V29.6454L35.0577 29.5908ZM39.2069 29.427L39.2615 29.3724L39.2069 29.4816V29.427ZM52.0141 9.61083C52.781 9.57578 53.7839 9.52994 55.531 9.99098C56.802 10.3087 57.6571 10.6593 58.3414 10.9398C59.1856 11.2859 59.7698 11.5254 60.5538 11.4651C60.4446 10.264 60.117 9.99098 58.4791 9.39043C55.258 8.24392 52.3098 7.64337 49.2525 8.68068C50.4657 9.6816 51.0555 9.65464 52.0141 9.61083ZM59.6802 7.80716C51.9823 3.6579 43.1378 6.82444 42.5373 8.57149L42.3735 9.00826L44.6665 8.68068C51.7277 5.58687 55.5372 7.44327 58.085 8.68482C59.3588 9.30554 60.3172 9.77258 61.2089 9.39043L59.6802 7.80716ZM77.0416 39.1996C75.9497 39.418 75.4583 39.0358 75.4583 38.0531L76.2773 11.3013C76.0589 11.1375 75.8951 10.9191 75.8405 10.5915C75.8154 10.5161 75.7874 10.435 75.7571 10.3474C75.6559 10.0542 75.5298 9.68898 75.4037 9.22664C75.24 8.68069 75.1308 8.13473 75.0216 7.53418C74.9178 7.1538 74.8579 6.77341 74.8002 6.40691C74.7667 6.19477 74.734 5.98728 74.694 5.78712C74.5848 5.18661 74.5848 4.74987 74.5848 4.36772V4.36764C74.5848 4.09466 74.694 3.82168 74.9124 3.6033C75.1854 3.33033 75.4038 3.16654 75.6767 3.05735C77.6968 2.34761 79.8806 1.85625 82.1736 1.58327C84.4666 1.31029 86.705 1.2557 88.8888 1.41948C91.0727 1.52867 92.9835 2.07463 94.5668 3.05735C96.2046 4.04007 97.5149 5.18657 98.4976 6.66065C99.4804 8.08013 100.19 9.6634 100.572 11.4651C100.9 13.2121 100.954 15.0138 100.572 16.7608C100.245 18.5625 99.5896 20.2549 98.6068 21.8382C97.5695 23.4761 96.2046 24.8955 94.4576 26.0421C95.9317 27.0248 97.3511 28.1167 98.6614 29.3724C99.9171 30.6281 101.064 31.993 102.046 33.5216C102.21 33.7946 102.374 34.0676 102.538 34.3952C102.701 34.7227 102.592 34.9957 102.21 35.1595L96.423 38.3806C96.0408 38.599 95.7133 38.7082 95.4403 38.7082C95.1673 38.7082 94.8943 38.5444 94.676 38.2169C93.9662 37.2887 93.2565 36.306 92.5467 35.2687C91.837 34.2314 91.1273 33.3033 90.3083 32.4297C89.544 31.5562 88.7796 30.7919 87.9061 30.1367C87.0872 29.5362 86.2137 29.154 85.2855 28.9902C85.0672 29.0448 84.7942 29.0448 84.412 29.0448L84.5758 37.3433C84.6304 37.6709 84.5212 37.8893 84.3028 38.0531C84.0298 38.2714 83.7569 38.3806 83.4293 38.3806L77.0416 39.1996ZM89.6532 19.2722C90.7451 17.9619 91.3456 16.3241 91.3456 14.3586C91.3456 12.6662 90.6905 11.4105 89.4894 10.4823C88.2337 9.60881 86.432 9.22664 84.0298 9.44502L84.3028 21.8382C86.705 21.456 88.5067 20.5825 89.6532 19.2722ZM86.705 13.3213C88.0153 13.3213 89.1618 13.5943 90.0353 14.1948C90.0353 15.5051 89.7624 16.597 89.271 17.5252C88.7796 18.4533 87.9607 19.163 86.7596 19.7636L86.705 13.3213ZM134.039 42.1477C134.476 41.711 134.749 41.165 134.804 40.5645C134.858 39.9093 134.913 39.2542 134.913 38.599V36.6882V35.0503C134.913 34.5589 134.913 34.013 134.858 33.467C134.842 33.4009 134.825 33.3298 134.807 33.2522C134.766 33.0734 134.716 32.86 134.64 32.5935C134.531 32.2659 134.312 31.9384 133.985 31.72L133.548 30.8465C133.548 30.8012 133.539 30.7373 133.528 30.6623C133.512 30.5564 133.493 30.4284 133.493 30.3005C133.439 30.0275 133.33 29.8091 133.166 29.5908C133.002 29.3724 132.784 29.154 132.511 28.9902C132.292 28.881 131.91 28.7718 131.528 28.7718L120.827 28.9356V28.4443L128.525 28.7718C129.18 28.8264 129.726 28.608 130.163 28.1167C130.545 27.6799 130.818 27.1886 130.873 26.6972C130.927 26.0967 130.982 25.4961 130.982 24.8955V23.1485V21.729C130.982 21.2376 130.982 20.7463 130.927 20.2549C130.873 20.0911 130.818 19.8182 130.764 19.4906C130.654 19.1084 130.436 18.8354 130.108 18.6171L129.617 17.6343C129.617 17.5252 129.617 17.3614 129.562 17.143C129.508 16.9247 129.399 16.7063 129.29 16.488L129.29 16.4878C129.126 16.2695 128.907 16.0511 128.689 15.8873C128.416 15.7235 128.088 15.6689 127.652 15.6689L120.827 15.8327V14.7408L131.692 15.0138C132.511 15.0138 133.166 14.7954 133.603 14.3586C134.039 13.8673 134.312 13.2667 134.367 12.557L135.131 5.40495C135.131 4.69521 134.804 4.14926 134.203 3.71249L133.821 2.83897C133.821 2.34761 133.657 1.91084 133.439 1.58327C133.166 1.2557 132.838 0.982719 132.511 0.818933C132.183 0.709742 131.91 0.655146 131.692 0.655146C131.62 0.655146 131.538 0.644744 131.446 0.633021C131.327 0.617887 131.19 0.600551 131.037 0.600551C127.652 0.600551 124.267 0.655146 120.827 0.764337C119.06 0.79195 117.321 0.833528 115.588 0.874945C113.895 0.915418 112.209 0.955736 110.509 0.982719C109.417 1.03731 108.707 1.41948 108.434 2.18382C108.161 2.94816 107.997 3.82169 107.997 4.69521V5.07738C107.997 5.78712 107.997 6.55146 108.052 7.2612C108.052 7.97094 108.052 8.73528 108.106 9.44502C108.161 9.60881 108.161 9.718 108.161 9.88179C108.161 9.99098 108.216 10.1548 108.27 10.264C108.298 10.3185 108.311 10.3595 108.325 10.4004C108.338 10.4414 108.352 10.4823 108.379 10.5369C108.379 10.6461 108.434 10.7553 108.543 10.9191L107.779 37.0703L109.089 39.6909C109.089 40.4007 109.308 41.0012 109.854 41.5472C110.345 42.0385 110.945 42.3661 111.546 42.4207C111.593 42.4246 111.64 42.4285 111.686 42.4324C112.288 42.4829 112.849 42.5299 113.457 42.5299H115.368C118.207 42.5299 121.046 42.5299 123.83 42.5845L123.831 42.5845C126.669 42.6391 129.508 42.6937 132.347 42.8029C133.002 42.8029 133.548 42.5845 134.039 42.1477ZM110.696 38.5055C110.598 38.5003 110.499 38.4951 110.399 38.4898C110.072 38.4352 109.744 38.2714 109.471 37.9985C109.253 37.7255 109.089 37.3979 109.089 37.0703L109.854 10.4277C109.581 10.264 109.471 9.93638 109.417 9.39043C109.362 8.29867 109.362 7.31607 109.362 6.44264V6.44227C109.308 5.62334 109.308 4.58602 109.362 3.43952C109.362 3.11194 109.471 2.83897 109.744 2.62058C109.963 2.4022 110.236 2.29301 110.563 2.29301L130.927 1.91084C131.692 1.91084 132.128 2.02003 132.292 2.23842C132.456 2.4022 132.511 2.67518 132.456 3.00275L131.746 9.82719C131.692 10.7007 131.255 11.0829 130.436 11.0829L118.261 10.7553V17.2522L127.706 16.9792C128.088 16.9792 128.307 17.2522 128.307 17.7435C128.416 18.6717 128.416 19.709 128.416 20.9101C128.4 21.2599 128.389 21.5912 128.378 21.9054C128.352 22.6697 128.33 23.3324 128.252 23.9128C128.252 24.1858 128.143 24.4042 127.979 24.568C127.761 24.7864 127.542 24.841 127.269 24.841L118.261 24.4588V30.3005L131.528 30.0821C131.91 30.0821 132.183 30.3551 132.238 30.9556C132.292 31.993 132.347 33.1395 132.292 34.5044C132.292 35.8146 132.238 36.9612 132.183 37.8893C132.183 38.1623 132.074 38.3806 131.855 38.599C131.637 38.8174 131.364 38.872 131.091 38.872L116.241 38.5444L116.159 38.5487C115.152 38.6018 114.197 38.6522 113.293 38.599C112.454 38.599 111.615 38.5544 110.696 38.5055ZM144.849 42.3115C146.323 42.3115 147.797 42.2569 149.271 42.1477C149.435 42.0931 149.654 42.0385 149.927 41.9839C150.2 41.9293 150.473 41.8202 150.691 41.6564C150.964 41.4926 151.128 41.2742 151.292 41.0012C151.455 40.7282 151.51 40.3461 151.51 39.9093L151.292 27.1886L159.317 40.4553C159.535 40.8374 159.808 41.165 160.136 41.3288C160.518 41.4926 160.846 41.6018 161.228 41.6564C161.883 41.7656 162.484 41.7656 163.139 41.7656C163.473 41.7656 163.808 41.7798 164.136 41.7937C164.449 41.8071 164.756 41.8202 165.05 41.8202C165.241 41.8475 165.432 41.8611 165.623 41.8747C165.814 41.8884 166.005 41.902 166.196 41.9293H167.288C167.889 41.9293 168.434 41.7656 168.926 41.3834C169.472 41.0012 169.745 40.4007 169.745 39.6363L171 5.89631C171 5.45955 170.891 5.02279 170.673 4.69521C170.509 4.31305 170.236 3.98547 169.909 3.71249L169.69 3.27573C169.745 2.62058 169.472 1.96544 168.98 1.47408C168.434 0.928124 167.889 0.655146 167.233 0.600551C166.578 0.49136 165.814 0.436764 165.104 0.436764H162.866H161.61C161.173 0.436764 160.682 0.436764 160.245 0.49136C159.863 0.49136 159.372 0.600551 158.826 0.873528C158.225 1.14651 157.952 1.69246 157.952 2.62058L157.788 16.2149L149.217 2.94816C149.196 2.90646 149.175 2.87272 149.157 2.84391C149.129 2.79727 149.108 2.76352 149.108 2.72977C149.108 2.62058 149.053 2.56599 148.944 2.51139L148.562 2.07463C148.18 1.74706 147.688 1.58327 147.142 1.58327C146.16 1.47408 145.177 1.47408 144.139 1.47408H141.137C140.482 1.47408 139.881 1.69246 139.39 2.12922C138.898 2.56599 138.68 3.11194 138.68 3.87628L138.462 36.9066L139.772 39.5271C139.772 40.5099 140.099 41.165 140.7 41.5472C141.301 41.9293 141.846 42.1477 142.338 42.2023L143.812 42.3115H144.849ZM144.358 38.3806C143.321 38.3806 142.229 38.3806 141.082 38.326C140.755 38.326 140.482 38.1623 140.209 37.8347C139.936 37.5617 139.772 37.2341 139.772 36.9066L139.99 3.87628C139.99 3.54871 140.099 3.27573 140.318 3.05735C140.536 2.83897 140.809 2.72977 141.137 2.78437C141.514 2.78437 141.878 2.79088 142.229 2.79715C142.894 2.80905 143.513 2.82012 144.085 2.78437C144.958 2.78437 145.941 2.78437 147.033 2.89356C147.579 2.89356 147.961 3.11194 148.125 3.6579L159.044 20.5279L159.262 2.67518C159.262 2.07463 159.645 1.80165 160.354 1.80165C161.61 1.69246 162.757 1.69246 163.848 1.74706C164.886 1.74706 165.978 1.80165 167.07 1.85625C167.452 1.85625 167.725 2.02003 167.998 2.34761C168.271 2.62058 168.38 2.94816 168.38 3.22113L167.124 36.9612C167.124 37.2887 167.015 37.5617 166.797 37.7801C166.578 37.9985 166.305 38.0531 165.978 37.9985H165.213H164.449L161.61 37.8893C161.392 37.8347 161.119 37.8347 160.846 37.8347C160.709 37.8347 160.573 37.821 160.436 37.8074C160.3 37.7937 160.163 37.7801 160.027 37.7801C159.699 37.7255 159.372 37.5617 159.099 37.1795L148.562 19.7636L148.944 37.2887C148.944 37.8347 148.616 38.1623 147.852 38.2169C147.045 38.287 146.261 38.3121 145.529 38.3355C145.121 38.3486 144.729 38.3611 144.358 38.3806ZM25.4484 43.5126C25.7214 43.4034 25.9397 43.2942 26.1035 43.185L32.0544 39.5271C32.8188 39.0358 33.201 38.326 33.201 37.4525C33.201 36.7973 32.9826 36.1968 32.6004 35.7054L31.2901 33.1394L21.9543 21.3468L31.0717 11.7926C31.3447 11.5196 31.5631 11.2466 31.6723 10.8645C31.7815 10.5369 31.8361 10.2639 31.8361 9.99095C31.8361 9.71797 31.7815 9.3904 31.6723 9.06283C31.5631 8.68066 31.3447 8.35308 31.0717 8.08011L29.7614 5.45952C29.3247 5.02276 28.8333 4.58599 28.342 4.20382C27.8506 3.82166 27.3592 3.43949 26.8679 3.00272C26.3765 2.62056 25.8852 2.29298 25.3938 1.96541C24.9024 1.63784 24.4111 1.31026 23.9197 0.928095C23.8105 0.818904 23.6467 0.709713 23.3738 0.545927C23.1008 0.327545 22.7732 0.272949 22.391 0.272949C22.0089 0.272949 21.6813 0.327545 21.4083 0.545927C21.1353 0.709713 20.917 0.8735 20.7532 1.03729L13.0552 9.82716V5.89629C13.0552 5.40493 13.0006 5.02276 12.7822 4.80438C12.6184 4.5314 12.4001 4.31302 12.1817 4.14923L11.7449 3.2757C11.7449 2.40217 11.4719 1.80162 10.926 1.52865C10.3254 1.25567 9.83408 1.09188 9.45191 1.09188C8.96055 1.03729 8.41459 0.982691 7.86864 0.982691H6.28537H4.37453C3.76642 0.982691 3.20535 1.02973 2.604 1.08014C2.55748 1.08404 2.51072 1.08796 2.46369 1.09188C1.86314 1.14648 1.26259 1.47405 0.71663 2.02001C0.225271 2.56596 -0.0477065 3.16651 0.00688898 3.87625L0.880417 37.5617L2.19071 40.1823C2.2453 40.9466 2.51828 41.4926 3.00964 41.9293C3.501 42.3115 4.10155 42.5299 4.7021 42.5299C5.08427 42.5299 5.46644 42.5299 5.79401 42.4753C5.9851 42.4753 6.16253 42.4616 6.33997 42.448C6.5174 42.4343 6.69484 42.4207 6.88592 42.4207H8.79676C9.45191 42.4207 10.1071 42.3661 10.7076 42.3115C11.3628 42.2569 11.9087 41.9839 12.3455 41.5471C12.8368 41.0558 13.0552 40.5098 13.0552 39.8001V30.628L13.6558 30.0275L22.4456 42.4753C22.5148 42.5444 22.5839 42.619 22.6565 42.6974C22.8132 42.8665 22.9861 43.0531 23.21 43.2396C23.5375 43.5126 23.9743 43.6764 24.5749 43.6764C24.9024 43.6764 25.23 43.6218 25.4484 43.5126ZM23.2646 39.8001C22.8824 39.8001 22.5002 39.5817 22.2273 39.1449L12.5093 25.3869L10.4346 27.4615V37.1249C10.4346 37.5071 10.3254 37.7801 10.1071 37.9984C9.88867 38.2168 9.6157 38.3806 9.28812 38.3806H9.28807C9.01511 38.3806 8.74215 38.3806 8.52379 38.4352H7.75945L4.97508 38.5444H4.21074H4.21068C3.93773 38.5444 3.66477 38.5444 3.39181 38.599C3.11883 38.6536 2.84585 38.5444 2.57288 38.326C2.35449 38.1076 2.2453 37.8347 2.19071 37.5071L1.31718 3.82166C1.31718 3.49408 1.42637 3.22111 1.69935 2.89353C1.97233 2.62056 2.2999 2.45677 2.62747 2.40217L2.62749 2.40217C3.71939 2.34758 4.8113 2.29298 5.9032 2.29298C6.84962 2.29298 7.88693 2.33843 9.01513 2.38786C9.12349 2.39261 9.23269 2.39739 9.34272 2.40217C10.1071 2.40217 10.4346 2.67515 10.4346 3.2757V14.7954L21.7359 1.85622C21.9543 1.69243 22.1727 1.58324 22.391 1.58324C22.5548 1.58324 22.8278 1.69243 23.1554 1.91081C24.1381 2.72975 25.1754 3.49408 26.1581 4.20382C27.1409 4.85897 28.069 5.62331 28.8333 6.44224C29.1063 6.66062 29.2155 6.9336 29.2155 7.31577C29.2155 7.75253 29.1063 8.08011 28.8333 8.29849L18.5148 19.1084L30.2528 33.9038C30.4712 34.1768 30.5804 34.5043 30.5804 34.8865C30.635 35.2141 30.4166 35.5416 30.0344 35.76L24.0835 39.4725C23.9693 39.5486 23.8551 39.5982 23.7594 39.6398C23.7179 39.6578 23.6798 39.6744 23.6467 39.6909C23.5375 39.7455 23.3738 39.8001 23.2646 39.8001Z" fill="url(#paint0_linear_89_264)"/>
<defs>
<linearGradient id="paint0_linear_89_264" x1="433.592" y1="-0.319298" x2="433.592" y2="42.354" gradientUnits="userSpaceOnUse">
<stop stop-color="#FFFEE4"/>
<stop offset="1" stop-color="#FDD30F"/>
</linearGradient>
</defs>
</svg>
