<svg width="145" height="37" viewBox="0 0 145 37" fill="none" xmlns="http://www.w3.org/2000/svg">
<path fill-rule="evenodd" clip-rule="evenodd" d="M63.9227 32.2363C63.9227 33.0688 64.339 33.3926 65.264 33.2076L70.6752 32.5138C70.9527 32.5138 71.184 32.4213 71.4152 32.2363C71.6002 32.0976 71.6927 31.9126 71.6465 31.6351L71.5077 24.6051C71.8315 24.6051 72.0627 24.6051 72.2477 24.5588C73.034 24.6976 73.774 25.0213 74.4677 25.5301C75.2077 26.0851 75.8552 26.7326 76.5027 27.4726C77.1965 28.2126 77.7977 28.9988 78.399 29.8776C79.0002 30.7563 79.6015 31.5888 80.2027 32.3751C80.3877 32.6526 80.619 32.7913 80.8502 32.7913C81.0815 32.7913 81.359 32.6988 81.6827 32.5138L86.5852 29.7851C86.909 29.6463 87.0015 29.4151 86.8627 29.1376C86.724 28.8601 86.5852 28.6288 86.4465 28.3976C85.614 27.1026 84.6427 25.9463 83.579 24.8826C82.469 23.8188 81.2665 22.8938 80.0177 22.0613C81.4977 21.0901 82.654 19.8876 83.5327 18.5001C84.3652 17.1588 84.9202 15.7251 85.1977 14.1988C85.5215 12.7188 85.4752 11.1926 85.1977 9.71256C84.874 8.18631 84.2727 6.84506 83.4402 5.64256C82.6077 4.39381 81.4977 3.42256 80.1102 2.59006C78.769 1.75756 77.1502 1.29506 75.3002 1.20256C73.4502 1.06381 71.554 1.11006 69.6115 1.34131C67.669 1.57256 65.819 1.98881 64.1077 2.59006C63.8765 2.68256 63.6915 2.82131 63.4602 3.05256C63.2752 3.23756 63.1827 3.46881 63.1827 3.70006C63.1827 4.02381 63.1827 4.39381 63.2752 4.90256C63.3677 5.36506 63.414 5.87381 63.5527 6.38256C63.6452 6.89131 63.7377 7.35381 63.8765 7.81631C64.0152 8.32506 64.154 8.69506 64.2465 8.97256C64.2927 9.25006 64.4315 9.43506 64.6165 9.57381L63.9227 32.2363ZM58.0027 16.9276L58.049 17.0201V19.6101C58.049 20.0726 58.049 20.2576 57.8177 20.4426C57.8177 21.2288 57.7252 21.5988 57.679 22.3388C57.679 22.7551 57.6327 23.4488 57.6327 24.1888C58.0027 23.9576 58.1877 23.4026 58.3727 23.0326C61.6102 17.3901 58.7427 14.9851 58.5115 13.7363C58.234 11.7013 57.124 9.89756 55.9215 8.32506C55.089 7.12256 53.3315 5.78131 51.9902 5.04131L50.7877 4.39381C50.094 4.07006 50.6952 3.97756 50.4177 4.07006C50.1402 4.25506 48.5677 3.42256 47.5965 3.19131C44.1277 2.35881 40.6127 2.22006 37.329 3.33006C36.774 3.51506 36.4502 3.56131 35.9877 3.79256C35.5252 4.02381 35.1552 4.20881 34.6927 4.44006C33.6752 4.85631 32.1952 6.10506 31.4552 6.93756L31.1315 7.21506C30.7615 7.44631 30.9927 7.12256 30.9465 7.44631C30.8077 8.04756 30.669 7.77006 30.4377 8.37131C30.1602 8.97256 29.6052 9.80506 29.559 10.4063C29.6977 10.2676 29.744 10.1751 29.929 10.0363L31.224 9.01881C31.2702 9.01881 31.3165 8.97256 31.3165 8.97256L29.929 10.5451C29.4665 11.0538 29.1427 11.7013 28.8652 12.3488C28.1252 13.7826 27.9402 15.5401 28.4027 17.2513C28.634 16.6501 28.634 16.0488 29.2352 14.9388C29.559 14.3838 30.2527 13.3201 30.854 13.2738C30.7152 13.7826 29.559 14.6613 28.9577 16.4188C28.6802 17.2513 28.2177 19.7026 28.5877 20.8126C28.7727 20.5813 28.7727 20.3038 29.0502 20.0726C29.2352 19.9338 29.0965 19.9801 29.3277 19.8876C29.3277 20.5351 29.1427 21.1363 29.1427 22.0613C29.1427 23.0326 29.6515 25.0213 29.6515 25.0213C29.6052 24.8826 29.559 25.0213 29.7902 24.8363C30.0215 24.7438 30.299 24.2813 31.1315 24.0501C31.4552 23.9576 31.8252 23.9576 32.1952 24.0501C32.6577 24.1888 32.6115 24.3738 32.9815 24.3738C33.1665 24.4663 33.074 24.3738 33.259 24.5588C33.5827 24.8363 33.3977 24.6051 33.4902 24.8363C33.3977 24.3738 33.1202 21.8301 33.5365 21.3676L33.629 21.6451C33.7215 22.2001 33.4902 24.8826 34.4152 28.3976C34.7852 29.8776 35.0627 31.6351 35.7102 33.0688C35.9415 33.7163 35.7565 34.0863 36.219 34.3176C35.7102 32.4676 36.3115 27.4726 36.774 25.5763C37.2827 23.5876 38.1615 21.5063 39.364 19.8413L39.5952 19.7951C38.3465 21.9688 37.7452 23.3101 37.0515 25.9001C36.5427 27.7501 35.9877 33.0688 36.6352 34.7338C36.8202 31.3113 38.6702 29.0451 41.029 26.8713C42.509 25.5301 45.284 23.7726 47.0877 22.8013C48.8452 21.8301 50.1865 20.4888 51.3427 18.9163C51.5277 18.6851 51.6202 18.5463 51.8052 18.2688C52.0365 17.8526 51.944 17.8526 52.3602 17.8063C52.2215 18.5001 50.2327 20.9051 49.6777 21.3213L49.2152 21.6913C51.4815 21.5988 53.3315 20.9513 54.9502 19.8413C56.014 19.1013 56.939 17.8526 57.6327 16.7426C57.864 16.3263 58.0952 15.8176 58.3727 15.4938C58.7427 16.0951 58.0027 16.1876 58.0027 16.9276ZM47.134 8.00131C45.0065 7.49256 43.0177 7.86256 42.6477 7.49256C42.7865 7.44631 42.4627 7.40006 43.1565 7.35381C45.1452 7.21506 47.4577 7.67756 49.2615 8.32506C49.7702 8.51006 50.7415 8.88006 50.834 9.29631C50.464 9.29631 50.3252 9.11131 49.9552 8.92631C49.0765 8.55631 48.1515 8.27881 47.134 8.00131ZM36.4502 7.40006C36.6352 6.79881 38.9477 6.05881 39.734 5.82756C41.214 5.41131 42.4165 5.27256 44.0352 5.27256C45.469 5.27256 46.9027 5.59631 48.1515 6.01256C48.614 6.19756 51.0652 7.21506 51.2502 7.72381C50.7415 7.95506 46.579 4.11631 39.734 6.10506C38.6702 6.42881 36.589 7.44631 36.4502 7.40006ZM77.3815 12.1638C77.3815 13.8288 76.8727 15.2163 75.9477 16.3263C74.9765 17.4363 73.4502 18.1763 71.4152 18.5001L71.184 8.00131C73.219 7.81631 74.7452 8.14006 75.809 8.88006C76.8265 9.66631 77.3815 10.7301 77.3815 12.1638ZM93.5227 32.6063C94.4015 32.6526 95.1877 32.6988 95.974 32.6988C96.7602 32.7451 97.5927 32.6988 98.4715 32.6526L111.051 32.9301C111.283 32.9301 111.514 32.8838 111.699 32.6988C111.884 32.5138 111.976 32.3288 111.976 32.0976C112.023 31.3113 112.069 30.3401 112.069 29.2301C112.115 28.0738 112.069 27.1026 112.023 26.2238C111.976 25.7151 111.745 25.4838 111.421 25.4838L100.183 25.6688V20.7201L107.814 21.0438C108.045 21.0438 108.23 20.9976 108.415 20.8126C108.554 20.6738 108.646 20.4888 108.646 20.2576C108.739 19.5638 108.739 18.7313 108.785 17.7138C108.785 16.6963 108.785 15.8176 108.693 15.0313C108.693 14.6151 108.508 14.3838 108.184 14.3838L100.183 14.6151V9.11131L110.496 9.38881C111.19 9.38881 111.56 9.06506 111.606 8.32506L112.208 2.54381C112.254 2.26631 112.208 2.03506 112.069 1.89631C111.93 1.71131 111.56 1.61881 110.913 1.61881L93.6615 1.94256C93.384 1.94256 93.1527 2.03506 92.9677 2.22006C92.7365 2.40506 92.644 2.63631 92.644 2.91381C92.5977 3.88506 92.5977 4.76381 92.644 5.45756C92.644 6.19756 92.644 7.03006 92.6902 7.95506C92.7365 8.41756 92.829 8.69506 93.0602 8.83381L92.4127 31.4038C92.4127 31.6813 92.5515 31.9588 92.7365 32.1901C92.9677 32.4213 93.2452 32.5601 93.5227 32.6063ZM119.515 32.4676C120.486 32.5138 121.411 32.5138 122.29 32.5138C123.169 32.4676 124.186 32.4676 125.25 32.3751C125.898 32.3288 126.175 32.0513 126.175 31.5888L125.851 16.7426L134.778 31.4963C135.009 31.8201 135.286 31.9588 135.564 32.0051C135.795 32.0051 136.026 32.0513 136.258 32.0513C136.489 32.0513 136.72 32.0513 136.905 32.0976L139.31 32.1901C139.495 32.1901 139.726 32.1901 139.958 32.1901C140.143 32.1901 140.374 32.1901 140.605 32.1901C140.883 32.2363 141.114 32.1901 141.299 32.0051C141.484 31.8201 141.576 31.5888 141.576 31.3113L142.64 2.72881C142.64 2.49756 142.548 2.22006 142.316 1.98881C142.085 1.71131 141.854 1.57256 141.53 1.57256C140.605 1.52631 139.68 1.48006 138.801 1.48006C137.876 1.43381 136.905 1.43381 135.841 1.52631C135.24 1.52631 134.916 1.75756 134.916 2.26631L134.731 17.3901L125.481 3.09881C125.343 2.63631 125.019 2.45131 124.556 2.45131C123.631 2.35881 122.799 2.35881 122.059 2.35881C121.319 2.40506 120.486 2.35881 119.561 2.35881C119.284 2.31256 119.053 2.40506 118.868 2.59006C118.683 2.77506 118.59 3.00631 118.59 3.28381L118.405 31.2651C118.405 31.5426 118.544 31.8201 118.775 32.0513C119.006 32.3288 119.238 32.4676 119.515 32.4676ZM18.829 33.1613C19.0602 33.5313 19.384 33.7163 19.7077 33.7163C19.8002 33.7163 19.939 33.6701 20.0315 33.6238C20.124 33.5776 20.2627 33.5313 20.4015 33.4388L25.4427 30.2938C25.7665 30.1088 25.9515 29.8313 25.9052 29.5538C25.9052 29.2301 25.8127 28.9526 25.6277 28.7213L15.684 16.1876L24.4252 7.03006C24.6565 6.84506 24.749 6.56756 24.749 6.19756C24.749 5.87381 24.6565 5.64256 24.4252 5.45756C23.7777 4.76381 22.9915 4.11631 22.159 3.56131C21.3265 2.96006 20.4477 2.31256 19.6152 1.61881C19.3377 1.43381 19.1065 1.34131 18.9677 1.34131C18.7827 1.34131 18.5977 1.43381 18.4127 1.57256L8.83898 12.5338V2.77506C8.83898 2.26631 8.56148 2.03506 7.91398 2.03506C6.85023 1.98881 5.87898 1.94256 5.00023 1.94256C4.07523 1.94256 3.15023 1.98881 2.22523 2.03506C1.94773 2.08131 1.67023 2.22006 1.43898 2.45131C1.20773 2.72881 1.11523 2.96006 1.11523 3.23756L1.85523 31.7738C1.90148 32.0513 1.99398 32.2826 2.17898 32.4676C2.41023 32.6526 2.64148 32.7451 2.87273 32.6988C3.10398 32.6526 3.33523 32.6526 3.56648 32.6526C3.75148 32.6526 3.98273 32.6526 4.21398 32.6526L6.57273 32.5601C6.75773 32.5601 6.98898 32.5601 7.22023 32.5601C7.40523 32.5138 7.63648 32.5138 7.86773 32.5138C8.14523 32.5138 8.37648 32.3751 8.56148 32.1901C8.74648 32.0051 8.83898 31.7738 8.83898 31.4501V23.2638L10.5965 21.5063L18.829 33.1613Z" fill="url(#paint0_linear_89_267)"/>
<path d="M22.1133 36.5839C21.9746 36.6764 21.7896 36.7689 21.5583 36.8614C21.3733 36.9539 21.0958 37.0002 20.8183 37.0002C20.3096 37.0002 19.9396 36.8614 19.6621 36.6302C19.3846 36.3989 19.1996 36.1677 19.0146 35.9827L11.5683 25.4377L11.0596 25.9464V33.7164C11.0596 34.3177 10.8746 34.7802 10.4583 35.1964C10.0883 35.5664 9.62584 35.7977 9.07084 35.8439C8.56209 35.8902 8.00709 35.9364 7.45209 35.9364C6.89709 35.9364 6.38834 35.9364 5.83334 35.9364C5.50959 35.9364 5.23209 35.9827 4.90834 35.9827C4.63084 36.0289 4.30709 36.0289 3.98334 36.0289C3.47459 36.0289 2.96584 35.8439 2.54959 35.5202C2.13334 35.1502 1.90209 34.6877 1.85584 34.0402L0.745836 31.8202L0.00583593 3.28395C-0.0404141 2.6827 0.190836 2.17395 0.607086 1.71145C1.06959 1.24895 1.57834 0.971445 2.08709 0.925195C2.64209 0.878945 3.15084 0.832695 3.70584 0.832695C4.26084 0.832695 4.76959 0.832695 5.32459 0.832695C5.74084 0.832695 6.20333 0.832695 6.66583 0.832695C7.12833 0.832695 7.59084 0.878945 8.00708 0.925195C8.33084 0.925195 8.74709 1.06395 9.25584 1.2952C9.71834 1.52645 9.94958 2.0352 9.94958 2.7752L10.3196 3.5152C10.5046 3.65395 10.6896 3.83895 10.8283 4.0702C11.0133 4.2552 11.0596 4.57895 11.0596 4.9952V8.3252L17.5808 0.878945C17.7196 0.740195 17.9046 0.601445 18.1358 0.462695C18.3671 0.277695 18.6446 0.231445 18.9683 0.231445C19.2921 0.231445 19.5696 0.277695 19.8008 0.462695C20.0321 0.601445 20.1708 0.693945 20.2633 0.786445C20.6796 1.1102 21.0958 1.3877 21.5121 1.6652C21.9283 1.9427 22.3446 2.2202 22.7608 2.54395C23.1771 2.91395 23.5933 3.23769 24.0096 3.56144C24.4258 3.8852 24.8421 4.2552 25.2121 4.6252L26.3221 6.8452C26.5533 7.07645 26.7383 7.35395 26.8308 7.6777C26.9233 7.95519 26.9696 8.23269 26.9696 8.46394C26.9696 8.69519 26.9233 8.92645 26.8308 9.20394C26.7383 9.52769 26.5533 9.75895 26.3221 9.9902L18.5983 18.0839L26.5071 28.0739L27.6171 30.2477C27.9408 30.6639 28.1258 31.1727 28.1258 31.7277C28.1258 32.4677 27.8021 33.0689 27.1546 33.4852L22.1133 36.5839ZM18.8296 33.1614C19.0608 33.5314 19.3846 33.7164 19.7083 33.7164C19.8008 33.7164 19.9396 33.6702 20.0321 33.6239C20.1246 33.5777 20.2633 33.5314 20.4021 33.4389L25.4433 30.2939C25.7671 30.1089 25.9521 29.8314 25.9058 29.5539C25.9058 29.2302 25.8133 28.9527 25.6283 28.7214L15.6846 16.1877L24.4258 7.03019C24.6571 6.84519 24.7496 6.56769 24.7496 6.19769C24.7496 5.87394 24.6571 5.64269 24.4258 5.4577C23.7783 4.76395 22.9921 4.11645 22.1596 3.56144C21.3271 2.9602 20.4483 2.3127 19.6158 1.61895C19.3383 1.43395 19.1071 1.34145 18.9683 1.34145C18.7833 1.34145 18.5983 1.43395 18.4133 1.5727L8.83959 12.5339V2.7752C8.83959 2.26645 8.56209 2.0352 7.91459 2.0352C6.85084 1.98895 5.87959 1.9427 5.00084 1.9427C4.07584 1.9427 3.15084 1.98895 2.22584 2.0352C1.94834 2.08145 1.67084 2.2202 1.43959 2.45145C1.20834 2.72895 1.11584 2.9602 1.11584 3.2377L1.85584 31.7739C1.90209 32.0514 1.99459 32.2827 2.17959 32.4677C2.41084 32.6527 2.64209 32.7452 2.87334 32.6989C3.10459 32.6527 3.33584 32.6527 3.56709 32.6527C3.75209 32.6527 3.98334 32.6527 4.21459 32.6527L6.57334 32.5602C6.75834 32.5602 6.98959 32.5602 7.22084 32.5602C7.40584 32.5139 7.63709 32.5139 7.86834 32.5139C8.14583 32.5139 8.37709 32.3752 8.56209 32.1902C8.74709 32.0052 8.83959 31.7739 8.83959 31.4502V23.2639L10.5971 21.5064L18.8296 33.1614Z" fill="black"/>
<path d="M66.0971 36.5837C65.5421 36.5837 65.0796 36.3988 64.6171 36.0287C64.1546 35.6587 63.9234 35.15 63.9234 34.41L62.8134 32.19L63.4609 9.94375L63.3221 9.7125C63.2759 9.57375 63.2296 9.435 63.1834 9.29625C63.1371 9.20375 63.0909 9.01875 63.0446 8.88C62.8134 8.14 62.5821 7.3075 62.3509 6.33625C62.1659 5.365 62.0734 4.48625 62.0734 3.7C62.0734 3.37625 62.1196 3.09875 62.2584 2.82125C62.4434 2.54375 62.5821 2.35875 62.8134 2.22C62.9984 2.035 63.1834 1.89625 63.4146 1.7575C63.6459 1.665 63.8771 1.52625 64.1084 1.43375C64.7096 1.2025 65.4034 0.97125 66.1896 0.78625C66.9759 0.60125 67.8084 0.4625 68.6409 0.37C69.4734 0.23125 70.3059 0.13875 71.0921 0.0925C71.8784 0.04625 72.6184 0 73.2659 0C75.8096 0 78.1221 0.4625 80.2496 1.43375C82.3771 2.35875 84.0421 4.02375 85.2446 6.475L86.3546 8.695C86.7709 9.48125 87.0946 10.4062 87.2796 11.3312C87.5109 12.2562 87.6496 13.2737 87.6496 14.2912C87.6496 16.0487 87.2796 17.7137 86.6321 19.3325C85.9846 20.905 85.0134 22.2925 83.7646 23.5413C85.1521 24.79 86.3546 26.2237 87.3721 27.7962C87.4184 27.8887 87.5571 28.0737 87.7421 28.305L88.8059 30.525C88.8984 30.6637 88.9446 30.8025 88.9909 30.9875C89.0834 31.1725 89.0834 31.3575 89.0834 31.5425C89.0834 31.9125 88.9909 32.19 88.8521 32.4212C88.6671 32.6525 88.4821 32.8375 88.2509 32.9762C88.0659 33.0687 87.6496 33.3 87.0946 33.6237C86.5396 33.9475 85.9384 34.2712 85.3371 34.6413L82.7934 35.9362C82.4696 36.0287 82.1921 36.1212 81.9609 36.1212C81.5446 36.1212 81.2209 36.0287 80.9896 35.7975C80.7121 35.6125 80.5271 35.4738 80.4346 35.2887C79.9259 34.6413 79.4171 33.9937 78.9546 33.2537C78.4459 32.5137 77.9371 31.82 77.4284 31.1725C76.9196 30.4787 76.3646 29.8775 75.8559 29.3687C75.3009 28.86 74.6996 28.4437 74.0984 28.12L73.7746 28.0737L73.8671 33.8087C73.9134 34.5487 73.6821 35.0575 73.1734 35.335C72.6646 35.6125 72.2484 35.7975 71.9246 35.8438L66.0971 36.5837ZM58.4659 16.8812L58.1421 22.57C59.9921 19.24 59.5296 17.1125 58.9284 15.725L58.4659 16.8812ZM57.6334 19.61L57.5871 17.575C54.2571 22.6162 49.6321 21.8762 48.8459 22.1537L41.3071 27.2412C37.6071 30.6637 37.2371 32.2825 36.9134 36.7687L36.0346 34.7337C34.9246 34.1787 33.4446 26.1775 33.3521 24.8825L33.1671 25.0212L33.0746 24.9287L33.0284 24.8825C30.6696 23.7725 30.5771 25.1137 29.7446 25.3912L29.6521 25.0675L29.2359 25.2062L28.7271 21.3675L28.4496 21.7375C27.4784 18.7775 28.4496 19.1475 27.9871 17.3438C26.9234 13.3662 29.0046 12.1175 29.1434 10.36L30.9471 6.79875C31.6409 6.475 36.3121 0 47.6896 2.775C52.7771 3.9775 58.0959 8.2325 58.9746 13.69C59.2984 15.7712 62.1659 16.465 58.6046 23.5413L57.1709 24.975L57.4946 20.165L57.6334 19.61ZM58.6509 15.17C57.4484 12.765 57.3559 8.46375 51.7596 5.41125C46.9959 2.82125 42.3709 2.22 37.0059 3.885C34.4621 4.67125 31.7796 6.5675 30.6696 8.92625C31.4096 8.37125 32.2884 8.0475 33.1209 7.63125C31.1321 9.8975 28.6809 11.9788 28.5884 15.2162C29.3746 13.5513 29.9296 12.9037 31.4096 12.8112C30.8546 15.1237 28.9584 15.17 28.9121 19.61L29.7909 19.3325C29.7446 21.7837 29.2821 21.3675 29.8834 24.1887C30.8546 23.4487 31.8721 23.3562 32.9359 23.9112C32.7509 21.9688 32.7971 21.5987 33.6759 20.535C34.5084 22.755 33.8146 23.7262 35.2021 29.7388C35.2946 30.2938 35.4334 30.895 35.6184 31.45C35.8496 27.0562 36.4971 23.0325 38.9946 19.61L40.4746 19.055C37.8846 23.68 37.0059 25.9462 36.7746 31.8662C39.6421 24.3737 48.2909 23.6337 51.5284 17.8525L52.8696 17.3438C52.6384 18.7312 51.6209 19.9338 50.5109 21.1362C55.9684 20.2575 56.5234 17.02 58.4196 14.7537L58.6509 15.17ZM29.7909 25.0212L29.6984 25.0675L29.7909 25.1137V25.0212ZM29.2821 25.16H29.2359V25.2062L29.2821 25.16ZM33.1671 25.0212H33.1209H33.1671ZM33.2134 24.975L33.2596 24.8825L33.2134 24.9287V24.975ZM47.0421 8.46375C43.7121 7.585 43.5734 8.88 41.7234 7.35375C44.3134 6.475 46.8109 6.98375 49.5396 7.955C50.9271 8.46375 51.2046 8.695 51.2971 9.7125C50.0946 9.805 49.4471 9.065 47.0421 8.46375ZM36.0346 7.26125C36.5434 5.78125 44.0359 3.09875 50.5571 6.61375L51.8521 7.955C49.5859 8.92625 46.8109 3.4225 37.8384 7.35375L35.8959 7.63125L36.0346 7.26125ZM63.9234 32.2362C63.9234 33.0687 64.3396 33.3925 65.2646 33.2075L70.6759 32.5137C70.9534 32.5137 71.1846 32.4212 71.4159 32.2362C71.6009 32.0975 71.6934 31.9125 71.6471 31.635L71.5084 24.605C71.8321 24.605 72.0634 24.605 72.2484 24.5587C73.0346 24.6975 73.7746 25.0212 74.4684 25.53C75.2084 26.085 75.8559 26.7325 76.5034 27.4725C77.1971 28.2125 77.7984 28.9987 78.3996 29.8775C79.0009 30.7562 79.6021 31.5887 80.2034 32.375C80.3884 32.6525 80.6196 32.7912 80.8509 32.7912C81.0821 32.7912 81.3596 32.6987 81.6834 32.5137L86.5859 29.785C86.9096 29.6462 87.0021 29.415 86.8634 29.1375C86.7246 28.86 86.5859 28.6287 86.4471 28.3975C85.6146 27.1025 84.6434 25.9462 83.5796 24.8825C82.4696 23.8187 81.2671 22.8937 80.0184 22.0612C81.4984 21.09 82.6546 19.8875 83.5334 18.5C84.3659 17.1587 84.9209 15.725 85.1984 14.1987C85.5221 12.7188 85.4759 11.1925 85.1984 9.7125C84.8746 8.18625 84.2734 6.845 83.4409 5.6425C82.6084 4.39375 81.4984 3.4225 80.1109 2.59C78.7696 1.7575 77.1509 1.295 75.3009 1.2025C73.4509 1.06375 71.5546 1.11 69.6121 1.34125C67.6696 1.5725 65.8196 1.98875 64.1084 2.59C63.8771 2.6825 63.6921 2.82125 63.4609 3.0525C63.2759 3.2375 63.1834 3.46875 63.1834 3.7C63.1834 4.02375 63.1834 4.39375 63.2759 4.9025C63.3684 5.365 63.4146 5.87375 63.5534 6.3825C63.6459 6.89125 63.7384 7.35375 63.8771 7.81625C64.0159 8.325 64.1546 8.695 64.2471 8.9725C64.2934 9.25 64.4321 9.435 64.6171 9.57375L63.9234 32.2362ZM77.3821 12.1637C77.3821 13.8287 76.8734 15.2162 75.9484 16.3262C74.9771 17.4362 73.4509 18.1762 71.4159 18.5L71.1846 8.00125C73.2196 7.81625 74.7459 8.14 75.8096 8.88C76.8271 9.66625 77.3821 10.73 77.3821 12.1637ZM76.2721 12.025C75.5321 11.5162 74.5609 11.285 73.4509 11.285L73.4971 16.7425C74.5146 16.2337 75.2084 15.6325 75.6246 14.8462C76.0409 14.06 76.2721 13.135 76.2721 12.025ZM72.9884 25.9462C72.8959 25.9462 72.8034 25.9 72.6646 25.8538L72.9884 25.9462ZM114.197 34.3638C114.151 34.8725 113.92 35.335 113.55 35.705C113.133 36.075 112.671 36.26 112.116 36.26C109.711 36.1675 107.306 36.1212 104.901 36.075C102.542 36.0287 100.137 36.0287 97.7321 36.0287C97.2234 36.0287 96.6684 36.0287 96.1134 36.0287C95.5584 36.0287 95.0496 35.9825 94.4946 35.9362C93.9859 35.89 93.4771 35.6125 93.0609 35.1962C92.5984 34.7337 92.4134 34.225 92.4134 33.6237L91.3034 31.4037L91.9509 9.25C91.8584 9.11125 91.8121 9.01875 91.8121 8.92625C91.7659 8.83375 91.7659 8.7875 91.7196 8.695C91.6734 8.6025 91.6271 8.46375 91.6271 8.37125C91.6271 8.2325 91.6271 8.14 91.5809 8.00125C91.5346 7.4 91.5346 6.7525 91.5346 6.15125C91.4884 5.55 91.4884 4.9025 91.4884 4.30125V3.9775C91.4884 3.2375 91.6271 2.4975 91.8584 1.85C92.0896 1.2025 92.6909 0.87875 93.6159 0.8325C96.5296 0.78625 99.3971 0.69375 102.357 0.6475C105.271 0.555 108.138 0.50875 111.006 0.50875C111.237 0.50875 111.422 0.555 111.561 0.555C111.746 0.555 111.977 0.60125 112.255 0.69375C112.532 0.8325 112.81 1.06375 113.041 1.34125C113.226 1.61875 113.365 1.98875 113.365 2.405L113.688 3.145C114.197 3.515 114.475 3.9775 114.475 4.57875L113.827 10.6375C113.781 11.2387 113.55 11.7475 113.18 12.1637C112.81 12.5337 112.255 12.7187 111.561 12.7187L102.357 12.4875V13.4125L108.138 13.2737C108.508 13.2737 108.786 13.32 109.017 13.4587C109.202 13.5975 109.387 13.7825 109.526 13.9675C109.618 14.1525 109.711 14.3375 109.757 14.5225C109.803 14.7075 109.803 14.8462 109.803 14.9387L110.22 15.7712C110.497 15.9562 110.682 16.1875 110.775 16.5112C110.821 16.7887 110.867 17.02 110.913 17.1587C110.96 17.575 110.96 17.9912 110.96 18.4075C110.96 18.7775 110.96 19.1938 110.96 19.61C110.96 20.1187 110.96 20.6275 110.96 21.09C110.96 21.5987 110.913 22.1075 110.867 22.6162C110.821 23.0325 110.59 23.4487 110.266 23.8187C109.896 24.235 109.433 24.42 108.878 24.3737L102.357 24.0962V24.5125L111.422 24.3737C111.746 24.3737 112.07 24.4662 112.255 24.5587C112.486 24.6975 112.671 24.8825 112.81 25.0675C112.948 25.2525 113.041 25.4375 113.087 25.6687C113.087 25.8537 113.133 26.0387 113.133 26.1312L113.503 26.8712C113.781 27.0562 113.966 27.3337 114.058 27.6112C114.151 27.935 114.197 28.1662 114.243 28.3512C114.29 28.8137 114.29 29.2762 114.29 29.6925C114.29 30.155 114.29 30.6175 114.29 31.08C114.29 31.5887 114.29 32.1437 114.29 32.6987C114.29 33.2537 114.243 33.8088 114.197 34.3638ZM93.5234 32.6062C94.4021 32.6525 95.1884 32.6987 95.9746 32.6987C96.7609 32.745 97.5934 32.6987 98.4721 32.6525L111.052 32.93C111.283 32.93 111.515 32.8837 111.7 32.6987C111.885 32.5137 111.977 32.3288 111.977 32.0975C112.023 31.3112 112.07 30.34 112.07 29.23C112.116 28.0737 112.07 27.1025 112.023 26.2237C111.977 25.715 111.746 25.4837 111.422 25.4837L100.183 25.6687V20.72L107.815 21.0437C108.046 21.0437 108.231 20.9975 108.416 20.8125C108.555 20.6737 108.647 20.4887 108.647 20.2575C108.74 19.5637 108.74 18.7312 108.786 17.7137C108.786 16.6962 108.786 15.8175 108.693 15.0312C108.693 14.615 108.508 14.3837 108.185 14.3837L100.183 14.615V9.11125L110.497 9.38875C111.191 9.38875 111.561 9.065 111.607 8.325L112.208 2.54375C112.255 2.26625 112.208 2.035 112.07 1.89625C111.931 1.71125 111.561 1.61875 110.913 1.61875L93.6621 1.9425C93.3846 1.9425 93.1534 2.035 92.9684 2.22C92.7371 2.405 92.6446 2.63625 92.6446 2.91375C92.5984 3.885 92.5984 4.76375 92.6446 5.4575C92.6446 6.1975 92.6446 7.03 92.6909 7.955C92.7371 8.4175 92.8296 8.695 93.0609 8.83375L92.4134 31.4037C92.4134 31.6812 92.5521 31.9587 92.7371 32.19C92.9684 32.4212 93.2459 32.56 93.5234 32.6062ZM126.453 35.705C125.205 35.7975 123.956 35.8438 122.707 35.8438H121.828L120.58 35.7513C120.163 35.705 119.701 35.52 119.192 35.1962C118.683 34.8725 118.406 34.3175 118.406 33.485L117.296 31.265L117.481 3.28375C117.481 2.63625 117.666 2.17375 118.082 1.80375C118.498 1.43375 119.007 1.24875 119.562 1.24875C120.395 1.24875 121.227 1.24875 122.106 1.24875C122.985 1.24875 123.817 1.24875 124.65 1.34125C125.112 1.34125 125.528 1.48 125.852 1.7575L126.176 2.1275C126.268 2.17375 126.315 2.22 126.315 2.3125C126.315 2.35875 126.361 2.405 126.407 2.4975L133.668 13.7362L133.807 2.22C133.807 1.43375 134.038 0.97125 134.547 0.74C135.01 0.50875 135.426 0.41625 135.75 0.41625C136.12 0.37 136.536 0.37 136.906 0.37C137.23 0.37 137.6 0.37 137.97 0.37C138.571 0.37 139.218 0.37 139.866 0.37C140.467 0.37 141.115 0.41625 141.67 0.50875C142.225 0.555 142.687 0.78625 143.15 1.24875C143.566 1.665 143.797 2.22 143.751 2.775L143.936 3.145C144.213 3.37625 144.445 3.65375 144.583 3.9775C144.768 4.255 144.861 4.625 144.861 4.995L143.797 33.5775C143.797 34.225 143.566 34.7337 143.103 35.0575C142.687 35.3812 142.225 35.52 141.716 35.52C141.392 35.52 141.068 35.52 140.791 35.52C140.467 35.4738 140.143 35.4737 139.82 35.4275C139.311 35.4275 138.756 35.3812 138.201 35.3812C137.646 35.3812 137.137 35.3812 136.582 35.2887C136.258 35.2425 135.981 35.15 135.657 35.0112C135.38 34.8725 135.148 34.595 134.963 34.2712L128.165 23.0325L128.35 33.8087C128.35 34.1787 128.303 34.5025 128.165 34.7337C128.026 34.965 127.887 35.15 127.656 35.2887C127.471 35.4275 127.24 35.52 127.008 35.5662C126.777 35.6125 126.592 35.6587 126.453 35.705ZM119.516 32.4675C120.487 32.5137 121.412 32.5137 122.291 32.5137C123.17 32.4675 124.187 32.4675 125.251 32.375C125.898 32.3287 126.176 32.0513 126.176 31.5887L125.852 16.7425L134.778 31.4962C135.01 31.82 135.287 31.9587 135.565 32.005C135.796 32.005 136.027 32.0513 136.258 32.0513C136.49 32.0513 136.721 32.0513 136.906 32.0975L139.311 32.19C139.496 32.19 139.727 32.19 139.958 32.19C140.143 32.19 140.375 32.19 140.606 32.19C140.883 32.2362 141.115 32.19 141.3 32.005C141.485 31.82 141.577 31.5887 141.577 31.3112L142.641 2.72875C142.641 2.4975 142.548 2.22 142.317 1.98875C142.086 1.71125 141.855 1.5725 141.531 1.5725C140.606 1.52625 139.681 1.48 138.802 1.48C137.877 1.43375 136.906 1.43375 135.842 1.52625C135.241 1.52625 134.917 1.7575 134.917 2.26625L134.732 17.39L125.482 3.09875C125.343 2.63625 125.02 2.45125 124.557 2.45125C123.632 2.35875 122.8 2.35875 122.06 2.35875C121.32 2.405 120.487 2.35875 119.562 2.35875C119.285 2.3125 119.053 2.405 118.868 2.59C118.683 2.775 118.591 3.00625 118.591 3.28375L118.406 31.265C118.406 31.5425 118.545 31.82 118.776 32.0513C119.007 32.3288 119.238 32.4675 119.516 32.4675Z" fill="black"/>
<defs>
<linearGradient id="paint0_linear_89_267" x1="359.969" y1="0.878809" x2="359.969" y2="33.7163" gradientUnits="userSpaceOnUse">
<stop stop-color="#FFFEE4"/>
<stop offset="1" stop-color="#FDD30F"/>
</linearGradient>
</defs>
</svg>
