<svg width="130" height="34" viewBox="0 0 130 34" fill="none" xmlns="http://www.w3.org/2000/svg">
<path d="M20.285 33.0351C20.135 33.0951 20 33.1551 19.88 33.2151C19.79 33.2751 19.685 33.3051 19.565 33.3051C19.235 33.3051 18.935 33.1101 18.665 32.7201L10.295 20.8851L8.54004 22.6851V31.0101C8.54004 31.3101 8.43504 31.5651 8.22504 31.7751C8.04504 31.9551 7.82004 32.0601 7.55004 32.0901C7.31004 32.0901 7.07004 32.0901 6.83004 32.0901C6.62004 32.1201 6.41004 32.1351 6.20004 32.1351L3.81504 32.2251C3.57504 32.2251 3.35004 32.2251 3.14004 32.2251C2.93004 32.2251 2.70504 32.2401 2.46504 32.2701C2.19504 32.3001 1.95504 32.2101 1.74504 32.0001C1.56504 31.8201 1.46004 31.5951 1.43004 31.3251L0.665039 2.30009C0.665039 2.03009 0.770039 1.77509 0.980039 1.53509C1.22004 1.26509 1.49004 1.11509 1.79004 1.08509C2.75004 1.02509 3.68004 0.995094 4.58004 0.995094C5.51004 0.995094 6.51504 1.02509 7.59504 1.08509C8.22504 1.08509 8.54004 1.34009 8.54004 1.85009V11.7501L18.26 0.635093C18.44 0.455094 18.62 0.365094 18.8 0.365094C18.98 0.365094 19.205 0.470093 19.475 0.680092C20.345 1.37009 21.2 2.01509 22.04 2.61509C22.91 3.21509 23.69 3.86009 24.38 4.55009C24.59 4.73009 24.695 5.00009 24.695 5.36009C24.695 5.69009 24.59 5.96009 24.38 6.17009L15.47 15.4851L25.595 28.2201C25.775 28.4601 25.865 28.7451 25.865 29.0751C25.895 29.3751 25.745 29.6301 25.415 29.8401L20.285 33.0351Z" fill="white"/>
<path d="M20.285 33.0351C20.135 33.0951 20 33.1551 19.88 33.2151C19.79 33.2751 19.685 33.3051 19.565 33.3051C19.235 33.3051 18.935 33.1101 18.665 32.7201L10.295 20.8851L8.54004 22.6851V31.0101C8.54004 31.3101 8.43504 31.5651 8.22504 31.7751C8.04504 31.9551 7.82004 32.0601 7.55004 32.0901C7.31004 32.0901 7.07004 32.0901 6.83004 32.0901C6.62004 32.1201 6.41004 32.1351 6.20004 32.1351L3.81504 32.2251C3.57504 32.2251 3.35004 32.2251 3.14004 32.2251C2.93004 32.2251 2.70504 32.2401 2.46504 32.2701C2.19504 32.3001 1.95504 32.2101 1.74504 32.0001C1.56504 31.8201 1.46004 31.5951 1.43004 31.3251L0.665039 2.30009C0.665039 2.03009 0.770039 1.77509 0.980039 1.53509C1.22004 1.26509 1.49004 1.11509 1.79004 1.08509C2.75004 1.02509 3.68004 0.995094 4.58004 0.995094C5.51004 0.995094 6.51504 1.02509 7.59504 1.08509C8.22504 1.08509 8.54004 1.34009 8.54004 1.85009V11.7501L18.26 0.635093C18.44 0.455094 18.62 0.365094 18.8 0.365094C18.98 0.365094 19.205 0.470093 19.475 0.680092C20.345 1.37009 21.2 2.01509 22.04 2.61509C22.91 3.21509 23.69 3.86009 24.38 4.55009C24.59 4.73009 24.695 5.00009 24.695 5.36009C24.695 5.69009 24.59 5.96009 24.38 6.17009L15.47 15.4851L25.595 28.2201C25.775 28.4601 25.865 28.7451 25.865 29.0751C25.895 29.3751 25.745 29.6301 25.415 29.8401L20.285 33.0351Z" fill="white"/>
<path d="M20.285 33.0351C20.135 33.0951 20 33.1551 19.88 33.2151C19.79 33.2751 19.685 33.3051 19.565 33.3051C19.235 33.3051 18.935 33.1101 18.665 32.7201L10.295 20.8851L8.54004 22.6851V31.0101C8.54004 31.3101 8.43504 31.5651 8.22504 31.7751C8.04504 31.9551 7.82004 32.0601 7.55004 32.0901C7.31004 32.0901 7.07004 32.0901 6.83004 32.0901C6.62004 32.1201 6.41004 32.1351 6.20004 32.1351L3.81504 32.2251C3.57504 32.2251 3.35004 32.2251 3.14004 32.2251C2.93004 32.2251 2.70504 32.2401 2.46504 32.2701C2.19504 32.3001 1.95504 32.2101 1.74504 32.0001C1.56504 31.8201 1.46004 31.5951 1.43004 31.3251L0.665039 2.30009C0.665039 2.03009 0.770039 1.77509 0.980039 1.53509C1.22004 1.26509 1.49004 1.11509 1.79004 1.08509C2.75004 1.02509 3.68004 0.995094 4.58004 0.995094C5.51004 0.995094 6.51504 1.02509 7.59504 1.08509C8.22504 1.08509 8.54004 1.34009 8.54004 1.85009V11.7501L18.26 0.635093C18.44 0.455094 18.62 0.365094 18.8 0.365094C18.98 0.365094 19.205 0.470093 19.475 0.680092C20.345 1.37009 21.2 2.01509 22.04 2.61509C22.91 3.21509 23.69 3.86009 24.38 4.55009C24.59 4.73009 24.695 5.00009 24.695 5.36009C24.695 5.69009 24.59 5.96009 24.38 6.17009L15.47 15.4851L25.595 28.2201C25.775 28.4601 25.865 28.7451 25.865 29.0751C25.895 29.3751 25.745 29.6301 25.415 29.8401L20.285 33.0351Z" fill="white"/>
<path d="M34.6643 31.1451C34.5443 31.4151 34.3493 31.6551 34.0793 31.8651C33.8393 32.0451 33.5843 32.1351 33.3143 32.1351C32.3543 32.1051 31.2593 32.0751 30.0293 32.0451C28.7993 32.0151 27.7043 31.9851 26.7443 31.9551C26.4743 31.9551 26.2643 31.8501 26.1143 31.6401C25.9943 31.4301 25.9793 31.1901 26.0693 30.9201C27.8693 26.0901 29.6393 21.2601 31.3793 16.4301C33.1193 11.5701 34.8893 6.77009 36.6893 2.03009C36.8093 1.70009 37.0043 1.46009 37.2743 1.31009C37.5443 1.13009 37.8443 1.04009 38.1743 1.04009C38.2343 1.01009 38.3543 0.995094 38.5343 0.995094C38.9543 0.995094 39.3143 1.01009 39.6143 1.04009C39.9443 1.04009 40.2443 1.05509 40.5143 1.08509H42.5393C42.6293 1.08509 42.7343 1.11509 42.8543 1.17509H43.0343C43.3043 1.20509 43.5593 1.32509 43.7993 1.53509C44.0693 1.71509 44.2493 1.94009 44.3393 2.21009C44.9393 4.07009 45.5393 5.88509 46.1393 7.65509C46.7393 9.42509 47.3393 11.2101 47.9393 13.0101L50.3243 20.1201C50.9243 21.8901 51.5243 23.6751 52.1243 25.4751C52.7243 27.2451 53.3243 29.0451 53.9243 30.8751C54.0143 31.1751 53.9843 31.4301 53.8343 31.6401C53.7143 31.8201 53.5193 31.8951 53.2493 31.8651C52.2893 31.8351 51.1943 31.8201 49.9643 31.8201C48.7343 31.7901 47.6393 31.7451 46.6793 31.6851C46.4093 31.6851 46.1393 31.5951 45.8693 31.4151C45.5993 31.2051 45.4193 30.9651 45.3293 30.6951C45.0893 29.9451 44.8643 29.2101 44.6543 28.4901C44.4743 27.7701 44.2793 27.0501 44.0693 26.3301H36.1493C35.6693 28.0401 35.1743 29.6451 34.6643 31.1451ZM40.4243 11.2551C40.0043 12.7551 39.5843 14.2401 39.1643 15.7101C38.7743 17.1801 38.3693 18.6801 37.9493 20.2101L42.4043 19.8051C42.0743 18.3651 41.7443 16.9401 41.4143 15.5301C41.0843 14.1201 40.7543 12.6951 40.4243 11.2551Z" fill="white"/>
<path d="M34.6643 31.1451C34.5443 31.4151 34.3493 31.6551 34.0793 31.8651C33.8393 32.0451 33.5843 32.1351 33.3143 32.1351C32.3543 32.1051 31.2593 32.0751 30.0293 32.0451C28.7993 32.0151 27.7043 31.9851 26.7443 31.9551C26.4743 31.9551 26.2643 31.8501 26.1143 31.6401C25.9943 31.4301 25.9793 31.1901 26.0693 30.9201C27.8693 26.0901 29.6393 21.2601 31.3793 16.4301C33.1193 11.5701 34.8893 6.77009 36.6893 2.03009C36.8093 1.70009 37.0043 1.46009 37.2743 1.31009C37.5443 1.13009 37.8443 1.04009 38.1743 1.04009C38.2343 1.01009 38.3543 0.995094 38.5343 0.995094C38.9543 0.995094 39.3143 1.01009 39.6143 1.04009C39.9443 1.04009 40.2443 1.05509 40.5143 1.08509H42.5393C42.6293 1.08509 42.7343 1.11509 42.8543 1.17509H43.0343C43.3043 1.20509 43.5593 1.32509 43.7993 1.53509C44.0693 1.71509 44.2493 1.94009 44.3393 2.21009C44.9393 4.07009 45.5393 5.88509 46.1393 7.65509C46.7393 9.42509 47.3393 11.2101 47.9393 13.0101L50.3243 20.1201C50.9243 21.8901 51.5243 23.6751 52.1243 25.4751C52.7243 27.2451 53.3243 29.0451 53.9243 30.8751C54.0143 31.1751 53.9843 31.4301 53.8343 31.6401C53.7143 31.8201 53.5193 31.8951 53.2493 31.8651C52.2893 31.8351 51.1943 31.8201 49.9643 31.8201C48.7343 31.7901 47.6393 31.7451 46.6793 31.6851C46.4093 31.6851 46.1393 31.5951 45.8693 31.4151C45.5993 31.2051 45.4193 30.9651 45.3293 30.6951C45.0893 29.9451 44.8643 29.2101 44.6543 28.4901C44.4743 27.7701 44.2793 27.0501 44.0693 26.3301H36.1493C35.6693 28.0401 35.1743 29.6451 34.6643 31.1451ZM40.4243 11.2551C40.0043 12.7551 39.5843 14.2401 39.1643 15.7101C38.7743 17.1801 38.3693 18.6801 37.9493 20.2101L42.4043 19.8051C42.0743 18.3651 41.7443 16.9401 41.4143 15.5301C41.0843 14.1201 40.7543 12.6951 40.4243 11.2551Z" fill="white"/>
<path d="M34.6643 31.1451C34.5443 31.4151 34.3493 31.6551 34.0793 31.8651C33.8393 32.0451 33.5843 32.1351 33.3143 32.1351C32.3543 32.1051 31.2593 32.0751 30.0293 32.0451C28.7993 32.0151 27.7043 31.9851 26.7443 31.9551C26.4743 31.9551 26.2643 31.8501 26.1143 31.6401C25.9943 31.4301 25.9793 31.1901 26.0693 30.9201C27.8693 26.0901 29.6393 21.2601 31.3793 16.4301C33.1193 11.5701 34.8893 6.77009 36.6893 2.03009C36.8093 1.70009 37.0043 1.46009 37.2743 1.31009C37.5443 1.13009 37.8443 1.04009 38.1743 1.04009C38.2343 1.01009 38.3543 0.995094 38.5343 0.995094C38.9543 0.995094 39.3143 1.01009 39.6143 1.04009C39.9443 1.04009 40.2443 1.05509 40.5143 1.08509H42.5393C42.6293 1.08509 42.7343 1.11509 42.8543 1.17509H43.0343C43.3043 1.20509 43.5593 1.32509 43.7993 1.53509C44.0693 1.71509 44.2493 1.94009 44.3393 2.21009C44.9393 4.07009 45.5393 5.88509 46.1393 7.65509C46.7393 9.42509 47.3393 11.2101 47.9393 13.0101L50.3243 20.1201C50.9243 21.8901 51.5243 23.6751 52.1243 25.4751C52.7243 27.2451 53.3243 29.0451 53.9243 30.8751C54.0143 31.1751 53.9843 31.4301 53.8343 31.6401C53.7143 31.8201 53.5193 31.8951 53.2493 31.8651C52.2893 31.8351 51.1943 31.8201 49.9643 31.8201C48.7343 31.7901 47.6393 31.7451 46.6793 31.6851C46.4093 31.6851 46.1393 31.5951 45.8693 31.4151C45.5993 31.2051 45.4193 30.9651 45.3293 30.6951C45.0893 29.9451 44.8643 29.2101 44.6543 28.4901C44.4743 27.7701 44.2793 27.0501 44.0693 26.3301H36.1493C35.6693 28.0401 35.1743 29.6451 34.6643 31.1451ZM40.4243 11.2551C40.0043 12.7551 39.5843 14.2401 39.1643 15.7101C38.7743 17.1801 38.3693 18.6801 37.9493 20.2101L42.4043 19.8051C42.0743 18.3651 41.7443 16.9401 41.4143 15.5301C41.0843 14.1201 40.7543 12.6951 40.4243 11.2551Z" fill="white"/>
<path d="M57.3067 32.8101C56.4067 32.9601 55.9567 32.6301 55.9567 31.8201L56.6767 8.73509C56.4667 8.61509 56.3317 8.42009 56.2717 8.15009C56.1817 7.85009 56.0617 7.46009 55.9117 6.98009C55.7917 6.50009 55.6717 6.00509 55.5517 5.49509C55.4617 4.98509 55.3717 4.49009 55.2817 4.01009C55.2217 3.50009 55.1917 3.09509 55.1917 2.79509C55.1917 2.52509 55.2967 2.30009 55.5067 2.12009C55.7167 1.91009 55.9267 1.76009 56.1367 1.67009C57.9067 1.04009 59.7667 0.605093 61.7167 0.365094C63.6967 0.125093 65.6317 0.080093 67.5217 0.230093C69.4117 0.350093 71.0467 0.830093 72.4267 1.67009C73.8367 2.48009 74.9617 3.50009 75.8017 4.73009C76.6717 5.96009 77.2567 7.34009 77.5567 8.87009C77.8867 10.4001 77.9017 11.9301 77.6017 13.4601C77.3317 14.9901 76.7617 16.4601 75.8917 17.8701C75.0217 19.2501 73.8367 20.4501 72.3367 21.4701C73.6267 22.2801 74.8267 23.2251 75.9367 24.3051C77.0467 25.3851 78.0217 26.5851 78.8617 27.9051C79.0117 28.1151 79.1467 28.3701 79.2667 28.6701C79.4167 28.9401 79.3267 29.1501 78.9967 29.3001L74.0467 32.0901C73.6867 32.2701 73.4017 32.3601 73.1917 32.3601C72.9217 32.3601 72.6967 32.2251 72.5167 31.9551C71.9167 31.1451 71.3017 30.3051 70.6717 29.4351C70.0717 28.5351 69.4417 27.7101 68.7817 26.9601C68.1217 26.2101 67.4317 25.5651 66.7117 25.0251C65.9917 24.4551 65.2267 24.1101 64.4167 23.9901C64.2367 24.0201 63.9967 24.0351 63.6967 24.0351L63.8317 31.1901C63.8617 31.4601 63.7717 31.6701 63.5617 31.8201C63.3517 31.9701 63.1117 32.0601 62.8417 32.0901L57.3067 32.8101ZM69.6367 11.3901C69.6367 9.95009 69.0967 8.84009 68.0167 8.06009C66.9667 7.28009 65.4067 6.98009 63.3367 7.16009L63.5617 17.8251C65.6617 17.4951 67.1917 16.7601 68.1517 15.6201C69.1417 14.4801 69.6367 13.0701 69.6367 11.3901Z" fill="white"/>
<path d="M57.3067 32.8101C56.4067 32.9601 55.9567 32.6301 55.9567 31.8201L56.6767 8.73509C56.4667 8.61509 56.3317 8.42009 56.2717 8.15009C56.1817 7.85009 56.0617 7.46009 55.9117 6.98009C55.7917 6.50009 55.6717 6.00509 55.5517 5.49509C55.4617 4.98509 55.3717 4.49009 55.2817 4.01009C55.2217 3.50009 55.1917 3.09509 55.1917 2.79509C55.1917 2.52509 55.2967 2.30009 55.5067 2.12009C55.7167 1.91009 55.9267 1.76009 56.1367 1.67009C57.9067 1.04009 59.7667 0.605093 61.7167 0.365094C63.6967 0.125093 65.6317 0.080093 67.5217 0.230093C69.4117 0.350093 71.0467 0.830093 72.4267 1.67009C73.8367 2.48009 74.9617 3.50009 75.8017 4.73009C76.6717 5.96009 77.2567 7.34009 77.5567 8.87009C77.8867 10.4001 77.9017 11.9301 77.6017 13.4601C77.3317 14.9901 76.7617 16.4601 75.8917 17.8701C75.0217 19.2501 73.8367 20.4501 72.3367 21.4701C73.6267 22.2801 74.8267 23.2251 75.9367 24.3051C77.0467 25.3851 78.0217 26.5851 78.8617 27.9051C79.0117 28.1151 79.1467 28.3701 79.2667 28.6701C79.4167 28.9401 79.3267 29.1501 78.9967 29.3001L74.0467 32.0901C73.6867 32.2701 73.4017 32.3601 73.1917 32.3601C72.9217 32.3601 72.6967 32.2251 72.5167 31.9551C71.9167 31.1451 71.3017 30.3051 70.6717 29.4351C70.0717 28.5351 69.4417 27.7101 68.7817 26.9601C68.1217 26.2101 67.4317 25.5651 66.7117 25.0251C65.9917 24.4551 65.2267 24.1101 64.4167 23.9901C64.2367 24.0201 63.9967 24.0351 63.6967 24.0351L63.8317 31.1901C63.8617 31.4601 63.7717 31.6701 63.5617 31.8201C63.3517 31.9701 63.1117 32.0601 62.8417 32.0901L57.3067 32.8101ZM69.6367 11.3901C69.6367 9.95009 69.0967 8.84009 68.0167 8.06009C66.9667 7.28009 65.4067 6.98009 63.3367 7.16009L63.5617 17.8251C65.6617 17.4951 67.1917 16.7601 68.1517 15.6201C69.1417 14.4801 69.6367 13.0701 69.6367 11.3901Z" fill="white"/>
<path d="M57.3067 32.8101C56.4067 32.9601 55.9567 32.6301 55.9567 31.8201L56.6767 8.73509C56.4667 8.61509 56.3317 8.42009 56.2717 8.15009C56.1817 7.85009 56.0617 7.46009 55.9117 6.98009C55.7917 6.50009 55.6717 6.00509 55.5517 5.49509C55.4617 4.98509 55.3717 4.49009 55.2817 4.01009C55.2217 3.50009 55.1917 3.09509 55.1917 2.79509C55.1917 2.52509 55.2967 2.30009 55.5067 2.12009C55.7167 1.91009 55.9267 1.76009 56.1367 1.67009C57.9067 1.04009 59.7667 0.605093 61.7167 0.365094C63.6967 0.125093 65.6317 0.080093 67.5217 0.230093C69.4117 0.350093 71.0467 0.830093 72.4267 1.67009C73.8367 2.48009 74.9617 3.50009 75.8017 4.73009C76.6717 5.96009 77.2567 7.34009 77.5567 8.87009C77.8867 10.4001 77.9017 11.9301 77.6017 13.4601C77.3317 14.9901 76.7617 16.4601 75.8917 17.8701C75.0217 19.2501 73.8367 20.4501 72.3367 21.4701C73.6267 22.2801 74.8267 23.2251 75.9367 24.3051C77.0467 25.3851 78.0217 26.5851 78.8617 27.9051C79.0117 28.1151 79.1467 28.3701 79.2667 28.6701C79.4167 28.9401 79.3267 29.1501 78.9967 29.3001L74.0467 32.0901C73.6867 32.2701 73.4017 32.3601 73.1917 32.3601C72.9217 32.3601 72.6967 32.2251 72.5167 31.9551C71.9167 31.1451 71.3017 30.3051 70.6717 29.4351C70.0717 28.5351 69.4417 27.7101 68.7817 26.9601C68.1217 26.2101 67.4317 25.5651 66.7117 25.0251C65.9917 24.4551 65.2267 24.1101 64.4167 23.9901C64.2367 24.0201 63.9967 24.0351 63.6967 24.0351L63.8317 31.1901C63.8617 31.4601 63.7717 31.6701 63.5617 31.8201C63.3517 31.9701 63.1117 32.0601 62.8417 32.0901L57.3067 32.8101ZM69.6367 11.3901C69.6367 9.95009 69.0967 8.84009 68.0167 8.06009C66.9667 7.28009 65.4067 6.98009 63.3367 7.16009L63.5617 17.8251C65.6617 17.4951 67.1917 16.7601 68.1517 15.6201C69.1417 14.4801 69.6367 13.0701 69.6367 11.3901Z" fill="white"/>
<path d="M101.504 31.6401C101.504 31.8801 101.399 32.0901 101.189 32.2701C101.009 32.4501 100.799 32.5251 100.559 32.4951L87.7794 32.2251C86.8794 32.2851 86.0244 32.3001 85.2144 32.2701C84.4344 32.2701 83.6094 32.2401 82.7394 32.1801C82.4394 32.1501 82.1694 32.0151 81.9294 31.7751C81.7194 31.5051 81.6144 31.2351 81.6144 30.9651L82.2444 8.01509C82.0344 7.86509 81.9144 7.56509 81.8844 7.11509C81.8544 6.15509 81.8244 5.31509 81.7944 4.59509C81.7944 3.84509 81.8094 2.97509 81.8394 1.98509C81.8394 1.71509 81.9444 1.49009 82.1544 1.31009C82.3644 1.10009 82.6044 0.995094 82.8744 0.995094L100.424 0.680092C101.054 0.680092 101.444 0.770092 101.594 0.950092C101.744 1.10009 101.789 1.32509 101.729 1.62509L101.144 7.47509C101.084 8.22509 100.694 8.58509 99.9744 8.55509L89.4894 8.28509V13.8651L97.6344 13.6401C97.9944 13.6401 98.1744 13.8651 98.1744 14.3151C98.2344 15.0951 98.2494 16.0101 98.2194 17.0601C98.2194 18.0801 98.1894 18.9351 98.1294 19.6251C98.1294 19.8351 98.0394 20.0301 97.8594 20.2101C97.6794 20.3601 97.4844 20.4351 97.2744 20.4351L89.4894 20.0751V25.1151L100.919 24.9351C101.279 24.9351 101.489 25.1901 101.549 25.7001C101.609 26.5701 101.624 27.5901 101.594 28.7601C101.594 29.9001 101.564 30.8601 101.504 31.6401Z" fill="white"/>
<path d="M101.504 31.6401C101.504 31.8801 101.399 32.0901 101.189 32.2701C101.009 32.4501 100.799 32.5251 100.559 32.4951L87.7794 32.2251C86.8794 32.2851 86.0244 32.3001 85.2144 32.2701C84.4344 32.2701 83.6094 32.2401 82.7394 32.1801C82.4394 32.1501 82.1694 32.0151 81.9294 31.7751C81.7194 31.5051 81.6144 31.2351 81.6144 30.9651L82.2444 8.01509C82.0344 7.86509 81.9144 7.56509 81.8844 7.11509C81.8544 6.15509 81.8244 5.31509 81.7944 4.59509C81.7944 3.84509 81.8094 2.97509 81.8394 1.98509C81.8394 1.71509 81.9444 1.49009 82.1544 1.31009C82.3644 1.10009 82.6044 0.995094 82.8744 0.995094L100.424 0.680092C101.054 0.680092 101.444 0.770092 101.594 0.950092C101.744 1.10009 101.789 1.32509 101.729 1.62509L101.144 7.47509C101.084 8.22509 100.694 8.58509 99.9744 8.55509L89.4894 8.28509V13.8651L97.6344 13.6401C97.9944 13.6401 98.1744 13.8651 98.1744 14.3151C98.2344 15.0951 98.2494 16.0101 98.2194 17.0601C98.2194 18.0801 98.1894 18.9351 98.1294 19.6251C98.1294 19.8351 98.0394 20.0301 97.8594 20.2101C97.6794 20.3601 97.4844 20.4351 97.2744 20.4351L89.4894 20.0751V25.1151L100.919 24.9351C101.279 24.9351 101.489 25.1901 101.549 25.7001C101.609 26.5701 101.624 27.5901 101.594 28.7601C101.594 29.9001 101.564 30.8601 101.504 31.6401Z" fill="white"/>
<path d="M101.504 31.6401C101.504 31.8801 101.399 32.0901 101.189 32.2701C101.009 32.4501 100.799 32.5251 100.559 32.4951L87.7794 32.2251C86.8794 32.2851 86.0244 32.3001 85.2144 32.2701C84.4344 32.2701 83.6094 32.2401 82.7394 32.1801C82.4394 32.1501 82.1694 32.0151 81.9294 31.7751C81.7194 31.5051 81.6144 31.2351 81.6144 30.9651L82.2444 8.01509C82.0344 7.86509 81.9144 7.56509 81.8844 7.11509C81.8544 6.15509 81.8244 5.31509 81.7944 4.59509C81.7944 3.84509 81.8094 2.97509 81.8394 1.98509C81.8394 1.71509 81.9444 1.49009 82.1544 1.31009C82.3644 1.10009 82.6044 0.995094 82.8744 0.995094L100.424 0.680092C101.054 0.680092 101.444 0.770092 101.594 0.950092C101.744 1.10009 101.789 1.32509 101.729 1.62509L101.144 7.47509C101.084 8.22509 100.694 8.58509 99.9744 8.55509L89.4894 8.28509V13.8651L97.6344 13.6401C97.9944 13.6401 98.1744 13.8651 98.1744 14.3151C98.2344 15.0951 98.2494 16.0101 98.2194 17.0601C98.2194 18.0801 98.1894 18.9351 98.1294 19.6251C98.1294 19.8351 98.0394 20.0301 97.8594 20.2101C97.6794 20.3601 97.4844 20.4351 97.2744 20.4351L89.4894 20.0751V25.1151L100.919 24.9351C101.279 24.9351 101.489 25.1901 101.549 25.7001C101.609 26.5701 101.624 27.5901 101.594 28.7601C101.594 29.9001 101.564 30.8601 101.504 31.6401Z" fill="white"/>
<path d="M111.665 31.9551C110.555 32.0151 109.55 32.0451 108.65 32.0451C107.75 32.0751 106.805 32.0751 105.815 32.0451C105.545 32.0151 105.29 31.8801 105.05 31.6401C104.81 31.3701 104.69 31.1001 104.69 30.8301L104.87 2.34509C104.87 2.07509 104.96 1.85009 105.14 1.67009C105.35 1.46009 105.59 1.37009 105.86 1.40009C106.82 1.43009 107.66 1.44509 108.38 1.44509C109.13 1.41509 109.985 1.43009 110.945 1.49009C111.425 1.49009 111.74 1.71509 111.89 2.16509L121.295 16.7001L121.475 1.31009C121.475 0.800092 121.79 0.545092 122.42 0.545092C123.5 0.485092 124.49 0.470093 125.39 0.500092C126.32 0.530092 127.265 0.575092 128.225 0.635093C128.525 0.635093 128.78 0.770093 128.99 1.04009C129.23 1.28009 129.35 1.53509 129.35 1.80509L128.27 30.8751C128.27 31.1451 128.165 31.3701 127.955 31.5501C127.775 31.7301 127.55 31.8051 127.28 31.7751C127.04 31.7751 126.8 31.7751 126.56 31.7751C126.35 31.7451 126.14 31.7301 125.93 31.7301L123.5 31.6401C123.29 31.6101 123.065 31.5951 122.825 31.5951C122.615 31.5951 122.39 31.5801 122.15 31.5501C121.85 31.5201 121.58 31.3551 121.34 31.0551L112.25 16.0251L112.565 31.1451C112.595 31.6251 112.295 31.8951 111.665 31.9551Z" fill="white"/>
<path d="M111.665 31.9551C110.555 32.0151 109.55 32.0451 108.65 32.0451C107.75 32.0751 106.805 32.0751 105.815 32.0451C105.545 32.0151 105.29 31.8801 105.05 31.6401C104.81 31.3701 104.69 31.1001 104.69 30.8301L104.87 2.34509C104.87 2.07509 104.96 1.85009 105.14 1.67009C105.35 1.46009 105.59 1.37009 105.86 1.40009C106.82 1.43009 107.66 1.44509 108.38 1.44509C109.13 1.41509 109.985 1.43009 110.945 1.49009C111.425 1.49009 111.74 1.71509 111.89 2.16509L121.295 16.7001L121.475 1.31009C121.475 0.800092 121.79 0.545092 122.42 0.545092C123.5 0.485092 124.49 0.470093 125.39 0.500092C126.32 0.530092 127.265 0.575092 128.225 0.635093C128.525 0.635093 128.78 0.770093 128.99 1.04009C129.23 1.28009 129.35 1.53509 129.35 1.80509L128.27 30.8751C128.27 31.1451 128.165 31.3701 127.955 31.5501C127.775 31.7301 127.55 31.8051 127.28 31.7751C127.04 31.7751 126.8 31.7751 126.56 31.7751C126.35 31.7451 126.14 31.7301 125.93 31.7301L123.5 31.6401C123.29 31.6101 123.065 31.5951 122.825 31.5951C122.615 31.5951 122.39 31.5801 122.15 31.5501C121.85 31.5201 121.58 31.3551 121.34 31.0551L112.25 16.0251L112.565 31.1451C112.595 31.6251 112.295 31.8951 111.665 31.9551Z" fill="white"/>
<path d="M111.665 31.9551C110.555 32.0151 109.55 32.0451 108.65 32.0451C107.75 32.0751 106.805 32.0751 105.815 32.0451C105.545 32.0151 105.29 31.8801 105.05 31.6401C104.81 31.3701 104.69 31.1001 104.69 30.8301L104.87 2.34509C104.87 2.07509 104.96 1.85009 105.14 1.67009C105.35 1.46009 105.59 1.37009 105.86 1.40009C106.82 1.43009 107.66 1.44509 108.38 1.44509C109.13 1.41509 109.985 1.43009 110.945 1.49009C111.425 1.49009 111.74 1.71509 111.89 2.16509L121.295 16.7001L121.475 1.31009C121.475 0.800092 121.79 0.545092 122.42 0.545092C123.5 0.485092 124.49 0.470093 125.39 0.500092C126.32 0.530092 127.265 0.575092 128.225 0.635093C128.525 0.635093 128.78 0.770093 128.99 1.04009C129.23 1.28009 129.35 1.53509 129.35 1.80509L128.27 30.8751C128.27 31.1451 128.165 31.3701 127.955 31.5501C127.775 31.7301 127.55 31.8051 127.28 31.7751C127.04 31.7751 126.8 31.7751 126.56 31.7751C126.35 31.7451 126.14 31.7301 125.93 31.7301L123.5 31.6401C123.29 31.6101 123.065 31.5951 122.825 31.5951C122.615 31.5951 122.39 31.5801 122.15 31.5501C121.85 31.5201 121.58 31.3551 121.34 31.0551L112.25 16.0251L112.565 31.1451C112.595 31.6251 112.295 31.8951 111.665 31.9551Z" fill="white"/>
</svg>
