<svg width="187" height="34" viewBox="0 0 187 34" fill="none" xmlns="http://www.w3.org/2000/svg">
<path d="M48.8593 32.9243C48.7093 32.9843 48.5743 33.0443 48.4543 33.1043C48.3643 33.1643 48.2593 33.1943 48.1393 33.1943C47.8093 33.1943 47.5093 32.9993 47.2393 32.6093L38.8693 20.7743L37.1143 22.5743V30.8993C37.1143 31.1993 37.0093 31.4543 36.7993 31.6643C36.6193 31.8443 36.3943 31.9493 36.1243 31.9793C35.8843 31.9793 35.6443 31.9793 35.4043 31.9793C35.1943 32.0093 34.9843 32.0243 34.7743 32.0243L32.3893 32.1143C32.1493 32.1143 31.9243 32.1143 31.7143 32.1143C31.5043 32.1143 31.2793 32.1293 31.0393 32.1593C30.7693 32.1893 30.5293 32.0993 30.3193 31.8893C30.1393 31.7093 30.0343 31.4843 30.0043 31.2143L29.2393 2.18925C29.2393 1.91925 29.3443 1.66425 29.5543 1.42425C29.7943 1.15425 30.0643 1.00425 30.3643 0.974253C31.3243 0.914253 32.2543 0.884254 33.1543 0.884254C34.0843 0.884254 35.0893 0.914253 36.1693 0.974253C36.7993 0.974253 37.1143 1.22925 37.1143 1.73925V11.6393L46.8343 0.524253C47.0143 0.344254 47.1943 0.254254 47.3743 0.254254C47.5543 0.254254 47.7793 0.359254 48.0493 0.569253C48.9193 1.25925 49.7743 1.90425 50.6143 2.50425C51.4843 3.10425 52.2643 3.74925 52.9543 4.43925C53.1643 4.61925 53.2693 4.88925 53.2693 5.24925C53.2693 5.57925 53.1643 5.84925 52.9543 6.05925L44.0443 15.3743L54.1693 28.1093C54.3493 28.3493 54.4393 28.6343 54.4393 28.9643C54.4693 29.2643 54.3193 29.5193 53.9893 29.7293L48.8593 32.9243Z" fill="white"/>
<path d="M48.8593 32.9243C48.7093 32.9843 48.5743 33.0443 48.4543 33.1043C48.3643 33.1643 48.2593 33.1943 48.1393 33.1943C47.8093 33.1943 47.5093 32.9993 47.2393 32.6093L38.8693 20.7743L37.1143 22.5743V30.8993C37.1143 31.1993 37.0093 31.4543 36.7993 31.6643C36.6193 31.8443 36.3943 31.9493 36.1243 31.9793C35.8843 31.9793 35.6443 31.9793 35.4043 31.9793C35.1943 32.0093 34.9843 32.0243 34.7743 32.0243L32.3893 32.1143C32.1493 32.1143 31.9243 32.1143 31.7143 32.1143C31.5043 32.1143 31.2793 32.1293 31.0393 32.1593C30.7693 32.1893 30.5293 32.0993 30.3193 31.8893C30.1393 31.7093 30.0343 31.4843 30.0043 31.2143L29.2393 2.18925C29.2393 1.91925 29.3443 1.66425 29.5543 1.42425C29.7943 1.15425 30.0643 1.00425 30.3643 0.974253C31.3243 0.914253 32.2543 0.884254 33.1543 0.884254C34.0843 0.884254 35.0893 0.914253 36.1693 0.974253C36.7993 0.974253 37.1143 1.22925 37.1143 1.73925V11.6393L46.8343 0.524253C47.0143 0.344254 47.1943 0.254254 47.3743 0.254254C47.5543 0.254254 47.7793 0.359254 48.0493 0.569253C48.9193 1.25925 49.7743 1.90425 50.6143 2.50425C51.4843 3.10425 52.2643 3.74925 52.9543 4.43925C53.1643 4.61925 53.2693 4.88925 53.2693 5.24925C53.2693 5.57925 53.1643 5.84925 52.9543 6.05925L44.0443 15.3743L54.1693 28.1093C54.3493 28.3493 54.4393 28.6343 54.4393 28.9643C54.4693 29.2643 54.3193 29.5193 53.9893 29.7293L48.8593 32.9243Z" fill="white"/>
<path d="M48.8593 32.9243C48.7093 32.9843 48.5743 33.0443 48.4543 33.1043C48.3643 33.1643 48.2593 33.1943 48.1393 33.1943C47.8093 33.1943 47.5093 32.9993 47.2393 32.6093L38.8693 20.7743L37.1143 22.5743V30.8993C37.1143 31.1993 37.0093 31.4543 36.7993 31.6643C36.6193 31.8443 36.3943 31.9493 36.1243 31.9793C35.8843 31.9793 35.6443 31.9793 35.4043 31.9793C35.1943 32.0093 34.9843 32.0243 34.7743 32.0243L32.3893 32.1143C32.1493 32.1143 31.9243 32.1143 31.7143 32.1143C31.5043 32.1143 31.2793 32.1293 31.0393 32.1593C30.7693 32.1893 30.5293 32.0993 30.3193 31.8893C30.1393 31.7093 30.0343 31.4843 30.0043 31.2143L29.2393 2.18925C29.2393 1.91925 29.3443 1.66425 29.5543 1.42425C29.7943 1.15425 30.0643 1.00425 30.3643 0.974253C31.3243 0.914253 32.2543 0.884254 33.1543 0.884254C34.0843 0.884254 35.0893 0.914253 36.1693 0.974253C36.7993 0.974253 37.1143 1.22925 37.1143 1.73925V11.6393L46.8343 0.524253C47.0143 0.344254 47.1943 0.254254 47.3743 0.254254C47.5543 0.254254 47.7793 0.359254 48.0493 0.569253C48.9193 1.25925 49.7743 1.90425 50.6143 2.50425C51.4843 3.10425 52.2643 3.74925 52.9543 4.43925C53.1643 4.61925 53.2693 4.88925 53.2693 5.24925C53.2693 5.57925 53.1643 5.84925 52.9543 6.05925L44.0443 15.3743L54.1693 28.1093C54.3493 28.3493 54.4393 28.6343 54.4393 28.9643C54.4693 29.2643 54.3193 29.5193 53.9893 29.7293L48.8593 32.9243Z" fill="black"/>
<path d="M63.2385 31.0343C63.1185 31.3043 62.9235 31.5443 62.6535 31.7543C62.4135 31.9343 62.1585 32.0243 61.8885 32.0243C60.9285 31.9943 59.8335 31.9643 58.6035 31.9343C57.3735 31.9043 56.2785 31.8743 55.3185 31.8443C55.0485 31.8443 54.8385 31.7393 54.6885 31.5293C54.5685 31.3193 54.5535 31.0793 54.6435 30.8093C56.4435 25.9793 58.2135 21.1493 59.9535 16.3193C61.6935 11.4593 63.4635 6.65925 65.2635 1.91925C65.3835 1.58925 65.5785 1.34925 65.8485 1.19925C66.1185 1.01925 66.4185 0.929253 66.7485 0.929253C66.8085 0.899254 66.9285 0.884254 67.1085 0.884254C67.5285 0.884254 67.8885 0.899254 68.1885 0.929253C68.5185 0.929253 68.8185 0.944253 69.0885 0.974253H71.1135C71.2035 0.974253 71.3085 1.00425 71.4285 1.06425H71.6085C71.8785 1.09425 72.1335 1.21425 72.3735 1.42425C72.6435 1.60425 72.8235 1.82925 72.9135 2.09925C73.5135 3.95925 74.1135 5.77425 74.7135 7.54425C75.3135 9.31425 75.9135 11.0993 76.5135 12.8993L78.8985 20.0093C79.4985 21.7793 80.0985 23.5643 80.6985 25.3643C81.2985 27.1343 81.8985 28.9343 82.4985 30.7643C82.5885 31.0643 82.5585 31.3193 82.4085 31.5293C82.2885 31.7093 82.0935 31.7843 81.8235 31.7543C80.8635 31.7243 79.7685 31.7093 78.5385 31.7093C77.3085 31.6793 76.2135 31.6343 75.2535 31.5743C74.9835 31.5743 74.7135 31.4843 74.4435 31.3043C74.1735 31.0943 73.9935 30.8543 73.9035 30.5843C73.6635 29.8343 73.4385 29.0993 73.2285 28.3793C73.0485 27.6593 72.8535 26.9393 72.6435 26.2193H64.7235C64.2435 27.9293 63.7485 29.5343 63.2385 31.0343ZM68.9985 11.1443C68.5785 12.6443 68.1585 14.1293 67.7385 15.5993C67.3485 17.0693 66.9435 18.5693 66.5235 20.0993L70.9785 19.6943C70.6485 18.2543 70.3185 16.8293 69.9885 15.4193C69.6585 14.0093 69.3285 12.5843 68.9985 11.1443Z" fill="white"/>
<path d="M63.2385 31.0343C63.1185 31.3043 62.9235 31.5443 62.6535 31.7543C62.4135 31.9343 62.1585 32.0243 61.8885 32.0243C60.9285 31.9943 59.8335 31.9643 58.6035 31.9343C57.3735 31.9043 56.2785 31.8743 55.3185 31.8443C55.0485 31.8443 54.8385 31.7393 54.6885 31.5293C54.5685 31.3193 54.5535 31.0793 54.6435 30.8093C56.4435 25.9793 58.2135 21.1493 59.9535 16.3193C61.6935 11.4593 63.4635 6.65925 65.2635 1.91925C65.3835 1.58925 65.5785 1.34925 65.8485 1.19925C66.1185 1.01925 66.4185 0.929253 66.7485 0.929253C66.8085 0.899254 66.9285 0.884254 67.1085 0.884254C67.5285 0.884254 67.8885 0.899254 68.1885 0.929253C68.5185 0.929253 68.8185 0.944253 69.0885 0.974253H71.1135C71.2035 0.974253 71.3085 1.00425 71.4285 1.06425H71.6085C71.8785 1.09425 72.1335 1.21425 72.3735 1.42425C72.6435 1.60425 72.8235 1.82925 72.9135 2.09925C73.5135 3.95925 74.1135 5.77425 74.7135 7.54425C75.3135 9.31425 75.9135 11.0993 76.5135 12.8993L78.8985 20.0093C79.4985 21.7793 80.0985 23.5643 80.6985 25.3643C81.2985 27.1343 81.8985 28.9343 82.4985 30.7643C82.5885 31.0643 82.5585 31.3193 82.4085 31.5293C82.2885 31.7093 82.0935 31.7843 81.8235 31.7543C80.8635 31.7243 79.7685 31.7093 78.5385 31.7093C77.3085 31.6793 76.2135 31.6343 75.2535 31.5743C74.9835 31.5743 74.7135 31.4843 74.4435 31.3043C74.1735 31.0943 73.9935 30.8543 73.9035 30.5843C73.6635 29.8343 73.4385 29.0993 73.2285 28.3793C73.0485 27.6593 72.8535 26.9393 72.6435 26.2193H64.7235C64.2435 27.9293 63.7485 29.5343 63.2385 31.0343ZM68.9985 11.1443C68.5785 12.6443 68.1585 14.1293 67.7385 15.5993C67.3485 17.0693 66.9435 18.5693 66.5235 20.0993L70.9785 19.6943C70.6485 18.2543 70.3185 16.8293 69.9885 15.4193C69.6585 14.0093 69.3285 12.5843 68.9985 11.1443Z" fill="white"/>
<path d="M63.2385 31.0343C63.1185 31.3043 62.9235 31.5443 62.6535 31.7543C62.4135 31.9343 62.1585 32.0243 61.8885 32.0243C60.9285 31.9943 59.8335 31.9643 58.6035 31.9343C57.3735 31.9043 56.2785 31.8743 55.3185 31.8443C55.0485 31.8443 54.8385 31.7393 54.6885 31.5293C54.5685 31.3193 54.5535 31.0793 54.6435 30.8093C56.4435 25.9793 58.2135 21.1493 59.9535 16.3193C61.6935 11.4593 63.4635 6.65925 65.2635 1.91925C65.3835 1.58925 65.5785 1.34925 65.8485 1.19925C66.1185 1.01925 66.4185 0.929253 66.7485 0.929253C66.8085 0.899254 66.9285 0.884254 67.1085 0.884254C67.5285 0.884254 67.8885 0.899254 68.1885 0.929253C68.5185 0.929253 68.8185 0.944253 69.0885 0.974253H71.1135C71.2035 0.974253 71.3085 1.00425 71.4285 1.06425H71.6085C71.8785 1.09425 72.1335 1.21425 72.3735 1.42425C72.6435 1.60425 72.8235 1.82925 72.9135 2.09925C73.5135 3.95925 74.1135 5.77425 74.7135 7.54425C75.3135 9.31425 75.9135 11.0993 76.5135 12.8993L78.8985 20.0093C79.4985 21.7793 80.0985 23.5643 80.6985 25.3643C81.2985 27.1343 81.8985 28.9343 82.4985 30.7643C82.5885 31.0643 82.5585 31.3193 82.4085 31.5293C82.2885 31.7093 82.0935 31.7843 81.8235 31.7543C80.8635 31.7243 79.7685 31.7093 78.5385 31.7093C77.3085 31.6793 76.2135 31.6343 75.2535 31.5743C74.9835 31.5743 74.7135 31.4843 74.4435 31.3043C74.1735 31.0943 73.9935 30.8543 73.9035 30.5843C73.6635 29.8343 73.4385 29.0993 73.2285 28.3793C73.0485 27.6593 72.8535 26.9393 72.6435 26.2193H64.7235C64.2435 27.9293 63.7485 29.5343 63.2385 31.0343ZM68.9985 11.1443C68.5785 12.6443 68.1585 14.1293 67.7385 15.5993C67.3485 17.0693 66.9435 18.5693 66.5235 20.0993L70.9785 19.6943C70.6485 18.2543 70.3185 16.8293 69.9885 15.4193C69.6585 14.0093 69.3285 12.5843 68.9985 11.1443Z" fill="black"/>
<path d="M85.8809 32.6993C84.9809 32.8493 84.5309 32.5193 84.5309 31.7093L85.2509 8.62425C85.0409 8.50425 84.9059 8.30925 84.8459 8.03925C84.7559 7.73925 84.6359 7.34925 84.4859 6.86925C84.3659 6.38925 84.2459 5.89425 84.1259 5.38425C84.0359 4.87425 83.9459 4.37925 83.8559 3.89925C83.7959 3.38925 83.7659 2.98425 83.7659 2.68425C83.7659 2.41425 83.8709 2.18925 84.0809 2.00925C84.2909 1.79925 84.5009 1.64925 84.7109 1.55925C86.4809 0.929252 88.3409 0.494253 90.2909 0.254254C92.2709 0.0142535 94.2059 -0.0307468 96.0959 0.119253C97.9859 0.239253 99.6209 0.719253 101.001 1.55925C102.411 2.36925 103.536 3.38925 104.376 4.61925C105.246 5.84925 105.831 7.22925 106.131 8.75925C106.461 10.2893 106.476 11.8193 106.176 13.3493C105.906 14.8793 105.336 16.3493 104.466 17.7593C103.596 19.1393 102.411 20.3393 100.911 21.3593C102.201 22.1693 103.401 23.1143 104.511 24.1943C105.621 25.2743 106.596 26.4743 107.436 27.7943C107.586 28.0043 107.721 28.2593 107.841 28.5593C107.991 28.8293 107.901 29.0393 107.571 29.1893L102.621 31.9793C102.261 32.1593 101.976 32.2493 101.766 32.2493C101.496 32.2493 101.271 32.1143 101.091 31.8443C100.491 31.0343 99.8759 30.1943 99.2459 29.3243C98.6459 28.4243 98.0159 27.5993 97.3559 26.8493C96.6959 26.0993 96.0059 25.4543 95.2859 24.9143C94.5659 24.3443 93.8009 23.9993 92.9909 23.8793C92.8109 23.9093 92.5709 23.9243 92.2709 23.9243L92.4059 31.0793C92.4359 31.3493 92.3459 31.5593 92.1359 31.7093C91.9259 31.8593 91.6859 31.9493 91.4159 31.9793L85.8809 32.6993ZM98.2109 11.2793C98.2109 9.83925 97.6709 8.72925 96.5909 7.94925C95.5409 7.16925 93.9809 6.86925 91.9109 7.04925L92.1359 17.7143C94.2359 17.3843 95.7659 16.6493 96.7259 15.5093C97.7159 14.3693 98.2109 12.9593 98.2109 11.2793Z" fill="white"/>
<path d="M85.8809 32.6993C84.9809 32.8493 84.5309 32.5193 84.5309 31.7093L85.2509 8.62425C85.0409 8.50425 84.9059 8.30925 84.8459 8.03925C84.7559 7.73925 84.6359 7.34925 84.4859 6.86925C84.3659 6.38925 84.2459 5.89425 84.1259 5.38425C84.0359 4.87425 83.9459 4.37925 83.8559 3.89925C83.7959 3.38925 83.7659 2.98425 83.7659 2.68425C83.7659 2.41425 83.8709 2.18925 84.0809 2.00925C84.2909 1.79925 84.5009 1.64925 84.7109 1.55925C86.4809 0.929252 88.3409 0.494253 90.2909 0.254254C92.2709 0.0142535 94.2059 -0.0307468 96.0959 0.119253C97.9859 0.239253 99.6209 0.719253 101.001 1.55925C102.411 2.36925 103.536 3.38925 104.376 4.61925C105.246 5.84925 105.831 7.22925 106.131 8.75925C106.461 10.2893 106.476 11.8193 106.176 13.3493C105.906 14.8793 105.336 16.3493 104.466 17.7593C103.596 19.1393 102.411 20.3393 100.911 21.3593C102.201 22.1693 103.401 23.1143 104.511 24.1943C105.621 25.2743 106.596 26.4743 107.436 27.7943C107.586 28.0043 107.721 28.2593 107.841 28.5593C107.991 28.8293 107.901 29.0393 107.571 29.1893L102.621 31.9793C102.261 32.1593 101.976 32.2493 101.766 32.2493C101.496 32.2493 101.271 32.1143 101.091 31.8443C100.491 31.0343 99.8759 30.1943 99.2459 29.3243C98.6459 28.4243 98.0159 27.5993 97.3559 26.8493C96.6959 26.0993 96.0059 25.4543 95.2859 24.9143C94.5659 24.3443 93.8009 23.9993 92.9909 23.8793C92.8109 23.9093 92.5709 23.9243 92.2709 23.9243L92.4059 31.0793C92.4359 31.3493 92.3459 31.5593 92.1359 31.7093C91.9259 31.8593 91.6859 31.9493 91.4159 31.9793L85.8809 32.6993ZM98.2109 11.2793C98.2109 9.83925 97.6709 8.72925 96.5909 7.94925C95.5409 7.16925 93.9809 6.86925 91.9109 7.04925L92.1359 17.7143C94.2359 17.3843 95.7659 16.6493 96.7259 15.5093C97.7159 14.3693 98.2109 12.9593 98.2109 11.2793Z" fill="white"/>
<path d="M85.8809 32.6993C84.9809 32.8493 84.5309 32.5193 84.5309 31.7093L85.2509 8.62425C85.0409 8.50425 84.9059 8.30925 84.8459 8.03925C84.7559 7.73925 84.6359 7.34925 84.4859 6.86925C84.3659 6.38925 84.2459 5.89425 84.1259 5.38425C84.0359 4.87425 83.9459 4.37925 83.8559 3.89925C83.7959 3.38925 83.7659 2.98425 83.7659 2.68425C83.7659 2.41425 83.8709 2.18925 84.0809 2.00925C84.2909 1.79925 84.5009 1.64925 84.7109 1.55925C86.4809 0.929252 88.3409 0.494253 90.2909 0.254254C92.2709 0.0142535 94.2059 -0.0307468 96.0959 0.119253C97.9859 0.239253 99.6209 0.719253 101.001 1.55925C102.411 2.36925 103.536 3.38925 104.376 4.61925C105.246 5.84925 105.831 7.22925 106.131 8.75925C106.461 10.2893 106.476 11.8193 106.176 13.3493C105.906 14.8793 105.336 16.3493 104.466 17.7593C103.596 19.1393 102.411 20.3393 100.911 21.3593C102.201 22.1693 103.401 23.1143 104.511 24.1943C105.621 25.2743 106.596 26.4743 107.436 27.7943C107.586 28.0043 107.721 28.2593 107.841 28.5593C107.991 28.8293 107.901 29.0393 107.571 29.1893L102.621 31.9793C102.261 32.1593 101.976 32.2493 101.766 32.2493C101.496 32.2493 101.271 32.1143 101.091 31.8443C100.491 31.0343 99.8759 30.1943 99.2459 29.3243C98.6459 28.4243 98.0159 27.5993 97.3559 26.8493C96.6959 26.0993 96.0059 25.4543 95.2859 24.9143C94.5659 24.3443 93.8009 23.9993 92.9909 23.8793C92.8109 23.9093 92.5709 23.9243 92.2709 23.9243L92.4059 31.0793C92.4359 31.3493 92.3459 31.5593 92.1359 31.7093C91.9259 31.8593 91.6859 31.9493 91.4159 31.9793L85.8809 32.6993ZM98.2109 11.2793C98.2109 9.83925 97.6709 8.72925 96.5909 7.94925C95.5409 7.16925 93.9809 6.86925 91.9109 7.04925L92.1359 17.7143C94.2359 17.3843 95.7659 16.6493 96.7259 15.5093C97.7159 14.3693 98.2109 12.9593 98.2109 11.2793Z" fill="black"/>
<path d="M130.079 31.5293C130.079 31.7693 129.974 31.9793 129.764 32.1593C129.584 32.3393 129.374 32.4143 129.134 32.3843L116.354 32.1143C115.454 32.1743 114.599 32.1893 113.789 32.1593C113.009 32.1593 112.184 32.1293 111.314 32.0693C111.014 32.0393 110.744 31.9043 110.504 31.6643C110.294 31.3943 110.189 31.1243 110.189 30.8543L110.819 7.90425C110.609 7.75425 110.489 7.45425 110.459 7.00425C110.429 6.04425 110.399 5.20425 110.369 4.48425C110.369 3.73425 110.384 2.86425 110.414 1.87425C110.414 1.60425 110.519 1.37925 110.729 1.19925C110.939 0.989253 111.179 0.884254 111.449 0.884254L128.999 0.569253C129.629 0.569253 130.019 0.659252 130.169 0.839252C130.319 0.989252 130.364 1.21425 130.304 1.51425L129.719 7.36425C129.659 8.11425 129.269 8.47425 128.549 8.44425L118.064 8.17425V13.7543L126.209 13.5293C126.569 13.5293 126.749 13.7543 126.749 14.2043C126.809 14.9843 126.824 15.8993 126.794 16.9493C126.794 17.9693 126.764 18.8243 126.704 19.5143C126.704 19.7243 126.614 19.9193 126.434 20.0993C126.254 20.2493 126.059 20.3243 125.849 20.3243L118.064 19.9643V25.0043L129.494 24.8243C129.854 24.8243 130.064 25.0793 130.124 25.5893C130.184 26.4593 130.199 27.4793 130.169 28.6493C130.169 29.7893 130.139 30.7493 130.079 31.5293Z" fill="white"/>
<path d="M130.079 31.5293C130.079 31.7693 129.974 31.9793 129.764 32.1593C129.584 32.3393 129.374 32.4143 129.134 32.3843L116.354 32.1143C115.454 32.1743 114.599 32.1893 113.789 32.1593C113.009 32.1593 112.184 32.1293 111.314 32.0693C111.014 32.0393 110.744 31.9043 110.504 31.6643C110.294 31.3943 110.189 31.1243 110.189 30.8543L110.819 7.90425C110.609 7.75425 110.489 7.45425 110.459 7.00425C110.429 6.04425 110.399 5.20425 110.369 4.48425C110.369 3.73425 110.384 2.86425 110.414 1.87425C110.414 1.60425 110.519 1.37925 110.729 1.19925C110.939 0.989253 111.179 0.884254 111.449 0.884254L128.999 0.569253C129.629 0.569253 130.019 0.659252 130.169 0.839252C130.319 0.989252 130.364 1.21425 130.304 1.51425L129.719 7.36425C129.659 8.11425 129.269 8.47425 128.549 8.44425L118.064 8.17425V13.7543L126.209 13.5293C126.569 13.5293 126.749 13.7543 126.749 14.2043C126.809 14.9843 126.824 15.8993 126.794 16.9493C126.794 17.9693 126.764 18.8243 126.704 19.5143C126.704 19.7243 126.614 19.9193 126.434 20.0993C126.254 20.2493 126.059 20.3243 125.849 20.3243L118.064 19.9643V25.0043L129.494 24.8243C129.854 24.8243 130.064 25.0793 130.124 25.5893C130.184 26.4593 130.199 27.4793 130.169 28.6493C130.169 29.7893 130.139 30.7493 130.079 31.5293Z" fill="white"/>
<path d="M130.079 31.5293C130.079 31.7693 129.974 31.9793 129.764 32.1593C129.584 32.3393 129.374 32.4143 129.134 32.3843L116.354 32.1143C115.454 32.1743 114.599 32.1893 113.789 32.1593C113.009 32.1593 112.184 32.1293 111.314 32.0693C111.014 32.0393 110.744 31.9043 110.504 31.6643C110.294 31.3943 110.189 31.1243 110.189 30.8543L110.819 7.90425C110.609 7.75425 110.489 7.45425 110.459 7.00425C110.429 6.04425 110.399 5.20425 110.369 4.48425C110.369 3.73425 110.384 2.86425 110.414 1.87425C110.414 1.60425 110.519 1.37925 110.729 1.19925C110.939 0.989253 111.179 0.884254 111.449 0.884254L128.999 0.569253C129.629 0.569253 130.019 0.659252 130.169 0.839252C130.319 0.989252 130.364 1.21425 130.304 1.51425L129.719 7.36425C129.659 8.11425 129.269 8.47425 128.549 8.44425L118.064 8.17425V13.7543L126.209 13.5293C126.569 13.5293 126.749 13.7543 126.749 14.2043C126.809 14.9843 126.824 15.8993 126.794 16.9493C126.794 17.9693 126.764 18.8243 126.704 19.5143C126.704 19.7243 126.614 19.9193 126.434 20.0993C126.254 20.2493 126.059 20.3243 125.849 20.3243L118.064 19.9643V25.0043L129.494 24.8243C129.854 24.8243 130.064 25.0793 130.124 25.5893C130.184 26.4593 130.199 27.4793 130.169 28.6493C130.169 29.7893 130.139 30.7493 130.079 31.5293Z" fill="black"/>
<path d="M140.239 31.8443C139.129 31.9043 138.124 31.9343 137.224 31.9343C136.324 31.9643 135.379 31.9643 134.389 31.9343C134.119 31.9043 133.864 31.7693 133.624 31.5293C133.384 31.2593 133.264 30.9893 133.264 30.7193L133.444 2.23425C133.444 1.96425 133.534 1.73925 133.714 1.55925C133.924 1.34925 134.164 1.25925 134.434 1.28925C135.394 1.31925 136.234 1.33425 136.954 1.33425C137.704 1.30425 138.559 1.31925 139.519 1.37925C139.999 1.37925 140.314 1.60425 140.464 2.05425L149.869 16.5893L150.049 1.19925C150.049 0.689252 150.364 0.434252 150.994 0.434252C152.074 0.374252 153.064 0.359253 153.964 0.389252C154.894 0.419252 155.839 0.464252 156.799 0.524253C157.099 0.524253 157.354 0.659253 157.564 0.929253C157.804 1.16925 157.924 1.42425 157.924 1.69425L156.844 30.7643C156.844 31.0343 156.739 31.2593 156.529 31.4393C156.349 31.6193 156.124 31.6943 155.854 31.6643C155.614 31.6643 155.374 31.6643 155.134 31.6643C154.924 31.6343 154.714 31.6193 154.504 31.6193L152.074 31.5293C151.864 31.4993 151.639 31.4843 151.399 31.4843C151.189 31.4843 150.964 31.4693 150.724 31.4393C150.424 31.4093 150.154 31.2443 149.914 30.9443L140.824 15.9143L141.139 31.0343C141.169 31.5143 140.869 31.7843 140.239 31.8443Z" fill="white"/>
<path d="M140.239 31.8443C139.129 31.9043 138.124 31.9343 137.224 31.9343C136.324 31.9643 135.379 31.9643 134.389 31.9343C134.119 31.9043 133.864 31.7693 133.624 31.5293C133.384 31.2593 133.264 30.9893 133.264 30.7193L133.444 2.23425C133.444 1.96425 133.534 1.73925 133.714 1.55925C133.924 1.34925 134.164 1.25925 134.434 1.28925C135.394 1.31925 136.234 1.33425 136.954 1.33425C137.704 1.30425 138.559 1.31925 139.519 1.37925C139.999 1.37925 140.314 1.60425 140.464 2.05425L149.869 16.5893L150.049 1.19925C150.049 0.689252 150.364 0.434252 150.994 0.434252C152.074 0.374252 153.064 0.359253 153.964 0.389252C154.894 0.419252 155.839 0.464252 156.799 0.524253C157.099 0.524253 157.354 0.659253 157.564 0.929253C157.804 1.16925 157.924 1.42425 157.924 1.69425L156.844 30.7643C156.844 31.0343 156.739 31.2593 156.529 31.4393C156.349 31.6193 156.124 31.6943 155.854 31.6643C155.614 31.6643 155.374 31.6643 155.134 31.6643C154.924 31.6343 154.714 31.6193 154.504 31.6193L152.074 31.5293C151.864 31.4993 151.639 31.4843 151.399 31.4843C151.189 31.4843 150.964 31.4693 150.724 31.4393C150.424 31.4093 150.154 31.2443 149.914 30.9443L140.824 15.9143L141.139 31.0343C141.169 31.5143 140.869 31.7843 140.239 31.8443Z" fill="white"/>
<path d="M140.239 31.8443C139.129 31.9043 138.124 31.9343 137.224 31.9343C136.324 31.9643 135.379 31.9643 134.389 31.9343C134.119 31.9043 133.864 31.7693 133.624 31.5293C133.384 31.2593 133.264 30.9893 133.264 30.7193L133.444 2.23425C133.444 1.96425 133.534 1.73925 133.714 1.55925C133.924 1.34925 134.164 1.25925 134.434 1.28925C135.394 1.31925 136.234 1.33425 136.954 1.33425C137.704 1.30425 138.559 1.31925 139.519 1.37925C139.999 1.37925 140.314 1.60425 140.464 2.05425L149.869 16.5893L150.049 1.19925C150.049 0.689252 150.364 0.434252 150.994 0.434252C152.074 0.374252 153.064 0.359253 153.964 0.389252C154.894 0.419252 155.839 0.464252 156.799 0.524253C157.099 0.524253 157.354 0.659253 157.564 0.929253C157.804 1.16925 157.924 1.42425 157.924 1.69425L156.844 30.7643C156.844 31.0343 156.739 31.2593 156.529 31.4393C156.349 31.6193 156.124 31.6943 155.854 31.6643C155.614 31.6643 155.374 31.6643 155.134 31.6643C154.924 31.6343 154.714 31.6193 154.504 31.6193L152.074 31.5293C151.864 31.4993 151.639 31.4843 151.399 31.4843C151.189 31.4843 150.964 31.4693 150.724 31.4393C150.424 31.4093 150.154 31.2443 149.914 30.9443L140.824 15.9143L141.139 31.0343C141.169 31.5143 140.869 31.7843 140.239 31.8443Z" fill="black"/>
</svg>
